G04 #@! TF.FileFunction,Legend,Bot*
%FSLAX46Y46*%
G04 Gerber Fmt 4.6, Leading zero omitted, Abs format (unit mm)*
G04 Created by KiCad (PCBNEW 0.201603210401+6634~43~ubuntu14.04.1-product) date Fri 08 Apr 2016 01:16:15 PM EDT*
%MOMM*%
G01*
G04 APERTURE LIST*
%ADD10C,0.100000*%
%ADD11C,0.228600*%
%ADD12C,0.381000*%
%ADD13C,0.127000*%
%ADD14C,0.254000*%
%ADD15C,0.190500*%
%ADD16O,1.524000X2.540000*%
%ADD17C,1.930400*%
%ADD18O,4.572000X3.556000*%
%ADD19O,4.064000X5.080000*%
%ADD20O,5.080000X3.556000*%
%ADD21O,5.080000X3.048000*%
%ADD22O,2.032000X1.524000*%
%ADD23O,1.524000X2.032000*%
%ADD24C,3.759200*%
%ADD25O,2.540000X1.524000*%
%ADD26O,1.651000X2.159000*%
%ADD27C,1.600200*%
%ADD28R,1.778000X4.191000*%
%ADD29R,2.997200X5.029200*%
%ADD30R,1.270000X2.032000*%
%ADD31R,2.540000X2.540000*%
%ADD32O,2.540000X2.540000*%
%ADD33R,1.270000X2.540000*%
G04 APERTURE END LIST*
D10*
D11*
X211455000Y-75311000D02*
X93345000Y-75311000D01*
X211455000Y-130429000D02*
X211455000Y-75311000D01*
X93345000Y-130429000D02*
X211455000Y-130429000D01*
X93345000Y-75311000D02*
X93345000Y-130429000D01*
D12*
X210185000Y-71120000D02*
X197485000Y-71120000D01*
X197485000Y-71120000D02*
X197485000Y-85090000D01*
X210185000Y-71120000D02*
X210185000Y-85090000D01*
X210185000Y-85090000D02*
X197485000Y-85090000D01*
X197485000Y-134620000D02*
X210185000Y-134620000D01*
X210185000Y-134620000D02*
X210185000Y-120650000D01*
X197485000Y-134620000D02*
X197485000Y-120650000D01*
X197485000Y-120650000D02*
X210185000Y-120650000D01*
X117983000Y-85471000D02*
G75*
G03X117983000Y-85471000I-508000J0D01*
G01*
X115443000Y-84201000D02*
X124587000Y-84201000D01*
X124587000Y-84201000D02*
X124587000Y-89789000D01*
X124587000Y-89789000D02*
X115443000Y-89789000D01*
X115443000Y-89789000D02*
X115443000Y-84201000D01*
X138303000Y-85471000D02*
G75*
G03X138303000Y-85471000I-508000J0D01*
G01*
X135763000Y-84201000D02*
X144907000Y-84201000D01*
X144907000Y-84201000D02*
X144907000Y-89789000D01*
X144907000Y-89789000D02*
X135763000Y-89789000D01*
X135763000Y-89789000D02*
X135763000Y-84201000D01*
X158623000Y-85471000D02*
G75*
G03X158623000Y-85471000I-508000J0D01*
G01*
X156083000Y-84201000D02*
X165227000Y-84201000D01*
X165227000Y-84201000D02*
X165227000Y-89789000D01*
X165227000Y-89789000D02*
X156083000Y-89789000D01*
X156083000Y-89789000D02*
X156083000Y-84201000D01*
X178943000Y-85471000D02*
G75*
G03X178943000Y-85471000I-508000J0D01*
G01*
X176403000Y-84201000D02*
X185547000Y-84201000D01*
X185547000Y-84201000D02*
X185547000Y-89789000D01*
X185547000Y-89789000D02*
X176403000Y-89789000D01*
X176403000Y-89789000D02*
X176403000Y-84201000D01*
X117983000Y-107061000D02*
G75*
G03X117983000Y-107061000I-508000J0D01*
G01*
X115443000Y-105791000D02*
X124587000Y-105791000D01*
X124587000Y-105791000D02*
X124587000Y-111379000D01*
X124587000Y-111379000D02*
X115443000Y-111379000D01*
X115443000Y-111379000D02*
X115443000Y-105791000D01*
X138303000Y-107061000D02*
G75*
G03X138303000Y-107061000I-508000J0D01*
G01*
X135763000Y-105791000D02*
X144907000Y-105791000D01*
X144907000Y-105791000D02*
X144907000Y-111379000D01*
X144907000Y-111379000D02*
X135763000Y-111379000D01*
X135763000Y-111379000D02*
X135763000Y-105791000D01*
X158623000Y-107061000D02*
G75*
G03X158623000Y-107061000I-508000J0D01*
G01*
X156083000Y-105791000D02*
X165227000Y-105791000D01*
X165227000Y-105791000D02*
X165227000Y-111379000D01*
X165227000Y-111379000D02*
X156083000Y-111379000D01*
X156083000Y-111379000D02*
X156083000Y-105791000D01*
X178943000Y-107061000D02*
G75*
G03X178943000Y-107061000I-508000J0D01*
G01*
X176403000Y-105791000D02*
X185547000Y-105791000D01*
X185547000Y-105791000D02*
X185547000Y-111379000D01*
X185547000Y-111379000D02*
X176403000Y-111379000D01*
X176403000Y-111379000D02*
X176403000Y-105791000D01*
D13*
X180213000Y-122047000D02*
X178689000Y-122047000D01*
X178689000Y-122047000D02*
X178689000Y-119253000D01*
X178689000Y-119253000D02*
X180213000Y-119253000D01*
X181737000Y-119253000D02*
X183261000Y-119253000D01*
X183261000Y-119253000D02*
X183261000Y-122047000D01*
X183261000Y-122047000D02*
X181737000Y-122047000D01*
X159893000Y-122047000D02*
X158369000Y-122047000D01*
X158369000Y-122047000D02*
X158369000Y-119253000D01*
X158369000Y-119253000D02*
X159893000Y-119253000D01*
X161417000Y-119253000D02*
X162941000Y-119253000D01*
X162941000Y-119253000D02*
X162941000Y-122047000D01*
X162941000Y-122047000D02*
X161417000Y-122047000D01*
X139573000Y-122047000D02*
X138049000Y-122047000D01*
X138049000Y-122047000D02*
X138049000Y-119253000D01*
X138049000Y-119253000D02*
X139573000Y-119253000D01*
X141097000Y-119253000D02*
X142621000Y-119253000D01*
X142621000Y-119253000D02*
X142621000Y-122047000D01*
X142621000Y-122047000D02*
X141097000Y-122047000D01*
X119253000Y-122047000D02*
X117729000Y-122047000D01*
X117729000Y-122047000D02*
X117729000Y-119253000D01*
X117729000Y-119253000D02*
X119253000Y-119253000D01*
X120777000Y-119253000D02*
X122301000Y-119253000D01*
X122301000Y-119253000D02*
X122301000Y-122047000D01*
X122301000Y-122047000D02*
X120777000Y-122047000D01*
X180213000Y-100457000D02*
X178689000Y-100457000D01*
X178689000Y-100457000D02*
X178689000Y-97663000D01*
X178689000Y-97663000D02*
X180213000Y-97663000D01*
X181737000Y-97663000D02*
X183261000Y-97663000D01*
X183261000Y-97663000D02*
X183261000Y-100457000D01*
X183261000Y-100457000D02*
X181737000Y-100457000D01*
X159893000Y-100457000D02*
X158369000Y-100457000D01*
X158369000Y-100457000D02*
X158369000Y-97663000D01*
X158369000Y-97663000D02*
X159893000Y-97663000D01*
X161417000Y-97663000D02*
X162941000Y-97663000D01*
X162941000Y-97663000D02*
X162941000Y-100457000D01*
X162941000Y-100457000D02*
X161417000Y-100457000D01*
X139573000Y-100457000D02*
X138049000Y-100457000D01*
X138049000Y-100457000D02*
X138049000Y-97663000D01*
X138049000Y-97663000D02*
X139573000Y-97663000D01*
X141097000Y-97663000D02*
X142621000Y-97663000D01*
X142621000Y-97663000D02*
X142621000Y-100457000D01*
X142621000Y-100457000D02*
X141097000Y-100457000D01*
X119253000Y-100457000D02*
X117729000Y-100457000D01*
X117729000Y-100457000D02*
X117729000Y-97663000D01*
X117729000Y-97663000D02*
X119253000Y-97663000D01*
X120777000Y-97663000D02*
X122301000Y-97663000D01*
X122301000Y-97663000D02*
X122301000Y-100457000D01*
X122301000Y-100457000D02*
X120777000Y-100457000D01*
X101473000Y-118872000D02*
X99949000Y-118872000D01*
X99949000Y-118872000D02*
X99949000Y-116078000D01*
X99949000Y-116078000D02*
X101473000Y-116078000D01*
X102997000Y-116078000D02*
X104521000Y-116078000D01*
X104521000Y-116078000D02*
X104521000Y-118872000D01*
X104521000Y-118872000D02*
X102997000Y-118872000D01*
X105537000Y-107188000D02*
X107061000Y-107188000D01*
X107061000Y-107188000D02*
X107061000Y-109982000D01*
X107061000Y-109982000D02*
X105537000Y-109982000D01*
X104013000Y-109982000D02*
X102489000Y-109982000D01*
X102489000Y-109982000D02*
X102489000Y-107188000D01*
X102489000Y-107188000D02*
X104013000Y-107188000D01*
X199898000Y-109982000D02*
X198374000Y-109982000D01*
X198374000Y-109982000D02*
X198374000Y-107188000D01*
X198374000Y-107188000D02*
X199898000Y-107188000D01*
X201422000Y-107188000D02*
X202946000Y-107188000D01*
X202946000Y-107188000D02*
X202946000Y-109982000D01*
X202946000Y-109982000D02*
X201422000Y-109982000D01*
D14*
X210299904Y-86819619D02*
X210299904Y-85803619D01*
X209912857Y-85803619D01*
X209816095Y-85852000D01*
X209767714Y-85900381D01*
X209719333Y-85997143D01*
X209719333Y-86142286D01*
X209767714Y-86239048D01*
X209816095Y-86287429D01*
X209912857Y-86335810D01*
X210299904Y-86335810D01*
X209380666Y-85803619D02*
X208751714Y-85803619D01*
X209090380Y-86190667D01*
X208945238Y-86190667D01*
X208848476Y-86239048D01*
X208800095Y-86287429D01*
X208751714Y-86384190D01*
X208751714Y-86626095D01*
X208800095Y-86722857D01*
X208848476Y-86771238D01*
X208945238Y-86819619D01*
X209235523Y-86819619D01*
X209332285Y-86771238D01*
X209380666Y-86722857D01*
X198869904Y-119839619D02*
X198869904Y-118823619D01*
X198482857Y-118823619D01*
X198386095Y-118872000D01*
X198337714Y-118920381D01*
X198289333Y-119017143D01*
X198289333Y-119162286D01*
X198337714Y-119259048D01*
X198386095Y-119307429D01*
X198482857Y-119355810D01*
X198869904Y-119355810D01*
X197370095Y-118823619D02*
X197853904Y-118823619D01*
X197902285Y-119307429D01*
X197853904Y-119259048D01*
X197757142Y-119210667D01*
X197515238Y-119210667D01*
X197418476Y-119259048D01*
X197370095Y-119307429D01*
X197321714Y-119404190D01*
X197321714Y-119646095D01*
X197370095Y-119742857D01*
X197418476Y-119791238D01*
X197515238Y-119839619D01*
X197757142Y-119839619D01*
X197853904Y-119791238D01*
X197902285Y-119742857D01*
D15*
X115152714Y-81969429D02*
X115769571Y-81969429D01*
X115842143Y-82005714D01*
X115878429Y-82042000D01*
X115914714Y-82114571D01*
X115914714Y-82259714D01*
X115878429Y-82332286D01*
X115842143Y-82368571D01*
X115769571Y-82404857D01*
X115152714Y-82404857D01*
X115914714Y-83166857D02*
X115914714Y-82731429D01*
X115914714Y-82949143D02*
X115152714Y-82949143D01*
X115261571Y-82876572D01*
X115334143Y-82804000D01*
X115370429Y-82731429D01*
X123643570Y-87303429D02*
X123534713Y-87339714D01*
X123353284Y-87339714D01*
X123280713Y-87303429D01*
X123244427Y-87267143D01*
X123208142Y-87194571D01*
X123208142Y-87122000D01*
X123244427Y-87049429D01*
X123280713Y-87013143D01*
X123353284Y-86976857D01*
X123498427Y-86940571D01*
X123570999Y-86904286D01*
X123607284Y-86868000D01*
X123643570Y-86795429D01*
X123643570Y-86722857D01*
X123607284Y-86650286D01*
X123570999Y-86614000D01*
X123498427Y-86577714D01*
X123316999Y-86577714D01*
X123208142Y-86614000D01*
X122917856Y-87303429D02*
X122808999Y-87339714D01*
X122627570Y-87339714D01*
X122554999Y-87303429D01*
X122518713Y-87267143D01*
X122482428Y-87194571D01*
X122482428Y-87122000D01*
X122518713Y-87049429D01*
X122554999Y-87013143D01*
X122627570Y-86976857D01*
X122772713Y-86940571D01*
X122845285Y-86904286D01*
X122881570Y-86868000D01*
X122917856Y-86795429D01*
X122917856Y-86722857D01*
X122881570Y-86650286D01*
X122845285Y-86614000D01*
X122772713Y-86577714D01*
X122591285Y-86577714D01*
X122482428Y-86614000D01*
X121720428Y-87339714D02*
X121974428Y-86976857D01*
X122155856Y-87339714D02*
X122155856Y-86577714D01*
X121865571Y-86577714D01*
X121792999Y-86614000D01*
X121756714Y-86650286D01*
X121720428Y-86722857D01*
X121720428Y-86831714D01*
X121756714Y-86904286D01*
X121792999Y-86940571D01*
X121865571Y-86976857D01*
X122155856Y-86976857D01*
X121575285Y-87412286D02*
X120994714Y-87412286D01*
X120813285Y-87339714D02*
X120813285Y-86577714D01*
X120631857Y-86577714D01*
X120523000Y-86614000D01*
X120450428Y-86686571D01*
X120414143Y-86759143D01*
X120377857Y-86904286D01*
X120377857Y-87013143D01*
X120414143Y-87158286D01*
X120450428Y-87230857D01*
X120523000Y-87303429D01*
X120631857Y-87339714D01*
X120813285Y-87339714D01*
X119615857Y-87267143D02*
X119652143Y-87303429D01*
X119761000Y-87339714D01*
X119833571Y-87339714D01*
X119942428Y-87303429D01*
X120015000Y-87230857D01*
X120051285Y-87158286D01*
X120087571Y-87013143D01*
X120087571Y-86904286D01*
X120051285Y-86759143D01*
X120015000Y-86686571D01*
X119942428Y-86614000D01*
X119833571Y-86577714D01*
X119761000Y-86577714D01*
X119652143Y-86614000D01*
X119615857Y-86650286D01*
X119470714Y-87412286D02*
X118890143Y-87412286D01*
X118382143Y-86577714D02*
X118527286Y-86577714D01*
X118599857Y-86614000D01*
X118636143Y-86650286D01*
X118708714Y-86759143D01*
X118745000Y-86904286D01*
X118745000Y-87194571D01*
X118708714Y-87267143D01*
X118672429Y-87303429D01*
X118599857Y-87339714D01*
X118454714Y-87339714D01*
X118382143Y-87303429D01*
X118345857Y-87267143D01*
X118309572Y-87194571D01*
X118309572Y-87013143D01*
X118345857Y-86940571D01*
X118382143Y-86904286D01*
X118454714Y-86868000D01*
X118599857Y-86868000D01*
X118672429Y-86904286D01*
X118708714Y-86940571D01*
X118745000Y-87013143D01*
X117983000Y-87339714D02*
X117983000Y-86577714D01*
X117692715Y-86577714D01*
X117620143Y-86614000D01*
X117583858Y-86650286D01*
X117547572Y-86722857D01*
X117547572Y-86831714D01*
X117583858Y-86904286D01*
X117620143Y-86940571D01*
X117692715Y-86976857D01*
X117983000Y-86976857D01*
X117221000Y-87339714D02*
X117221000Y-86577714D01*
X116858143Y-87339714D02*
X116858143Y-86577714D01*
X116422715Y-87339714D01*
X116422715Y-86577714D01*
X135472714Y-81969429D02*
X136089571Y-81969429D01*
X136162143Y-82005714D01*
X136198429Y-82042000D01*
X136234714Y-82114571D01*
X136234714Y-82259714D01*
X136198429Y-82332286D01*
X136162143Y-82368571D01*
X136089571Y-82404857D01*
X135472714Y-82404857D01*
X135545286Y-82731429D02*
X135509000Y-82767715D01*
X135472714Y-82840286D01*
X135472714Y-83021715D01*
X135509000Y-83094286D01*
X135545286Y-83130572D01*
X135617857Y-83166857D01*
X135690429Y-83166857D01*
X135799286Y-83130572D01*
X136234714Y-82695143D01*
X136234714Y-83166857D01*
X143963570Y-87303429D02*
X143854713Y-87339714D01*
X143673284Y-87339714D01*
X143600713Y-87303429D01*
X143564427Y-87267143D01*
X143528142Y-87194571D01*
X143528142Y-87122000D01*
X143564427Y-87049429D01*
X143600713Y-87013143D01*
X143673284Y-86976857D01*
X143818427Y-86940571D01*
X143890999Y-86904286D01*
X143927284Y-86868000D01*
X143963570Y-86795429D01*
X143963570Y-86722857D01*
X143927284Y-86650286D01*
X143890999Y-86614000D01*
X143818427Y-86577714D01*
X143636999Y-86577714D01*
X143528142Y-86614000D01*
X143237856Y-87303429D02*
X143128999Y-87339714D01*
X142947570Y-87339714D01*
X142874999Y-87303429D01*
X142838713Y-87267143D01*
X142802428Y-87194571D01*
X142802428Y-87122000D01*
X142838713Y-87049429D01*
X142874999Y-87013143D01*
X142947570Y-86976857D01*
X143092713Y-86940571D01*
X143165285Y-86904286D01*
X143201570Y-86868000D01*
X143237856Y-86795429D01*
X143237856Y-86722857D01*
X143201570Y-86650286D01*
X143165285Y-86614000D01*
X143092713Y-86577714D01*
X142911285Y-86577714D01*
X142802428Y-86614000D01*
X142040428Y-87339714D02*
X142294428Y-86976857D01*
X142475856Y-87339714D02*
X142475856Y-86577714D01*
X142185571Y-86577714D01*
X142112999Y-86614000D01*
X142076714Y-86650286D01*
X142040428Y-86722857D01*
X142040428Y-86831714D01*
X142076714Y-86904286D01*
X142112999Y-86940571D01*
X142185571Y-86976857D01*
X142475856Y-86976857D01*
X141895285Y-87412286D02*
X141314714Y-87412286D01*
X141133285Y-87339714D02*
X141133285Y-86577714D01*
X140951857Y-86577714D01*
X140843000Y-86614000D01*
X140770428Y-86686571D01*
X140734143Y-86759143D01*
X140697857Y-86904286D01*
X140697857Y-87013143D01*
X140734143Y-87158286D01*
X140770428Y-87230857D01*
X140843000Y-87303429D01*
X140951857Y-87339714D01*
X141133285Y-87339714D01*
X139935857Y-87267143D02*
X139972143Y-87303429D01*
X140081000Y-87339714D01*
X140153571Y-87339714D01*
X140262428Y-87303429D01*
X140335000Y-87230857D01*
X140371285Y-87158286D01*
X140407571Y-87013143D01*
X140407571Y-86904286D01*
X140371285Y-86759143D01*
X140335000Y-86686571D01*
X140262428Y-86614000D01*
X140153571Y-86577714D01*
X140081000Y-86577714D01*
X139972143Y-86614000D01*
X139935857Y-86650286D01*
X139790714Y-87412286D02*
X139210143Y-87412286D01*
X138702143Y-86577714D02*
X138847286Y-86577714D01*
X138919857Y-86614000D01*
X138956143Y-86650286D01*
X139028714Y-86759143D01*
X139065000Y-86904286D01*
X139065000Y-87194571D01*
X139028714Y-87267143D01*
X138992429Y-87303429D01*
X138919857Y-87339714D01*
X138774714Y-87339714D01*
X138702143Y-87303429D01*
X138665857Y-87267143D01*
X138629572Y-87194571D01*
X138629572Y-87013143D01*
X138665857Y-86940571D01*
X138702143Y-86904286D01*
X138774714Y-86868000D01*
X138919857Y-86868000D01*
X138992429Y-86904286D01*
X139028714Y-86940571D01*
X139065000Y-87013143D01*
X138303000Y-87339714D02*
X138303000Y-86577714D01*
X138012715Y-86577714D01*
X137940143Y-86614000D01*
X137903858Y-86650286D01*
X137867572Y-86722857D01*
X137867572Y-86831714D01*
X137903858Y-86904286D01*
X137940143Y-86940571D01*
X138012715Y-86976857D01*
X138303000Y-86976857D01*
X137541000Y-87339714D02*
X137541000Y-86577714D01*
X137178143Y-87339714D02*
X137178143Y-86577714D01*
X136742715Y-87339714D01*
X136742715Y-86577714D01*
X155792714Y-81969429D02*
X156409571Y-81969429D01*
X156482143Y-82005714D01*
X156518429Y-82042000D01*
X156554714Y-82114571D01*
X156554714Y-82259714D01*
X156518429Y-82332286D01*
X156482143Y-82368571D01*
X156409571Y-82404857D01*
X155792714Y-82404857D01*
X155792714Y-82695143D02*
X155792714Y-83166857D01*
X156083000Y-82912857D01*
X156083000Y-83021715D01*
X156119286Y-83094286D01*
X156155571Y-83130572D01*
X156228143Y-83166857D01*
X156409571Y-83166857D01*
X156482143Y-83130572D01*
X156518429Y-83094286D01*
X156554714Y-83021715D01*
X156554714Y-82804000D01*
X156518429Y-82731429D01*
X156482143Y-82695143D01*
X164283570Y-87303429D02*
X164174713Y-87339714D01*
X163993284Y-87339714D01*
X163920713Y-87303429D01*
X163884427Y-87267143D01*
X163848142Y-87194571D01*
X163848142Y-87122000D01*
X163884427Y-87049429D01*
X163920713Y-87013143D01*
X163993284Y-86976857D01*
X164138427Y-86940571D01*
X164210999Y-86904286D01*
X164247284Y-86868000D01*
X164283570Y-86795429D01*
X164283570Y-86722857D01*
X164247284Y-86650286D01*
X164210999Y-86614000D01*
X164138427Y-86577714D01*
X163956999Y-86577714D01*
X163848142Y-86614000D01*
X163557856Y-87303429D02*
X163448999Y-87339714D01*
X163267570Y-87339714D01*
X163194999Y-87303429D01*
X163158713Y-87267143D01*
X163122428Y-87194571D01*
X163122428Y-87122000D01*
X163158713Y-87049429D01*
X163194999Y-87013143D01*
X163267570Y-86976857D01*
X163412713Y-86940571D01*
X163485285Y-86904286D01*
X163521570Y-86868000D01*
X163557856Y-86795429D01*
X163557856Y-86722857D01*
X163521570Y-86650286D01*
X163485285Y-86614000D01*
X163412713Y-86577714D01*
X163231285Y-86577714D01*
X163122428Y-86614000D01*
X162360428Y-87339714D02*
X162614428Y-86976857D01*
X162795856Y-87339714D02*
X162795856Y-86577714D01*
X162505571Y-86577714D01*
X162432999Y-86614000D01*
X162396714Y-86650286D01*
X162360428Y-86722857D01*
X162360428Y-86831714D01*
X162396714Y-86904286D01*
X162432999Y-86940571D01*
X162505571Y-86976857D01*
X162795856Y-86976857D01*
X162215285Y-87412286D02*
X161634714Y-87412286D01*
X161453285Y-87339714D02*
X161453285Y-86577714D01*
X161271857Y-86577714D01*
X161163000Y-86614000D01*
X161090428Y-86686571D01*
X161054143Y-86759143D01*
X161017857Y-86904286D01*
X161017857Y-87013143D01*
X161054143Y-87158286D01*
X161090428Y-87230857D01*
X161163000Y-87303429D01*
X161271857Y-87339714D01*
X161453285Y-87339714D01*
X160255857Y-87267143D02*
X160292143Y-87303429D01*
X160401000Y-87339714D01*
X160473571Y-87339714D01*
X160582428Y-87303429D01*
X160655000Y-87230857D01*
X160691285Y-87158286D01*
X160727571Y-87013143D01*
X160727571Y-86904286D01*
X160691285Y-86759143D01*
X160655000Y-86686571D01*
X160582428Y-86614000D01*
X160473571Y-86577714D01*
X160401000Y-86577714D01*
X160292143Y-86614000D01*
X160255857Y-86650286D01*
X160110714Y-87412286D02*
X159530143Y-87412286D01*
X159022143Y-86577714D02*
X159167286Y-86577714D01*
X159239857Y-86614000D01*
X159276143Y-86650286D01*
X159348714Y-86759143D01*
X159385000Y-86904286D01*
X159385000Y-87194571D01*
X159348714Y-87267143D01*
X159312429Y-87303429D01*
X159239857Y-87339714D01*
X159094714Y-87339714D01*
X159022143Y-87303429D01*
X158985857Y-87267143D01*
X158949572Y-87194571D01*
X158949572Y-87013143D01*
X158985857Y-86940571D01*
X159022143Y-86904286D01*
X159094714Y-86868000D01*
X159239857Y-86868000D01*
X159312429Y-86904286D01*
X159348714Y-86940571D01*
X159385000Y-87013143D01*
X158623000Y-87339714D02*
X158623000Y-86577714D01*
X158332715Y-86577714D01*
X158260143Y-86614000D01*
X158223858Y-86650286D01*
X158187572Y-86722857D01*
X158187572Y-86831714D01*
X158223858Y-86904286D01*
X158260143Y-86940571D01*
X158332715Y-86976857D01*
X158623000Y-86976857D01*
X157861000Y-87339714D02*
X157861000Y-86577714D01*
X157498143Y-87339714D02*
X157498143Y-86577714D01*
X157062715Y-87339714D01*
X157062715Y-86577714D01*
X176112714Y-81969429D02*
X176729571Y-81969429D01*
X176802143Y-82005714D01*
X176838429Y-82042000D01*
X176874714Y-82114571D01*
X176874714Y-82259714D01*
X176838429Y-82332286D01*
X176802143Y-82368571D01*
X176729571Y-82404857D01*
X176112714Y-82404857D01*
X176366714Y-83094286D02*
X176874714Y-83094286D01*
X176076429Y-82912857D02*
X176620714Y-82731429D01*
X176620714Y-83203143D01*
X184603570Y-87303429D02*
X184494713Y-87339714D01*
X184313284Y-87339714D01*
X184240713Y-87303429D01*
X184204427Y-87267143D01*
X184168142Y-87194571D01*
X184168142Y-87122000D01*
X184204427Y-87049429D01*
X184240713Y-87013143D01*
X184313284Y-86976857D01*
X184458427Y-86940571D01*
X184530999Y-86904286D01*
X184567284Y-86868000D01*
X184603570Y-86795429D01*
X184603570Y-86722857D01*
X184567284Y-86650286D01*
X184530999Y-86614000D01*
X184458427Y-86577714D01*
X184276999Y-86577714D01*
X184168142Y-86614000D01*
X183877856Y-87303429D02*
X183768999Y-87339714D01*
X183587570Y-87339714D01*
X183514999Y-87303429D01*
X183478713Y-87267143D01*
X183442428Y-87194571D01*
X183442428Y-87122000D01*
X183478713Y-87049429D01*
X183514999Y-87013143D01*
X183587570Y-86976857D01*
X183732713Y-86940571D01*
X183805285Y-86904286D01*
X183841570Y-86868000D01*
X183877856Y-86795429D01*
X183877856Y-86722857D01*
X183841570Y-86650286D01*
X183805285Y-86614000D01*
X183732713Y-86577714D01*
X183551285Y-86577714D01*
X183442428Y-86614000D01*
X182680428Y-87339714D02*
X182934428Y-86976857D01*
X183115856Y-87339714D02*
X183115856Y-86577714D01*
X182825571Y-86577714D01*
X182752999Y-86614000D01*
X182716714Y-86650286D01*
X182680428Y-86722857D01*
X182680428Y-86831714D01*
X182716714Y-86904286D01*
X182752999Y-86940571D01*
X182825571Y-86976857D01*
X183115856Y-86976857D01*
X182535285Y-87412286D02*
X181954714Y-87412286D01*
X181773285Y-87339714D02*
X181773285Y-86577714D01*
X181591857Y-86577714D01*
X181483000Y-86614000D01*
X181410428Y-86686571D01*
X181374143Y-86759143D01*
X181337857Y-86904286D01*
X181337857Y-87013143D01*
X181374143Y-87158286D01*
X181410428Y-87230857D01*
X181483000Y-87303429D01*
X181591857Y-87339714D01*
X181773285Y-87339714D01*
X180575857Y-87267143D02*
X180612143Y-87303429D01*
X180721000Y-87339714D01*
X180793571Y-87339714D01*
X180902428Y-87303429D01*
X180975000Y-87230857D01*
X181011285Y-87158286D01*
X181047571Y-87013143D01*
X181047571Y-86904286D01*
X181011285Y-86759143D01*
X180975000Y-86686571D01*
X180902428Y-86614000D01*
X180793571Y-86577714D01*
X180721000Y-86577714D01*
X180612143Y-86614000D01*
X180575857Y-86650286D01*
X180430714Y-87412286D02*
X179850143Y-87412286D01*
X179342143Y-86577714D02*
X179487286Y-86577714D01*
X179559857Y-86614000D01*
X179596143Y-86650286D01*
X179668714Y-86759143D01*
X179705000Y-86904286D01*
X179705000Y-87194571D01*
X179668714Y-87267143D01*
X179632429Y-87303429D01*
X179559857Y-87339714D01*
X179414714Y-87339714D01*
X179342143Y-87303429D01*
X179305857Y-87267143D01*
X179269572Y-87194571D01*
X179269572Y-87013143D01*
X179305857Y-86940571D01*
X179342143Y-86904286D01*
X179414714Y-86868000D01*
X179559857Y-86868000D01*
X179632429Y-86904286D01*
X179668714Y-86940571D01*
X179705000Y-87013143D01*
X178943000Y-87339714D02*
X178943000Y-86577714D01*
X178652715Y-86577714D01*
X178580143Y-86614000D01*
X178543858Y-86650286D01*
X178507572Y-86722857D01*
X178507572Y-86831714D01*
X178543858Y-86904286D01*
X178580143Y-86940571D01*
X178652715Y-86976857D01*
X178943000Y-86976857D01*
X178181000Y-87339714D02*
X178181000Y-86577714D01*
X177818143Y-87339714D02*
X177818143Y-86577714D01*
X177382715Y-87339714D01*
X177382715Y-86577714D01*
X115152714Y-103559429D02*
X115769571Y-103559429D01*
X115842143Y-103595714D01*
X115878429Y-103632000D01*
X115914714Y-103704571D01*
X115914714Y-103849714D01*
X115878429Y-103922286D01*
X115842143Y-103958571D01*
X115769571Y-103994857D01*
X115152714Y-103994857D01*
X115152714Y-104720572D02*
X115152714Y-104357715D01*
X115515571Y-104321429D01*
X115479286Y-104357715D01*
X115443000Y-104430286D01*
X115443000Y-104611715D01*
X115479286Y-104684286D01*
X115515571Y-104720572D01*
X115588143Y-104756857D01*
X115769571Y-104756857D01*
X115842143Y-104720572D01*
X115878429Y-104684286D01*
X115914714Y-104611715D01*
X115914714Y-104430286D01*
X115878429Y-104357715D01*
X115842143Y-104321429D01*
X123643570Y-108893429D02*
X123534713Y-108929714D01*
X123353284Y-108929714D01*
X123280713Y-108893429D01*
X123244427Y-108857143D01*
X123208142Y-108784571D01*
X123208142Y-108712000D01*
X123244427Y-108639429D01*
X123280713Y-108603143D01*
X123353284Y-108566857D01*
X123498427Y-108530571D01*
X123570999Y-108494286D01*
X123607284Y-108458000D01*
X123643570Y-108385429D01*
X123643570Y-108312857D01*
X123607284Y-108240286D01*
X123570999Y-108204000D01*
X123498427Y-108167714D01*
X123316999Y-108167714D01*
X123208142Y-108204000D01*
X122917856Y-108893429D02*
X122808999Y-108929714D01*
X122627570Y-108929714D01*
X122554999Y-108893429D01*
X122518713Y-108857143D01*
X122482428Y-108784571D01*
X122482428Y-108712000D01*
X122518713Y-108639429D01*
X122554999Y-108603143D01*
X122627570Y-108566857D01*
X122772713Y-108530571D01*
X122845285Y-108494286D01*
X122881570Y-108458000D01*
X122917856Y-108385429D01*
X122917856Y-108312857D01*
X122881570Y-108240286D01*
X122845285Y-108204000D01*
X122772713Y-108167714D01*
X122591285Y-108167714D01*
X122482428Y-108204000D01*
X121720428Y-108929714D02*
X121974428Y-108566857D01*
X122155856Y-108929714D02*
X122155856Y-108167714D01*
X121865571Y-108167714D01*
X121792999Y-108204000D01*
X121756714Y-108240286D01*
X121720428Y-108312857D01*
X121720428Y-108421714D01*
X121756714Y-108494286D01*
X121792999Y-108530571D01*
X121865571Y-108566857D01*
X122155856Y-108566857D01*
X121575285Y-109002286D02*
X120994714Y-109002286D01*
X120813285Y-108929714D02*
X120813285Y-108167714D01*
X120631857Y-108167714D01*
X120523000Y-108204000D01*
X120450428Y-108276571D01*
X120414143Y-108349143D01*
X120377857Y-108494286D01*
X120377857Y-108603143D01*
X120414143Y-108748286D01*
X120450428Y-108820857D01*
X120523000Y-108893429D01*
X120631857Y-108929714D01*
X120813285Y-108929714D01*
X119615857Y-108857143D02*
X119652143Y-108893429D01*
X119761000Y-108929714D01*
X119833571Y-108929714D01*
X119942428Y-108893429D01*
X120015000Y-108820857D01*
X120051285Y-108748286D01*
X120087571Y-108603143D01*
X120087571Y-108494286D01*
X120051285Y-108349143D01*
X120015000Y-108276571D01*
X119942428Y-108204000D01*
X119833571Y-108167714D01*
X119761000Y-108167714D01*
X119652143Y-108204000D01*
X119615857Y-108240286D01*
X119470714Y-109002286D02*
X118890143Y-109002286D01*
X118382143Y-108167714D02*
X118527286Y-108167714D01*
X118599857Y-108204000D01*
X118636143Y-108240286D01*
X118708714Y-108349143D01*
X118745000Y-108494286D01*
X118745000Y-108784571D01*
X118708714Y-108857143D01*
X118672429Y-108893429D01*
X118599857Y-108929714D01*
X118454714Y-108929714D01*
X118382143Y-108893429D01*
X118345857Y-108857143D01*
X118309572Y-108784571D01*
X118309572Y-108603143D01*
X118345857Y-108530571D01*
X118382143Y-108494286D01*
X118454714Y-108458000D01*
X118599857Y-108458000D01*
X118672429Y-108494286D01*
X118708714Y-108530571D01*
X118745000Y-108603143D01*
X117983000Y-108929714D02*
X117983000Y-108167714D01*
X117692715Y-108167714D01*
X117620143Y-108204000D01*
X117583858Y-108240286D01*
X117547572Y-108312857D01*
X117547572Y-108421714D01*
X117583858Y-108494286D01*
X117620143Y-108530571D01*
X117692715Y-108566857D01*
X117983000Y-108566857D01*
X117221000Y-108929714D02*
X117221000Y-108167714D01*
X116858143Y-108929714D02*
X116858143Y-108167714D01*
X116422715Y-108929714D01*
X116422715Y-108167714D01*
X135472714Y-103559429D02*
X136089571Y-103559429D01*
X136162143Y-103595714D01*
X136198429Y-103632000D01*
X136234714Y-103704571D01*
X136234714Y-103849714D01*
X136198429Y-103922286D01*
X136162143Y-103958571D01*
X136089571Y-103994857D01*
X135472714Y-103994857D01*
X135472714Y-104684286D02*
X135472714Y-104539143D01*
X135509000Y-104466572D01*
X135545286Y-104430286D01*
X135654143Y-104357715D01*
X135799286Y-104321429D01*
X136089571Y-104321429D01*
X136162143Y-104357715D01*
X136198429Y-104394000D01*
X136234714Y-104466572D01*
X136234714Y-104611715D01*
X136198429Y-104684286D01*
X136162143Y-104720572D01*
X136089571Y-104756857D01*
X135908143Y-104756857D01*
X135835571Y-104720572D01*
X135799286Y-104684286D01*
X135763000Y-104611715D01*
X135763000Y-104466572D01*
X135799286Y-104394000D01*
X135835571Y-104357715D01*
X135908143Y-104321429D01*
X143963570Y-108893429D02*
X143854713Y-108929714D01*
X143673284Y-108929714D01*
X143600713Y-108893429D01*
X143564427Y-108857143D01*
X143528142Y-108784571D01*
X143528142Y-108712000D01*
X143564427Y-108639429D01*
X143600713Y-108603143D01*
X143673284Y-108566857D01*
X143818427Y-108530571D01*
X143890999Y-108494286D01*
X143927284Y-108458000D01*
X143963570Y-108385429D01*
X143963570Y-108312857D01*
X143927284Y-108240286D01*
X143890999Y-108204000D01*
X143818427Y-108167714D01*
X143636999Y-108167714D01*
X143528142Y-108204000D01*
X143237856Y-108893429D02*
X143128999Y-108929714D01*
X142947570Y-108929714D01*
X142874999Y-108893429D01*
X142838713Y-108857143D01*
X142802428Y-108784571D01*
X142802428Y-108712000D01*
X142838713Y-108639429D01*
X142874999Y-108603143D01*
X142947570Y-108566857D01*
X143092713Y-108530571D01*
X143165285Y-108494286D01*
X143201570Y-108458000D01*
X143237856Y-108385429D01*
X143237856Y-108312857D01*
X143201570Y-108240286D01*
X143165285Y-108204000D01*
X143092713Y-108167714D01*
X142911285Y-108167714D01*
X142802428Y-108204000D01*
X142040428Y-108929714D02*
X142294428Y-108566857D01*
X142475856Y-108929714D02*
X142475856Y-108167714D01*
X142185571Y-108167714D01*
X142112999Y-108204000D01*
X142076714Y-108240286D01*
X142040428Y-108312857D01*
X142040428Y-108421714D01*
X142076714Y-108494286D01*
X142112999Y-108530571D01*
X142185571Y-108566857D01*
X142475856Y-108566857D01*
X141895285Y-109002286D02*
X141314714Y-109002286D01*
X141133285Y-108929714D02*
X141133285Y-108167714D01*
X140951857Y-108167714D01*
X140843000Y-108204000D01*
X140770428Y-108276571D01*
X140734143Y-108349143D01*
X140697857Y-108494286D01*
X140697857Y-108603143D01*
X140734143Y-108748286D01*
X140770428Y-108820857D01*
X140843000Y-108893429D01*
X140951857Y-108929714D01*
X141133285Y-108929714D01*
X139935857Y-108857143D02*
X139972143Y-108893429D01*
X140081000Y-108929714D01*
X140153571Y-108929714D01*
X140262428Y-108893429D01*
X140335000Y-108820857D01*
X140371285Y-108748286D01*
X140407571Y-108603143D01*
X140407571Y-108494286D01*
X140371285Y-108349143D01*
X140335000Y-108276571D01*
X140262428Y-108204000D01*
X140153571Y-108167714D01*
X140081000Y-108167714D01*
X139972143Y-108204000D01*
X139935857Y-108240286D01*
X139790714Y-109002286D02*
X139210143Y-109002286D01*
X138702143Y-108167714D02*
X138847286Y-108167714D01*
X138919857Y-108204000D01*
X138956143Y-108240286D01*
X139028714Y-108349143D01*
X139065000Y-108494286D01*
X139065000Y-108784571D01*
X139028714Y-108857143D01*
X138992429Y-108893429D01*
X138919857Y-108929714D01*
X138774714Y-108929714D01*
X138702143Y-108893429D01*
X138665857Y-108857143D01*
X138629572Y-108784571D01*
X138629572Y-108603143D01*
X138665857Y-108530571D01*
X138702143Y-108494286D01*
X138774714Y-108458000D01*
X138919857Y-108458000D01*
X138992429Y-108494286D01*
X139028714Y-108530571D01*
X139065000Y-108603143D01*
X138303000Y-108929714D02*
X138303000Y-108167714D01*
X138012715Y-108167714D01*
X137940143Y-108204000D01*
X137903858Y-108240286D01*
X137867572Y-108312857D01*
X137867572Y-108421714D01*
X137903858Y-108494286D01*
X137940143Y-108530571D01*
X138012715Y-108566857D01*
X138303000Y-108566857D01*
X137541000Y-108929714D02*
X137541000Y-108167714D01*
X137178143Y-108929714D02*
X137178143Y-108167714D01*
X136742715Y-108929714D01*
X136742715Y-108167714D01*
X155792714Y-103559429D02*
X156409571Y-103559429D01*
X156482143Y-103595714D01*
X156518429Y-103632000D01*
X156554714Y-103704571D01*
X156554714Y-103849714D01*
X156518429Y-103922286D01*
X156482143Y-103958571D01*
X156409571Y-103994857D01*
X155792714Y-103994857D01*
X155792714Y-104285143D02*
X155792714Y-104793143D01*
X156554714Y-104466572D01*
X164283570Y-108893429D02*
X164174713Y-108929714D01*
X163993284Y-108929714D01*
X163920713Y-108893429D01*
X163884427Y-108857143D01*
X163848142Y-108784571D01*
X163848142Y-108712000D01*
X163884427Y-108639429D01*
X163920713Y-108603143D01*
X163993284Y-108566857D01*
X164138427Y-108530571D01*
X164210999Y-108494286D01*
X164247284Y-108458000D01*
X164283570Y-108385429D01*
X164283570Y-108312857D01*
X164247284Y-108240286D01*
X164210999Y-108204000D01*
X164138427Y-108167714D01*
X163956999Y-108167714D01*
X163848142Y-108204000D01*
X163557856Y-108893429D02*
X163448999Y-108929714D01*
X163267570Y-108929714D01*
X163194999Y-108893429D01*
X163158713Y-108857143D01*
X163122428Y-108784571D01*
X163122428Y-108712000D01*
X163158713Y-108639429D01*
X163194999Y-108603143D01*
X163267570Y-108566857D01*
X163412713Y-108530571D01*
X163485285Y-108494286D01*
X163521570Y-108458000D01*
X163557856Y-108385429D01*
X163557856Y-108312857D01*
X163521570Y-108240286D01*
X163485285Y-108204000D01*
X163412713Y-108167714D01*
X163231285Y-108167714D01*
X163122428Y-108204000D01*
X162360428Y-108929714D02*
X162614428Y-108566857D01*
X162795856Y-108929714D02*
X162795856Y-108167714D01*
X162505571Y-108167714D01*
X162432999Y-108204000D01*
X162396714Y-108240286D01*
X162360428Y-108312857D01*
X162360428Y-108421714D01*
X162396714Y-108494286D01*
X162432999Y-108530571D01*
X162505571Y-108566857D01*
X162795856Y-108566857D01*
X162215285Y-109002286D02*
X161634714Y-109002286D01*
X161453285Y-108929714D02*
X161453285Y-108167714D01*
X161271857Y-108167714D01*
X161163000Y-108204000D01*
X161090428Y-108276571D01*
X161054143Y-108349143D01*
X161017857Y-108494286D01*
X161017857Y-108603143D01*
X161054143Y-108748286D01*
X161090428Y-108820857D01*
X161163000Y-108893429D01*
X161271857Y-108929714D01*
X161453285Y-108929714D01*
X160255857Y-108857143D02*
X160292143Y-108893429D01*
X160401000Y-108929714D01*
X160473571Y-108929714D01*
X160582428Y-108893429D01*
X160655000Y-108820857D01*
X160691285Y-108748286D01*
X160727571Y-108603143D01*
X160727571Y-108494286D01*
X160691285Y-108349143D01*
X160655000Y-108276571D01*
X160582428Y-108204000D01*
X160473571Y-108167714D01*
X160401000Y-108167714D01*
X160292143Y-108204000D01*
X160255857Y-108240286D01*
X160110714Y-109002286D02*
X159530143Y-109002286D01*
X159022143Y-108167714D02*
X159167286Y-108167714D01*
X159239857Y-108204000D01*
X159276143Y-108240286D01*
X159348714Y-108349143D01*
X159385000Y-108494286D01*
X159385000Y-108784571D01*
X159348714Y-108857143D01*
X159312429Y-108893429D01*
X159239857Y-108929714D01*
X159094714Y-108929714D01*
X159022143Y-108893429D01*
X158985857Y-108857143D01*
X158949572Y-108784571D01*
X158949572Y-108603143D01*
X158985857Y-108530571D01*
X159022143Y-108494286D01*
X159094714Y-108458000D01*
X159239857Y-108458000D01*
X159312429Y-108494286D01*
X159348714Y-108530571D01*
X159385000Y-108603143D01*
X158623000Y-108929714D02*
X158623000Y-108167714D01*
X158332715Y-108167714D01*
X158260143Y-108204000D01*
X158223858Y-108240286D01*
X158187572Y-108312857D01*
X158187572Y-108421714D01*
X158223858Y-108494286D01*
X158260143Y-108530571D01*
X158332715Y-108566857D01*
X158623000Y-108566857D01*
X157861000Y-108929714D02*
X157861000Y-108167714D01*
X157498143Y-108929714D02*
X157498143Y-108167714D01*
X157062715Y-108929714D01*
X157062715Y-108167714D01*
X176112714Y-103559429D02*
X176729571Y-103559429D01*
X176802143Y-103595714D01*
X176838429Y-103632000D01*
X176874714Y-103704571D01*
X176874714Y-103849714D01*
X176838429Y-103922286D01*
X176802143Y-103958571D01*
X176729571Y-103994857D01*
X176112714Y-103994857D01*
X176439286Y-104466572D02*
X176403000Y-104394000D01*
X176366714Y-104357715D01*
X176294143Y-104321429D01*
X176257857Y-104321429D01*
X176185286Y-104357715D01*
X176149000Y-104394000D01*
X176112714Y-104466572D01*
X176112714Y-104611715D01*
X176149000Y-104684286D01*
X176185286Y-104720572D01*
X176257857Y-104756857D01*
X176294143Y-104756857D01*
X176366714Y-104720572D01*
X176403000Y-104684286D01*
X176439286Y-104611715D01*
X176439286Y-104466572D01*
X176475571Y-104394000D01*
X176511857Y-104357715D01*
X176584429Y-104321429D01*
X176729571Y-104321429D01*
X176802143Y-104357715D01*
X176838429Y-104394000D01*
X176874714Y-104466572D01*
X176874714Y-104611715D01*
X176838429Y-104684286D01*
X176802143Y-104720572D01*
X176729571Y-104756857D01*
X176584429Y-104756857D01*
X176511857Y-104720572D01*
X176475571Y-104684286D01*
X176439286Y-104611715D01*
X184603570Y-108893429D02*
X184494713Y-108929714D01*
X184313284Y-108929714D01*
X184240713Y-108893429D01*
X184204427Y-108857143D01*
X184168142Y-108784571D01*
X184168142Y-108712000D01*
X184204427Y-108639429D01*
X184240713Y-108603143D01*
X184313284Y-108566857D01*
X184458427Y-108530571D01*
X184530999Y-108494286D01*
X184567284Y-108458000D01*
X184603570Y-108385429D01*
X184603570Y-108312857D01*
X184567284Y-108240286D01*
X184530999Y-108204000D01*
X184458427Y-108167714D01*
X184276999Y-108167714D01*
X184168142Y-108204000D01*
X183877856Y-108893429D02*
X183768999Y-108929714D01*
X183587570Y-108929714D01*
X183514999Y-108893429D01*
X183478713Y-108857143D01*
X183442428Y-108784571D01*
X183442428Y-108712000D01*
X183478713Y-108639429D01*
X183514999Y-108603143D01*
X183587570Y-108566857D01*
X183732713Y-108530571D01*
X183805285Y-108494286D01*
X183841570Y-108458000D01*
X183877856Y-108385429D01*
X183877856Y-108312857D01*
X183841570Y-108240286D01*
X183805285Y-108204000D01*
X183732713Y-108167714D01*
X183551285Y-108167714D01*
X183442428Y-108204000D01*
X182680428Y-108929714D02*
X182934428Y-108566857D01*
X183115856Y-108929714D02*
X183115856Y-108167714D01*
X182825571Y-108167714D01*
X182752999Y-108204000D01*
X182716714Y-108240286D01*
X182680428Y-108312857D01*
X182680428Y-108421714D01*
X182716714Y-108494286D01*
X182752999Y-108530571D01*
X182825571Y-108566857D01*
X183115856Y-108566857D01*
X182535285Y-109002286D02*
X181954714Y-109002286D01*
X181773285Y-108929714D02*
X181773285Y-108167714D01*
X181591857Y-108167714D01*
X181483000Y-108204000D01*
X181410428Y-108276571D01*
X181374143Y-108349143D01*
X181337857Y-108494286D01*
X181337857Y-108603143D01*
X181374143Y-108748286D01*
X181410428Y-108820857D01*
X181483000Y-108893429D01*
X181591857Y-108929714D01*
X181773285Y-108929714D01*
X180575857Y-108857143D02*
X180612143Y-108893429D01*
X180721000Y-108929714D01*
X180793571Y-108929714D01*
X180902428Y-108893429D01*
X180975000Y-108820857D01*
X181011285Y-108748286D01*
X181047571Y-108603143D01*
X181047571Y-108494286D01*
X181011285Y-108349143D01*
X180975000Y-108276571D01*
X180902428Y-108204000D01*
X180793571Y-108167714D01*
X180721000Y-108167714D01*
X180612143Y-108204000D01*
X180575857Y-108240286D01*
X180430714Y-109002286D02*
X179850143Y-109002286D01*
X179342143Y-108167714D02*
X179487286Y-108167714D01*
X179559857Y-108204000D01*
X179596143Y-108240286D01*
X179668714Y-108349143D01*
X179705000Y-108494286D01*
X179705000Y-108784571D01*
X179668714Y-108857143D01*
X179632429Y-108893429D01*
X179559857Y-108929714D01*
X179414714Y-108929714D01*
X179342143Y-108893429D01*
X179305857Y-108857143D01*
X179269572Y-108784571D01*
X179269572Y-108603143D01*
X179305857Y-108530571D01*
X179342143Y-108494286D01*
X179414714Y-108458000D01*
X179559857Y-108458000D01*
X179632429Y-108494286D01*
X179668714Y-108530571D01*
X179705000Y-108603143D01*
X178943000Y-108929714D02*
X178943000Y-108167714D01*
X178652715Y-108167714D01*
X178580143Y-108204000D01*
X178543858Y-108240286D01*
X178507572Y-108312857D01*
X178507572Y-108421714D01*
X178543858Y-108494286D01*
X178580143Y-108530571D01*
X178652715Y-108566857D01*
X178943000Y-108566857D01*
X178181000Y-108929714D02*
X178181000Y-108167714D01*
X177818143Y-108929714D02*
X177818143Y-108167714D01*
X177382715Y-108929714D01*
X177382715Y-108167714D01*
D14*
X181144333Y-123395619D02*
X181482999Y-122911810D01*
X181724904Y-123395619D02*
X181724904Y-122379619D01*
X181337857Y-122379619D01*
X181241095Y-122428000D01*
X181192714Y-122476381D01*
X181144333Y-122573143D01*
X181144333Y-122718286D01*
X181192714Y-122815048D01*
X181241095Y-122863429D01*
X181337857Y-122911810D01*
X181724904Y-122911810D01*
X180563761Y-122815048D02*
X180660523Y-122766667D01*
X180708904Y-122718286D01*
X180757285Y-122621524D01*
X180757285Y-122573143D01*
X180708904Y-122476381D01*
X180660523Y-122428000D01*
X180563761Y-122379619D01*
X180370238Y-122379619D01*
X180273476Y-122428000D01*
X180225095Y-122476381D01*
X180176714Y-122573143D01*
X180176714Y-122621524D01*
X180225095Y-122718286D01*
X180273476Y-122766667D01*
X180370238Y-122815048D01*
X180563761Y-122815048D01*
X180660523Y-122863429D01*
X180708904Y-122911810D01*
X180757285Y-123008571D01*
X180757285Y-123202095D01*
X180708904Y-123298857D01*
X180660523Y-123347238D01*
X180563761Y-123395619D01*
X180370238Y-123395619D01*
X180273476Y-123347238D01*
X180225095Y-123298857D01*
X180176714Y-123202095D01*
X180176714Y-123008571D01*
X180225095Y-122911810D01*
X180273476Y-122863429D01*
X180370238Y-122815048D01*
X181749095Y-118146286D02*
X181749095Y-118823619D01*
X181990999Y-117759238D02*
X182232904Y-118484952D01*
X181603952Y-118484952D01*
X181071761Y-118243048D02*
X181168523Y-118194667D01*
X181216904Y-118146286D01*
X181265285Y-118049524D01*
X181265285Y-118001143D01*
X181216904Y-117904381D01*
X181168523Y-117856000D01*
X181071761Y-117807619D01*
X180878238Y-117807619D01*
X180781476Y-117856000D01*
X180733095Y-117904381D01*
X180684714Y-118001143D01*
X180684714Y-118049524D01*
X180733095Y-118146286D01*
X180781476Y-118194667D01*
X180878238Y-118243048D01*
X181071761Y-118243048D01*
X181168523Y-118291429D01*
X181216904Y-118339810D01*
X181265285Y-118436571D01*
X181265285Y-118630095D01*
X181216904Y-118726857D01*
X181168523Y-118775238D01*
X181071761Y-118823619D01*
X180878238Y-118823619D01*
X180781476Y-118775238D01*
X180733095Y-118726857D01*
X180684714Y-118630095D01*
X180684714Y-118436571D01*
X180733095Y-118339810D01*
X180781476Y-118291429D01*
X180878238Y-118243048D01*
X180346047Y-117807619D02*
X179668714Y-117807619D01*
X180104142Y-118823619D01*
X160824333Y-123395619D02*
X161162999Y-122911810D01*
X161404904Y-123395619D02*
X161404904Y-122379619D01*
X161017857Y-122379619D01*
X160921095Y-122428000D01*
X160872714Y-122476381D01*
X160824333Y-122573143D01*
X160824333Y-122718286D01*
X160872714Y-122815048D01*
X160921095Y-122863429D01*
X161017857Y-122911810D01*
X161404904Y-122911810D01*
X160485666Y-122379619D02*
X159808333Y-122379619D01*
X160243761Y-123395619D01*
X161429095Y-118146286D02*
X161429095Y-118823619D01*
X161670999Y-117759238D02*
X161912904Y-118484952D01*
X161283952Y-118484952D01*
X160751761Y-118243048D02*
X160848523Y-118194667D01*
X160896904Y-118146286D01*
X160945285Y-118049524D01*
X160945285Y-118001143D01*
X160896904Y-117904381D01*
X160848523Y-117856000D01*
X160751761Y-117807619D01*
X160558238Y-117807619D01*
X160461476Y-117856000D01*
X160413095Y-117904381D01*
X160364714Y-118001143D01*
X160364714Y-118049524D01*
X160413095Y-118146286D01*
X160461476Y-118194667D01*
X160558238Y-118243048D01*
X160751761Y-118243048D01*
X160848523Y-118291429D01*
X160896904Y-118339810D01*
X160945285Y-118436571D01*
X160945285Y-118630095D01*
X160896904Y-118726857D01*
X160848523Y-118775238D01*
X160751761Y-118823619D01*
X160558238Y-118823619D01*
X160461476Y-118775238D01*
X160413095Y-118726857D01*
X160364714Y-118630095D01*
X160364714Y-118436571D01*
X160413095Y-118339810D01*
X160461476Y-118291429D01*
X160558238Y-118243048D01*
X160026047Y-117807619D02*
X159348714Y-117807619D01*
X159784142Y-118823619D01*
X140504333Y-123395619D02*
X140842999Y-122911810D01*
X141084904Y-123395619D02*
X141084904Y-122379619D01*
X140697857Y-122379619D01*
X140601095Y-122428000D01*
X140552714Y-122476381D01*
X140504333Y-122573143D01*
X140504333Y-122718286D01*
X140552714Y-122815048D01*
X140601095Y-122863429D01*
X140697857Y-122911810D01*
X141084904Y-122911810D01*
X139633476Y-122379619D02*
X139826999Y-122379619D01*
X139923761Y-122428000D01*
X139972142Y-122476381D01*
X140068904Y-122621524D01*
X140117285Y-122815048D01*
X140117285Y-123202095D01*
X140068904Y-123298857D01*
X140020523Y-123347238D01*
X139923761Y-123395619D01*
X139730238Y-123395619D01*
X139633476Y-123347238D01*
X139585095Y-123298857D01*
X139536714Y-123202095D01*
X139536714Y-122960190D01*
X139585095Y-122863429D01*
X139633476Y-122815048D01*
X139730238Y-122766667D01*
X139923761Y-122766667D01*
X140020523Y-122815048D01*
X140068904Y-122863429D01*
X140117285Y-122960190D01*
X141109095Y-118146286D02*
X141109095Y-118823619D01*
X141350999Y-117759238D02*
X141592904Y-118484952D01*
X140963952Y-118484952D01*
X140431761Y-118243048D02*
X140528523Y-118194667D01*
X140576904Y-118146286D01*
X140625285Y-118049524D01*
X140625285Y-118001143D01*
X140576904Y-117904381D01*
X140528523Y-117856000D01*
X140431761Y-117807619D01*
X140238238Y-117807619D01*
X140141476Y-117856000D01*
X140093095Y-117904381D01*
X140044714Y-118001143D01*
X140044714Y-118049524D01*
X140093095Y-118146286D01*
X140141476Y-118194667D01*
X140238238Y-118243048D01*
X140431761Y-118243048D01*
X140528523Y-118291429D01*
X140576904Y-118339810D01*
X140625285Y-118436571D01*
X140625285Y-118630095D01*
X140576904Y-118726857D01*
X140528523Y-118775238D01*
X140431761Y-118823619D01*
X140238238Y-118823619D01*
X140141476Y-118775238D01*
X140093095Y-118726857D01*
X140044714Y-118630095D01*
X140044714Y-118436571D01*
X140093095Y-118339810D01*
X140141476Y-118291429D01*
X140238238Y-118243048D01*
X139706047Y-117807619D02*
X139028714Y-117807619D01*
X139464142Y-118823619D01*
X120184333Y-123395619D02*
X120522999Y-122911810D01*
X120764904Y-123395619D02*
X120764904Y-122379619D01*
X120377857Y-122379619D01*
X120281095Y-122428000D01*
X120232714Y-122476381D01*
X120184333Y-122573143D01*
X120184333Y-122718286D01*
X120232714Y-122815048D01*
X120281095Y-122863429D01*
X120377857Y-122911810D01*
X120764904Y-122911810D01*
X119265095Y-122379619D02*
X119748904Y-122379619D01*
X119797285Y-122863429D01*
X119748904Y-122815048D01*
X119652142Y-122766667D01*
X119410238Y-122766667D01*
X119313476Y-122815048D01*
X119265095Y-122863429D01*
X119216714Y-122960190D01*
X119216714Y-123202095D01*
X119265095Y-123298857D01*
X119313476Y-123347238D01*
X119410238Y-123395619D01*
X119652142Y-123395619D01*
X119748904Y-123347238D01*
X119797285Y-123298857D01*
X120789095Y-118146286D02*
X120789095Y-118823619D01*
X121030999Y-117759238D02*
X121272904Y-118484952D01*
X120643952Y-118484952D01*
X120111761Y-118243048D02*
X120208523Y-118194667D01*
X120256904Y-118146286D01*
X120305285Y-118049524D01*
X120305285Y-118001143D01*
X120256904Y-117904381D01*
X120208523Y-117856000D01*
X120111761Y-117807619D01*
X119918238Y-117807619D01*
X119821476Y-117856000D01*
X119773095Y-117904381D01*
X119724714Y-118001143D01*
X119724714Y-118049524D01*
X119773095Y-118146286D01*
X119821476Y-118194667D01*
X119918238Y-118243048D01*
X120111761Y-118243048D01*
X120208523Y-118291429D01*
X120256904Y-118339810D01*
X120305285Y-118436571D01*
X120305285Y-118630095D01*
X120256904Y-118726857D01*
X120208523Y-118775238D01*
X120111761Y-118823619D01*
X119918238Y-118823619D01*
X119821476Y-118775238D01*
X119773095Y-118726857D01*
X119724714Y-118630095D01*
X119724714Y-118436571D01*
X119773095Y-118339810D01*
X119821476Y-118291429D01*
X119918238Y-118243048D01*
X119386047Y-117807619D02*
X118708714Y-117807619D01*
X119144142Y-118823619D01*
X181144333Y-101805619D02*
X181482999Y-101321810D01*
X181724904Y-101805619D02*
X181724904Y-100789619D01*
X181337857Y-100789619D01*
X181241095Y-100838000D01*
X181192714Y-100886381D01*
X181144333Y-100983143D01*
X181144333Y-101128286D01*
X181192714Y-101225048D01*
X181241095Y-101273429D01*
X181337857Y-101321810D01*
X181724904Y-101321810D01*
X180273476Y-101128286D02*
X180273476Y-101805619D01*
X180515380Y-100741238D02*
X180757285Y-101466952D01*
X180128333Y-101466952D01*
X181749095Y-96556286D02*
X181749095Y-97233619D01*
X181990999Y-96169238D02*
X182232904Y-96894952D01*
X181603952Y-96894952D01*
X181071761Y-96653048D02*
X181168523Y-96604667D01*
X181216904Y-96556286D01*
X181265285Y-96459524D01*
X181265285Y-96411143D01*
X181216904Y-96314381D01*
X181168523Y-96266000D01*
X181071761Y-96217619D01*
X180878238Y-96217619D01*
X180781476Y-96266000D01*
X180733095Y-96314381D01*
X180684714Y-96411143D01*
X180684714Y-96459524D01*
X180733095Y-96556286D01*
X180781476Y-96604667D01*
X180878238Y-96653048D01*
X181071761Y-96653048D01*
X181168523Y-96701429D01*
X181216904Y-96749810D01*
X181265285Y-96846571D01*
X181265285Y-97040095D01*
X181216904Y-97136857D01*
X181168523Y-97185238D01*
X181071761Y-97233619D01*
X180878238Y-97233619D01*
X180781476Y-97185238D01*
X180733095Y-97136857D01*
X180684714Y-97040095D01*
X180684714Y-96846571D01*
X180733095Y-96749810D01*
X180781476Y-96701429D01*
X180878238Y-96653048D01*
X180346047Y-96217619D02*
X179668714Y-96217619D01*
X180104142Y-97233619D01*
X160824333Y-101805619D02*
X161162999Y-101321810D01*
X161404904Y-101805619D02*
X161404904Y-100789619D01*
X161017857Y-100789619D01*
X160921095Y-100838000D01*
X160872714Y-100886381D01*
X160824333Y-100983143D01*
X160824333Y-101128286D01*
X160872714Y-101225048D01*
X160921095Y-101273429D01*
X161017857Y-101321810D01*
X161404904Y-101321810D01*
X160485666Y-100789619D02*
X159856714Y-100789619D01*
X160195380Y-101176667D01*
X160050238Y-101176667D01*
X159953476Y-101225048D01*
X159905095Y-101273429D01*
X159856714Y-101370190D01*
X159856714Y-101612095D01*
X159905095Y-101708857D01*
X159953476Y-101757238D01*
X160050238Y-101805619D01*
X160340523Y-101805619D01*
X160437285Y-101757238D01*
X160485666Y-101708857D01*
X161429095Y-96556286D02*
X161429095Y-97233619D01*
X161670999Y-96169238D02*
X161912904Y-96894952D01*
X161283952Y-96894952D01*
X160751761Y-96653048D02*
X160848523Y-96604667D01*
X160896904Y-96556286D01*
X160945285Y-96459524D01*
X160945285Y-96411143D01*
X160896904Y-96314381D01*
X160848523Y-96266000D01*
X160751761Y-96217619D01*
X160558238Y-96217619D01*
X160461476Y-96266000D01*
X160413095Y-96314381D01*
X160364714Y-96411143D01*
X160364714Y-96459524D01*
X160413095Y-96556286D01*
X160461476Y-96604667D01*
X160558238Y-96653048D01*
X160751761Y-96653048D01*
X160848523Y-96701429D01*
X160896904Y-96749810D01*
X160945285Y-96846571D01*
X160945285Y-97040095D01*
X160896904Y-97136857D01*
X160848523Y-97185238D01*
X160751761Y-97233619D01*
X160558238Y-97233619D01*
X160461476Y-97185238D01*
X160413095Y-97136857D01*
X160364714Y-97040095D01*
X160364714Y-96846571D01*
X160413095Y-96749810D01*
X160461476Y-96701429D01*
X160558238Y-96653048D01*
X160026047Y-96217619D02*
X159348714Y-96217619D01*
X159784142Y-97233619D01*
X140504333Y-101805619D02*
X140842999Y-101321810D01*
X141084904Y-101805619D02*
X141084904Y-100789619D01*
X140697857Y-100789619D01*
X140601095Y-100838000D01*
X140552714Y-100886381D01*
X140504333Y-100983143D01*
X140504333Y-101128286D01*
X140552714Y-101225048D01*
X140601095Y-101273429D01*
X140697857Y-101321810D01*
X141084904Y-101321810D01*
X140117285Y-100886381D02*
X140068904Y-100838000D01*
X139972142Y-100789619D01*
X139730238Y-100789619D01*
X139633476Y-100838000D01*
X139585095Y-100886381D01*
X139536714Y-100983143D01*
X139536714Y-101079905D01*
X139585095Y-101225048D01*
X140165666Y-101805619D01*
X139536714Y-101805619D01*
X141109095Y-96556286D02*
X141109095Y-97233619D01*
X141350999Y-96169238D02*
X141592904Y-96894952D01*
X140963952Y-96894952D01*
X140431761Y-96653048D02*
X140528523Y-96604667D01*
X140576904Y-96556286D01*
X140625285Y-96459524D01*
X140625285Y-96411143D01*
X140576904Y-96314381D01*
X140528523Y-96266000D01*
X140431761Y-96217619D01*
X140238238Y-96217619D01*
X140141476Y-96266000D01*
X140093095Y-96314381D01*
X140044714Y-96411143D01*
X140044714Y-96459524D01*
X140093095Y-96556286D01*
X140141476Y-96604667D01*
X140238238Y-96653048D01*
X140431761Y-96653048D01*
X140528523Y-96701429D01*
X140576904Y-96749810D01*
X140625285Y-96846571D01*
X140625285Y-97040095D01*
X140576904Y-97136857D01*
X140528523Y-97185238D01*
X140431761Y-97233619D01*
X140238238Y-97233619D01*
X140141476Y-97185238D01*
X140093095Y-97136857D01*
X140044714Y-97040095D01*
X140044714Y-96846571D01*
X140093095Y-96749810D01*
X140141476Y-96701429D01*
X140238238Y-96653048D01*
X139706047Y-96217619D02*
X139028714Y-96217619D01*
X139464142Y-97233619D01*
X120184333Y-101805619D02*
X120522999Y-101321810D01*
X120764904Y-101805619D02*
X120764904Y-100789619D01*
X120377857Y-100789619D01*
X120281095Y-100838000D01*
X120232714Y-100886381D01*
X120184333Y-100983143D01*
X120184333Y-101128286D01*
X120232714Y-101225048D01*
X120281095Y-101273429D01*
X120377857Y-101321810D01*
X120764904Y-101321810D01*
X119216714Y-101805619D02*
X119797285Y-101805619D01*
X119506999Y-101805619D02*
X119506999Y-100789619D01*
X119603761Y-100934762D01*
X119700523Y-101031524D01*
X119797285Y-101079905D01*
X120789095Y-96556286D02*
X120789095Y-97233619D01*
X121030999Y-96169238D02*
X121272904Y-96894952D01*
X120643952Y-96894952D01*
X120111761Y-96653048D02*
X120208523Y-96604667D01*
X120256904Y-96556286D01*
X120305285Y-96459524D01*
X120305285Y-96411143D01*
X120256904Y-96314381D01*
X120208523Y-96266000D01*
X120111761Y-96217619D01*
X119918238Y-96217619D01*
X119821476Y-96266000D01*
X119773095Y-96314381D01*
X119724714Y-96411143D01*
X119724714Y-96459524D01*
X119773095Y-96556286D01*
X119821476Y-96604667D01*
X119918238Y-96653048D01*
X120111761Y-96653048D01*
X120208523Y-96701429D01*
X120256904Y-96749810D01*
X120305285Y-96846571D01*
X120305285Y-97040095D01*
X120256904Y-97136857D01*
X120208523Y-97185238D01*
X120111761Y-97233619D01*
X119918238Y-97233619D01*
X119821476Y-97185238D01*
X119773095Y-97136857D01*
X119724714Y-97040095D01*
X119724714Y-96846571D01*
X119773095Y-96749810D01*
X119821476Y-96701429D01*
X119918238Y-96653048D01*
X119386047Y-96217619D02*
X118708714Y-96217619D01*
X119144142Y-97233619D01*
X102404333Y-120123857D02*
X102452714Y-120172238D01*
X102597857Y-120220619D01*
X102694619Y-120220619D01*
X102839761Y-120172238D01*
X102936523Y-120075476D01*
X102984904Y-119978714D01*
X103033285Y-119785190D01*
X103033285Y-119640048D01*
X102984904Y-119446524D01*
X102936523Y-119349762D01*
X102839761Y-119253000D01*
X102694619Y-119204619D01*
X102597857Y-119204619D01*
X102452714Y-119253000D01*
X102404333Y-119301381D01*
X102065666Y-119204619D02*
X101436714Y-119204619D01*
X101775380Y-119591667D01*
X101630238Y-119591667D01*
X101533476Y-119640048D01*
X101485095Y-119688429D01*
X101436714Y-119785190D01*
X101436714Y-120027095D01*
X101485095Y-120123857D01*
X101533476Y-120172238D01*
X101630238Y-120220619D01*
X101920523Y-120220619D01*
X102017285Y-120172238D01*
X102065666Y-120123857D01*
X103323571Y-115648619D02*
X103904142Y-115648619D01*
X103613856Y-115648619D02*
X103613856Y-114632619D01*
X103710618Y-114777762D01*
X103807380Y-114874524D01*
X103904142Y-114922905D01*
X102694618Y-114632619D02*
X102597857Y-114632619D01*
X102501095Y-114681000D01*
X102452714Y-114729381D01*
X102404333Y-114826143D01*
X102355952Y-115019667D01*
X102355952Y-115261571D01*
X102404333Y-115455095D01*
X102452714Y-115551857D01*
X102501095Y-115600238D01*
X102597857Y-115648619D01*
X102694618Y-115648619D01*
X102791380Y-115600238D01*
X102839761Y-115551857D01*
X102888142Y-115455095D01*
X102936523Y-115261571D01*
X102936523Y-115019667D01*
X102888142Y-114826143D01*
X102839761Y-114729381D01*
X102791380Y-114681000D01*
X102694618Y-114632619D01*
X101485095Y-114971286D02*
X101485095Y-115648619D01*
X101920523Y-114971286D02*
X101920523Y-115503476D01*
X101872142Y-115600238D01*
X101775380Y-115648619D01*
X101630238Y-115648619D01*
X101533476Y-115600238D01*
X101485095Y-115551857D01*
X100662619Y-115116429D02*
X101001285Y-115116429D01*
X101001285Y-115648619D02*
X101001285Y-114632619D01*
X100517476Y-114632619D01*
X104944333Y-106661857D02*
X104992714Y-106710238D01*
X105137857Y-106758619D01*
X105234619Y-106758619D01*
X105379761Y-106710238D01*
X105476523Y-106613476D01*
X105524904Y-106516714D01*
X105573285Y-106323190D01*
X105573285Y-106178048D01*
X105524904Y-105984524D01*
X105476523Y-105887762D01*
X105379761Y-105791000D01*
X105234619Y-105742619D01*
X105137857Y-105742619D01*
X104992714Y-105791000D01*
X104944333Y-105839381D01*
X104557285Y-105839381D02*
X104508904Y-105791000D01*
X104412142Y-105742619D01*
X104170238Y-105742619D01*
X104073476Y-105791000D01*
X104025095Y-105839381D01*
X103976714Y-105936143D01*
X103976714Y-106032905D01*
X104025095Y-106178048D01*
X104605666Y-106758619D01*
X103976714Y-106758619D01*
X105863571Y-111330619D02*
X106444142Y-111330619D01*
X106153856Y-111330619D02*
X106153856Y-110314619D01*
X106250618Y-110459762D01*
X106347380Y-110556524D01*
X106444142Y-110604905D01*
X105234618Y-110314619D02*
X105137857Y-110314619D01*
X105041095Y-110363000D01*
X104992714Y-110411381D01*
X104944333Y-110508143D01*
X104895952Y-110701667D01*
X104895952Y-110943571D01*
X104944333Y-111137095D01*
X104992714Y-111233857D01*
X105041095Y-111282238D01*
X105137857Y-111330619D01*
X105234618Y-111330619D01*
X105331380Y-111282238D01*
X105379761Y-111233857D01*
X105428142Y-111137095D01*
X105476523Y-110943571D01*
X105476523Y-110701667D01*
X105428142Y-110508143D01*
X105379761Y-110411381D01*
X105331380Y-110363000D01*
X105234618Y-110314619D01*
X104025095Y-110653286D02*
X104025095Y-111330619D01*
X104460523Y-110653286D02*
X104460523Y-111185476D01*
X104412142Y-111282238D01*
X104315380Y-111330619D01*
X104170238Y-111330619D01*
X104073476Y-111282238D01*
X104025095Y-111233857D01*
X103202619Y-110798429D02*
X103541285Y-110798429D01*
X103541285Y-111330619D02*
X103541285Y-110314619D01*
X103057476Y-110314619D01*
X200829333Y-111233857D02*
X200877714Y-111282238D01*
X201022857Y-111330619D01*
X201119619Y-111330619D01*
X201264761Y-111282238D01*
X201361523Y-111185476D01*
X201409904Y-111088714D01*
X201458285Y-110895190D01*
X201458285Y-110750048D01*
X201409904Y-110556524D01*
X201361523Y-110459762D01*
X201264761Y-110363000D01*
X201119619Y-110314619D01*
X201022857Y-110314619D01*
X200877714Y-110363000D01*
X200829333Y-110411381D01*
X199861714Y-111330619D02*
X200442285Y-111330619D01*
X200151999Y-111330619D02*
X200151999Y-110314619D01*
X200248761Y-110459762D01*
X200345523Y-110556524D01*
X200442285Y-110604905D01*
X201748571Y-106758619D02*
X202329142Y-106758619D01*
X202038856Y-106758619D02*
X202038856Y-105742619D01*
X202135618Y-105887762D01*
X202232380Y-105984524D01*
X202329142Y-106032905D01*
X201119618Y-105742619D02*
X201022857Y-105742619D01*
X200926095Y-105791000D01*
X200877714Y-105839381D01*
X200829333Y-105936143D01*
X200780952Y-106129667D01*
X200780952Y-106371571D01*
X200829333Y-106565095D01*
X200877714Y-106661857D01*
X200926095Y-106710238D01*
X201022857Y-106758619D01*
X201119618Y-106758619D01*
X201216380Y-106710238D01*
X201264761Y-106661857D01*
X201313142Y-106565095D01*
X201361523Y-106371571D01*
X201361523Y-106129667D01*
X201313142Y-105936143D01*
X201264761Y-105839381D01*
X201216380Y-105791000D01*
X201119618Y-105742619D01*
X199910095Y-106081286D02*
X199910095Y-106758619D01*
X200345523Y-106081286D02*
X200345523Y-106613476D01*
X200297142Y-106710238D01*
X200200380Y-106758619D01*
X200055238Y-106758619D01*
X199958476Y-106710238D01*
X199910095Y-106661857D01*
X199087619Y-106226429D02*
X199426285Y-106226429D01*
X199426285Y-106758619D02*
X199426285Y-105742619D01*
X198942476Y-105742619D01*
%LPC*%
D16*
X103505000Y-113030000D03*
X100965000Y-113030000D03*
X106045000Y-113030000D03*
D17*
X208457800Y-102870000D03*
D18*
X204952600Y-102870000D03*
D19*
X199466200Y-102870000D03*
D20*
X206451200Y-98374200D03*
X206451200Y-107365800D03*
D21*
X99060000Y-107950000D03*
X99060000Y-97790000D03*
D22*
X105156000Y-102870000D03*
D23*
X107950000Y-102870000D03*
X107950000Y-100076000D03*
X107950000Y-105664000D03*
D24*
X111760000Y-127000000D03*
X113030000Y-78740000D03*
X194310000Y-127000000D03*
X187960000Y-78740000D03*
D16*
X125730000Y-127000000D03*
X128270000Y-127000000D03*
X130810000Y-127000000D03*
X133350000Y-127000000D03*
X135890000Y-127000000D03*
X138430000Y-127000000D03*
X140970000Y-127000000D03*
X143510000Y-127000000D03*
X148590000Y-127000000D03*
X151130000Y-127000000D03*
X153670000Y-127000000D03*
X156210000Y-127000000D03*
X158750000Y-127000000D03*
X161290000Y-127000000D03*
X163830000Y-127000000D03*
X166370000Y-127000000D03*
X171450000Y-127000000D03*
X173990000Y-127000000D03*
X176530000Y-127000000D03*
X179070000Y-127000000D03*
X181610000Y-127000000D03*
X184150000Y-127000000D03*
X186690000Y-127000000D03*
X189230000Y-127000000D03*
X116586000Y-78740000D03*
X119126000Y-78740000D03*
X121666000Y-78740000D03*
X124206000Y-78740000D03*
X126746000Y-78740000D03*
X129286000Y-78740000D03*
X131826000Y-78740000D03*
X134366000Y-78740000D03*
X136906000Y-78740000D03*
X139446000Y-78740000D03*
X143510000Y-78740000D03*
X161290000Y-78740000D03*
X158750000Y-78740000D03*
X156210000Y-78740000D03*
X153670000Y-78740000D03*
X151130000Y-78740000D03*
X148590000Y-78740000D03*
X146050000Y-78740000D03*
X166370000Y-78740000D03*
X168910000Y-78740000D03*
X171450000Y-78740000D03*
X173990000Y-78740000D03*
X176530000Y-78740000D03*
X179070000Y-78740000D03*
X181610000Y-78740000D03*
X184150000Y-78740000D03*
X191770000Y-78232000D03*
X194310000Y-78232000D03*
D25*
X191262000Y-81280000D03*
X194818000Y-81280000D03*
X191262000Y-83820000D03*
X194818000Y-83820000D03*
X191262000Y-86360000D03*
X194818000Y-86360000D03*
X191262000Y-88900000D03*
X194818000Y-88900000D03*
X191262000Y-91440000D03*
X194818000Y-91440000D03*
X191262000Y-93980000D03*
X194818000Y-93980000D03*
X191262000Y-96520000D03*
X194818000Y-96520000D03*
X191262000Y-99060000D03*
X194818000Y-99060000D03*
X191262000Y-101600000D03*
X194818000Y-101600000D03*
X191262000Y-104140000D03*
X194818000Y-104140000D03*
X191262000Y-106680000D03*
X194818000Y-106680000D03*
X191262000Y-109220000D03*
X194818000Y-109220000D03*
X191262000Y-111760000D03*
X194818000Y-111760000D03*
X191262000Y-114300000D03*
X194818000Y-114300000D03*
X191262000Y-116840000D03*
X194818000Y-116840000D03*
X191262000Y-119380000D03*
X194818000Y-119380000D03*
X191262000Y-121920000D03*
X194818000Y-121920000D03*
D26*
X200660000Y-113385600D03*
X205740000Y-113385600D03*
D27*
X99695000Y-90170000D03*
X99695000Y-80264000D03*
D28*
X206375000Y-86106000D03*
X203835000Y-86106000D03*
X201295000Y-86106000D03*
D27*
X208788000Y-82931000D03*
X198882000Y-82931000D03*
D29*
X209829400Y-79375000D03*
X197840600Y-79375000D03*
D27*
X205359000Y-80137000D03*
X205359000Y-90043000D03*
D28*
X201295000Y-119634000D03*
X203835000Y-119634000D03*
X206375000Y-119634000D03*
D27*
X198882000Y-122809000D03*
X208788000Y-122809000D03*
D29*
X197840600Y-126365000D03*
X209829400Y-126365000D03*
D27*
X207518000Y-124079000D03*
X200152000Y-124079000D03*
D30*
X117475000Y-82550000D03*
X120015000Y-82550000D03*
X122555000Y-82550000D03*
X122555000Y-91440000D03*
X120015000Y-91440000D03*
X117475000Y-91440000D03*
X137795000Y-82550000D03*
X140335000Y-82550000D03*
X142875000Y-82550000D03*
X142875000Y-91440000D03*
X140335000Y-91440000D03*
X137795000Y-91440000D03*
X158115000Y-82550000D03*
X160655000Y-82550000D03*
X163195000Y-82550000D03*
X163195000Y-91440000D03*
X160655000Y-91440000D03*
X158115000Y-91440000D03*
X178435000Y-82550000D03*
X180975000Y-82550000D03*
X183515000Y-82550000D03*
X183515000Y-91440000D03*
X180975000Y-91440000D03*
X178435000Y-91440000D03*
X117475000Y-104140000D03*
X120015000Y-104140000D03*
X122555000Y-104140000D03*
X122555000Y-113030000D03*
X120015000Y-113030000D03*
X117475000Y-113030000D03*
X137795000Y-104140000D03*
X140335000Y-104140000D03*
X142875000Y-104140000D03*
X142875000Y-113030000D03*
X140335000Y-113030000D03*
X137795000Y-113030000D03*
X158115000Y-104140000D03*
X160655000Y-104140000D03*
X163195000Y-104140000D03*
X163195000Y-113030000D03*
X160655000Y-113030000D03*
X158115000Y-113030000D03*
X178435000Y-104140000D03*
X180975000Y-104140000D03*
X183515000Y-104140000D03*
X183515000Y-113030000D03*
X180975000Y-113030000D03*
X178435000Y-113030000D03*
D22*
X183515000Y-123190000D03*
X178435000Y-123190000D03*
X163195000Y-123190000D03*
X158115000Y-123190000D03*
X142875000Y-123190000D03*
X137795000Y-123190000D03*
X122555000Y-123190000D03*
X117475000Y-123190000D03*
X183515000Y-101600000D03*
X178435000Y-101600000D03*
X163195000Y-101600000D03*
X158115000Y-101600000D03*
X142875000Y-101600000D03*
X137795000Y-101600000D03*
X122555000Y-101600000D03*
X117475000Y-101600000D03*
X199390000Y-93980000D03*
X204470000Y-93980000D03*
D31*
X178435000Y-116205000D03*
D32*
X183515000Y-116205000D03*
D31*
X158115000Y-116205000D03*
D32*
X163195000Y-116205000D03*
D31*
X137795000Y-116205000D03*
D32*
X142875000Y-116205000D03*
D31*
X117475000Y-116205000D03*
D32*
X122555000Y-116205000D03*
D31*
X178435000Y-94615000D03*
D32*
X183515000Y-94615000D03*
D31*
X158115000Y-94615000D03*
D32*
X163195000Y-94615000D03*
D31*
X137795000Y-94615000D03*
D32*
X142875000Y-94615000D03*
D31*
X117475000Y-94615000D03*
D32*
X122555000Y-94615000D03*
D33*
X179451000Y-120650000D03*
X182499000Y-120650000D03*
X159131000Y-120650000D03*
X162179000Y-120650000D03*
X138811000Y-120650000D03*
X141859000Y-120650000D03*
X118491000Y-120650000D03*
X121539000Y-120650000D03*
X179451000Y-99060000D03*
X182499000Y-99060000D03*
X159131000Y-99060000D03*
X162179000Y-99060000D03*
X138811000Y-99060000D03*
X141859000Y-99060000D03*
X118491000Y-99060000D03*
X121539000Y-99060000D03*
X100711000Y-117475000D03*
X103759000Y-117475000D03*
X106299000Y-108585000D03*
X103251000Y-108585000D03*
X199136000Y-108585000D03*
X202184000Y-108585000D03*
M02*
