G04 #@! TF.FileFunction,Legend,Top*
%FSLAX46Y46*%
G04 Gerber Fmt 4.6, Leading zero omitted, Abs format (unit mm)*
G04 Created by KiCad (PCBNEW 0.201603210401+6634~43~ubuntu14.04.1-product) date Wed 06 Apr 2016 10:00:45 AM EDT*
%MOMM*%
G01*
G04 APERTURE LIST*
%ADD10C,0.100000*%
%ADD11C,0.508000*%
%ADD12C,0.254000*%
%ADD13C,0.381000*%
%ADD14C,0.190500*%
%ADD15C,0.228600*%
%ADD16O,1.524000X2.540000*%
%ADD17C,1.930400*%
%ADD18O,4.572000X3.556000*%
%ADD19O,4.064000X5.080000*%
%ADD20O,5.080000X3.556000*%
%ADD21O,5.080000X3.048000*%
%ADD22O,2.032000X1.524000*%
%ADD23O,1.524000X2.032000*%
%ADD24C,3.759200*%
%ADD25O,2.540000X1.524000*%
%ADD26O,1.651000X2.159000*%
%ADD27R,4.191000X1.778000*%
%ADD28C,1.600200*%
%ADD29R,5.029200X2.997200*%
%ADD30R,1.778000X4.191000*%
%ADD31R,2.997200X5.029200*%
%ADD32R,2.540000X2.540000*%
%ADD33O,2.540000X2.540000*%
G04 APERTURE END LIST*
D10*
D11*
X185915905Y-106190143D02*
X187464095Y-106190143D01*
X165595905Y-106190143D02*
X167144095Y-106190143D01*
X145275905Y-106190143D02*
X146824095Y-106190143D01*
X124955905Y-106190143D02*
X126504095Y-106190143D01*
X174485905Y-106190143D02*
X176034095Y-106190143D01*
X175260000Y-106964238D02*
X175260000Y-105416048D01*
X154165905Y-106190143D02*
X155714095Y-106190143D01*
X154940000Y-106964238D02*
X154940000Y-105416048D01*
X133845905Y-106190143D02*
X135394095Y-106190143D01*
X134620000Y-106964238D02*
X134620000Y-105416048D01*
X113525905Y-106190143D02*
X115074095Y-106190143D01*
X114300000Y-106964238D02*
X114300000Y-105416048D01*
X185915905Y-84600143D02*
X187464095Y-84600143D01*
X165595905Y-84600143D02*
X167144095Y-84600143D01*
X145275905Y-84600143D02*
X146824095Y-84600143D01*
X174485905Y-84600143D02*
X176034095Y-84600143D01*
X175260000Y-85374238D02*
X175260000Y-83826048D01*
X154165905Y-84600143D02*
X155714095Y-84600143D01*
X154940000Y-85374238D02*
X154940000Y-83826048D01*
X133845905Y-84600143D02*
X135394095Y-84600143D01*
X134620000Y-85374238D02*
X134620000Y-83826048D01*
X124955905Y-84600143D02*
X126504095Y-84600143D01*
X113525905Y-84600143D02*
X115074095Y-84600143D01*
X114300000Y-85374238D02*
X114300000Y-83826048D01*
X180297667Y-82707238D02*
X181555571Y-82707238D01*
X180878238Y-83481333D01*
X181168524Y-83481333D01*
X181362048Y-83578095D01*
X181458810Y-83674857D01*
X181555571Y-83868381D01*
X181555571Y-84352190D01*
X181458810Y-84545714D01*
X181362048Y-84642476D01*
X181168524Y-84739238D01*
X180587952Y-84739238D01*
X180394429Y-84642476D01*
X180297667Y-84545714D01*
X160074429Y-82900762D02*
X160171191Y-82804000D01*
X160364714Y-82707238D01*
X160848524Y-82707238D01*
X161042048Y-82804000D01*
X161138810Y-82900762D01*
X161235571Y-83094286D01*
X161235571Y-83287810D01*
X161138810Y-83578095D01*
X159977667Y-84739238D01*
X161235571Y-84739238D01*
X140915571Y-84739238D02*
X139754429Y-84739238D01*
X140335000Y-84739238D02*
X140335000Y-82707238D01*
X140141476Y-82997524D01*
X139947952Y-83191048D01*
X139754429Y-83287810D01*
X120402048Y-104974571D02*
X120402048Y-106329238D01*
X119918238Y-104200476D02*
X119434429Y-105651905D01*
X120692333Y-105651905D01*
X180297667Y-104297238D02*
X181652333Y-104297238D01*
X180781476Y-106329238D01*
X161042048Y-104297238D02*
X160655000Y-104297238D01*
X160461476Y-104394000D01*
X160364714Y-104490762D01*
X160171191Y-104781048D01*
X160074429Y-105168095D01*
X160074429Y-105942190D01*
X160171191Y-106135714D01*
X160267952Y-106232476D01*
X160461476Y-106329238D01*
X160848524Y-106329238D01*
X161042048Y-106232476D01*
X161138810Y-106135714D01*
X161235571Y-105942190D01*
X161235571Y-105458381D01*
X161138810Y-105264857D01*
X161042048Y-105168095D01*
X160848524Y-105071333D01*
X160461476Y-105071333D01*
X160267952Y-105168095D01*
X160171191Y-105264857D01*
X160074429Y-105458381D01*
X140818810Y-104297238D02*
X139851191Y-104297238D01*
X139754429Y-105264857D01*
X139851191Y-105168095D01*
X140044714Y-105071333D01*
X140528524Y-105071333D01*
X140722048Y-105168095D01*
X140818810Y-105264857D01*
X140915571Y-105458381D01*
X140915571Y-105942190D01*
X140818810Y-106135714D01*
X140722048Y-106232476D01*
X140528524Y-106329238D01*
X140044714Y-106329238D01*
X139851191Y-106232476D01*
X139754429Y-106135714D01*
X119918238Y-82707238D02*
X120111762Y-82707238D01*
X120305286Y-82804000D01*
X120402048Y-82900762D01*
X120498810Y-83094286D01*
X120595571Y-83481333D01*
X120595571Y-83965143D01*
X120498810Y-84352190D01*
X120402048Y-84545714D01*
X120305286Y-84642476D01*
X120111762Y-84739238D01*
X119918238Y-84739238D01*
X119724714Y-84642476D01*
X119627952Y-84545714D01*
X119531191Y-84352190D01*
X119434429Y-83965143D01*
X119434429Y-83481333D01*
X119531191Y-83094286D01*
X119627952Y-82900762D01*
X119724714Y-82804000D01*
X119918238Y-82707238D01*
D12*
X206622953Y-120722571D02*
X207397048Y-120722571D01*
X200272953Y-120722571D02*
X201047048Y-120722571D01*
X200660000Y-121109619D02*
X200660000Y-120335524D01*
X201651810Y-116283619D02*
X201168001Y-116283619D01*
X201168001Y-115267619D01*
X201990477Y-116283619D02*
X201990477Y-115606286D01*
X201990477Y-115267619D02*
X201942096Y-115316000D01*
X201990477Y-115364381D01*
X202038858Y-115316000D01*
X201990477Y-115267619D01*
X201990477Y-115364381D01*
X202909715Y-115606286D02*
X202909715Y-116428762D01*
X202861334Y-116525524D01*
X202812953Y-116573905D01*
X202716192Y-116622286D01*
X202571049Y-116622286D01*
X202474287Y-116573905D01*
X202909715Y-116235238D02*
X202812953Y-116283619D01*
X202619430Y-116283619D01*
X202522668Y-116235238D01*
X202474287Y-116186857D01*
X202425906Y-116090095D01*
X202425906Y-115799810D01*
X202474287Y-115703048D01*
X202522668Y-115654667D01*
X202619430Y-115606286D01*
X202812953Y-115606286D01*
X202909715Y-115654667D01*
X203393525Y-116283619D02*
X203393525Y-115267619D01*
X203828953Y-116283619D02*
X203828953Y-115751429D01*
X203780572Y-115654667D01*
X203683810Y-115606286D01*
X203538668Y-115606286D01*
X203441906Y-115654667D01*
X203393525Y-115703048D01*
X204167620Y-115606286D02*
X204554668Y-115606286D01*
X204312763Y-115267619D02*
X204312763Y-116138476D01*
X204361144Y-116235238D01*
X204457906Y-116283619D01*
X204554668Y-116283619D01*
X204844953Y-116235238D02*
X204941715Y-116283619D01*
X205135239Y-116283619D01*
X205232000Y-116235238D01*
X205280381Y-116138476D01*
X205280381Y-116090095D01*
X205232000Y-115993333D01*
X205135239Y-115944952D01*
X204990096Y-115944952D01*
X204893334Y-115896571D01*
X204844953Y-115799810D01*
X204844953Y-115751429D01*
X204893334Y-115654667D01*
X204990096Y-115606286D01*
X205135239Y-115606286D01*
X205232000Y-115654667D01*
D13*
X200097571Y-118091857D02*
X200315285Y-118164429D01*
X200678142Y-118164429D01*
X200823285Y-118091857D01*
X200895856Y-118019286D01*
X200968428Y-117874143D01*
X200968428Y-117729000D01*
X200895856Y-117583857D01*
X200823285Y-117511286D01*
X200678142Y-117438714D01*
X200387856Y-117366143D01*
X200242714Y-117293571D01*
X200170142Y-117221000D01*
X200097571Y-117075857D01*
X200097571Y-116930714D01*
X200170142Y-116785571D01*
X200242714Y-116713000D01*
X200387856Y-116640429D01*
X200750714Y-116640429D01*
X200968428Y-116713000D01*
X202202143Y-118091857D02*
X202057000Y-118164429D01*
X201766714Y-118164429D01*
X201621571Y-118091857D01*
X201549000Y-117946714D01*
X201549000Y-117366143D01*
X201621571Y-117221000D01*
X201766714Y-117148429D01*
X202057000Y-117148429D01*
X202202143Y-117221000D01*
X202274714Y-117366143D01*
X202274714Y-117511286D01*
X201549000Y-117656429D01*
X202927857Y-118164429D02*
X202927857Y-117148429D01*
X202927857Y-117438714D02*
X203000429Y-117293571D01*
X203073000Y-117221000D01*
X203218143Y-117148429D01*
X203363286Y-117148429D01*
X203871286Y-118164429D02*
X203871286Y-117148429D01*
X203871286Y-116640429D02*
X203798715Y-116713000D01*
X203871286Y-116785571D01*
X203943858Y-116713000D01*
X203871286Y-116640429D01*
X203871286Y-116785571D01*
X205250143Y-118164429D02*
X205250143Y-117366143D01*
X205177572Y-117221000D01*
X205032429Y-117148429D01*
X204742143Y-117148429D01*
X204597000Y-117221000D01*
X205250143Y-118091857D02*
X205105000Y-118164429D01*
X204742143Y-118164429D01*
X204597000Y-118091857D01*
X204524429Y-117946714D01*
X204524429Y-117801571D01*
X204597000Y-117656429D01*
X204742143Y-117583857D01*
X205105000Y-117583857D01*
X205250143Y-117511286D01*
X206193571Y-118164429D02*
X206048429Y-118091857D01*
X205975857Y-117946714D01*
X205975857Y-116640429D01*
X206629000Y-116640429D02*
X207572429Y-116640429D01*
X207064429Y-117221000D01*
X207282143Y-117221000D01*
X207427286Y-117293571D01*
X207499857Y-117366143D01*
X207572429Y-117511286D01*
X207572429Y-117874143D01*
X207499857Y-118019286D01*
X207427286Y-118091857D01*
X207282143Y-118164429D01*
X206846715Y-118164429D01*
X206701572Y-118091857D01*
X206629000Y-118019286D01*
X198101857Y-88827429D02*
X198174429Y-88609715D01*
X198174429Y-88246858D01*
X198101857Y-88101715D01*
X198029286Y-88029144D01*
X197884143Y-87956572D01*
X197739000Y-87956572D01*
X197593857Y-88029144D01*
X197521286Y-88101715D01*
X197448714Y-88246858D01*
X197376143Y-88537144D01*
X197303571Y-88682286D01*
X197231000Y-88754858D01*
X197085857Y-88827429D01*
X196940714Y-88827429D01*
X196795571Y-88754858D01*
X196723000Y-88682286D01*
X196650429Y-88537144D01*
X196650429Y-88174286D01*
X196723000Y-87956572D01*
X198101857Y-86722857D02*
X198174429Y-86868000D01*
X198174429Y-87158286D01*
X198101857Y-87303429D01*
X197956714Y-87376000D01*
X197376143Y-87376000D01*
X197231000Y-87303429D01*
X197158429Y-87158286D01*
X197158429Y-86868000D01*
X197231000Y-86722857D01*
X197376143Y-86650286D01*
X197521286Y-86650286D01*
X197666429Y-87376000D01*
X198174429Y-85997143D02*
X197158429Y-85997143D01*
X197448714Y-85997143D02*
X197303571Y-85924571D01*
X197231000Y-85852000D01*
X197158429Y-85706857D01*
X197158429Y-85561714D01*
X198174429Y-85053714D02*
X197158429Y-85053714D01*
X196650429Y-85053714D02*
X196723000Y-85126285D01*
X196795571Y-85053714D01*
X196723000Y-84981142D01*
X196650429Y-85053714D01*
X196795571Y-85053714D01*
X198174429Y-83674857D02*
X197376143Y-83674857D01*
X197231000Y-83747428D01*
X197158429Y-83892571D01*
X197158429Y-84182857D01*
X197231000Y-84328000D01*
X198101857Y-83674857D02*
X198174429Y-83820000D01*
X198174429Y-84182857D01*
X198101857Y-84328000D01*
X197956714Y-84400571D01*
X197811571Y-84400571D01*
X197666429Y-84328000D01*
X197593857Y-84182857D01*
X197593857Y-83820000D01*
X197521286Y-83674857D01*
X198174429Y-82731429D02*
X198101857Y-82876571D01*
X197956714Y-82949143D01*
X196650429Y-82949143D01*
X196795571Y-82223428D02*
X196723000Y-82150857D01*
X196650429Y-82005714D01*
X196650429Y-81642857D01*
X196723000Y-81497714D01*
X196795571Y-81425143D01*
X196940714Y-81352571D01*
X197085857Y-81352571D01*
X197303571Y-81425143D01*
X198174429Y-82296000D01*
X198174429Y-81352571D01*
X200097571Y-77451857D02*
X200315285Y-77524429D01*
X200678142Y-77524429D01*
X200823285Y-77451857D01*
X200895856Y-77379286D01*
X200968428Y-77234143D01*
X200968428Y-77089000D01*
X200895856Y-76943857D01*
X200823285Y-76871286D01*
X200678142Y-76798714D01*
X200387856Y-76726143D01*
X200242714Y-76653571D01*
X200170142Y-76581000D01*
X200097571Y-76435857D01*
X200097571Y-76290714D01*
X200170142Y-76145571D01*
X200242714Y-76073000D01*
X200387856Y-76000429D01*
X200750714Y-76000429D01*
X200968428Y-76073000D01*
X202202143Y-77451857D02*
X202057000Y-77524429D01*
X201766714Y-77524429D01*
X201621571Y-77451857D01*
X201549000Y-77306714D01*
X201549000Y-76726143D01*
X201621571Y-76581000D01*
X201766714Y-76508429D01*
X202057000Y-76508429D01*
X202202143Y-76581000D01*
X202274714Y-76726143D01*
X202274714Y-76871286D01*
X201549000Y-77016429D01*
X202927857Y-77524429D02*
X202927857Y-76508429D01*
X202927857Y-76798714D02*
X203000429Y-76653571D01*
X203073000Y-76581000D01*
X203218143Y-76508429D01*
X203363286Y-76508429D01*
X203871286Y-77524429D02*
X203871286Y-76508429D01*
X203871286Y-76000429D02*
X203798715Y-76073000D01*
X203871286Y-76145571D01*
X203943858Y-76073000D01*
X203871286Y-76000429D01*
X203871286Y-76145571D01*
X205250143Y-77524429D02*
X205250143Y-76726143D01*
X205177572Y-76581000D01*
X205032429Y-76508429D01*
X204742143Y-76508429D01*
X204597000Y-76581000D01*
X205250143Y-77451857D02*
X205105000Y-77524429D01*
X204742143Y-77524429D01*
X204597000Y-77451857D01*
X204524429Y-77306714D01*
X204524429Y-77161571D01*
X204597000Y-77016429D01*
X204742143Y-76943857D01*
X205105000Y-76943857D01*
X205250143Y-76871286D01*
X206193571Y-77524429D02*
X206048429Y-77451857D01*
X205975857Y-77306714D01*
X205975857Y-76000429D01*
X207572429Y-77524429D02*
X206701572Y-77524429D01*
X207137000Y-77524429D02*
X207137000Y-76000429D01*
X206991857Y-76218143D01*
X206846715Y-76363286D01*
X206701572Y-76435857D01*
X107296857Y-88827429D02*
X107369429Y-88609715D01*
X107369429Y-88246858D01*
X107296857Y-88101715D01*
X107224286Y-88029144D01*
X107079143Y-87956572D01*
X106934000Y-87956572D01*
X106788857Y-88029144D01*
X106716286Y-88101715D01*
X106643714Y-88246858D01*
X106571143Y-88537144D01*
X106498571Y-88682286D01*
X106426000Y-88754858D01*
X106280857Y-88827429D01*
X106135714Y-88827429D01*
X105990571Y-88754858D01*
X105918000Y-88682286D01*
X105845429Y-88537144D01*
X105845429Y-88174286D01*
X105918000Y-87956572D01*
X107296857Y-86722857D02*
X107369429Y-86868000D01*
X107369429Y-87158286D01*
X107296857Y-87303429D01*
X107151714Y-87376000D01*
X106571143Y-87376000D01*
X106426000Y-87303429D01*
X106353429Y-87158286D01*
X106353429Y-86868000D01*
X106426000Y-86722857D01*
X106571143Y-86650286D01*
X106716286Y-86650286D01*
X106861429Y-87376000D01*
X107369429Y-85997143D02*
X106353429Y-85997143D01*
X106643714Y-85997143D02*
X106498571Y-85924571D01*
X106426000Y-85852000D01*
X106353429Y-85706857D01*
X106353429Y-85561714D01*
X107369429Y-85053714D02*
X106353429Y-85053714D01*
X105845429Y-85053714D02*
X105918000Y-85126285D01*
X105990571Y-85053714D01*
X105918000Y-84981142D01*
X105845429Y-85053714D01*
X105990571Y-85053714D01*
X107369429Y-83674857D02*
X106571143Y-83674857D01*
X106426000Y-83747428D01*
X106353429Y-83892571D01*
X106353429Y-84182857D01*
X106426000Y-84328000D01*
X107296857Y-83674857D02*
X107369429Y-83820000D01*
X107369429Y-84182857D01*
X107296857Y-84328000D01*
X107151714Y-84400571D01*
X107006571Y-84400571D01*
X106861429Y-84328000D01*
X106788857Y-84182857D01*
X106788857Y-83820000D01*
X106716286Y-83674857D01*
X107369429Y-82731429D02*
X107296857Y-82876571D01*
X107151714Y-82949143D01*
X105845429Y-82949143D01*
X105845429Y-81860571D02*
X105845429Y-81715428D01*
X105918000Y-81570285D01*
X105990571Y-81497714D01*
X106135714Y-81425143D01*
X106426000Y-81352571D01*
X106788857Y-81352571D01*
X107079143Y-81425143D01*
X107224286Y-81497714D01*
X107296857Y-81570285D01*
X107369429Y-81715428D01*
X107369429Y-81860571D01*
X107296857Y-82005714D01*
X107224286Y-82078285D01*
X107079143Y-82150857D01*
X106788857Y-82223428D01*
X106426000Y-82223428D01*
X106135714Y-82150857D01*
X105990571Y-82078285D01*
X105918000Y-82005714D01*
X105845429Y-81860571D01*
D14*
X196505286Y-107732285D02*
X196469000Y-107695999D01*
X196432714Y-107623428D01*
X196432714Y-107441999D01*
X196469000Y-107369428D01*
X196505286Y-107333142D01*
X196577857Y-107296857D01*
X196650429Y-107296857D01*
X196759286Y-107333142D01*
X197194714Y-107768571D01*
X197194714Y-107296857D01*
X197122143Y-106970285D02*
X197158429Y-106934000D01*
X197194714Y-106970285D01*
X197158429Y-107006571D01*
X197122143Y-106970285D01*
X197194714Y-106970285D01*
X196432714Y-106244571D02*
X196432714Y-106607428D01*
X196795571Y-106643714D01*
X196759286Y-106607428D01*
X196723000Y-106534857D01*
X196723000Y-106353428D01*
X196759286Y-106280857D01*
X196795571Y-106244571D01*
X196868143Y-106208286D01*
X197049571Y-106208286D01*
X197122143Y-106244571D01*
X197158429Y-106280857D01*
X197194714Y-106353428D01*
X197194714Y-106534857D01*
X197158429Y-106607428D01*
X197122143Y-106643714D01*
X197194714Y-105954286D02*
X196686714Y-105555143D01*
X196686714Y-105954286D02*
X197194714Y-105555143D01*
X196432714Y-104902000D02*
X196432714Y-105264857D01*
X196795571Y-105301143D01*
X196759286Y-105264857D01*
X196723000Y-105192286D01*
X196723000Y-105010857D01*
X196759286Y-104938286D01*
X196795571Y-104902000D01*
X196868143Y-104865715D01*
X197049571Y-104865715D01*
X197122143Y-104902000D01*
X197158429Y-104938286D01*
X197194714Y-105010857D01*
X197194714Y-105192286D01*
X197158429Y-105264857D01*
X197122143Y-105301143D01*
X197122143Y-104539143D02*
X197158429Y-104502858D01*
X197194714Y-104539143D01*
X197158429Y-104575429D01*
X197122143Y-104539143D01*
X197194714Y-104539143D01*
X196432714Y-103813429D02*
X196432714Y-104176286D01*
X196795571Y-104212572D01*
X196759286Y-104176286D01*
X196723000Y-104103715D01*
X196723000Y-103922286D01*
X196759286Y-103849715D01*
X196795571Y-103813429D01*
X196868143Y-103777144D01*
X197049571Y-103777144D01*
X197122143Y-103813429D01*
X197158429Y-103849715D01*
X197194714Y-103922286D01*
X197194714Y-104103715D01*
X197158429Y-104176286D01*
X197122143Y-104212572D01*
X197122143Y-102434573D02*
X197158429Y-102470859D01*
X197194714Y-102579716D01*
X197194714Y-102652287D01*
X197158429Y-102761144D01*
X197085857Y-102833716D01*
X197013286Y-102870001D01*
X196868143Y-102906287D01*
X196759286Y-102906287D01*
X196614143Y-102870001D01*
X196541571Y-102833716D01*
X196469000Y-102761144D01*
X196432714Y-102652287D01*
X196432714Y-102579716D01*
X196469000Y-102470859D01*
X196505286Y-102434573D01*
X197158429Y-101817716D02*
X197194714Y-101890287D01*
X197194714Y-102035430D01*
X197158429Y-102108001D01*
X197085857Y-102144287D01*
X196795571Y-102144287D01*
X196723000Y-102108001D01*
X196686714Y-102035430D01*
X196686714Y-101890287D01*
X196723000Y-101817716D01*
X196795571Y-101781430D01*
X196868143Y-101781430D01*
X196940714Y-102144287D01*
X196686714Y-101454858D02*
X197194714Y-101454858D01*
X196759286Y-101454858D02*
X196723000Y-101418573D01*
X196686714Y-101346001D01*
X196686714Y-101237144D01*
X196723000Y-101164573D01*
X196795571Y-101128287D01*
X197194714Y-101128287D01*
X196686714Y-100874287D02*
X196686714Y-100584001D01*
X196432714Y-100765429D02*
X197085857Y-100765429D01*
X197158429Y-100729144D01*
X197194714Y-100656572D01*
X197194714Y-100584001D01*
X197158429Y-100039715D02*
X197194714Y-100112286D01*
X197194714Y-100257429D01*
X197158429Y-100330000D01*
X197085857Y-100366286D01*
X196795571Y-100366286D01*
X196723000Y-100330000D01*
X196686714Y-100257429D01*
X196686714Y-100112286D01*
X196723000Y-100039715D01*
X196795571Y-100003429D01*
X196868143Y-100003429D01*
X196940714Y-100366286D01*
X197194714Y-99676857D02*
X196686714Y-99676857D01*
X196831857Y-99676857D02*
X196759286Y-99640572D01*
X196723000Y-99604286D01*
X196686714Y-99531715D01*
X196686714Y-99459143D01*
X196904429Y-98624572D02*
X196904429Y-98044001D01*
X197194714Y-98334287D02*
X196614143Y-98334287D01*
D15*
X211455000Y-75311000D02*
X93345000Y-75311000D01*
X211455000Y-130429000D02*
X211455000Y-75311000D01*
X93345000Y-130429000D02*
X211455000Y-130429000D01*
X93345000Y-75311000D02*
X93345000Y-130429000D01*
D12*
X96979619Y-115563952D02*
X96979619Y-116144523D01*
X96979619Y-115854237D02*
X95963619Y-115854237D01*
X96108762Y-115950999D01*
X96205524Y-116047761D01*
X96253905Y-116144523D01*
X96060381Y-115176904D02*
X96012000Y-115128523D01*
X95963619Y-115031761D01*
X95963619Y-114789857D01*
X96012000Y-114693095D01*
X96060381Y-114644714D01*
X96157143Y-114596333D01*
X96253905Y-114596333D01*
X96399048Y-114644714D01*
X96979619Y-115225285D01*
X96979619Y-114596333D01*
X95963619Y-114306047D02*
X96979619Y-113967380D01*
X95963619Y-113628714D01*
X197853905Y-96592571D02*
X198628000Y-96592571D01*
X198240952Y-96979619D02*
X198240952Y-96205524D01*
X199063429Y-96060381D02*
X199111810Y-96012000D01*
X199208572Y-95963619D01*
X199450476Y-95963619D01*
X199547238Y-96012000D01*
X199595619Y-96060381D01*
X199644000Y-96157143D01*
X199644000Y-96253905D01*
X199595619Y-96399048D01*
X199015048Y-96979619D01*
X199644000Y-96979619D01*
X200514857Y-96302286D02*
X200514857Y-96979619D01*
X200272953Y-95915238D02*
X200031048Y-96640952D01*
X200660000Y-96640952D01*
X200901905Y-95963619D02*
X201240572Y-96979619D01*
X201579238Y-95963619D01*
X201917905Y-96979619D02*
X201917905Y-95963619D01*
X202159810Y-95963619D01*
X202304952Y-96012000D01*
X202401714Y-96108762D01*
X202450095Y-96205524D01*
X202498476Y-96399048D01*
X202498476Y-96544190D01*
X202450095Y-96737714D01*
X202401714Y-96834476D01*
X202304952Y-96931238D01*
X202159810Y-96979619D01*
X201917905Y-96979619D01*
X203514476Y-96882857D02*
X203466095Y-96931238D01*
X203320952Y-96979619D01*
X203224190Y-96979619D01*
X203079048Y-96931238D01*
X202982286Y-96834476D01*
X202933905Y-96737714D01*
X202885524Y-96544190D01*
X202885524Y-96399048D01*
X202933905Y-96205524D01*
X202982286Y-96108762D01*
X203079048Y-96012000D01*
X203224190Y-95963619D01*
X203320952Y-95963619D01*
X203466095Y-96012000D01*
X203514476Y-96060381D01*
D14*
X189054619Y-120287142D02*
X188038619Y-120287142D01*
X189054619Y-119851714D02*
X188522429Y-119851714D01*
X188425667Y-119900095D01*
X188377286Y-119996857D01*
X188377286Y-120141999D01*
X188425667Y-120238761D01*
X188474048Y-120287142D01*
X188377286Y-119513047D02*
X188377286Y-119125999D01*
X188038619Y-119367904D02*
X188909476Y-119367904D01*
X189006238Y-119319523D01*
X189054619Y-119222761D01*
X189054619Y-119125999D01*
X188377286Y-118932476D02*
X188377286Y-118545428D01*
X188038619Y-118787333D02*
X188909476Y-118787333D01*
X189006238Y-118738952D01*
X189054619Y-118642190D01*
X189054619Y-118545428D01*
X188377286Y-118206762D02*
X189393286Y-118206762D01*
X188425667Y-118206762D02*
X188377286Y-118110000D01*
X188377286Y-117916477D01*
X188425667Y-117819715D01*
X188474048Y-117771334D01*
X188570810Y-117722953D01*
X188861095Y-117722953D01*
X188957857Y-117771334D01*
X189006238Y-117819715D01*
X189054619Y-117916477D01*
X189054619Y-118110000D01*
X189006238Y-118206762D01*
X189006238Y-117335905D02*
X189054619Y-117239143D01*
X189054619Y-117045619D01*
X189006238Y-116948858D01*
X188909476Y-116900477D01*
X188861095Y-116900477D01*
X188764333Y-116948858D01*
X188715952Y-117045619D01*
X188715952Y-117190762D01*
X188667571Y-117287524D01*
X188570810Y-117335905D01*
X188522429Y-117335905D01*
X188425667Y-117287524D01*
X188377286Y-117190762D01*
X188377286Y-117045619D01*
X188425667Y-116948858D01*
X188957857Y-116465048D02*
X189006238Y-116416667D01*
X189054619Y-116465048D01*
X189006238Y-116513429D01*
X188957857Y-116465048D01*
X189054619Y-116465048D01*
X188425667Y-116465048D02*
X188474048Y-116416667D01*
X188522429Y-116465048D01*
X188474048Y-116513429D01*
X188425667Y-116465048D01*
X188522429Y-116465048D01*
X187990238Y-115255524D02*
X189296524Y-116126381D01*
X187990238Y-114191143D02*
X189296524Y-115062000D01*
X188377286Y-113417048D02*
X189199762Y-113417048D01*
X189296524Y-113465429D01*
X189344905Y-113513810D01*
X189393286Y-113610571D01*
X189393286Y-113755714D01*
X189344905Y-113852476D01*
X189006238Y-113417048D02*
X189054619Y-113513810D01*
X189054619Y-113707333D01*
X189006238Y-113804095D01*
X188957857Y-113852476D01*
X188861095Y-113900857D01*
X188570810Y-113900857D01*
X188474048Y-113852476D01*
X188425667Y-113804095D01*
X188377286Y-113707333D01*
X188377286Y-113513810D01*
X188425667Y-113417048D01*
X189054619Y-112933238D02*
X188377286Y-112933238D01*
X188038619Y-112933238D02*
X188087000Y-112981619D01*
X188135381Y-112933238D01*
X188087000Y-112884857D01*
X188038619Y-112933238D01*
X188135381Y-112933238D01*
X188377286Y-112594571D02*
X188377286Y-112207523D01*
X188038619Y-112449428D02*
X188909476Y-112449428D01*
X189006238Y-112401047D01*
X189054619Y-112304285D01*
X189054619Y-112207523D01*
X189054619Y-111868857D02*
X188038619Y-111868857D01*
X189054619Y-111433429D02*
X188522429Y-111433429D01*
X188425667Y-111481810D01*
X188377286Y-111578572D01*
X188377286Y-111723714D01*
X188425667Y-111820476D01*
X188474048Y-111868857D01*
X188377286Y-110514191D02*
X189054619Y-110514191D01*
X188377286Y-110949619D02*
X188909476Y-110949619D01*
X189006238Y-110901238D01*
X189054619Y-110804476D01*
X189054619Y-110659334D01*
X189006238Y-110562572D01*
X188957857Y-110514191D01*
X189054619Y-110030381D02*
X188038619Y-110030381D01*
X188425667Y-110030381D02*
X188377286Y-109933619D01*
X188377286Y-109740096D01*
X188425667Y-109643334D01*
X188474048Y-109594953D01*
X188570810Y-109546572D01*
X188861095Y-109546572D01*
X188957857Y-109594953D01*
X189006238Y-109643334D01*
X189054619Y-109740096D01*
X189054619Y-109933619D01*
X189006238Y-110030381D01*
X188957857Y-109111143D02*
X189006238Y-109062762D01*
X189054619Y-109111143D01*
X189006238Y-109159524D01*
X188957857Y-109111143D01*
X189054619Y-109111143D01*
X189006238Y-108191905D02*
X189054619Y-108288667D01*
X189054619Y-108482190D01*
X189006238Y-108578952D01*
X188957857Y-108627333D01*
X188861095Y-108675714D01*
X188570810Y-108675714D01*
X188474048Y-108627333D01*
X188425667Y-108578952D01*
X188377286Y-108482190D01*
X188377286Y-108288667D01*
X188425667Y-108191905D01*
X189054619Y-107611333D02*
X189006238Y-107708095D01*
X188957857Y-107756476D01*
X188861095Y-107804857D01*
X188570810Y-107804857D01*
X188474048Y-107756476D01*
X188425667Y-107708095D01*
X188377286Y-107611333D01*
X188377286Y-107466191D01*
X188425667Y-107369429D01*
X188474048Y-107321048D01*
X188570810Y-107272667D01*
X188861095Y-107272667D01*
X188957857Y-107321048D01*
X189006238Y-107369429D01*
X189054619Y-107466191D01*
X189054619Y-107611333D01*
X189054619Y-106837238D02*
X188377286Y-106837238D01*
X188474048Y-106837238D02*
X188425667Y-106788857D01*
X188377286Y-106692095D01*
X188377286Y-106546953D01*
X188425667Y-106450191D01*
X188522429Y-106401810D01*
X189054619Y-106401810D01*
X188522429Y-106401810D02*
X188425667Y-106353429D01*
X188377286Y-106256667D01*
X188377286Y-106111524D01*
X188425667Y-106014762D01*
X188522429Y-105966381D01*
X189054619Y-105966381D01*
X187990238Y-104756857D02*
X189296524Y-105627714D01*
X188377286Y-104418190D02*
X189248143Y-104418190D01*
X189344905Y-104466571D01*
X189393286Y-104563333D01*
X189393286Y-104611714D01*
X188038619Y-104418190D02*
X188087000Y-104466571D01*
X188135381Y-104418190D01*
X188087000Y-104369809D01*
X188038619Y-104418190D01*
X188135381Y-104418190D01*
X189054619Y-103498952D02*
X188522429Y-103498952D01*
X188425667Y-103547333D01*
X188377286Y-103644095D01*
X188377286Y-103837618D01*
X188425667Y-103934380D01*
X189006238Y-103498952D02*
X189054619Y-103595714D01*
X189054619Y-103837618D01*
X189006238Y-103934380D01*
X188909476Y-103982761D01*
X188812714Y-103982761D01*
X188715952Y-103934380D01*
X188667571Y-103837618D01*
X188667571Y-103595714D01*
X188619190Y-103498952D01*
X188377286Y-103015142D02*
X189054619Y-103015142D01*
X188474048Y-103015142D02*
X188425667Y-102966761D01*
X188377286Y-102869999D01*
X188377286Y-102724857D01*
X188425667Y-102628095D01*
X188522429Y-102579714D01*
X189054619Y-102579714D01*
X189006238Y-101708857D02*
X189054619Y-101805619D01*
X189054619Y-101999142D01*
X189006238Y-102095904D01*
X188909476Y-102144285D01*
X188522429Y-102144285D01*
X188425667Y-102095904D01*
X188377286Y-101999142D01*
X188377286Y-101805619D01*
X188425667Y-101708857D01*
X188522429Y-101660476D01*
X188619190Y-101660476D01*
X188715952Y-102144285D01*
X189054619Y-101079904D02*
X189006238Y-101176666D01*
X188909476Y-101225047D01*
X188038619Y-101225047D01*
X189054619Y-100692857D02*
X188377286Y-100692857D01*
X188038619Y-100692857D02*
X188087000Y-100741238D01*
X188135381Y-100692857D01*
X188087000Y-100644476D01*
X188038619Y-100692857D01*
X188135381Y-100692857D01*
X189054619Y-99773619D02*
X188522429Y-99773619D01*
X188425667Y-99822000D01*
X188377286Y-99918762D01*
X188377286Y-100112285D01*
X188425667Y-100209047D01*
X189006238Y-99773619D02*
X189054619Y-99870381D01*
X189054619Y-100112285D01*
X189006238Y-100209047D01*
X188909476Y-100257428D01*
X188812714Y-100257428D01*
X188715952Y-100209047D01*
X188667571Y-100112285D01*
X188667571Y-99870381D01*
X188619190Y-99773619D01*
X188667571Y-99289809D02*
X188667571Y-98515714D01*
X189054619Y-98031904D02*
X188377286Y-98031904D01*
X188474048Y-98031904D02*
X188425667Y-97983523D01*
X188377286Y-97886761D01*
X188377286Y-97741619D01*
X188425667Y-97644857D01*
X188522429Y-97596476D01*
X189054619Y-97596476D01*
X188522429Y-97596476D02*
X188425667Y-97548095D01*
X188377286Y-97451333D01*
X188377286Y-97306190D01*
X188425667Y-97209428D01*
X188522429Y-97161047D01*
X189054619Y-97161047D01*
X189054619Y-96532094D02*
X189006238Y-96628856D01*
X188957857Y-96677237D01*
X188861095Y-96725618D01*
X188570810Y-96725618D01*
X188474048Y-96677237D01*
X188425667Y-96628856D01*
X188377286Y-96532094D01*
X188377286Y-96386952D01*
X188425667Y-96290190D01*
X188474048Y-96241809D01*
X188570810Y-96193428D01*
X188861095Y-96193428D01*
X188957857Y-96241809D01*
X189006238Y-96290190D01*
X189054619Y-96386952D01*
X189054619Y-96532094D01*
X189054619Y-95322571D02*
X188038619Y-95322571D01*
X189006238Y-95322571D02*
X189054619Y-95419333D01*
X189054619Y-95612856D01*
X189006238Y-95709618D01*
X188957857Y-95757999D01*
X188861095Y-95806380D01*
X188570810Y-95806380D01*
X188474048Y-95757999D01*
X188425667Y-95709618D01*
X188377286Y-95612856D01*
X188377286Y-95419333D01*
X188425667Y-95322571D01*
X188377286Y-94403333D02*
X189054619Y-94403333D01*
X188377286Y-94838761D02*
X188909476Y-94838761D01*
X189006238Y-94790380D01*
X189054619Y-94693618D01*
X189054619Y-94548476D01*
X189006238Y-94451714D01*
X188957857Y-94403333D01*
X189054619Y-93774380D02*
X189006238Y-93871142D01*
X188909476Y-93919523D01*
X188038619Y-93919523D01*
X189054619Y-92951905D02*
X188522429Y-92951905D01*
X188425667Y-93000286D01*
X188377286Y-93097048D01*
X188377286Y-93290571D01*
X188425667Y-93387333D01*
X189006238Y-92951905D02*
X189054619Y-93048667D01*
X189054619Y-93290571D01*
X189006238Y-93387333D01*
X188909476Y-93435714D01*
X188812714Y-93435714D01*
X188715952Y-93387333D01*
X188667571Y-93290571D01*
X188667571Y-93048667D01*
X188619190Y-92951905D01*
X189054619Y-92468095D02*
X188377286Y-92468095D01*
X188570810Y-92468095D02*
X188474048Y-92419714D01*
X188425667Y-92371333D01*
X188377286Y-92274571D01*
X188377286Y-92177810D01*
X188667571Y-91839143D02*
X188667571Y-91065048D01*
X189054619Y-90145810D02*
X188038619Y-90145810D01*
X189006238Y-90145810D02*
X189054619Y-90242572D01*
X189054619Y-90436095D01*
X189006238Y-90532857D01*
X188957857Y-90581238D01*
X188861095Y-90629619D01*
X188570810Y-90629619D01*
X188474048Y-90581238D01*
X188425667Y-90532857D01*
X188377286Y-90436095D01*
X188377286Y-90242572D01*
X188425667Y-90145810D01*
X189006238Y-89274953D02*
X189054619Y-89371715D01*
X189054619Y-89565238D01*
X189006238Y-89662000D01*
X188909476Y-89710381D01*
X188522429Y-89710381D01*
X188425667Y-89662000D01*
X188377286Y-89565238D01*
X188377286Y-89371715D01*
X188425667Y-89274953D01*
X188522429Y-89226572D01*
X188619190Y-89226572D01*
X188715952Y-89710381D01*
X188377286Y-88887905D02*
X189054619Y-88646000D01*
X188377286Y-88404096D01*
X189054619Y-88017048D02*
X188377286Y-88017048D01*
X188038619Y-88017048D02*
X188087000Y-88065429D01*
X188135381Y-88017048D01*
X188087000Y-87968667D01*
X188038619Y-88017048D01*
X188135381Y-88017048D01*
X189006238Y-87097810D02*
X189054619Y-87194572D01*
X189054619Y-87388095D01*
X189006238Y-87484857D01*
X188957857Y-87533238D01*
X188861095Y-87581619D01*
X188570810Y-87581619D01*
X188474048Y-87533238D01*
X188425667Y-87484857D01*
X188377286Y-87388095D01*
X188377286Y-87194572D01*
X188425667Y-87097810D01*
X189006238Y-86275334D02*
X189054619Y-86372096D01*
X189054619Y-86565619D01*
X189006238Y-86662381D01*
X188909476Y-86710762D01*
X188522429Y-86710762D01*
X188425667Y-86662381D01*
X188377286Y-86565619D01*
X188377286Y-86372096D01*
X188425667Y-86275334D01*
X188522429Y-86226953D01*
X188619190Y-86226953D01*
X188715952Y-86710762D01*
X189006238Y-85839905D02*
X189054619Y-85743143D01*
X189054619Y-85549619D01*
X189006238Y-85452858D01*
X188909476Y-85404477D01*
X188861095Y-85404477D01*
X188764333Y-85452858D01*
X188715952Y-85549619D01*
X188715952Y-85694762D01*
X188667571Y-85791524D01*
X188570810Y-85839905D01*
X188522429Y-85839905D01*
X188425667Y-85791524D01*
X188377286Y-85694762D01*
X188377286Y-85549619D01*
X188425667Y-85452858D01*
D12*
X95147190Y-119966619D02*
X95147190Y-120692333D01*
X95098810Y-120837476D01*
X95002048Y-120934238D01*
X94856905Y-120982619D01*
X94760143Y-120982619D01*
X96066428Y-120982619D02*
X96066428Y-120450429D01*
X96018047Y-120353667D01*
X95921285Y-120305286D01*
X95727762Y-120305286D01*
X95631000Y-120353667D01*
X96066428Y-120934238D02*
X95969666Y-120982619D01*
X95727762Y-120982619D01*
X95631000Y-120934238D01*
X95582619Y-120837476D01*
X95582619Y-120740714D01*
X95631000Y-120643952D01*
X95727762Y-120595571D01*
X95969666Y-120595571D01*
X96066428Y-120547190D01*
X96550238Y-120305286D02*
X96550238Y-120982619D01*
X96550238Y-120402048D02*
X96598619Y-120353667D01*
X96695381Y-120305286D01*
X96840523Y-120305286D01*
X96937285Y-120353667D01*
X96985666Y-120450429D01*
X96985666Y-120982619D01*
X97856523Y-120934238D02*
X97759761Y-120982619D01*
X97566238Y-120982619D01*
X97469476Y-120934238D01*
X97421095Y-120837476D01*
X97421095Y-120450429D01*
X97469476Y-120353667D01*
X97566238Y-120305286D01*
X97759761Y-120305286D01*
X97856523Y-120353667D01*
X97904904Y-120450429D01*
X97904904Y-120547190D01*
X97421095Y-120643952D01*
X98485476Y-120982619D02*
X98388714Y-120934238D01*
X98340333Y-120837476D01*
X98340333Y-119966619D01*
X98872523Y-120982619D02*
X98872523Y-120305286D01*
X98872523Y-119966619D02*
X98824142Y-120015000D01*
X98872523Y-120063381D01*
X98920904Y-120015000D01*
X98872523Y-119966619D01*
X98872523Y-120063381D01*
X99791761Y-120982619D02*
X99791761Y-120450429D01*
X99743380Y-120353667D01*
X99646618Y-120305286D01*
X99453095Y-120305286D01*
X99356333Y-120353667D01*
X99791761Y-120934238D02*
X99694999Y-120982619D01*
X99453095Y-120982619D01*
X99356333Y-120934238D01*
X99307952Y-120837476D01*
X99307952Y-120740714D01*
X99356333Y-120643952D01*
X99453095Y-120595571D01*
X99694999Y-120595571D01*
X99791761Y-120547190D01*
X101049666Y-120982619D02*
X101049666Y-119966619D01*
X101388332Y-120692333D01*
X101726999Y-119966619D01*
X101726999Y-120982619D01*
X102355952Y-120982619D02*
X102259190Y-120934238D01*
X102210809Y-120885857D01*
X102162428Y-120789095D01*
X102162428Y-120498810D01*
X102210809Y-120402048D01*
X102259190Y-120353667D01*
X102355952Y-120305286D01*
X102501094Y-120305286D01*
X102597856Y-120353667D01*
X102646237Y-120402048D01*
X102694618Y-120498810D01*
X102694618Y-120789095D01*
X102646237Y-120885857D01*
X102597856Y-120934238D01*
X102501094Y-120982619D01*
X102355952Y-120982619D01*
X103565475Y-120982619D02*
X103565475Y-119966619D01*
X103565475Y-120934238D02*
X103468713Y-120982619D01*
X103275190Y-120982619D01*
X103178428Y-120934238D01*
X103130047Y-120885857D01*
X103081666Y-120789095D01*
X103081666Y-120498810D01*
X103130047Y-120402048D01*
X103178428Y-120353667D01*
X103275190Y-120305286D01*
X103468713Y-120305286D01*
X103565475Y-120353667D01*
X104484713Y-120305286D02*
X104484713Y-120982619D01*
X104049285Y-120305286D02*
X104049285Y-120837476D01*
X104097666Y-120934238D01*
X104194428Y-120982619D01*
X104339570Y-120982619D01*
X104436332Y-120934238D01*
X104484713Y-120885857D01*
X105113666Y-120982619D02*
X105016904Y-120934238D01*
X104968523Y-120837476D01*
X104968523Y-119966619D01*
X105936141Y-120982619D02*
X105936141Y-120450429D01*
X105887760Y-120353667D01*
X105790998Y-120305286D01*
X105597475Y-120305286D01*
X105500713Y-120353667D01*
X105936141Y-120934238D02*
X105839379Y-120982619D01*
X105597475Y-120982619D01*
X105500713Y-120934238D01*
X105452332Y-120837476D01*
X105452332Y-120740714D01*
X105500713Y-120643952D01*
X105597475Y-120595571D01*
X105839379Y-120595571D01*
X105936141Y-120547190D01*
X106419951Y-120982619D02*
X106419951Y-120305286D01*
X106419951Y-120498810D02*
X106468332Y-120402048D01*
X106516713Y-120353667D01*
X106613475Y-120305286D01*
X106710236Y-120305286D01*
X107822998Y-120982619D02*
X107822998Y-119966619D01*
X108064903Y-119966619D01*
X108210045Y-120015000D01*
X108306807Y-120111762D01*
X108355188Y-120208524D01*
X108403569Y-120402048D01*
X108403569Y-120547190D01*
X108355188Y-120740714D01*
X108306807Y-120837476D01*
X108210045Y-120934238D01*
X108064903Y-120982619D01*
X107822998Y-120982619D01*
X109226045Y-120934238D02*
X109129283Y-120982619D01*
X108935760Y-120982619D01*
X108838998Y-120934238D01*
X108790617Y-120837476D01*
X108790617Y-120450429D01*
X108838998Y-120353667D01*
X108935760Y-120305286D01*
X109129283Y-120305286D01*
X109226045Y-120353667D01*
X109274426Y-120450429D01*
X109274426Y-120547190D01*
X108790617Y-120643952D01*
X109613093Y-120305286D02*
X109854998Y-120982619D01*
X110096902Y-120305286D01*
X110483950Y-120982619D02*
X110483950Y-120305286D01*
X110483950Y-119966619D02*
X110435569Y-120015000D01*
X110483950Y-120063381D01*
X110532331Y-120015000D01*
X110483950Y-119966619D01*
X110483950Y-120063381D01*
X111403188Y-120934238D02*
X111306426Y-120982619D01*
X111112903Y-120982619D01*
X111016141Y-120934238D01*
X110967760Y-120885857D01*
X110919379Y-120789095D01*
X110919379Y-120498810D01*
X110967760Y-120402048D01*
X111016141Y-120353667D01*
X111112903Y-120305286D01*
X111306426Y-120305286D01*
X111403188Y-120353667D01*
X112225664Y-120934238D02*
X112128902Y-120982619D01*
X111935379Y-120982619D01*
X111838617Y-120934238D01*
X111790236Y-120837476D01*
X111790236Y-120450429D01*
X111838617Y-120353667D01*
X111935379Y-120305286D01*
X112128902Y-120305286D01*
X112225664Y-120353667D01*
X112274045Y-120450429D01*
X112274045Y-120547190D01*
X111790236Y-120643952D01*
X94856905Y-122760619D02*
X94856905Y-122083286D01*
X94856905Y-122276810D02*
X94905286Y-122180048D01*
X94953667Y-122131667D01*
X95050429Y-122083286D01*
X95147190Y-122083286D01*
X95872904Y-122712238D02*
X95776142Y-122760619D01*
X95582619Y-122760619D01*
X95485857Y-122712238D01*
X95437476Y-122615476D01*
X95437476Y-122228429D01*
X95485857Y-122131667D01*
X95582619Y-122083286D01*
X95776142Y-122083286D01*
X95872904Y-122131667D01*
X95921285Y-122228429D01*
X95921285Y-122325190D01*
X95437476Y-122421952D01*
X96501857Y-122760619D02*
X96405095Y-122712238D01*
X96356714Y-122615476D01*
X96356714Y-121744619D01*
X97324332Y-122760619D02*
X97324332Y-122228429D01*
X97275951Y-122131667D01*
X97179189Y-122083286D01*
X96985666Y-122083286D01*
X96888904Y-122131667D01*
X97324332Y-122712238D02*
X97227570Y-122760619D01*
X96985666Y-122760619D01*
X96888904Y-122712238D01*
X96840523Y-122615476D01*
X96840523Y-122518714D01*
X96888904Y-122421952D01*
X96985666Y-122373571D01*
X97227570Y-122373571D01*
X97324332Y-122325190D01*
X97711380Y-122083286D02*
X97953285Y-122760619D01*
X98195189Y-122083286D02*
X97953285Y-122760619D01*
X97856523Y-123002524D01*
X97808142Y-123050905D01*
X97711380Y-123099286D01*
X98340332Y-122857381D02*
X99114427Y-122857381D01*
X99791760Y-122712238D02*
X99694998Y-122760619D01*
X99501475Y-122760619D01*
X99404713Y-122712238D01*
X99356332Y-122663857D01*
X99307951Y-122567095D01*
X99307951Y-122276810D01*
X99356332Y-122180048D01*
X99404713Y-122131667D01*
X99501475Y-122083286D01*
X99694998Y-122083286D01*
X99791760Y-122131667D01*
X100372332Y-122760619D02*
X100275570Y-122712238D01*
X100227189Y-122663857D01*
X100178808Y-122567095D01*
X100178808Y-122276810D01*
X100227189Y-122180048D01*
X100275570Y-122131667D01*
X100372332Y-122083286D01*
X100517474Y-122083286D01*
X100614236Y-122131667D01*
X100662617Y-122180048D01*
X100710998Y-122276810D01*
X100710998Y-122567095D01*
X100662617Y-122663857D01*
X100614236Y-122712238D01*
X100517474Y-122760619D01*
X100372332Y-122760619D01*
X101146427Y-122083286D02*
X101146427Y-122760619D01*
X101146427Y-122180048D02*
X101194808Y-122131667D01*
X101291570Y-122083286D01*
X101436712Y-122083286D01*
X101533474Y-122131667D01*
X101581855Y-122228429D01*
X101581855Y-122760619D01*
X101920522Y-122083286D02*
X102307570Y-122083286D01*
X102065665Y-121744619D02*
X102065665Y-122615476D01*
X102114046Y-122712238D01*
X102210808Y-122760619D01*
X102307570Y-122760619D01*
X102646236Y-122760619D02*
X102646236Y-122083286D01*
X102646236Y-122276810D02*
X102694617Y-122180048D01*
X102742998Y-122131667D01*
X102839760Y-122083286D01*
X102936521Y-122083286D01*
X103420331Y-122760619D02*
X103323569Y-122712238D01*
X103275188Y-122663857D01*
X103226807Y-122567095D01*
X103226807Y-122276810D01*
X103275188Y-122180048D01*
X103323569Y-122131667D01*
X103420331Y-122083286D01*
X103565473Y-122083286D01*
X103662235Y-122131667D01*
X103710616Y-122180048D01*
X103758997Y-122276810D01*
X103758997Y-122567095D01*
X103710616Y-122663857D01*
X103662235Y-122712238D01*
X103565473Y-122760619D01*
X103420331Y-122760619D01*
X104339569Y-122760619D02*
X104242807Y-122712238D01*
X104194426Y-122615476D01*
X104194426Y-121744619D01*
X104871759Y-122760619D02*
X104774997Y-122712238D01*
X104726616Y-122615476D01*
X104726616Y-121744619D01*
X105645853Y-122712238D02*
X105549091Y-122760619D01*
X105355568Y-122760619D01*
X105258806Y-122712238D01*
X105210425Y-122615476D01*
X105210425Y-122228429D01*
X105258806Y-122131667D01*
X105355568Y-122083286D01*
X105549091Y-122083286D01*
X105645853Y-122131667D01*
X105694234Y-122228429D01*
X105694234Y-122325190D01*
X105210425Y-122421952D01*
X106129663Y-122760619D02*
X106129663Y-122083286D01*
X106129663Y-122276810D02*
X106178044Y-122180048D01*
X106226425Y-122131667D01*
X106323187Y-122083286D01*
X106419948Y-122083286D01*
X94856905Y-124538619D02*
X94856905Y-123861286D01*
X94856905Y-123958048D02*
X94905286Y-123909667D01*
X95002048Y-123861286D01*
X95147190Y-123861286D01*
X95243952Y-123909667D01*
X95292333Y-124006429D01*
X95292333Y-124538619D01*
X95292333Y-124006429D02*
X95340714Y-123909667D01*
X95437476Y-123861286D01*
X95582619Y-123861286D01*
X95679381Y-123909667D01*
X95727762Y-124006429D01*
X95727762Y-124538619D01*
X96356715Y-124538619D02*
X96259953Y-124490238D01*
X96211572Y-124441857D01*
X96163191Y-124345095D01*
X96163191Y-124054810D01*
X96211572Y-123958048D01*
X96259953Y-123909667D01*
X96356715Y-123861286D01*
X96501857Y-123861286D01*
X96598619Y-123909667D01*
X96647000Y-123958048D01*
X96695381Y-124054810D01*
X96695381Y-124345095D01*
X96647000Y-124441857D01*
X96598619Y-124490238D01*
X96501857Y-124538619D01*
X96356715Y-124538619D01*
X97566238Y-124538619D02*
X97566238Y-123522619D01*
X97566238Y-124490238D02*
X97469476Y-124538619D01*
X97275953Y-124538619D01*
X97179191Y-124490238D01*
X97130810Y-124441857D01*
X97082429Y-124345095D01*
X97082429Y-124054810D01*
X97130810Y-123958048D01*
X97179191Y-123909667D01*
X97275953Y-123861286D01*
X97469476Y-123861286D01*
X97566238Y-123909667D01*
X98437095Y-124490238D02*
X98340333Y-124538619D01*
X98146810Y-124538619D01*
X98050048Y-124490238D01*
X98001667Y-124393476D01*
X98001667Y-124006429D01*
X98050048Y-123909667D01*
X98146810Y-123861286D01*
X98340333Y-123861286D01*
X98437095Y-123909667D01*
X98485476Y-124006429D01*
X98485476Y-124103190D01*
X98001667Y-124199952D01*
X99066048Y-124538619D02*
X98969286Y-124490238D01*
X98920905Y-124393476D01*
X98920905Y-123522619D01*
X99211190Y-124635381D02*
X99985285Y-124635381D01*
X100227190Y-123861286D02*
X100227190Y-124538619D01*
X100227190Y-123958048D02*
X100275571Y-123909667D01*
X100372333Y-123861286D01*
X100517475Y-123861286D01*
X100614237Y-123909667D01*
X100662618Y-124006429D01*
X100662618Y-124538619D01*
X101581856Y-123861286D02*
X101581856Y-124538619D01*
X101146428Y-123861286D02*
X101146428Y-124393476D01*
X101194809Y-124490238D01*
X101291571Y-124538619D01*
X101436713Y-124538619D01*
X101533475Y-124490238D01*
X101581856Y-124441857D01*
X102065666Y-124538619D02*
X102065666Y-123861286D01*
X102065666Y-123958048D02*
X102114047Y-123909667D01*
X102210809Y-123861286D01*
X102355951Y-123861286D01*
X102452713Y-123909667D01*
X102501094Y-124006429D01*
X102501094Y-124538619D01*
X102501094Y-124006429D02*
X102549475Y-123909667D01*
X102646237Y-123861286D01*
X102791380Y-123861286D01*
X102888142Y-123909667D01*
X102936523Y-124006429D01*
X102936523Y-124538619D01*
X103420333Y-124538619D02*
X103420333Y-123522619D01*
X103420333Y-123909667D02*
X103517095Y-123861286D01*
X103710618Y-123861286D01*
X103807380Y-123909667D01*
X103855761Y-123958048D01*
X103904142Y-124054810D01*
X103904142Y-124345095D01*
X103855761Y-124441857D01*
X103807380Y-124490238D01*
X103710618Y-124538619D01*
X103517095Y-124538619D01*
X103420333Y-124490238D01*
X104726618Y-124490238D02*
X104629856Y-124538619D01*
X104436333Y-124538619D01*
X104339571Y-124490238D01*
X104291190Y-124393476D01*
X104291190Y-124006429D01*
X104339571Y-123909667D01*
X104436333Y-123861286D01*
X104629856Y-123861286D01*
X104726618Y-123909667D01*
X104774999Y-124006429D01*
X104774999Y-124103190D01*
X104291190Y-124199952D01*
X105210428Y-124538619D02*
X105210428Y-123861286D01*
X105210428Y-124054810D02*
X105258809Y-123958048D01*
X105307190Y-123909667D01*
X105403952Y-123861286D01*
X105500713Y-123861286D01*
X105839380Y-124441857D02*
X105887761Y-124490238D01*
X105839380Y-124538619D01*
X105790999Y-124490238D01*
X105839380Y-124441857D01*
X105839380Y-124538619D01*
X105839380Y-123909667D02*
X105887761Y-123958048D01*
X105839380Y-124006429D01*
X105790999Y-123958048D01*
X105839380Y-123909667D01*
X105839380Y-124006429D01*
X107629475Y-124538619D02*
X107048904Y-124538619D01*
X107339190Y-124538619D02*
X107339190Y-123522619D01*
X107242428Y-123667762D01*
X107145666Y-123764524D01*
X107048904Y-123812905D01*
X108597094Y-124538619D02*
X108016523Y-124538619D01*
X108306809Y-124538619D02*
X108306809Y-123522619D01*
X108210047Y-123667762D01*
X108113285Y-123764524D01*
X108016523Y-123812905D01*
X109080904Y-124538619D02*
X109274428Y-124538619D01*
X109371189Y-124490238D01*
X109419570Y-124441857D01*
X109516332Y-124296714D01*
X109564713Y-124103190D01*
X109564713Y-123716143D01*
X109516332Y-123619381D01*
X109467951Y-123571000D01*
X109371189Y-123522619D01*
X109177666Y-123522619D01*
X109080904Y-123571000D01*
X109032523Y-123619381D01*
X108984142Y-123716143D01*
X108984142Y-123958048D01*
X109032523Y-124054810D01*
X109080904Y-124103190D01*
X109177666Y-124151571D01*
X109371189Y-124151571D01*
X109467951Y-124103190D01*
X109516332Y-124054810D01*
X109564713Y-123958048D01*
X110193666Y-123522619D02*
X110290427Y-123522619D01*
X110387189Y-123571000D01*
X110435570Y-123619381D01*
X110483951Y-123716143D01*
X110532332Y-123909667D01*
X110532332Y-124151571D01*
X110483951Y-124345095D01*
X110435570Y-124441857D01*
X110387189Y-124490238D01*
X110290427Y-124538619D01*
X110193666Y-124538619D01*
X110096904Y-124490238D01*
X110048523Y-124441857D01*
X110000142Y-124345095D01*
X109951761Y-124151571D01*
X109951761Y-123909667D01*
X110000142Y-123716143D01*
X110048523Y-123619381D01*
X110096904Y-123571000D01*
X110193666Y-123522619D01*
X95050429Y-125300619D02*
X95147190Y-125300619D01*
X95243952Y-125349000D01*
X95292333Y-125397381D01*
X95340714Y-125494143D01*
X95389095Y-125687667D01*
X95389095Y-125929571D01*
X95340714Y-126123095D01*
X95292333Y-126219857D01*
X95243952Y-126268238D01*
X95147190Y-126316619D01*
X95050429Y-126316619D01*
X94953667Y-126268238D01*
X94905286Y-126219857D01*
X94856905Y-126123095D01*
X94808524Y-125929571D01*
X94808524Y-125687667D01*
X94856905Y-125494143D01*
X94905286Y-125397381D01*
X94953667Y-125349000D01*
X95050429Y-125300619D01*
X96259952Y-125639286D02*
X96259952Y-126316619D01*
X96018048Y-125252238D02*
X95776143Y-125977952D01*
X96405095Y-125977952D01*
X97517857Y-125252238D02*
X96647000Y-126558524D01*
X97808143Y-125397381D02*
X97856524Y-125349000D01*
X97953286Y-125300619D01*
X98195190Y-125300619D01*
X98291952Y-125349000D01*
X98340333Y-125397381D01*
X98388714Y-125494143D01*
X98388714Y-125590905D01*
X98340333Y-125736048D01*
X97759762Y-126316619D01*
X98388714Y-126316619D01*
X99017667Y-125300619D02*
X99114428Y-125300619D01*
X99211190Y-125349000D01*
X99259571Y-125397381D01*
X99307952Y-125494143D01*
X99356333Y-125687667D01*
X99356333Y-125929571D01*
X99307952Y-126123095D01*
X99259571Y-126219857D01*
X99211190Y-126268238D01*
X99114428Y-126316619D01*
X99017667Y-126316619D01*
X98920905Y-126268238D01*
X98872524Y-126219857D01*
X98824143Y-126123095D01*
X98775762Y-125929571D01*
X98775762Y-125687667D01*
X98824143Y-125494143D01*
X98872524Y-125397381D01*
X98920905Y-125349000D01*
X99017667Y-125300619D01*
X100323952Y-126316619D02*
X99743381Y-126316619D01*
X100033667Y-126316619D02*
X100033667Y-125300619D01*
X99936905Y-125445762D01*
X99840143Y-125542524D01*
X99743381Y-125590905D01*
X101194809Y-125300619D02*
X101001286Y-125300619D01*
X100904524Y-125349000D01*
X100856143Y-125397381D01*
X100759381Y-125542524D01*
X100711000Y-125736048D01*
X100711000Y-126123095D01*
X100759381Y-126219857D01*
X100807762Y-126268238D01*
X100904524Y-126316619D01*
X101098047Y-126316619D01*
X101194809Y-126268238D01*
X101243190Y-126219857D01*
X101291571Y-126123095D01*
X101291571Y-125881190D01*
X101243190Y-125784429D01*
X101194809Y-125736048D01*
X101098047Y-125687667D01*
X100904524Y-125687667D01*
X100807762Y-125736048D01*
X100759381Y-125784429D01*
X100711000Y-125881190D01*
X102404333Y-125639286D02*
X102646238Y-126316619D01*
X102888142Y-125639286D01*
X103662237Y-126268238D02*
X103565475Y-126316619D01*
X103371952Y-126316619D01*
X103275190Y-126268238D01*
X103226809Y-126171476D01*
X103226809Y-125784429D01*
X103275190Y-125687667D01*
X103371952Y-125639286D01*
X103565475Y-125639286D01*
X103662237Y-125687667D01*
X103710618Y-125784429D01*
X103710618Y-125881190D01*
X103226809Y-125977952D01*
X104146047Y-126316619D02*
X104146047Y-125639286D01*
X104146047Y-125832810D02*
X104194428Y-125736048D01*
X104242809Y-125687667D01*
X104339571Y-125639286D01*
X104436332Y-125639286D01*
X106081284Y-126316619D02*
X105500713Y-126316619D01*
X105790999Y-126316619D02*
X105790999Y-125300619D01*
X105694237Y-125445762D01*
X105597475Y-125542524D01*
X105500713Y-125590905D01*
X106516713Y-126219857D02*
X106565094Y-126268238D01*
X106516713Y-126316619D01*
X106468332Y-126268238D01*
X106516713Y-126219857D01*
X106516713Y-126316619D01*
X107194047Y-125300619D02*
X107290808Y-125300619D01*
X107387570Y-125349000D01*
X107435951Y-125397381D01*
X107484332Y-125494143D01*
X107532713Y-125687667D01*
X107532713Y-125929571D01*
X107484332Y-126123095D01*
X107435951Y-126219857D01*
X107387570Y-126268238D01*
X107290808Y-126316619D01*
X107194047Y-126316619D01*
X107097285Y-126268238D01*
X107048904Y-126219857D01*
X107000523Y-126123095D01*
X106952142Y-125929571D01*
X106952142Y-125687667D01*
X107000523Y-125494143D01*
X107048904Y-125397381D01*
X107097285Y-125349000D01*
X107194047Y-125300619D01*
D13*
X97790000Y-111125000D02*
X97790000Y-119380000D01*
X97790000Y-119380000D02*
X109220000Y-119380000D01*
X109220000Y-119380000D02*
X109220000Y-111125000D01*
X109220000Y-111125000D02*
X97790000Y-111125000D01*
X198120000Y-97790000D02*
X198120000Y-107950000D01*
X198120000Y-107950000D02*
X211455000Y-107950000D01*
X198120000Y-97790000D02*
X211455000Y-97790000D01*
X211455000Y-97790000D02*
X211455000Y-107950000D01*
X105410000Y-100330000D02*
X104648000Y-99568000D01*
X106680000Y-104140000D02*
X105156000Y-105156000D01*
X93345000Y-109220000D02*
X92710000Y-109220000D01*
X92710000Y-109220000D02*
X92710000Y-96520000D01*
X92710000Y-96520000D02*
X93345000Y-96520000D01*
X93345000Y-110490000D02*
X109220000Y-110490000D01*
X109220000Y-110490000D02*
X109220000Y-95250000D01*
X109220000Y-95250000D02*
X93345000Y-95250000D01*
X93345000Y-95250000D02*
X93345000Y-110490000D01*
X107315000Y-98552000D02*
X103505000Y-102362000D01*
X106680000Y-102870000D02*
X106680000Y-105410000D01*
X198120000Y-114935000D02*
X198120000Y-109855000D01*
X198120000Y-109855000D02*
X208280000Y-109855000D01*
X208280000Y-109855000D02*
X208280000Y-114935000D01*
X208280000Y-114935000D02*
X198120000Y-114935000D01*
X87884000Y-91567000D02*
X87884000Y-78867000D01*
X87884000Y-78867000D02*
X101854000Y-78867000D01*
X87884000Y-91567000D02*
X101854000Y-91567000D01*
X101854000Y-91567000D02*
X101854000Y-78867000D01*
X217170000Y-78740000D02*
X217170000Y-91440000D01*
X217170000Y-91440000D02*
X203200000Y-91440000D01*
X217170000Y-78740000D02*
X203200000Y-78740000D01*
X203200000Y-78740000D02*
X203200000Y-91440000D01*
X208915000Y-135890000D02*
X198755000Y-135890000D01*
X198755000Y-135890000D02*
X198755000Y-121920000D01*
X208915000Y-135890000D02*
X208915000Y-121920000D01*
X208915000Y-121920000D02*
X198755000Y-121920000D01*
D15*
X180467000Y-123698000D02*
X180467000Y-122682000D01*
X180975000Y-123190000D02*
X179959000Y-123190000D01*
X177165000Y-124460000D02*
X177165000Y-121920000D01*
X177165000Y-121920000D02*
X184785000Y-121920000D01*
X184785000Y-121920000D02*
X184785000Y-124460000D01*
X184785000Y-124460000D02*
X177165000Y-124460000D01*
X160147000Y-123698000D02*
X160147000Y-122682000D01*
X160655000Y-123190000D02*
X159639000Y-123190000D01*
X156845000Y-124460000D02*
X156845000Y-121920000D01*
X156845000Y-121920000D02*
X164465000Y-121920000D01*
X164465000Y-121920000D02*
X164465000Y-124460000D01*
X164465000Y-124460000D02*
X156845000Y-124460000D01*
X139827000Y-123698000D02*
X139827000Y-122682000D01*
X140335000Y-123190000D02*
X139319000Y-123190000D01*
X136525000Y-124460000D02*
X136525000Y-121920000D01*
X136525000Y-121920000D02*
X144145000Y-121920000D01*
X144145000Y-121920000D02*
X144145000Y-124460000D01*
X144145000Y-124460000D02*
X136525000Y-124460000D01*
X119507000Y-123698000D02*
X119507000Y-122682000D01*
X120015000Y-123190000D02*
X118999000Y-123190000D01*
X116205000Y-124460000D02*
X116205000Y-121920000D01*
X116205000Y-121920000D02*
X123825000Y-121920000D01*
X123825000Y-121920000D02*
X123825000Y-124460000D01*
X123825000Y-124460000D02*
X116205000Y-124460000D01*
X180467000Y-102108000D02*
X180467000Y-101092000D01*
X180975000Y-101600000D02*
X179959000Y-101600000D01*
X177165000Y-102870000D02*
X177165000Y-100330000D01*
X177165000Y-100330000D02*
X184785000Y-100330000D01*
X184785000Y-100330000D02*
X184785000Y-102870000D01*
X184785000Y-102870000D02*
X177165000Y-102870000D01*
X160147000Y-102108000D02*
X160147000Y-101092000D01*
X160655000Y-101600000D02*
X159639000Y-101600000D01*
X156845000Y-102870000D02*
X156845000Y-100330000D01*
X156845000Y-100330000D02*
X164465000Y-100330000D01*
X164465000Y-100330000D02*
X164465000Y-102870000D01*
X164465000Y-102870000D02*
X156845000Y-102870000D01*
X139827000Y-102108000D02*
X139827000Y-101092000D01*
X140335000Y-101600000D02*
X139319000Y-101600000D01*
X136525000Y-102870000D02*
X136525000Y-100330000D01*
X136525000Y-100330000D02*
X144145000Y-100330000D01*
X144145000Y-100330000D02*
X144145000Y-102870000D01*
X144145000Y-102870000D02*
X136525000Y-102870000D01*
X119507000Y-102108000D02*
X119507000Y-101092000D01*
X120015000Y-101600000D02*
X118999000Y-101600000D01*
X116205000Y-102870000D02*
X116205000Y-100330000D01*
X116205000Y-100330000D02*
X123825000Y-100330000D01*
X123825000Y-100330000D02*
X123825000Y-102870000D01*
X123825000Y-102870000D02*
X116205000Y-102870000D01*
X202438000Y-93472000D02*
X202438000Y-94488000D01*
X201930000Y-93980000D02*
X202946000Y-93980000D01*
X205740000Y-92710000D02*
X205740000Y-95250000D01*
X205740000Y-95250000D02*
X198120000Y-95250000D01*
X198120000Y-95250000D02*
X198120000Y-92710000D01*
X198120000Y-92710000D02*
X205740000Y-92710000D01*
D13*
X175895000Y-121615200D02*
X186055000Y-121615200D01*
X175895000Y-107365800D02*
X186055000Y-107365800D01*
X186055000Y-107365800D02*
X186055000Y-121615200D01*
X175895000Y-107365800D02*
X175895000Y-121615200D01*
X155575000Y-121615200D02*
X165735000Y-121615200D01*
X155575000Y-107365800D02*
X165735000Y-107365800D01*
X165735000Y-107365800D02*
X165735000Y-121615200D01*
X155575000Y-107365800D02*
X155575000Y-121615200D01*
X135255000Y-121615200D02*
X145415000Y-121615200D01*
X135255000Y-107365800D02*
X145415000Y-107365800D01*
X145415000Y-107365800D02*
X145415000Y-121615200D01*
X135255000Y-107365800D02*
X135255000Y-121615200D01*
X114935000Y-121615200D02*
X125095000Y-121615200D01*
X114935000Y-107365800D02*
X125095000Y-107365800D01*
X125095000Y-107365800D02*
X125095000Y-121615200D01*
X114935000Y-107365800D02*
X114935000Y-121615200D01*
X175895000Y-100025200D02*
X186055000Y-100025200D01*
X175895000Y-85775800D02*
X186055000Y-85775800D01*
X186055000Y-85775800D02*
X186055000Y-100025200D01*
X175895000Y-85775800D02*
X175895000Y-100025200D01*
X155575000Y-100025200D02*
X165735000Y-100025200D01*
X155575000Y-85775800D02*
X165735000Y-85775800D01*
X165735000Y-85775800D02*
X165735000Y-100025200D01*
X155575000Y-85775800D02*
X155575000Y-100025200D01*
X135255000Y-100025200D02*
X145415000Y-100025200D01*
X135255000Y-85775800D02*
X145415000Y-85775800D01*
X145415000Y-85775800D02*
X145415000Y-100025200D01*
X135255000Y-85775800D02*
X135255000Y-100025200D01*
X114935000Y-100025200D02*
X125095000Y-100025200D01*
X114935000Y-85775800D02*
X125095000Y-85775800D01*
X125095000Y-85775800D02*
X125095000Y-100025200D01*
X114935000Y-85775800D02*
X114935000Y-100025200D01*
D12*
X110949619Y-116071952D02*
X110465810Y-116410618D01*
X110949619Y-116652523D02*
X109933619Y-116652523D01*
X109933619Y-116265476D01*
X109982000Y-116168714D01*
X110030381Y-116120333D01*
X110127143Y-116071952D01*
X110272286Y-116071952D01*
X110369048Y-116120333D01*
X110417429Y-116168714D01*
X110465810Y-116265476D01*
X110465810Y-116652523D01*
X110417429Y-115636523D02*
X110417429Y-115297857D01*
X110949619Y-115152714D02*
X110949619Y-115636523D01*
X109933619Y-115636523D01*
X109933619Y-115152714D01*
X109982000Y-114185095D02*
X109933619Y-114281857D01*
X109933619Y-114427000D01*
X109982000Y-114572142D01*
X110078762Y-114668904D01*
X110175524Y-114717285D01*
X110369048Y-114765666D01*
X110514190Y-114765666D01*
X110707714Y-114717285D01*
X110804476Y-114668904D01*
X110901238Y-114572142D01*
X110949619Y-114427000D01*
X110949619Y-114330238D01*
X110901238Y-114185095D01*
X110852857Y-114136714D01*
X110514190Y-114136714D01*
X110514190Y-114330238D01*
X110949619Y-113169095D02*
X110949619Y-113749666D01*
X110949619Y-113459380D02*
X109933619Y-113459380D01*
X110078762Y-113556142D01*
X110175524Y-113652904D01*
X110223905Y-113749666D01*
X209435096Y-109679619D02*
X209435096Y-108663619D01*
X209822143Y-108663619D01*
X209918905Y-108712000D01*
X209967286Y-108760381D01*
X210015667Y-108857143D01*
X210015667Y-109002286D01*
X209967286Y-109099048D01*
X209918905Y-109147429D01*
X209822143Y-109195810D01*
X209435096Y-109195810D01*
X210983286Y-109679619D02*
X210402715Y-109679619D01*
X210693001Y-109679619D02*
X210693001Y-108663619D01*
X210596239Y-108808762D01*
X210499477Y-108905524D01*
X210402715Y-108953905D01*
X93738096Y-111965619D02*
X93738096Y-110949619D01*
X94125143Y-110949619D01*
X94221905Y-110998000D01*
X94270286Y-111046381D01*
X94318667Y-111143143D01*
X94318667Y-111288286D01*
X94270286Y-111385048D01*
X94221905Y-111433429D01*
X94125143Y-111481810D01*
X93738096Y-111481810D01*
X94657334Y-110949619D02*
X95334667Y-110949619D01*
X94899239Y-111965619D01*
X111203619Y-109861047D02*
X111203619Y-109280476D01*
X112219619Y-109570761D02*
X111203619Y-109570761D01*
X112219619Y-108796666D02*
X112171238Y-108893428D01*
X112122857Y-108941809D01*
X112026095Y-108990190D01*
X111735810Y-108990190D01*
X111639048Y-108941809D01*
X111590667Y-108893428D01*
X111542286Y-108796666D01*
X111542286Y-108651524D01*
X111590667Y-108554762D01*
X111639048Y-108506381D01*
X111735810Y-108458000D01*
X112026095Y-108458000D01*
X112122857Y-108506381D01*
X112171238Y-108554762D01*
X112219619Y-108651524D01*
X112219619Y-108796666D01*
X111542286Y-108022571D02*
X112558286Y-108022571D01*
X111590667Y-108022571D02*
X111542286Y-107925809D01*
X111542286Y-107732286D01*
X111590667Y-107635524D01*
X111639048Y-107587143D01*
X111735810Y-107538762D01*
X112026095Y-107538762D01*
X112122857Y-107587143D01*
X112171238Y-107635524D01*
X112219619Y-107732286D01*
X112219619Y-107925809D01*
X112171238Y-108022571D01*
X112122857Y-107103333D02*
X112171238Y-107054952D01*
X112219619Y-107103333D01*
X112171238Y-107151714D01*
X112122857Y-107103333D01*
X112219619Y-107103333D01*
X111590667Y-107103333D02*
X111639048Y-107054952D01*
X111687429Y-107103333D01*
X111639048Y-107151714D01*
X111590667Y-107103333D01*
X111687429Y-107103333D01*
X111687429Y-105506762D02*
X111735810Y-105361619D01*
X111784190Y-105313238D01*
X111880952Y-105264857D01*
X112026095Y-105264857D01*
X112122857Y-105313238D01*
X112171238Y-105361619D01*
X112219619Y-105458381D01*
X112219619Y-105845428D01*
X111203619Y-105845428D01*
X111203619Y-105506762D01*
X111252000Y-105410000D01*
X111300381Y-105361619D01*
X111397143Y-105313238D01*
X111493905Y-105313238D01*
X111590667Y-105361619D01*
X111639048Y-105410000D01*
X111687429Y-105506762D01*
X111687429Y-105845428D01*
X112219619Y-104829428D02*
X111203619Y-104829428D01*
X112219619Y-104248857D01*
X111203619Y-104248857D01*
X112122857Y-103184476D02*
X112171238Y-103232857D01*
X112219619Y-103378000D01*
X112219619Y-103474762D01*
X112171238Y-103619904D01*
X112074476Y-103716666D01*
X111977714Y-103765047D01*
X111784190Y-103813428D01*
X111639048Y-103813428D01*
X111445524Y-103765047D01*
X111348762Y-103716666D01*
X111252000Y-103619904D01*
X111203619Y-103474762D01*
X111203619Y-103378000D01*
X111252000Y-103232857D01*
X111300381Y-103184476D01*
X111687429Y-101636286D02*
X111735810Y-101491143D01*
X111784190Y-101442762D01*
X111880952Y-101394381D01*
X112026095Y-101394381D01*
X112122857Y-101442762D01*
X112171238Y-101491143D01*
X112219619Y-101587905D01*
X112219619Y-101974952D01*
X111203619Y-101974952D01*
X111203619Y-101636286D01*
X111252000Y-101539524D01*
X111300381Y-101491143D01*
X111397143Y-101442762D01*
X111493905Y-101442762D01*
X111590667Y-101491143D01*
X111639048Y-101539524D01*
X111687429Y-101636286D01*
X111687429Y-101974952D01*
X112606667Y-99894572D02*
X112558286Y-99942952D01*
X112413143Y-100039714D01*
X112316381Y-100088095D01*
X112171238Y-100136476D01*
X111929333Y-100184857D01*
X111735810Y-100184857D01*
X111493905Y-100136476D01*
X111348762Y-100088095D01*
X111252000Y-100039714D01*
X111106857Y-99942952D01*
X111058476Y-99894572D01*
X111203619Y-99652667D02*
X111203619Y-99072096D01*
X112219619Y-99362381D02*
X111203619Y-99362381D01*
X112219619Y-98152858D02*
X111735810Y-98491524D01*
X112219619Y-98733429D02*
X111203619Y-98733429D01*
X111203619Y-98346382D01*
X111252000Y-98249620D01*
X111300381Y-98201239D01*
X111397143Y-98152858D01*
X111542286Y-98152858D01*
X111639048Y-98201239D01*
X111687429Y-98249620D01*
X111735810Y-98346382D01*
X111735810Y-98733429D01*
X112219619Y-97717429D02*
X111203619Y-97717429D01*
X111252000Y-96701429D02*
X111203619Y-96798191D01*
X111203619Y-96943334D01*
X111252000Y-97088476D01*
X111348762Y-97185238D01*
X111445524Y-97233619D01*
X111639048Y-97282000D01*
X111784190Y-97282000D01*
X111977714Y-97233619D01*
X112074476Y-97185238D01*
X112171238Y-97088476D01*
X112219619Y-96943334D01*
X112219619Y-96846572D01*
X112171238Y-96701429D01*
X112122857Y-96653048D01*
X111784190Y-96653048D01*
X111784190Y-96846572D01*
X112606667Y-96314381D02*
X112558286Y-96266000D01*
X112413143Y-96169238D01*
X112316381Y-96120857D01*
X112171238Y-96072476D01*
X111929333Y-96024095D01*
X111735810Y-96024095D01*
X111493905Y-96072476D01*
X111348762Y-96120857D01*
X111252000Y-96169238D01*
X111106857Y-96266000D01*
X111058476Y-96314381D01*
X110163429Y-110296476D02*
X110211810Y-110151333D01*
X110260190Y-110102952D01*
X110356952Y-110054571D01*
X110502095Y-110054571D01*
X110598857Y-110102952D01*
X110647238Y-110151333D01*
X110695619Y-110248095D01*
X110695619Y-110635142D01*
X109679619Y-110635142D01*
X109679619Y-110296476D01*
X109728000Y-110199714D01*
X109776381Y-110151333D01*
X109873143Y-110102952D01*
X109969905Y-110102952D01*
X110066667Y-110151333D01*
X110115048Y-110199714D01*
X110163429Y-110296476D01*
X110163429Y-110635142D01*
X110695619Y-109473999D02*
X110647238Y-109570761D01*
X110598857Y-109619142D01*
X110502095Y-109667523D01*
X110211810Y-109667523D01*
X110115048Y-109619142D01*
X110066667Y-109570761D01*
X110018286Y-109473999D01*
X110018286Y-109328857D01*
X110066667Y-109232095D01*
X110115048Y-109183714D01*
X110211810Y-109135333D01*
X110502095Y-109135333D01*
X110598857Y-109183714D01*
X110647238Y-109232095D01*
X110695619Y-109328857D01*
X110695619Y-109473999D01*
X110018286Y-108845047D02*
X110018286Y-108457999D01*
X109679619Y-108699904D02*
X110550476Y-108699904D01*
X110647238Y-108651523D01*
X110695619Y-108554761D01*
X110695619Y-108457999D01*
X110018286Y-108264476D02*
X110018286Y-107877428D01*
X109679619Y-108119333D02*
X110550476Y-108119333D01*
X110647238Y-108070952D01*
X110695619Y-107974190D01*
X110695619Y-107877428D01*
X110695619Y-107393619D02*
X110647238Y-107490381D01*
X110598857Y-107538762D01*
X110502095Y-107587143D01*
X110211810Y-107587143D01*
X110115048Y-107538762D01*
X110066667Y-107490381D01*
X110018286Y-107393619D01*
X110018286Y-107248477D01*
X110066667Y-107151715D01*
X110115048Y-107103334D01*
X110211810Y-107054953D01*
X110502095Y-107054953D01*
X110598857Y-107103334D01*
X110647238Y-107151715D01*
X110695619Y-107248477D01*
X110695619Y-107393619D01*
X110695619Y-106619524D02*
X110018286Y-106619524D01*
X110115048Y-106619524D02*
X110066667Y-106571143D01*
X110018286Y-106474381D01*
X110018286Y-106329239D01*
X110066667Y-106232477D01*
X110163429Y-106184096D01*
X110695619Y-106184096D01*
X110163429Y-106184096D02*
X110066667Y-106135715D01*
X110018286Y-106038953D01*
X110018286Y-105893810D01*
X110066667Y-105797048D01*
X110163429Y-105748667D01*
X110695619Y-105748667D01*
X110598857Y-105264857D02*
X110647238Y-105216476D01*
X110695619Y-105264857D01*
X110647238Y-105313238D01*
X110598857Y-105264857D01*
X110695619Y-105264857D01*
X110066667Y-105264857D02*
X110115048Y-105216476D01*
X110163429Y-105264857D01*
X110115048Y-105313238D01*
X110066667Y-105264857D01*
X110163429Y-105264857D01*
X110163429Y-103668286D02*
X110211810Y-103523143D01*
X110260190Y-103474762D01*
X110356952Y-103426381D01*
X110502095Y-103426381D01*
X110598857Y-103474762D01*
X110647238Y-103523143D01*
X110695619Y-103619905D01*
X110695619Y-104006952D01*
X109679619Y-104006952D01*
X109679619Y-103668286D01*
X109728000Y-103571524D01*
X109776381Y-103523143D01*
X109873143Y-103474762D01*
X109969905Y-103474762D01*
X110066667Y-103523143D01*
X110115048Y-103571524D01*
X110163429Y-103668286D01*
X110163429Y-104006952D01*
X110695619Y-102990952D02*
X109679619Y-102990952D01*
X110695619Y-102410381D01*
X109679619Y-102410381D01*
X110598857Y-101346000D02*
X110647238Y-101394381D01*
X110695619Y-101539524D01*
X110695619Y-101636286D01*
X110647238Y-101781428D01*
X110550476Y-101878190D01*
X110453714Y-101926571D01*
X110260190Y-101974952D01*
X110115048Y-101974952D01*
X109921524Y-101926571D01*
X109824762Y-101878190D01*
X109728000Y-101781428D01*
X109679619Y-101636286D01*
X109679619Y-101539524D01*
X109728000Y-101394381D01*
X109776381Y-101346000D01*
X110405333Y-100184857D02*
X110405333Y-99701048D01*
X110695619Y-100281619D02*
X109679619Y-99942952D01*
X110695619Y-99604286D01*
X111082667Y-98201239D02*
X111034286Y-98249619D01*
X110889143Y-98346381D01*
X110792381Y-98394762D01*
X110647238Y-98443143D01*
X110405333Y-98491524D01*
X110211810Y-98491524D01*
X109969905Y-98443143D01*
X109824762Y-98394762D01*
X109728000Y-98346381D01*
X109582857Y-98249619D01*
X109534476Y-98201239D01*
X110695619Y-97814191D02*
X109679619Y-97814191D01*
X110598857Y-96749810D02*
X110647238Y-96798191D01*
X110695619Y-96943334D01*
X110695619Y-97040096D01*
X110647238Y-97185238D01*
X110550476Y-97282000D01*
X110453714Y-97330381D01*
X110260190Y-97378762D01*
X110115048Y-97378762D01*
X109921524Y-97330381D01*
X109824762Y-97282000D01*
X109728000Y-97185238D01*
X109679619Y-97040096D01*
X109679619Y-96943334D01*
X109728000Y-96798191D01*
X109776381Y-96749810D01*
X110695619Y-96314381D02*
X109679619Y-96314381D01*
X109679619Y-95927334D01*
X109728000Y-95830572D01*
X109776381Y-95782191D01*
X109873143Y-95733810D01*
X110018286Y-95733810D01*
X110115048Y-95782191D01*
X110163429Y-95830572D01*
X110211810Y-95927334D01*
X110211810Y-96314381D01*
X111082667Y-95395143D02*
X111034286Y-95346762D01*
X110889143Y-95250000D01*
X110792381Y-95201619D01*
X110647238Y-95153238D01*
X110405333Y-95104857D01*
X110211810Y-95104857D01*
X109969905Y-95153238D01*
X109824762Y-95201619D01*
X109728000Y-95250000D01*
X109582857Y-95346762D01*
X109534476Y-95395143D01*
X104321429Y-98733429D02*
X104369810Y-98588286D01*
X104418190Y-98539905D01*
X104514952Y-98491524D01*
X104660095Y-98491524D01*
X104756857Y-98539905D01*
X104805238Y-98588286D01*
X104853619Y-98685048D01*
X104853619Y-99072095D01*
X103837619Y-99072095D01*
X103837619Y-98733429D01*
X103886000Y-98636667D01*
X103934381Y-98588286D01*
X104031143Y-98539905D01*
X104127905Y-98539905D01*
X104224667Y-98588286D01*
X104273048Y-98636667D01*
X104321429Y-98733429D01*
X104321429Y-99072095D01*
X103583619Y-105700285D02*
X103583619Y-105119714D01*
X104599619Y-105409999D02*
X103583619Y-105409999D01*
X208449334Y-115854238D02*
X208594477Y-115902619D01*
X208836381Y-115902619D01*
X208933143Y-115854238D01*
X208981524Y-115805857D01*
X209029905Y-115709095D01*
X209029905Y-115612333D01*
X208981524Y-115515571D01*
X208933143Y-115467190D01*
X208836381Y-115418810D01*
X208642858Y-115370429D01*
X208546096Y-115322048D01*
X208497715Y-115273667D01*
X208449334Y-115176905D01*
X208449334Y-115080143D01*
X208497715Y-114983381D01*
X208546096Y-114935000D01*
X208642858Y-114886619D01*
X208884762Y-114886619D01*
X209029905Y-114935000D01*
X209368572Y-114886619D02*
X209610477Y-115902619D01*
X209804000Y-115176905D01*
X209997524Y-115902619D01*
X210239429Y-114886619D01*
X211158667Y-115902619D02*
X210578096Y-115902619D01*
X210868382Y-115902619D02*
X210868382Y-114886619D01*
X210771620Y-115031762D01*
X210674858Y-115128524D01*
X210578096Y-115176905D01*
X208739619Y-113362618D02*
X208739619Y-113169095D01*
X208788000Y-113072333D01*
X208884762Y-112975571D01*
X209078286Y-112927190D01*
X209416952Y-112927190D01*
X209610476Y-112975571D01*
X209707238Y-113072333D01*
X209755619Y-113169095D01*
X209755619Y-113362618D01*
X209707238Y-113459380D01*
X209610476Y-113556142D01*
X209416952Y-113604523D01*
X209078286Y-113604523D01*
X208884762Y-113556142D01*
X208788000Y-113459380D01*
X208739619Y-113362618D01*
X209223429Y-112153095D02*
X209223429Y-112491761D01*
X209755619Y-112491761D02*
X208739619Y-112491761D01*
X208739619Y-112007952D01*
X209223429Y-111282238D02*
X209223429Y-111620904D01*
X209755619Y-111620904D02*
X208739619Y-111620904D01*
X208739619Y-111137095D01*
X196674619Y-113023952D02*
X196674619Y-112830429D01*
X196723000Y-112733667D01*
X196819762Y-112636905D01*
X197013286Y-112588524D01*
X197351952Y-112588524D01*
X197545476Y-112636905D01*
X197642238Y-112733667D01*
X197690619Y-112830429D01*
X197690619Y-113023952D01*
X197642238Y-113120714D01*
X197545476Y-113217476D01*
X197351952Y-113265857D01*
X197013286Y-113265857D01*
X196819762Y-113217476D01*
X196723000Y-113120714D01*
X196674619Y-113023952D01*
X197690619Y-112153095D02*
X196674619Y-112153095D01*
X197690619Y-111572524D01*
X196674619Y-111572524D01*
X103583619Y-91681904D02*
X102567619Y-91681904D01*
X102567619Y-91294857D01*
X102616000Y-91198095D01*
X102664381Y-91149714D01*
X102761143Y-91101333D01*
X102906286Y-91101333D01*
X103003048Y-91149714D01*
X103051429Y-91198095D01*
X103099810Y-91294857D01*
X103099810Y-91681904D01*
X102664381Y-90714285D02*
X102616000Y-90665904D01*
X102567619Y-90569142D01*
X102567619Y-90327238D01*
X102616000Y-90230476D01*
X102664381Y-90182095D01*
X102761143Y-90133714D01*
X102857905Y-90133714D01*
X103003048Y-90182095D01*
X103583619Y-90762666D01*
X103583619Y-90133714D01*
X202389619Y-80124904D02*
X201373619Y-80124904D01*
X201373619Y-79737857D01*
X201422000Y-79641095D01*
X201470381Y-79592714D01*
X201567143Y-79544333D01*
X201712286Y-79544333D01*
X201809048Y-79592714D01*
X201857429Y-79641095D01*
X201905810Y-79737857D01*
X201905810Y-80124904D01*
X201712286Y-78673476D02*
X202389619Y-78673476D01*
X201325238Y-78915380D02*
X202050952Y-79157285D01*
X202050952Y-78528333D01*
X208800096Y-121109619D02*
X208800096Y-120093619D01*
X209187143Y-120093619D01*
X209283905Y-120142000D01*
X209332286Y-120190381D01*
X209380667Y-120287143D01*
X209380667Y-120432286D01*
X209332286Y-120529048D01*
X209283905Y-120577429D01*
X209187143Y-120625810D01*
X208800096Y-120625810D01*
X210251524Y-120093619D02*
X210058001Y-120093619D01*
X209961239Y-120142000D01*
X209912858Y-120190381D01*
X209816096Y-120335524D01*
X209767715Y-120529048D01*
X209767715Y-120916095D01*
X209816096Y-121012857D01*
X209864477Y-121061238D01*
X209961239Y-121109619D01*
X210154762Y-121109619D01*
X210251524Y-121061238D01*
X210299905Y-121012857D01*
X210348286Y-120916095D01*
X210348286Y-120674190D01*
X210299905Y-120577429D01*
X210251524Y-120529048D01*
X210154762Y-120480667D01*
X209961239Y-120480667D01*
X209864477Y-120529048D01*
X209816096Y-120577429D01*
X209767715Y-120674190D01*
X175725667Y-123649619D02*
X175241858Y-123649619D01*
X175241858Y-122633619D01*
X176112715Y-123649619D02*
X176306239Y-123649619D01*
X176403000Y-123601238D01*
X176451381Y-123552857D01*
X176548143Y-123407714D01*
X176596524Y-123214190D01*
X176596524Y-122827143D01*
X176548143Y-122730381D01*
X176499762Y-122682000D01*
X176403000Y-122633619D01*
X176209477Y-122633619D01*
X176112715Y-122682000D01*
X176064334Y-122730381D01*
X176015953Y-122827143D01*
X176015953Y-123069048D01*
X176064334Y-123165810D01*
X176112715Y-123214190D01*
X176209477Y-123262571D01*
X176403000Y-123262571D01*
X176499762Y-123214190D01*
X176548143Y-123165810D01*
X176596524Y-123069048D01*
X155405667Y-123649619D02*
X154921858Y-123649619D01*
X154921858Y-122633619D01*
X155889477Y-123069048D02*
X155792715Y-123020667D01*
X155744334Y-122972286D01*
X155695953Y-122875524D01*
X155695953Y-122827143D01*
X155744334Y-122730381D01*
X155792715Y-122682000D01*
X155889477Y-122633619D01*
X156083000Y-122633619D01*
X156179762Y-122682000D01*
X156228143Y-122730381D01*
X156276524Y-122827143D01*
X156276524Y-122875524D01*
X156228143Y-122972286D01*
X156179762Y-123020667D01*
X156083000Y-123069048D01*
X155889477Y-123069048D01*
X155792715Y-123117429D01*
X155744334Y-123165810D01*
X155695953Y-123262571D01*
X155695953Y-123456095D01*
X155744334Y-123552857D01*
X155792715Y-123601238D01*
X155889477Y-123649619D01*
X156083000Y-123649619D01*
X156179762Y-123601238D01*
X156228143Y-123552857D01*
X156276524Y-123456095D01*
X156276524Y-123262571D01*
X156228143Y-123165810D01*
X156179762Y-123117429D01*
X156083000Y-123069048D01*
X135085667Y-123649619D02*
X134601858Y-123649619D01*
X134601858Y-122633619D01*
X135327572Y-122633619D02*
X136004905Y-122633619D01*
X135569477Y-123649619D01*
X114765667Y-123649619D02*
X114281858Y-123649619D01*
X114281858Y-122633619D01*
X115539762Y-122633619D02*
X115346239Y-122633619D01*
X115249477Y-122682000D01*
X115201096Y-122730381D01*
X115104334Y-122875524D01*
X115055953Y-123069048D01*
X115055953Y-123456095D01*
X115104334Y-123552857D01*
X115152715Y-123601238D01*
X115249477Y-123649619D01*
X115443000Y-123649619D01*
X115539762Y-123601238D01*
X115588143Y-123552857D01*
X115636524Y-123456095D01*
X115636524Y-123214190D01*
X115588143Y-123117429D01*
X115539762Y-123069048D01*
X115443000Y-123020667D01*
X115249477Y-123020667D01*
X115152715Y-123069048D01*
X115104334Y-123117429D01*
X115055953Y-123214190D01*
X175725667Y-102059619D02*
X175241858Y-102059619D01*
X175241858Y-101043619D01*
X176548143Y-101043619D02*
X176064334Y-101043619D01*
X176015953Y-101527429D01*
X176064334Y-101479048D01*
X176161096Y-101430667D01*
X176403000Y-101430667D01*
X176499762Y-101479048D01*
X176548143Y-101527429D01*
X176596524Y-101624190D01*
X176596524Y-101866095D01*
X176548143Y-101962857D01*
X176499762Y-102011238D01*
X176403000Y-102059619D01*
X176161096Y-102059619D01*
X176064334Y-102011238D01*
X176015953Y-101962857D01*
X155405667Y-102059619D02*
X154921858Y-102059619D01*
X154921858Y-101043619D01*
X156179762Y-101382286D02*
X156179762Y-102059619D01*
X155937858Y-100995238D02*
X155695953Y-101720952D01*
X156324905Y-101720952D01*
X135085667Y-102059619D02*
X134601858Y-102059619D01*
X134601858Y-101043619D01*
X135327572Y-101043619D02*
X135956524Y-101043619D01*
X135617858Y-101430667D01*
X135763000Y-101430667D01*
X135859762Y-101479048D01*
X135908143Y-101527429D01*
X135956524Y-101624190D01*
X135956524Y-101866095D01*
X135908143Y-101962857D01*
X135859762Y-102011238D01*
X135763000Y-102059619D01*
X135472715Y-102059619D01*
X135375953Y-102011238D01*
X135327572Y-101962857D01*
X114765667Y-102059619D02*
X114281858Y-102059619D01*
X114281858Y-101043619D01*
X115055953Y-101140381D02*
X115104334Y-101092000D01*
X115201096Y-101043619D01*
X115443000Y-101043619D01*
X115539762Y-101092000D01*
X115588143Y-101140381D01*
X115636524Y-101237143D01*
X115636524Y-101333905D01*
X115588143Y-101479048D01*
X115007572Y-102059619D01*
X115636524Y-102059619D01*
X206840667Y-94439619D02*
X206356858Y-94439619D01*
X206356858Y-93423619D01*
X207711524Y-94439619D02*
X207130953Y-94439619D01*
X207421239Y-94439619D02*
X207421239Y-93423619D01*
X207324477Y-93568762D01*
X207227715Y-93665524D01*
X207130953Y-93713905D01*
X174068619Y-115074095D02*
X174068619Y-114493524D01*
X175084619Y-114783809D02*
X174068619Y-114783809D01*
X174504048Y-114009714D02*
X174455667Y-114106476D01*
X174407286Y-114154857D01*
X174310524Y-114203238D01*
X174262143Y-114203238D01*
X174165381Y-114154857D01*
X174117000Y-114106476D01*
X174068619Y-114009714D01*
X174068619Y-113816191D01*
X174117000Y-113719429D01*
X174165381Y-113671048D01*
X174262143Y-113622667D01*
X174310524Y-113622667D01*
X174407286Y-113671048D01*
X174455667Y-113719429D01*
X174504048Y-113816191D01*
X174504048Y-114009714D01*
X174552429Y-114106476D01*
X174600810Y-114154857D01*
X174697571Y-114203238D01*
X174891095Y-114203238D01*
X174987857Y-114154857D01*
X175036238Y-114106476D01*
X175084619Y-114009714D01*
X175084619Y-113816191D01*
X175036238Y-113719429D01*
X174987857Y-113671048D01*
X174891095Y-113622667D01*
X174697571Y-113622667D01*
X174600810Y-113671048D01*
X174552429Y-113719429D01*
X174504048Y-113816191D01*
D14*
X180557714Y-120976571D02*
X180557714Y-120541142D01*
X181319714Y-120758856D02*
X180557714Y-120758856D01*
X180920571Y-120287142D02*
X180920571Y-120033142D01*
X181319714Y-119924285D02*
X181319714Y-120287142D01*
X180557714Y-120287142D01*
X180557714Y-119924285D01*
X181319714Y-119162285D02*
X180956857Y-119416285D01*
X181319714Y-119597713D02*
X180557714Y-119597713D01*
X180557714Y-119307428D01*
X180594000Y-119234856D01*
X180630286Y-119198571D01*
X180702857Y-119162285D01*
X180811714Y-119162285D01*
X180884286Y-119198571D01*
X180920571Y-119234856D01*
X180956857Y-119307428D01*
X180956857Y-119597713D01*
X181319714Y-118835713D02*
X180557714Y-118835713D01*
X181102000Y-118581713D01*
X180557714Y-118327713D01*
X181319714Y-118327713D01*
X181392286Y-118146285D02*
X181392286Y-117565714D01*
X180920571Y-117130285D02*
X180956857Y-117021428D01*
X180993143Y-116985143D01*
X181065714Y-116948857D01*
X181174571Y-116948857D01*
X181247143Y-116985143D01*
X181283429Y-117021428D01*
X181319714Y-117094000D01*
X181319714Y-117384285D01*
X180557714Y-117384285D01*
X180557714Y-117130285D01*
X180594000Y-117057714D01*
X180630286Y-117021428D01*
X180702857Y-116985143D01*
X180775429Y-116985143D01*
X180848000Y-117021428D01*
X180884286Y-117057714D01*
X180920571Y-117130285D01*
X180920571Y-117384285D01*
X181319714Y-116259428D02*
X181319714Y-116622285D01*
X180557714Y-116622285D01*
X181319714Y-116005428D02*
X180557714Y-116005428D01*
X181319714Y-115570000D02*
X180884286Y-115896571D01*
X180557714Y-115570000D02*
X180993143Y-116005428D01*
X181392286Y-115424857D02*
X181392286Y-114844286D01*
X181102000Y-114699143D02*
X181102000Y-114336286D01*
X181319714Y-114771715D02*
X180557714Y-114517715D01*
X181319714Y-114263715D01*
X181319714Y-114009714D02*
X180557714Y-114009714D01*
X181319714Y-113574286D01*
X180557714Y-113574286D01*
X180594000Y-112812286D02*
X180557714Y-112884857D01*
X180557714Y-112993714D01*
X180594000Y-113102571D01*
X180666571Y-113175143D01*
X180739143Y-113211428D01*
X180884286Y-113247714D01*
X180993143Y-113247714D01*
X181138286Y-113211428D01*
X181210857Y-113175143D01*
X181283429Y-113102571D01*
X181319714Y-112993714D01*
X181319714Y-112921143D01*
X181283429Y-112812286D01*
X181247143Y-112776000D01*
X180993143Y-112776000D01*
X180993143Y-112921143D01*
X181392286Y-112630857D02*
X181392286Y-112050286D01*
X180630286Y-111905143D02*
X180594000Y-111868857D01*
X180557714Y-111796286D01*
X180557714Y-111614857D01*
X180594000Y-111542286D01*
X180630286Y-111506000D01*
X180702857Y-111469715D01*
X180775429Y-111469715D01*
X180884286Y-111506000D01*
X181319714Y-111941429D01*
X181319714Y-111469715D01*
X181392286Y-111324572D02*
X181392286Y-110744001D01*
X181319714Y-110562572D02*
X180557714Y-110562572D01*
X180557714Y-110272287D01*
X180594000Y-110199715D01*
X180630286Y-110163430D01*
X180702857Y-110127144D01*
X180811714Y-110127144D01*
X180884286Y-110163430D01*
X180920571Y-110199715D01*
X180956857Y-110272287D01*
X180956857Y-110562572D01*
X181319714Y-109800572D02*
X180557714Y-109800572D01*
X181319714Y-109437715D02*
X180557714Y-109437715D01*
X181319714Y-109002287D01*
X180557714Y-109002287D01*
D12*
X153748619Y-115074095D02*
X153748619Y-114493524D01*
X154764619Y-114783809D02*
X153748619Y-114783809D01*
X153748619Y-114251619D02*
X153748619Y-113574286D01*
X154764619Y-114009714D01*
D14*
X160237714Y-120976571D02*
X160237714Y-120541142D01*
X160999714Y-120758856D02*
X160237714Y-120758856D01*
X160600571Y-120287142D02*
X160600571Y-120033142D01*
X160999714Y-119924285D02*
X160999714Y-120287142D01*
X160237714Y-120287142D01*
X160237714Y-119924285D01*
X160999714Y-119162285D02*
X160636857Y-119416285D01*
X160999714Y-119597713D02*
X160237714Y-119597713D01*
X160237714Y-119307428D01*
X160274000Y-119234856D01*
X160310286Y-119198571D01*
X160382857Y-119162285D01*
X160491714Y-119162285D01*
X160564286Y-119198571D01*
X160600571Y-119234856D01*
X160636857Y-119307428D01*
X160636857Y-119597713D01*
X160999714Y-118835713D02*
X160237714Y-118835713D01*
X160782000Y-118581713D01*
X160237714Y-118327713D01*
X160999714Y-118327713D01*
X161072286Y-118146285D02*
X161072286Y-117565714D01*
X160600571Y-117130285D02*
X160636857Y-117021428D01*
X160673143Y-116985143D01*
X160745714Y-116948857D01*
X160854571Y-116948857D01*
X160927143Y-116985143D01*
X160963429Y-117021428D01*
X160999714Y-117094000D01*
X160999714Y-117384285D01*
X160237714Y-117384285D01*
X160237714Y-117130285D01*
X160274000Y-117057714D01*
X160310286Y-117021428D01*
X160382857Y-116985143D01*
X160455429Y-116985143D01*
X160528000Y-117021428D01*
X160564286Y-117057714D01*
X160600571Y-117130285D01*
X160600571Y-117384285D01*
X160999714Y-116259428D02*
X160999714Y-116622285D01*
X160237714Y-116622285D01*
X160999714Y-116005428D02*
X160237714Y-116005428D01*
X160999714Y-115570000D02*
X160564286Y-115896571D01*
X160237714Y-115570000D02*
X160673143Y-116005428D01*
X161072286Y-115424857D02*
X161072286Y-114844286D01*
X160782000Y-114699143D02*
X160782000Y-114336286D01*
X160999714Y-114771715D02*
X160237714Y-114517715D01*
X160999714Y-114263715D01*
X160999714Y-114009714D02*
X160237714Y-114009714D01*
X160999714Y-113574286D01*
X160237714Y-113574286D01*
X160274000Y-112812286D02*
X160237714Y-112884857D01*
X160237714Y-112993714D01*
X160274000Y-113102571D01*
X160346571Y-113175143D01*
X160419143Y-113211428D01*
X160564286Y-113247714D01*
X160673143Y-113247714D01*
X160818286Y-113211428D01*
X160890857Y-113175143D01*
X160963429Y-113102571D01*
X160999714Y-112993714D01*
X160999714Y-112921143D01*
X160963429Y-112812286D01*
X160927143Y-112776000D01*
X160673143Y-112776000D01*
X160673143Y-112921143D01*
X161072286Y-112630857D02*
X161072286Y-112050286D01*
X160310286Y-111905143D02*
X160274000Y-111868857D01*
X160237714Y-111796286D01*
X160237714Y-111614857D01*
X160274000Y-111542286D01*
X160310286Y-111506000D01*
X160382857Y-111469715D01*
X160455429Y-111469715D01*
X160564286Y-111506000D01*
X160999714Y-111941429D01*
X160999714Y-111469715D01*
X161072286Y-111324572D02*
X161072286Y-110744001D01*
X160999714Y-110562572D02*
X160237714Y-110562572D01*
X160237714Y-110272287D01*
X160274000Y-110199715D01*
X160310286Y-110163430D01*
X160382857Y-110127144D01*
X160491714Y-110127144D01*
X160564286Y-110163430D01*
X160600571Y-110199715D01*
X160636857Y-110272287D01*
X160636857Y-110562572D01*
X160999714Y-109800572D02*
X160237714Y-109800572D01*
X160999714Y-109437715D02*
X160237714Y-109437715D01*
X160999714Y-109002287D01*
X160237714Y-109002287D01*
D12*
X133428619Y-115074095D02*
X133428619Y-114493524D01*
X134444619Y-114783809D02*
X133428619Y-114783809D01*
X133428619Y-113719429D02*
X133428619Y-113912952D01*
X133477000Y-114009714D01*
X133525381Y-114058095D01*
X133670524Y-114154857D01*
X133864048Y-114203238D01*
X134251095Y-114203238D01*
X134347857Y-114154857D01*
X134396238Y-114106476D01*
X134444619Y-114009714D01*
X134444619Y-113816191D01*
X134396238Y-113719429D01*
X134347857Y-113671048D01*
X134251095Y-113622667D01*
X134009190Y-113622667D01*
X133912429Y-113671048D01*
X133864048Y-113719429D01*
X133815667Y-113816191D01*
X133815667Y-114009714D01*
X133864048Y-114106476D01*
X133912429Y-114154857D01*
X134009190Y-114203238D01*
D14*
X139917714Y-120976571D02*
X139917714Y-120541142D01*
X140679714Y-120758856D02*
X139917714Y-120758856D01*
X140280571Y-120287142D02*
X140280571Y-120033142D01*
X140679714Y-119924285D02*
X140679714Y-120287142D01*
X139917714Y-120287142D01*
X139917714Y-119924285D01*
X140679714Y-119162285D02*
X140316857Y-119416285D01*
X140679714Y-119597713D02*
X139917714Y-119597713D01*
X139917714Y-119307428D01*
X139954000Y-119234856D01*
X139990286Y-119198571D01*
X140062857Y-119162285D01*
X140171714Y-119162285D01*
X140244286Y-119198571D01*
X140280571Y-119234856D01*
X140316857Y-119307428D01*
X140316857Y-119597713D01*
X140679714Y-118835713D02*
X139917714Y-118835713D01*
X140462000Y-118581713D01*
X139917714Y-118327713D01*
X140679714Y-118327713D01*
X140752286Y-118146285D02*
X140752286Y-117565714D01*
X140280571Y-117130285D02*
X140316857Y-117021428D01*
X140353143Y-116985143D01*
X140425714Y-116948857D01*
X140534571Y-116948857D01*
X140607143Y-116985143D01*
X140643429Y-117021428D01*
X140679714Y-117094000D01*
X140679714Y-117384285D01*
X139917714Y-117384285D01*
X139917714Y-117130285D01*
X139954000Y-117057714D01*
X139990286Y-117021428D01*
X140062857Y-116985143D01*
X140135429Y-116985143D01*
X140208000Y-117021428D01*
X140244286Y-117057714D01*
X140280571Y-117130285D01*
X140280571Y-117384285D01*
X140679714Y-116259428D02*
X140679714Y-116622285D01*
X139917714Y-116622285D01*
X140679714Y-116005428D02*
X139917714Y-116005428D01*
X140679714Y-115570000D02*
X140244286Y-115896571D01*
X139917714Y-115570000D02*
X140353143Y-116005428D01*
X140752286Y-115424857D02*
X140752286Y-114844286D01*
X140462000Y-114699143D02*
X140462000Y-114336286D01*
X140679714Y-114771715D02*
X139917714Y-114517715D01*
X140679714Y-114263715D01*
X140679714Y-114009714D02*
X139917714Y-114009714D01*
X140679714Y-113574286D01*
X139917714Y-113574286D01*
X139954000Y-112812286D02*
X139917714Y-112884857D01*
X139917714Y-112993714D01*
X139954000Y-113102571D01*
X140026571Y-113175143D01*
X140099143Y-113211428D01*
X140244286Y-113247714D01*
X140353143Y-113247714D01*
X140498286Y-113211428D01*
X140570857Y-113175143D01*
X140643429Y-113102571D01*
X140679714Y-112993714D01*
X140679714Y-112921143D01*
X140643429Y-112812286D01*
X140607143Y-112776000D01*
X140353143Y-112776000D01*
X140353143Y-112921143D01*
X140752286Y-112630857D02*
X140752286Y-112050286D01*
X139990286Y-111905143D02*
X139954000Y-111868857D01*
X139917714Y-111796286D01*
X139917714Y-111614857D01*
X139954000Y-111542286D01*
X139990286Y-111506000D01*
X140062857Y-111469715D01*
X140135429Y-111469715D01*
X140244286Y-111506000D01*
X140679714Y-111941429D01*
X140679714Y-111469715D01*
X140752286Y-111324572D02*
X140752286Y-110744001D01*
X140679714Y-110562572D02*
X139917714Y-110562572D01*
X139917714Y-110272287D01*
X139954000Y-110199715D01*
X139990286Y-110163430D01*
X140062857Y-110127144D01*
X140171714Y-110127144D01*
X140244286Y-110163430D01*
X140280571Y-110199715D01*
X140316857Y-110272287D01*
X140316857Y-110562572D01*
X140679714Y-109800572D02*
X139917714Y-109800572D01*
X140679714Y-109437715D02*
X139917714Y-109437715D01*
X140679714Y-109002287D01*
X139917714Y-109002287D01*
D12*
X113108619Y-115074095D02*
X113108619Y-114493524D01*
X114124619Y-114783809D02*
X113108619Y-114783809D01*
X113108619Y-113671048D02*
X113108619Y-114154857D01*
X113592429Y-114203238D01*
X113544048Y-114154857D01*
X113495667Y-114058095D01*
X113495667Y-113816191D01*
X113544048Y-113719429D01*
X113592429Y-113671048D01*
X113689190Y-113622667D01*
X113931095Y-113622667D01*
X114027857Y-113671048D01*
X114076238Y-113719429D01*
X114124619Y-113816191D01*
X114124619Y-114058095D01*
X114076238Y-114154857D01*
X114027857Y-114203238D01*
D14*
X119597714Y-120976571D02*
X119597714Y-120541142D01*
X120359714Y-120758856D02*
X119597714Y-120758856D01*
X119960571Y-120287142D02*
X119960571Y-120033142D01*
X120359714Y-119924285D02*
X120359714Y-120287142D01*
X119597714Y-120287142D01*
X119597714Y-119924285D01*
X120359714Y-119162285D02*
X119996857Y-119416285D01*
X120359714Y-119597713D02*
X119597714Y-119597713D01*
X119597714Y-119307428D01*
X119634000Y-119234856D01*
X119670286Y-119198571D01*
X119742857Y-119162285D01*
X119851714Y-119162285D01*
X119924286Y-119198571D01*
X119960571Y-119234856D01*
X119996857Y-119307428D01*
X119996857Y-119597713D01*
X120359714Y-118835713D02*
X119597714Y-118835713D01*
X120142000Y-118581713D01*
X119597714Y-118327713D01*
X120359714Y-118327713D01*
X120432286Y-118146285D02*
X120432286Y-117565714D01*
X119960571Y-117130285D02*
X119996857Y-117021428D01*
X120033143Y-116985143D01*
X120105714Y-116948857D01*
X120214571Y-116948857D01*
X120287143Y-116985143D01*
X120323429Y-117021428D01*
X120359714Y-117094000D01*
X120359714Y-117384285D01*
X119597714Y-117384285D01*
X119597714Y-117130285D01*
X119634000Y-117057714D01*
X119670286Y-117021428D01*
X119742857Y-116985143D01*
X119815429Y-116985143D01*
X119888000Y-117021428D01*
X119924286Y-117057714D01*
X119960571Y-117130285D01*
X119960571Y-117384285D01*
X120359714Y-116259428D02*
X120359714Y-116622285D01*
X119597714Y-116622285D01*
X120359714Y-116005428D02*
X119597714Y-116005428D01*
X120359714Y-115570000D02*
X119924286Y-115896571D01*
X119597714Y-115570000D02*
X120033143Y-116005428D01*
X120432286Y-115424857D02*
X120432286Y-114844286D01*
X120142000Y-114699143D02*
X120142000Y-114336286D01*
X120359714Y-114771715D02*
X119597714Y-114517715D01*
X120359714Y-114263715D01*
X120359714Y-114009714D02*
X119597714Y-114009714D01*
X120359714Y-113574286D01*
X119597714Y-113574286D01*
X119634000Y-112812286D02*
X119597714Y-112884857D01*
X119597714Y-112993714D01*
X119634000Y-113102571D01*
X119706571Y-113175143D01*
X119779143Y-113211428D01*
X119924286Y-113247714D01*
X120033143Y-113247714D01*
X120178286Y-113211428D01*
X120250857Y-113175143D01*
X120323429Y-113102571D01*
X120359714Y-112993714D01*
X120359714Y-112921143D01*
X120323429Y-112812286D01*
X120287143Y-112776000D01*
X120033143Y-112776000D01*
X120033143Y-112921143D01*
X120432286Y-112630857D02*
X120432286Y-112050286D01*
X119670286Y-111905143D02*
X119634000Y-111868857D01*
X119597714Y-111796286D01*
X119597714Y-111614857D01*
X119634000Y-111542286D01*
X119670286Y-111506000D01*
X119742857Y-111469715D01*
X119815429Y-111469715D01*
X119924286Y-111506000D01*
X120359714Y-111941429D01*
X120359714Y-111469715D01*
X120432286Y-111324572D02*
X120432286Y-110744001D01*
X120359714Y-110562572D02*
X119597714Y-110562572D01*
X119597714Y-110272287D01*
X119634000Y-110199715D01*
X119670286Y-110163430D01*
X119742857Y-110127144D01*
X119851714Y-110127144D01*
X119924286Y-110163430D01*
X119960571Y-110199715D01*
X119996857Y-110272287D01*
X119996857Y-110562572D01*
X120359714Y-109800572D02*
X119597714Y-109800572D01*
X120359714Y-109437715D02*
X119597714Y-109437715D01*
X120359714Y-109002287D01*
X119597714Y-109002287D01*
D12*
X174068619Y-93484095D02*
X174068619Y-92903524D01*
X175084619Y-93193809D02*
X174068619Y-93193809D01*
X174407286Y-92129429D02*
X175084619Y-92129429D01*
X174020238Y-92371333D02*
X174745952Y-92613238D01*
X174745952Y-91984286D01*
D14*
X180557714Y-99386571D02*
X180557714Y-98951142D01*
X181319714Y-99168856D02*
X180557714Y-99168856D01*
X180920571Y-98697142D02*
X180920571Y-98443142D01*
X181319714Y-98334285D02*
X181319714Y-98697142D01*
X180557714Y-98697142D01*
X180557714Y-98334285D01*
X181319714Y-97572285D02*
X180956857Y-97826285D01*
X181319714Y-98007713D02*
X180557714Y-98007713D01*
X180557714Y-97717428D01*
X180594000Y-97644856D01*
X180630286Y-97608571D01*
X180702857Y-97572285D01*
X180811714Y-97572285D01*
X180884286Y-97608571D01*
X180920571Y-97644856D01*
X180956857Y-97717428D01*
X180956857Y-98007713D01*
X181319714Y-97245713D02*
X180557714Y-97245713D01*
X181102000Y-96991713D01*
X180557714Y-96737713D01*
X181319714Y-96737713D01*
X181392286Y-96556285D02*
X181392286Y-95975714D01*
X180920571Y-95540285D02*
X180956857Y-95431428D01*
X180993143Y-95395143D01*
X181065714Y-95358857D01*
X181174571Y-95358857D01*
X181247143Y-95395143D01*
X181283429Y-95431428D01*
X181319714Y-95504000D01*
X181319714Y-95794285D01*
X180557714Y-95794285D01*
X180557714Y-95540285D01*
X180594000Y-95467714D01*
X180630286Y-95431428D01*
X180702857Y-95395143D01*
X180775429Y-95395143D01*
X180848000Y-95431428D01*
X180884286Y-95467714D01*
X180920571Y-95540285D01*
X180920571Y-95794285D01*
X181319714Y-94669428D02*
X181319714Y-95032285D01*
X180557714Y-95032285D01*
X181319714Y-94415428D02*
X180557714Y-94415428D01*
X181319714Y-93980000D02*
X180884286Y-94306571D01*
X180557714Y-93980000D02*
X180993143Y-94415428D01*
X181392286Y-93834857D02*
X181392286Y-93254286D01*
X181102000Y-93109143D02*
X181102000Y-92746286D01*
X181319714Y-93181715D02*
X180557714Y-92927715D01*
X181319714Y-92673715D01*
X181319714Y-92419714D02*
X180557714Y-92419714D01*
X181319714Y-91984286D01*
X180557714Y-91984286D01*
X180594000Y-91222286D02*
X180557714Y-91294857D01*
X180557714Y-91403714D01*
X180594000Y-91512571D01*
X180666571Y-91585143D01*
X180739143Y-91621428D01*
X180884286Y-91657714D01*
X180993143Y-91657714D01*
X181138286Y-91621428D01*
X181210857Y-91585143D01*
X181283429Y-91512571D01*
X181319714Y-91403714D01*
X181319714Y-91331143D01*
X181283429Y-91222286D01*
X181247143Y-91186000D01*
X180993143Y-91186000D01*
X180993143Y-91331143D01*
X181392286Y-91040857D02*
X181392286Y-90460286D01*
X180630286Y-90315143D02*
X180594000Y-90278857D01*
X180557714Y-90206286D01*
X180557714Y-90024857D01*
X180594000Y-89952286D01*
X180630286Y-89916000D01*
X180702857Y-89879715D01*
X180775429Y-89879715D01*
X180884286Y-89916000D01*
X181319714Y-90351429D01*
X181319714Y-89879715D01*
X181392286Y-89734572D02*
X181392286Y-89154001D01*
X181319714Y-88972572D02*
X180557714Y-88972572D01*
X180557714Y-88682287D01*
X180594000Y-88609715D01*
X180630286Y-88573430D01*
X180702857Y-88537144D01*
X180811714Y-88537144D01*
X180884286Y-88573430D01*
X180920571Y-88609715D01*
X180956857Y-88682287D01*
X180956857Y-88972572D01*
X181319714Y-88210572D02*
X180557714Y-88210572D01*
X181319714Y-87847715D02*
X180557714Y-87847715D01*
X181319714Y-87412287D01*
X180557714Y-87412287D01*
D12*
X153748619Y-93484095D02*
X153748619Y-92903524D01*
X154764619Y-93193809D02*
X153748619Y-93193809D01*
X153748619Y-92661619D02*
X153748619Y-92032667D01*
X154135667Y-92371333D01*
X154135667Y-92226191D01*
X154184048Y-92129429D01*
X154232429Y-92081048D01*
X154329190Y-92032667D01*
X154571095Y-92032667D01*
X154667857Y-92081048D01*
X154716238Y-92129429D01*
X154764619Y-92226191D01*
X154764619Y-92516476D01*
X154716238Y-92613238D01*
X154667857Y-92661619D01*
D14*
X160237714Y-99386571D02*
X160237714Y-98951142D01*
X160999714Y-99168856D02*
X160237714Y-99168856D01*
X160600571Y-98697142D02*
X160600571Y-98443142D01*
X160999714Y-98334285D02*
X160999714Y-98697142D01*
X160237714Y-98697142D01*
X160237714Y-98334285D01*
X160999714Y-97572285D02*
X160636857Y-97826285D01*
X160999714Y-98007713D02*
X160237714Y-98007713D01*
X160237714Y-97717428D01*
X160274000Y-97644856D01*
X160310286Y-97608571D01*
X160382857Y-97572285D01*
X160491714Y-97572285D01*
X160564286Y-97608571D01*
X160600571Y-97644856D01*
X160636857Y-97717428D01*
X160636857Y-98007713D01*
X160999714Y-97245713D02*
X160237714Y-97245713D01*
X160782000Y-96991713D01*
X160237714Y-96737713D01*
X160999714Y-96737713D01*
X161072286Y-96556285D02*
X161072286Y-95975714D01*
X160600571Y-95540285D02*
X160636857Y-95431428D01*
X160673143Y-95395143D01*
X160745714Y-95358857D01*
X160854571Y-95358857D01*
X160927143Y-95395143D01*
X160963429Y-95431428D01*
X160999714Y-95504000D01*
X160999714Y-95794285D01*
X160237714Y-95794285D01*
X160237714Y-95540285D01*
X160274000Y-95467714D01*
X160310286Y-95431428D01*
X160382857Y-95395143D01*
X160455429Y-95395143D01*
X160528000Y-95431428D01*
X160564286Y-95467714D01*
X160600571Y-95540285D01*
X160600571Y-95794285D01*
X160999714Y-94669428D02*
X160999714Y-95032285D01*
X160237714Y-95032285D01*
X160999714Y-94415428D02*
X160237714Y-94415428D01*
X160999714Y-93980000D02*
X160564286Y-94306571D01*
X160237714Y-93980000D02*
X160673143Y-94415428D01*
X161072286Y-93834857D02*
X161072286Y-93254286D01*
X160782000Y-93109143D02*
X160782000Y-92746286D01*
X160999714Y-93181715D02*
X160237714Y-92927715D01*
X160999714Y-92673715D01*
X160999714Y-92419714D02*
X160237714Y-92419714D01*
X160999714Y-91984286D01*
X160237714Y-91984286D01*
X160274000Y-91222286D02*
X160237714Y-91294857D01*
X160237714Y-91403714D01*
X160274000Y-91512571D01*
X160346571Y-91585143D01*
X160419143Y-91621428D01*
X160564286Y-91657714D01*
X160673143Y-91657714D01*
X160818286Y-91621428D01*
X160890857Y-91585143D01*
X160963429Y-91512571D01*
X160999714Y-91403714D01*
X160999714Y-91331143D01*
X160963429Y-91222286D01*
X160927143Y-91186000D01*
X160673143Y-91186000D01*
X160673143Y-91331143D01*
X161072286Y-91040857D02*
X161072286Y-90460286D01*
X160310286Y-90315143D02*
X160274000Y-90278857D01*
X160237714Y-90206286D01*
X160237714Y-90024857D01*
X160274000Y-89952286D01*
X160310286Y-89916000D01*
X160382857Y-89879715D01*
X160455429Y-89879715D01*
X160564286Y-89916000D01*
X160999714Y-90351429D01*
X160999714Y-89879715D01*
X161072286Y-89734572D02*
X161072286Y-89154001D01*
X160999714Y-88972572D02*
X160237714Y-88972572D01*
X160237714Y-88682287D01*
X160274000Y-88609715D01*
X160310286Y-88573430D01*
X160382857Y-88537144D01*
X160491714Y-88537144D01*
X160564286Y-88573430D01*
X160600571Y-88609715D01*
X160636857Y-88682287D01*
X160636857Y-88972572D01*
X160999714Y-88210572D02*
X160237714Y-88210572D01*
X160999714Y-87847715D02*
X160237714Y-87847715D01*
X160999714Y-87412287D01*
X160237714Y-87412287D01*
D12*
X133428619Y-93484095D02*
X133428619Y-92903524D01*
X134444619Y-93193809D02*
X133428619Y-93193809D01*
X133525381Y-92613238D02*
X133477000Y-92564857D01*
X133428619Y-92468095D01*
X133428619Y-92226191D01*
X133477000Y-92129429D01*
X133525381Y-92081048D01*
X133622143Y-92032667D01*
X133718905Y-92032667D01*
X133864048Y-92081048D01*
X134444619Y-92661619D01*
X134444619Y-92032667D01*
D14*
X139917714Y-99386571D02*
X139917714Y-98951142D01*
X140679714Y-99168856D02*
X139917714Y-99168856D01*
X140280571Y-98697142D02*
X140280571Y-98443142D01*
X140679714Y-98334285D02*
X140679714Y-98697142D01*
X139917714Y-98697142D01*
X139917714Y-98334285D01*
X140679714Y-97572285D02*
X140316857Y-97826285D01*
X140679714Y-98007713D02*
X139917714Y-98007713D01*
X139917714Y-97717428D01*
X139954000Y-97644856D01*
X139990286Y-97608571D01*
X140062857Y-97572285D01*
X140171714Y-97572285D01*
X140244286Y-97608571D01*
X140280571Y-97644856D01*
X140316857Y-97717428D01*
X140316857Y-98007713D01*
X140679714Y-97245713D02*
X139917714Y-97245713D01*
X140462000Y-96991713D01*
X139917714Y-96737713D01*
X140679714Y-96737713D01*
X140752286Y-96556285D02*
X140752286Y-95975714D01*
X140280571Y-95540285D02*
X140316857Y-95431428D01*
X140353143Y-95395143D01*
X140425714Y-95358857D01*
X140534571Y-95358857D01*
X140607143Y-95395143D01*
X140643429Y-95431428D01*
X140679714Y-95504000D01*
X140679714Y-95794285D01*
X139917714Y-95794285D01*
X139917714Y-95540285D01*
X139954000Y-95467714D01*
X139990286Y-95431428D01*
X140062857Y-95395143D01*
X140135429Y-95395143D01*
X140208000Y-95431428D01*
X140244286Y-95467714D01*
X140280571Y-95540285D01*
X140280571Y-95794285D01*
X140679714Y-94669428D02*
X140679714Y-95032285D01*
X139917714Y-95032285D01*
X140679714Y-94415428D02*
X139917714Y-94415428D01*
X140679714Y-93980000D02*
X140244286Y-94306571D01*
X139917714Y-93980000D02*
X140353143Y-94415428D01*
X140752286Y-93834857D02*
X140752286Y-93254286D01*
X140462000Y-93109143D02*
X140462000Y-92746286D01*
X140679714Y-93181715D02*
X139917714Y-92927715D01*
X140679714Y-92673715D01*
X140679714Y-92419714D02*
X139917714Y-92419714D01*
X140679714Y-91984286D01*
X139917714Y-91984286D01*
X139954000Y-91222286D02*
X139917714Y-91294857D01*
X139917714Y-91403714D01*
X139954000Y-91512571D01*
X140026571Y-91585143D01*
X140099143Y-91621428D01*
X140244286Y-91657714D01*
X140353143Y-91657714D01*
X140498286Y-91621428D01*
X140570857Y-91585143D01*
X140643429Y-91512571D01*
X140679714Y-91403714D01*
X140679714Y-91331143D01*
X140643429Y-91222286D01*
X140607143Y-91186000D01*
X140353143Y-91186000D01*
X140353143Y-91331143D01*
X140752286Y-91040857D02*
X140752286Y-90460286D01*
X139990286Y-90315143D02*
X139954000Y-90278857D01*
X139917714Y-90206286D01*
X139917714Y-90024857D01*
X139954000Y-89952286D01*
X139990286Y-89916000D01*
X140062857Y-89879715D01*
X140135429Y-89879715D01*
X140244286Y-89916000D01*
X140679714Y-90351429D01*
X140679714Y-89879715D01*
X140752286Y-89734572D02*
X140752286Y-89154001D01*
X140679714Y-88972572D02*
X139917714Y-88972572D01*
X139917714Y-88682287D01*
X139954000Y-88609715D01*
X139990286Y-88573430D01*
X140062857Y-88537144D01*
X140171714Y-88537144D01*
X140244286Y-88573430D01*
X140280571Y-88609715D01*
X140316857Y-88682287D01*
X140316857Y-88972572D01*
X140679714Y-88210572D02*
X139917714Y-88210572D01*
X140679714Y-87847715D02*
X139917714Y-87847715D01*
X140679714Y-87412287D01*
X139917714Y-87412287D01*
D12*
X113108619Y-93484095D02*
X113108619Y-92903524D01*
X114124619Y-93193809D02*
X113108619Y-93193809D01*
X114124619Y-92032667D02*
X114124619Y-92613238D01*
X114124619Y-92322952D02*
X113108619Y-92322952D01*
X113253762Y-92419714D01*
X113350524Y-92516476D01*
X113398905Y-92613238D01*
D14*
X119597714Y-99386571D02*
X119597714Y-98951142D01*
X120359714Y-99168856D02*
X119597714Y-99168856D01*
X119960571Y-98697142D02*
X119960571Y-98443142D01*
X120359714Y-98334285D02*
X120359714Y-98697142D01*
X119597714Y-98697142D01*
X119597714Y-98334285D01*
X120359714Y-97572285D02*
X119996857Y-97826285D01*
X120359714Y-98007713D02*
X119597714Y-98007713D01*
X119597714Y-97717428D01*
X119634000Y-97644856D01*
X119670286Y-97608571D01*
X119742857Y-97572285D01*
X119851714Y-97572285D01*
X119924286Y-97608571D01*
X119960571Y-97644856D01*
X119996857Y-97717428D01*
X119996857Y-98007713D01*
X120359714Y-97245713D02*
X119597714Y-97245713D01*
X120142000Y-96991713D01*
X119597714Y-96737713D01*
X120359714Y-96737713D01*
X120432286Y-96556285D02*
X120432286Y-95975714D01*
X119960571Y-95540285D02*
X119996857Y-95431428D01*
X120033143Y-95395143D01*
X120105714Y-95358857D01*
X120214571Y-95358857D01*
X120287143Y-95395143D01*
X120323429Y-95431428D01*
X120359714Y-95504000D01*
X120359714Y-95794285D01*
X119597714Y-95794285D01*
X119597714Y-95540285D01*
X119634000Y-95467714D01*
X119670286Y-95431428D01*
X119742857Y-95395143D01*
X119815429Y-95395143D01*
X119888000Y-95431428D01*
X119924286Y-95467714D01*
X119960571Y-95540285D01*
X119960571Y-95794285D01*
X120359714Y-94669428D02*
X120359714Y-95032285D01*
X119597714Y-95032285D01*
X120359714Y-94415428D02*
X119597714Y-94415428D01*
X120359714Y-93980000D02*
X119924286Y-94306571D01*
X119597714Y-93980000D02*
X120033143Y-94415428D01*
X120432286Y-93834857D02*
X120432286Y-93254286D01*
X120142000Y-93109143D02*
X120142000Y-92746286D01*
X120359714Y-93181715D02*
X119597714Y-92927715D01*
X120359714Y-92673715D01*
X120359714Y-92419714D02*
X119597714Y-92419714D01*
X120359714Y-91984286D01*
X119597714Y-91984286D01*
X119634000Y-91222286D02*
X119597714Y-91294857D01*
X119597714Y-91403714D01*
X119634000Y-91512571D01*
X119706571Y-91585143D01*
X119779143Y-91621428D01*
X119924286Y-91657714D01*
X120033143Y-91657714D01*
X120178286Y-91621428D01*
X120250857Y-91585143D01*
X120323429Y-91512571D01*
X120359714Y-91403714D01*
X120359714Y-91331143D01*
X120323429Y-91222286D01*
X120287143Y-91186000D01*
X120033143Y-91186000D01*
X120033143Y-91331143D01*
X120432286Y-91040857D02*
X120432286Y-90460286D01*
X119670286Y-90315143D02*
X119634000Y-90278857D01*
X119597714Y-90206286D01*
X119597714Y-90024857D01*
X119634000Y-89952286D01*
X119670286Y-89916000D01*
X119742857Y-89879715D01*
X119815429Y-89879715D01*
X119924286Y-89916000D01*
X120359714Y-90351429D01*
X120359714Y-89879715D01*
X120432286Y-89734572D02*
X120432286Y-89154001D01*
X120359714Y-88972572D02*
X119597714Y-88972572D01*
X119597714Y-88682287D01*
X119634000Y-88609715D01*
X119670286Y-88573430D01*
X119742857Y-88537144D01*
X119851714Y-88537144D01*
X119924286Y-88573430D01*
X119960571Y-88609715D01*
X119996857Y-88682287D01*
X119996857Y-88972572D01*
X120359714Y-88210572D02*
X119597714Y-88210572D01*
X120359714Y-87847715D02*
X119597714Y-87847715D01*
X120359714Y-87412287D01*
X119597714Y-87412287D01*
%LPC*%
D16*
X103505000Y-113030000D03*
X100965000Y-113030000D03*
X106045000Y-113030000D03*
D17*
X208457800Y-102870000D03*
D18*
X204952600Y-102870000D03*
D19*
X199466200Y-102870000D03*
D20*
X206451200Y-98374200D03*
X206451200Y-107365800D03*
D21*
X99060000Y-107950000D03*
X99060000Y-97790000D03*
D22*
X105156000Y-102870000D03*
D23*
X107950000Y-102870000D03*
X107950000Y-100076000D03*
X107950000Y-105664000D03*
D24*
X111760000Y-127000000D03*
X113030000Y-78740000D03*
X194310000Y-127000000D03*
X187960000Y-78740000D03*
D16*
X125730000Y-127000000D03*
X128270000Y-127000000D03*
X130810000Y-127000000D03*
X133350000Y-127000000D03*
X135890000Y-127000000D03*
X138430000Y-127000000D03*
X140970000Y-127000000D03*
X143510000Y-127000000D03*
X148590000Y-127000000D03*
X151130000Y-127000000D03*
X153670000Y-127000000D03*
X156210000Y-127000000D03*
X158750000Y-127000000D03*
X161290000Y-127000000D03*
X163830000Y-127000000D03*
X166370000Y-127000000D03*
X171450000Y-127000000D03*
X173990000Y-127000000D03*
X176530000Y-127000000D03*
X179070000Y-127000000D03*
X181610000Y-127000000D03*
X184150000Y-127000000D03*
X186690000Y-127000000D03*
X189230000Y-127000000D03*
X116586000Y-78740000D03*
X119126000Y-78740000D03*
X121666000Y-78740000D03*
X124206000Y-78740000D03*
X126746000Y-78740000D03*
X129286000Y-78740000D03*
X131826000Y-78740000D03*
X134366000Y-78740000D03*
X136906000Y-78740000D03*
X139446000Y-78740000D03*
X143510000Y-78740000D03*
X161290000Y-78740000D03*
X158750000Y-78740000D03*
X156210000Y-78740000D03*
X153670000Y-78740000D03*
X151130000Y-78740000D03*
X148590000Y-78740000D03*
X146050000Y-78740000D03*
X166370000Y-78740000D03*
X168910000Y-78740000D03*
X171450000Y-78740000D03*
X173990000Y-78740000D03*
X176530000Y-78740000D03*
X179070000Y-78740000D03*
X181610000Y-78740000D03*
X184150000Y-78740000D03*
X191770000Y-78232000D03*
X194310000Y-78232000D03*
D25*
X191262000Y-81280000D03*
X194818000Y-81280000D03*
X191262000Y-83820000D03*
X194818000Y-83820000D03*
X191262000Y-86360000D03*
X194818000Y-86360000D03*
X191262000Y-88900000D03*
X194818000Y-88900000D03*
X191262000Y-91440000D03*
X194818000Y-91440000D03*
X191262000Y-93980000D03*
X194818000Y-93980000D03*
X191262000Y-96520000D03*
X194818000Y-96520000D03*
X191262000Y-99060000D03*
X194818000Y-99060000D03*
X191262000Y-101600000D03*
X194818000Y-101600000D03*
X191262000Y-104140000D03*
X194818000Y-104140000D03*
X191262000Y-106680000D03*
X194818000Y-106680000D03*
X191262000Y-109220000D03*
X194818000Y-109220000D03*
X191262000Y-111760000D03*
X194818000Y-111760000D03*
X191262000Y-114300000D03*
X194818000Y-114300000D03*
X191262000Y-116840000D03*
X194818000Y-116840000D03*
X191262000Y-119380000D03*
X194818000Y-119380000D03*
X191262000Y-121920000D03*
X194818000Y-121920000D03*
D26*
X200660000Y-113385600D03*
X205740000Y-113385600D03*
D27*
X102870000Y-87757000D03*
X102870000Y-85217000D03*
X102870000Y-82677000D03*
D28*
X99695000Y-90170000D03*
X99695000Y-80264000D03*
D29*
X96139000Y-91211400D03*
X96139000Y-79222600D03*
D28*
X208788000Y-82931000D03*
X198882000Y-82931000D03*
D27*
X202184000Y-82550000D03*
X202184000Y-85090000D03*
X202184000Y-87630000D03*
D28*
X205359000Y-80137000D03*
X205359000Y-90043000D03*
D29*
X208915000Y-79095600D03*
X208915000Y-91084400D03*
D28*
X198882000Y-122809000D03*
X208788000Y-122809000D03*
D30*
X205105000Y-120904000D03*
X202565000Y-120904000D03*
D28*
X207518000Y-124079000D03*
X200152000Y-124079000D03*
D31*
X208559400Y-127635000D03*
X199110600Y-127635000D03*
D22*
X178435000Y-123190000D03*
X183515000Y-123190000D03*
X158115000Y-123190000D03*
X163195000Y-123190000D03*
X137795000Y-123190000D03*
X142875000Y-123190000D03*
X117475000Y-123190000D03*
X122555000Y-123190000D03*
X178435000Y-101600000D03*
X183515000Y-101600000D03*
X158115000Y-101600000D03*
X163195000Y-101600000D03*
X137795000Y-101600000D03*
X142875000Y-101600000D03*
X117475000Y-101600000D03*
X122555000Y-101600000D03*
X204470000Y-93980000D03*
X199390000Y-93980000D03*
D32*
X178435000Y-116205000D03*
D33*
X183515000Y-116205000D03*
D32*
X158115000Y-116205000D03*
D33*
X163195000Y-116205000D03*
D32*
X137795000Y-116205000D03*
D33*
X142875000Y-116205000D03*
D32*
X117475000Y-116205000D03*
D33*
X122555000Y-116205000D03*
D32*
X178435000Y-94615000D03*
D33*
X183515000Y-94615000D03*
D32*
X158115000Y-94615000D03*
D33*
X163195000Y-94615000D03*
D32*
X137795000Y-94615000D03*
D33*
X142875000Y-94615000D03*
D32*
X117475000Y-94615000D03*
D33*
X122555000Y-94615000D03*
M02*
