G04 #@! TF.FileFunction,Soldermask,Top*
%FSLAX46Y46*%
G04 Gerber Fmt 4.6, Leading zero omitted, Abs format (unit mm)*
G04 Created by KiCad (PCBNEW 0.201603210401+6634~43~ubuntu14.04.1-product) date Wed 06 Apr 2016 10:00:45 AM EDT*
%MOMM*%
G01*
G04 APERTURE LIST*
%ADD10C,0.100000*%
%ADD11C,0.228600*%
%ADD12O,1.524000X2.540000*%
%ADD13C,1.930400*%
%ADD14O,4.572000X3.556000*%
%ADD15O,4.064000X5.080000*%
%ADD16O,5.080000X3.556000*%
%ADD17O,5.080000X3.048000*%
%ADD18O,2.032000X1.524000*%
%ADD19O,1.524000X2.032000*%
%ADD20C,3.759200*%
%ADD21O,2.540000X1.524000*%
%ADD22O,1.651000X2.159000*%
%ADD23R,4.191000X1.778000*%
%ADD24C,1.600200*%
%ADD25R,5.029200X2.997200*%
%ADD26R,1.778000X4.191000*%
%ADD27R,2.997200X5.029200*%
%ADD28R,2.540000X2.540000*%
%ADD29O,2.540000X2.540000*%
G04 APERTURE END LIST*
D10*
D11*
X211455000Y-75311000D02*
X93345000Y-75311000D01*
X211455000Y-130429000D02*
X211455000Y-75311000D01*
X93345000Y-130429000D02*
X211455000Y-130429000D01*
X93345000Y-75311000D02*
X93345000Y-130429000D01*
D12*
X103505000Y-113030000D03*
X100965000Y-113030000D03*
X106045000Y-113030000D03*
D13*
X208457800Y-102870000D03*
D14*
X204952600Y-102870000D03*
D15*
X199466200Y-102870000D03*
D16*
X206451200Y-98374200D03*
X206451200Y-107365800D03*
D17*
X99060000Y-107950000D03*
X99060000Y-97790000D03*
D18*
X105156000Y-102870000D03*
D19*
X107950000Y-102870000D03*
X107950000Y-100076000D03*
X107950000Y-105664000D03*
D20*
X111760000Y-127000000D03*
X113030000Y-78740000D03*
X194310000Y-127000000D03*
X187960000Y-78740000D03*
D12*
X125730000Y-127000000D03*
X128270000Y-127000000D03*
X130810000Y-127000000D03*
X133350000Y-127000000D03*
X135890000Y-127000000D03*
X138430000Y-127000000D03*
X140970000Y-127000000D03*
X143510000Y-127000000D03*
X148590000Y-127000000D03*
X151130000Y-127000000D03*
X153670000Y-127000000D03*
X156210000Y-127000000D03*
X158750000Y-127000000D03*
X161290000Y-127000000D03*
X163830000Y-127000000D03*
X166370000Y-127000000D03*
X171450000Y-127000000D03*
X173990000Y-127000000D03*
X176530000Y-127000000D03*
X179070000Y-127000000D03*
X181610000Y-127000000D03*
X184150000Y-127000000D03*
X186690000Y-127000000D03*
X189230000Y-127000000D03*
X116586000Y-78740000D03*
X119126000Y-78740000D03*
X121666000Y-78740000D03*
X124206000Y-78740000D03*
X126746000Y-78740000D03*
X129286000Y-78740000D03*
X131826000Y-78740000D03*
X134366000Y-78740000D03*
X136906000Y-78740000D03*
X139446000Y-78740000D03*
X143510000Y-78740000D03*
X161290000Y-78740000D03*
X158750000Y-78740000D03*
X156210000Y-78740000D03*
X153670000Y-78740000D03*
X151130000Y-78740000D03*
X148590000Y-78740000D03*
X146050000Y-78740000D03*
X166370000Y-78740000D03*
X168910000Y-78740000D03*
X171450000Y-78740000D03*
X173990000Y-78740000D03*
X176530000Y-78740000D03*
X179070000Y-78740000D03*
X181610000Y-78740000D03*
X184150000Y-78740000D03*
X191770000Y-78232000D03*
X194310000Y-78232000D03*
D21*
X191262000Y-81280000D03*
X194818000Y-81280000D03*
X191262000Y-83820000D03*
X194818000Y-83820000D03*
X191262000Y-86360000D03*
X194818000Y-86360000D03*
X191262000Y-88900000D03*
X194818000Y-88900000D03*
X191262000Y-91440000D03*
X194818000Y-91440000D03*
X191262000Y-93980000D03*
X194818000Y-93980000D03*
X191262000Y-96520000D03*
X194818000Y-96520000D03*
X191262000Y-99060000D03*
X194818000Y-99060000D03*
X191262000Y-101600000D03*
X194818000Y-101600000D03*
X191262000Y-104140000D03*
X194818000Y-104140000D03*
X191262000Y-106680000D03*
X194818000Y-106680000D03*
X191262000Y-109220000D03*
X194818000Y-109220000D03*
X191262000Y-111760000D03*
X194818000Y-111760000D03*
X191262000Y-114300000D03*
X194818000Y-114300000D03*
X191262000Y-116840000D03*
X194818000Y-116840000D03*
X191262000Y-119380000D03*
X194818000Y-119380000D03*
X191262000Y-121920000D03*
X194818000Y-121920000D03*
D22*
X200660000Y-113385600D03*
X205740000Y-113385600D03*
D23*
X102870000Y-87757000D03*
X102870000Y-85217000D03*
X102870000Y-82677000D03*
D24*
X99695000Y-90170000D03*
X99695000Y-80264000D03*
D25*
X96139000Y-91211400D03*
X96139000Y-79222600D03*
D24*
X208788000Y-82931000D03*
X198882000Y-82931000D03*
D23*
X202184000Y-82550000D03*
X202184000Y-85090000D03*
X202184000Y-87630000D03*
D24*
X205359000Y-80137000D03*
X205359000Y-90043000D03*
D25*
X208915000Y-79095600D03*
X208915000Y-91084400D03*
D24*
X198882000Y-122809000D03*
X208788000Y-122809000D03*
D26*
X205105000Y-120904000D03*
X202565000Y-120904000D03*
D24*
X207518000Y-124079000D03*
X200152000Y-124079000D03*
D27*
X208559400Y-127635000D03*
X199110600Y-127635000D03*
D18*
X178435000Y-123190000D03*
X183515000Y-123190000D03*
X158115000Y-123190000D03*
X163195000Y-123190000D03*
X137795000Y-123190000D03*
X142875000Y-123190000D03*
X117475000Y-123190000D03*
X122555000Y-123190000D03*
X178435000Y-101600000D03*
X183515000Y-101600000D03*
X158115000Y-101600000D03*
X163195000Y-101600000D03*
X137795000Y-101600000D03*
X142875000Y-101600000D03*
X117475000Y-101600000D03*
X122555000Y-101600000D03*
X204470000Y-93980000D03*
X199390000Y-93980000D03*
D28*
X178435000Y-116205000D03*
D29*
X183515000Y-116205000D03*
D28*
X158115000Y-116205000D03*
D29*
X163195000Y-116205000D03*
D28*
X137795000Y-116205000D03*
D29*
X142875000Y-116205000D03*
D28*
X117475000Y-116205000D03*
D29*
X122555000Y-116205000D03*
D28*
X178435000Y-94615000D03*
D29*
X183515000Y-94615000D03*
D28*
X158115000Y-94615000D03*
D29*
X163195000Y-94615000D03*
D28*
X137795000Y-94615000D03*
D29*
X142875000Y-94615000D03*
D28*
X117475000Y-94615000D03*
D29*
X122555000Y-94615000D03*
M02*
