M48
;DRILL file {KiCad 0.201603210401+6634~43~ubuntu14.04.1-product} date Wed 06 Apr 2016 10:00:53 AM EDT
;FORMAT={-:-/ absolute / inch / decimal}
FMAT,2
INCH,TZ
T1C0.025
T2C0.031
T3C0.035
T4C0.038
T5C0.039
T6C0.040
T7C0.047
T8C0.056
T9C0.063
T10C0.090
T11C0.106
T12C0.124
T13C0.130
%
G90
G05
M72
T1
X4.759Y-3.9871
X5.326Y-4.2417
X5.3348Y-4.0548
X5.477Y-4.1157
X5.6398Y-4.7097
X6.1695Y-4.0755
X6.3059Y-4.1629
X7.2618Y-4.723
X7.9521Y-4.5835
T2
X7.9Y-4.464
X8.1Y-4.464
T3
X4.15Y-4.05
X4.25Y-3.95
X4.25Y-4.05
X4.25Y-4.15
T4
X4.625Y-4.
X4.625Y-4.85
X4.825Y-4.
X4.825Y-4.85
X5.425Y-4.
X5.425Y-4.85
X5.625Y-4.
X5.625Y-4.85
X6.225Y-4.
X6.225Y-4.85
X6.425Y-4.
X6.425Y-4.85
X7.025Y-4.
X7.025Y-4.85
X7.225Y-4.
X7.225Y-4.85
X7.85Y-3.7
X8.05Y-3.7
T5
X3.975Y-4.45
X4.075Y-4.45
X4.175Y-4.45
T6
X4.59Y-3.1
X4.69Y-3.1
X4.79Y-3.1
X4.89Y-3.1
X4.95Y-5.
X4.99Y-3.1
X5.05Y-5.
X5.09Y-3.1
X5.15Y-5.
X5.19Y-3.1
X5.25Y-5.
X5.29Y-3.1
X5.35Y-5.
X5.39Y-3.1
X5.45Y-5.
X5.49Y-3.1
X5.55Y-5.
X5.65Y-3.1
X5.65Y-5.
X5.75Y-3.1
X5.85Y-3.1
X5.85Y-5.
X5.95Y-3.1
X5.95Y-5.
X6.05Y-3.1
X6.05Y-5.
X6.15Y-3.1
X6.15Y-5.
X6.25Y-3.1
X6.25Y-5.
X6.35Y-3.1
X6.35Y-5.
X6.45Y-5.
X6.55Y-3.1
X6.55Y-5.
X6.65Y-3.1
X6.75Y-3.1
X6.75Y-5.
X6.85Y-3.1
X6.85Y-5.
X6.95Y-3.1
X6.95Y-5.
X7.05Y-3.1
X7.05Y-5.
X7.15Y-3.1
X7.15Y-5.
X7.25Y-3.1
X7.25Y-5.
X7.35Y-5.
X7.45Y-5.
X7.55Y-3.1
X7.55Y-3.2
X7.55Y-3.3
X7.55Y-3.4
X7.55Y-3.5
X7.55Y-3.6
X7.55Y-3.7
X7.55Y-3.8
X7.55Y-3.9
X7.55Y-4.
X7.55Y-4.1
X7.55Y-4.2
X7.55Y-4.3
X7.55Y-4.4
X7.55Y-4.5
X7.55Y-4.6
X7.55Y-4.7
X7.55Y-4.8
X7.65Y-3.1
X7.65Y-3.2
X7.65Y-3.3
X7.65Y-3.4
X7.65Y-3.5
X7.65Y-3.6
X7.65Y-3.7
X7.65Y-3.8
X7.65Y-3.9
X7.65Y-4.
X7.65Y-4.1
X7.65Y-4.2
X7.65Y-4.3
X7.65Y-4.4
X7.65Y-4.5
X7.65Y-4.6
X7.65Y-4.7
X7.65Y-4.8
T7
X3.925Y-3.16
X3.925Y-3.55
X7.83Y-3.265
X7.83Y-4.835
X7.88Y-4.885
X8.085Y-3.155
X8.085Y-3.545
X8.17Y-4.885
X8.22Y-3.265
X8.22Y-4.835
T8
X4.625Y-3.725
X4.625Y-4.575
X4.825Y-3.725
X4.825Y-4.575
X5.425Y-3.725
X5.425Y-4.575
X5.625Y-3.725
X5.625Y-4.575
X6.225Y-3.725
X6.225Y-4.575
X6.425Y-3.725
X6.425Y-4.575
X7.025Y-3.725
X7.025Y-4.575
X7.225Y-3.725
X7.225Y-4.575
T9
X8.207Y-4.05
T10
X3.9Y-3.85
X3.9Y-4.25
T11
X8.089Y-4.05
X8.128Y-3.873
X8.128Y-4.227
T12
X7.853Y-4.05
T13
X4.4Y-5.
X4.45Y-3.1
X7.4Y-3.1
X7.65Y-5.
T0
M30
