G04 #@! TF.FileFunction,Copper,L1,Top,Signal*
%FSLAX46Y46*%
G04 Gerber Fmt 4.6, Leading zero omitted, Abs format (unit mm)*
G04 Created by KiCad (PCBNEW 0.201603210401+6634~43~ubuntu14.04.1-product) date Wed 06 Apr 2016 10:00:45 AM EDT*
%MOMM*%
G01*
G04 APERTURE LIST*
%ADD10C,0.100000*%
%ADD11C,0.228600*%
%ADD12O,1.524000X2.540000*%
%ADD13C,1.930400*%
%ADD14O,4.572000X3.556000*%
%ADD15O,4.064000X5.080000*%
%ADD16O,5.080000X3.556000*%
%ADD17O,5.080000X3.048000*%
%ADD18O,2.032000X1.524000*%
%ADD19O,1.524000X2.032000*%
%ADD20C,3.556000*%
%ADD21O,2.540000X1.524000*%
%ADD22O,1.651000X2.159000*%
%ADD23R,4.191000X1.778000*%
%ADD24C,1.397000*%
%ADD25R,4.826000X2.794000*%
%ADD26R,1.778000X4.191000*%
%ADD27R,2.794000X4.826000*%
%ADD28R,2.540000X2.540000*%
%ADD29O,2.540000X2.540000*%
%ADD30C,0.889000*%
%ADD31C,1.016000*%
%ADD32C,0.406400*%
%ADD33C,0.812800*%
%ADD34C,0.203200*%
G04 APERTURE END LIST*
D10*
D11*
X211455000Y-75311000D02*
X93345000Y-75311000D01*
X211455000Y-130429000D02*
X211455000Y-75311000D01*
X93345000Y-130429000D02*
X211455000Y-130429000D01*
X93345000Y-75311000D02*
X93345000Y-130429000D01*
D12*
X103505000Y-113030000D03*
X100965000Y-113030000D03*
X106045000Y-113030000D03*
D13*
X208457800Y-102870000D03*
D14*
X204952600Y-102870000D03*
D15*
X199466200Y-102870000D03*
D16*
X206451200Y-98374200D03*
X206451200Y-107365800D03*
D17*
X99060000Y-107950000D03*
X99060000Y-97790000D03*
D18*
X105156000Y-102870000D03*
D19*
X107950000Y-102870000D03*
X107950000Y-100076000D03*
X107950000Y-105664000D03*
D20*
X111760000Y-127000000D03*
X113030000Y-78740000D03*
X194310000Y-127000000D03*
X187960000Y-78740000D03*
D12*
X125730000Y-127000000D03*
X128270000Y-127000000D03*
X130810000Y-127000000D03*
X133350000Y-127000000D03*
X135890000Y-127000000D03*
X138430000Y-127000000D03*
X140970000Y-127000000D03*
X143510000Y-127000000D03*
X148590000Y-127000000D03*
X151130000Y-127000000D03*
X153670000Y-127000000D03*
X156210000Y-127000000D03*
X158750000Y-127000000D03*
X161290000Y-127000000D03*
X163830000Y-127000000D03*
X166370000Y-127000000D03*
X171450000Y-127000000D03*
X173990000Y-127000000D03*
X176530000Y-127000000D03*
X179070000Y-127000000D03*
X181610000Y-127000000D03*
X184150000Y-127000000D03*
X186690000Y-127000000D03*
X189230000Y-127000000D03*
X116586000Y-78740000D03*
X119126000Y-78740000D03*
X121666000Y-78740000D03*
X124206000Y-78740000D03*
X126746000Y-78740000D03*
X129286000Y-78740000D03*
X131826000Y-78740000D03*
X134366000Y-78740000D03*
X136906000Y-78740000D03*
X139446000Y-78740000D03*
X143510000Y-78740000D03*
X161290000Y-78740000D03*
X158750000Y-78740000D03*
X156210000Y-78740000D03*
X153670000Y-78740000D03*
X151130000Y-78740000D03*
X148590000Y-78740000D03*
X146050000Y-78740000D03*
X166370000Y-78740000D03*
X168910000Y-78740000D03*
X171450000Y-78740000D03*
X173990000Y-78740000D03*
X176530000Y-78740000D03*
X179070000Y-78740000D03*
X181610000Y-78740000D03*
X184150000Y-78740000D03*
X191770000Y-78232000D03*
X194310000Y-78232000D03*
D21*
X191262000Y-81280000D03*
X194818000Y-81280000D03*
X191262000Y-83820000D03*
X194818000Y-83820000D03*
X191262000Y-86360000D03*
X194818000Y-86360000D03*
X191262000Y-88900000D03*
X194818000Y-88900000D03*
X191262000Y-91440000D03*
X194818000Y-91440000D03*
X191262000Y-93980000D03*
X194818000Y-93980000D03*
X191262000Y-96520000D03*
X194818000Y-96520000D03*
X191262000Y-99060000D03*
X194818000Y-99060000D03*
X191262000Y-101600000D03*
X194818000Y-101600000D03*
X191262000Y-104140000D03*
X194818000Y-104140000D03*
X191262000Y-106680000D03*
X194818000Y-106680000D03*
X191262000Y-109220000D03*
X194818000Y-109220000D03*
X191262000Y-111760000D03*
X194818000Y-111760000D03*
X191262000Y-114300000D03*
X194818000Y-114300000D03*
X191262000Y-116840000D03*
X194818000Y-116840000D03*
X191262000Y-119380000D03*
X194818000Y-119380000D03*
X191262000Y-121920000D03*
X194818000Y-121920000D03*
D22*
X200660000Y-113385600D03*
X205740000Y-113385600D03*
D23*
X102870000Y-87757000D03*
X102870000Y-85217000D03*
X102870000Y-82677000D03*
D24*
X99695000Y-90170000D03*
X99695000Y-80264000D03*
D25*
X96139000Y-91211400D03*
X96139000Y-79222600D03*
D24*
X208788000Y-82931000D03*
X198882000Y-82931000D03*
D23*
X202184000Y-82550000D03*
X202184000Y-85090000D03*
X202184000Y-87630000D03*
D24*
X205359000Y-80137000D03*
X205359000Y-90043000D03*
D25*
X208915000Y-79095600D03*
X208915000Y-91084400D03*
D24*
X198882000Y-122809000D03*
X208788000Y-122809000D03*
D26*
X205105000Y-120904000D03*
X202565000Y-120904000D03*
D24*
X207518000Y-124079000D03*
X200152000Y-124079000D03*
D27*
X208559400Y-127635000D03*
X199110600Y-127635000D03*
D18*
X178435000Y-123190000D03*
X183515000Y-123190000D03*
X158115000Y-123190000D03*
X163195000Y-123190000D03*
X137795000Y-123190000D03*
X142875000Y-123190000D03*
X117475000Y-123190000D03*
X122555000Y-123190000D03*
X178435000Y-101600000D03*
X183515000Y-101600000D03*
X158115000Y-101600000D03*
X163195000Y-101600000D03*
X137795000Y-101600000D03*
X142875000Y-101600000D03*
X117475000Y-101600000D03*
X122555000Y-101600000D03*
X204470000Y-93980000D03*
X199390000Y-93980000D03*
D28*
X178435000Y-116205000D03*
D29*
X183515000Y-116205000D03*
D28*
X158115000Y-116205000D03*
D29*
X163195000Y-116205000D03*
D28*
X137795000Y-116205000D03*
D29*
X142875000Y-116205000D03*
D28*
X117475000Y-116205000D03*
D29*
X122555000Y-116205000D03*
D28*
X178435000Y-94615000D03*
D29*
X183515000Y-94615000D03*
D28*
X158115000Y-94615000D03*
D29*
X163195000Y-94615000D03*
D28*
X137795000Y-94615000D03*
D29*
X142875000Y-94615000D03*
D28*
X117475000Y-94615000D03*
D29*
X122555000Y-94615000D03*
D30*
X201982500Y-116420500D03*
X135503200Y-102992300D03*
X156704300Y-103517800D03*
X120878600Y-101272500D03*
X139115900Y-104538200D03*
X160169100Y-105737000D03*
X135279700Y-107739100D03*
X143250500Y-119626100D03*
X184450600Y-119963600D03*
D31*
X202565000Y-120904000D02*
X202565000Y-120373700D01*
X200660000Y-113385600D02*
X200660000Y-115227400D01*
X106045000Y-113030000D02*
X106045000Y-110997700D01*
X200943200Y-118751900D02*
X202565000Y-120373700D01*
X200660000Y-118751900D02*
X200943200Y-118751900D01*
X200660000Y-115227400D02*
X200660000Y-118751900D01*
X100261700Y-110997700D02*
X106045000Y-110997700D01*
X99430200Y-111829200D02*
X100261700Y-110997700D01*
X99430200Y-114171400D02*
X99430200Y-111829200D01*
X109405900Y-124147100D02*
X99430200Y-114171400D01*
X115384100Y-124147100D02*
X109405900Y-124147100D01*
X120324000Y-129087000D02*
X115384100Y-124147100D01*
X189843300Y-129087000D02*
X120324000Y-129087000D01*
X191299000Y-127631300D02*
X189843300Y-129087000D01*
X191299000Y-126394800D02*
X191299000Y-127631300D01*
X193697800Y-123996000D02*
X191299000Y-126394800D01*
X195415900Y-123996000D02*
X193697800Y-123996000D01*
X200660000Y-118751900D02*
X195415900Y-123996000D01*
D32*
X137312400Y-124282200D02*
X138430000Y-125399800D01*
X122555000Y-124282200D02*
X137312400Y-124282200D01*
X138430000Y-127000000D02*
X138430000Y-125399800D01*
X122555000Y-123190000D02*
X122555000Y-124282200D01*
X140970000Y-125399800D02*
X138430000Y-125399800D01*
X140970000Y-127000000D02*
X140970000Y-125399800D01*
X107950000Y-87871300D02*
X105295700Y-85217000D01*
X107950000Y-100330000D02*
X107950000Y-87871300D01*
X102870000Y-85217000D02*
X105295700Y-85217000D01*
X204609700Y-88623800D02*
X204609700Y-85090000D01*
X200345700Y-92887800D02*
X204609700Y-88623800D01*
X199390000Y-92887800D02*
X200345700Y-92887800D01*
X199390000Y-93980000D02*
X199390000Y-92887800D01*
X202184000Y-85090000D02*
X204609700Y-85090000D01*
X205105000Y-116116100D02*
X205105000Y-120904000D01*
X203590800Y-114601900D02*
X205105000Y-116116100D01*
X203590800Y-106497300D02*
X203590800Y-114601900D01*
X205109900Y-104978200D02*
X203590800Y-106497300D01*
X205460600Y-104978200D02*
X205109900Y-104978200D01*
X205460600Y-102870000D02*
X205460600Y-104978200D01*
X183515000Y-122097800D02*
X163195000Y-122097800D01*
X183515000Y-123190000D02*
X183515000Y-122097800D01*
X163195000Y-123190000D02*
X163195000Y-122097800D01*
X142875000Y-122097800D02*
X163195000Y-122097800D01*
X142875000Y-123190000D02*
X142875000Y-122097800D01*
D33*
X107833900Y-119898900D02*
X100965000Y-113030000D01*
X136770000Y-119898900D02*
X107833900Y-119898900D01*
X141940400Y-125069300D02*
X136770000Y-119898900D01*
X143510000Y-125069300D02*
X141940400Y-125069300D01*
X143510000Y-127000000D02*
X143510000Y-125069300D01*
D32*
X105410000Y-102870000D02*
X106502200Y-102870000D01*
X134765400Y-114300000D02*
X191770000Y-114300000D01*
X124732400Y-104267000D02*
X134765400Y-114300000D01*
X107559700Y-104267000D02*
X124732400Y-104267000D01*
X106502200Y-103209500D02*
X107559700Y-104267000D01*
X106502200Y-102870000D02*
X106502200Y-103209500D01*
X159689800Y-80340200D02*
X161290000Y-80340200D01*
X156007200Y-84022800D02*
X159689800Y-80340200D01*
X100608900Y-84022800D02*
X156007200Y-84022800D01*
X100444300Y-84187400D02*
X100608900Y-84022800D01*
X100444300Y-87757000D02*
X100444300Y-84187400D01*
X102870000Y-87757000D02*
X100444300Y-87757000D01*
X161290000Y-78740000D02*
X161290000Y-80340200D01*
X156413200Y-82677000D02*
X158750000Y-80340200D01*
X102870000Y-82677000D02*
X156413200Y-82677000D01*
X158750000Y-78740000D02*
X158750000Y-80340200D01*
X168910000Y-78740000D02*
X168910000Y-80340200D01*
X169405000Y-80835200D02*
X168910000Y-80340200D01*
X189387700Y-80835200D02*
X169405000Y-80835200D01*
X190011900Y-80211000D02*
X189387700Y-80835200D01*
X195770400Y-80211000D02*
X190011900Y-80211000D01*
X196876500Y-81317100D02*
X195770400Y-80211000D01*
X196876500Y-93557500D02*
X196876500Y-81317100D01*
X201982500Y-98663500D02*
X196876500Y-93557500D01*
X201982500Y-116420500D02*
X201982500Y-98663500D01*
X173036800Y-80326800D02*
X171450000Y-78740000D01*
X184637600Y-80326800D02*
X173036800Y-80326800D01*
X185590600Y-79373800D02*
X184637600Y-80326800D01*
X185590600Y-78163400D02*
X185590600Y-79373800D01*
X187143400Y-76610600D02*
X185590600Y-78163400D01*
X194707500Y-76610600D02*
X187143400Y-76610600D01*
X197823300Y-79726400D02*
X194707500Y-76610600D01*
X197823300Y-85695000D02*
X197823300Y-79726400D01*
X199758300Y-87630000D02*
X197823300Y-85695000D01*
X202184000Y-87630000D02*
X199758300Y-87630000D01*
X173990000Y-78740000D02*
X173990000Y-77139800D01*
X175027500Y-76102300D02*
X173990000Y-77139800D01*
X195736300Y-76102300D02*
X175027500Y-76102300D01*
X202184000Y-82550000D02*
X195736300Y-76102300D01*
X191770000Y-81280000D02*
X189661800Y-81280000D01*
X117475000Y-101600000D02*
X117475000Y-100507800D01*
X189451200Y-81490600D02*
X189661800Y-81280000D01*
X160499000Y-81490600D02*
X189451200Y-81490600D01*
X141481800Y-100507800D02*
X160499000Y-81490600D01*
X117475000Y-100507800D02*
X141481800Y-100507800D01*
X194310000Y-81280000D02*
X193217800Y-81280000D01*
X141111800Y-101600000D02*
X139141200Y-101600000D01*
X160339600Y-82372200D02*
X141111800Y-101600000D01*
X192262200Y-82372200D02*
X160339600Y-82372200D01*
X193217800Y-81416600D02*
X192262200Y-82372200D01*
X193217800Y-81280000D02*
X193217800Y-81416600D01*
X137795000Y-101600000D02*
X139141200Y-101600000D01*
X177241200Y-83820000D02*
X191770000Y-83820000D01*
X159461200Y-101600000D02*
X177241200Y-83820000D01*
X158115000Y-101600000D02*
X159461200Y-101600000D01*
X135733700Y-102761800D02*
X135503200Y-102992300D01*
X163875900Y-102761800D02*
X135733700Y-102761800D01*
X180277700Y-86360000D02*
X163875900Y-102761800D01*
X191770000Y-86360000D02*
X180277700Y-86360000D01*
X193217800Y-86473200D02*
X193217800Y-86360000D01*
X191881200Y-87809800D02*
X193217800Y-86473200D01*
X180486200Y-87809800D02*
X191881200Y-87809800D01*
X164778200Y-103517800D02*
X180486200Y-87809800D01*
X156704300Y-103517800D02*
X164778200Y-103517800D01*
X194310000Y-86360000D02*
X193217800Y-86360000D01*
X193217800Y-96944100D02*
X193217800Y-88900000D01*
X193860900Y-97587200D02*
X193217800Y-96944100D01*
X195428200Y-97587200D02*
X193860900Y-97587200D01*
X196976500Y-99135500D02*
X195428200Y-97587200D01*
X196976500Y-116776200D02*
X196976500Y-99135500D01*
X195642700Y-118110000D02*
X196976500Y-116776200D01*
X194062700Y-118110000D02*
X195642700Y-118110000D01*
X193242800Y-118929900D02*
X194062700Y-118110000D01*
X193242800Y-119438500D02*
X193242800Y-118929900D01*
X192234100Y-120447200D02*
X193242800Y-119438500D01*
X188046900Y-120447200D02*
X192234100Y-120447200D01*
X184211900Y-124282200D02*
X188046900Y-120447200D01*
X178435000Y-124282200D02*
X184211900Y-124282200D01*
X178435000Y-123190000D02*
X178435000Y-124282200D01*
X194310000Y-88900000D02*
X193217800Y-88900000D01*
X191770000Y-101600000D02*
X189661800Y-101600000D01*
X188224200Y-101600000D02*
X189661800Y-101600000D01*
X185550300Y-104273900D02*
X188224200Y-101600000D01*
X155725300Y-104273900D02*
X185550300Y-104273900D01*
X155229900Y-103778500D02*
X155725300Y-104273900D01*
X134143200Y-103778500D02*
X155229900Y-103778500D01*
X133768100Y-103403400D02*
X134143200Y-103778500D01*
X122476700Y-103403400D02*
X133768100Y-103403400D01*
X120878600Y-101805300D02*
X122476700Y-103403400D01*
X120878600Y-101272500D02*
X120878600Y-101805300D01*
X194310000Y-101600000D02*
X193217800Y-101600000D01*
X193217800Y-101736500D02*
X193217800Y-101600000D01*
X192011100Y-102943200D02*
X193217800Y-101736500D01*
X187959200Y-102943200D02*
X192011100Y-102943200D01*
X186120200Y-104782200D02*
X187959200Y-102943200D01*
X139359900Y-104782200D02*
X186120200Y-104782200D01*
X139115900Y-104538200D02*
X139359900Y-104782200D01*
X188064800Y-105737000D02*
X160169100Y-105737000D01*
X189661800Y-104140000D02*
X188064800Y-105737000D01*
X191770000Y-104140000D02*
X189661800Y-104140000D01*
X136338800Y-106680000D02*
X135279700Y-107739100D01*
X191770000Y-106680000D02*
X136338800Y-106680000D01*
X183727900Y-119626100D02*
X143250500Y-119626100D01*
X187604200Y-115749800D02*
X183727900Y-119626100D01*
X191844700Y-115749800D02*
X187604200Y-115749800D01*
X193217800Y-114376700D02*
X191844700Y-115749800D01*
X193217800Y-106680000D02*
X193217800Y-114376700D01*
X194310000Y-106680000D02*
X193217800Y-106680000D01*
X194310000Y-109220000D02*
X196418200Y-109220000D01*
X186304200Y-118110000D02*
X184450600Y-119963600D01*
X192077500Y-118110000D02*
X186304200Y-118110000D01*
X192837200Y-117350300D02*
X192077500Y-118110000D01*
X192837200Y-116759300D02*
X192837200Y-117350300D01*
X194229300Y-115367200D02*
X192837200Y-116759300D01*
X195817200Y-115367200D02*
X194229300Y-115367200D01*
X196418200Y-114766200D02*
X195817200Y-115367200D01*
X196418200Y-109220000D02*
X196418200Y-114766200D01*
D34*
G36*
X174668290Y-75743089D02*
X173630790Y-76780590D01*
X173520669Y-76945397D01*
X173482000Y-77139800D01*
X173482000Y-77282206D01*
X173235658Y-77446806D01*
X173004405Y-77792901D01*
X172923200Y-78201148D01*
X172923200Y-79278852D01*
X172976815Y-79548395D01*
X172516800Y-79088380D01*
X172516800Y-78201148D01*
X172435595Y-77792901D01*
X172204342Y-77446806D01*
X171858247Y-77215553D01*
X171450000Y-77134348D01*
X171041753Y-77215553D01*
X170695658Y-77446806D01*
X170464405Y-77792901D01*
X170383200Y-78201148D01*
X170383200Y-79278852D01*
X170464405Y-79687099D01*
X170695658Y-80033194D01*
X171041753Y-80264447D01*
X171357235Y-80327200D01*
X169615420Y-80327200D01*
X169458772Y-80170552D01*
X169664342Y-80033194D01*
X169895595Y-79687099D01*
X169976800Y-79278852D01*
X169976800Y-78201148D01*
X169895595Y-77792901D01*
X169664342Y-77446806D01*
X169318247Y-77215553D01*
X168910000Y-77134348D01*
X168501753Y-77215553D01*
X168155658Y-77446806D01*
X167924405Y-77792901D01*
X167843200Y-78201148D01*
X167843200Y-79278852D01*
X167924405Y-79687099D01*
X168155658Y-80033194D01*
X168402000Y-80197794D01*
X168402000Y-80340200D01*
X168440669Y-80534603D01*
X168550790Y-80699410D01*
X168833980Y-80982600D01*
X160499000Y-80982600D01*
X160304596Y-81021269D01*
X160139790Y-81131390D01*
X141271380Y-99999800D01*
X117475000Y-99999800D01*
X117280597Y-100038469D01*
X117115790Y-100148590D01*
X117005669Y-100313397D01*
X116967000Y-100507800D01*
X116967000Y-100578576D01*
X116786877Y-100614405D01*
X116440782Y-100845658D01*
X116209529Y-101191753D01*
X116128324Y-101600000D01*
X116209529Y-102008247D01*
X116440782Y-102354342D01*
X116786877Y-102585595D01*
X117195124Y-102666800D01*
X117754876Y-102666800D01*
X118163123Y-102585595D01*
X118509218Y-102354342D01*
X118740471Y-102008247D01*
X118821676Y-101600000D01*
X118740471Y-101191753D01*
X118622903Y-101015800D01*
X120173860Y-101015800D01*
X120129430Y-101122801D01*
X120129170Y-101420891D01*
X120243004Y-101696390D01*
X120375297Y-101828915D01*
X120409269Y-101999703D01*
X120519390Y-102164510D01*
X122113880Y-103759000D01*
X108801373Y-103759000D01*
X108935595Y-103558123D01*
X109016800Y-103149876D01*
X109016800Y-102590124D01*
X108935595Y-102181877D01*
X108704342Y-101835782D01*
X108397204Y-101630559D01*
X108841708Y-101384480D01*
X109177363Y-100962970D01*
X109326163Y-100445096D01*
X109174825Y-100228400D01*
X108102400Y-100228400D01*
X108102400Y-100248400D01*
X107797600Y-100248400D01*
X107797600Y-100228400D01*
X106725175Y-100228400D01*
X106573837Y-100445096D01*
X106722637Y-100962970D01*
X107058292Y-101384480D01*
X107502796Y-101630559D01*
X107195658Y-101835782D01*
X106964405Y-102181877D01*
X106890362Y-102554119D01*
X106861410Y-102510790D01*
X106696603Y-102400669D01*
X106502200Y-102362000D01*
X106354818Y-102362000D01*
X106190218Y-102115658D01*
X105844123Y-101884405D01*
X105435876Y-101803200D01*
X104876124Y-101803200D01*
X104467877Y-101884405D01*
X104121782Y-102115658D01*
X103890529Y-102461753D01*
X103809324Y-102870000D01*
X103890529Y-103278247D01*
X104121782Y-103624342D01*
X104467877Y-103855595D01*
X104876124Y-103936800D01*
X105435876Y-103936800D01*
X105844123Y-103855595D01*
X106190218Y-103624342D01*
X106193584Y-103619304D01*
X107001331Y-104427051D01*
X106722637Y-104777030D01*
X106573837Y-105294904D01*
X106725175Y-105511600D01*
X107797600Y-105511600D01*
X107797600Y-105491600D01*
X108102400Y-105491600D01*
X108102400Y-105511600D01*
X109174825Y-105511600D01*
X109326163Y-105294904D01*
X109177363Y-104777030D01*
X109175746Y-104775000D01*
X124521980Y-104775000D01*
X134406190Y-114659210D01*
X134570997Y-114769331D01*
X134765400Y-114808000D01*
X136187696Y-114808000D01*
X136162434Y-114935000D01*
X136162434Y-117475000D01*
X136190033Y-117613748D01*
X136268627Y-117731373D01*
X136386252Y-117809967D01*
X136525000Y-117837566D01*
X139065000Y-117837566D01*
X139203748Y-117809967D01*
X139321373Y-117731373D01*
X139399967Y-117613748D01*
X139427566Y-117475000D01*
X139427566Y-114935000D01*
X139402304Y-114808000D01*
X142064130Y-114808000D01*
X141693680Y-115055527D01*
X141341294Y-115582910D01*
X141217553Y-116205000D01*
X141341294Y-116827090D01*
X141693680Y-117354473D01*
X142221063Y-117706859D01*
X142843153Y-117830600D01*
X142906847Y-117830600D01*
X143528937Y-117706859D01*
X144056320Y-117354473D01*
X144408706Y-116827090D01*
X144532447Y-116205000D01*
X144408706Y-115582910D01*
X144056320Y-115055527D01*
X143685870Y-114808000D01*
X156507696Y-114808000D01*
X156482434Y-114935000D01*
X156482434Y-117475000D01*
X156510033Y-117613748D01*
X156588627Y-117731373D01*
X156706252Y-117809967D01*
X156845000Y-117837566D01*
X159385000Y-117837566D01*
X159523748Y-117809967D01*
X159641373Y-117731373D01*
X159719967Y-117613748D01*
X159747566Y-117475000D01*
X159747566Y-114935000D01*
X159722304Y-114808000D01*
X162384130Y-114808000D01*
X162013680Y-115055527D01*
X161661294Y-115582910D01*
X161537553Y-116205000D01*
X161661294Y-116827090D01*
X162013680Y-117354473D01*
X162541063Y-117706859D01*
X163163153Y-117830600D01*
X163226847Y-117830600D01*
X163848937Y-117706859D01*
X164376320Y-117354473D01*
X164728706Y-116827090D01*
X164852447Y-116205000D01*
X164728706Y-115582910D01*
X164376320Y-115055527D01*
X164005870Y-114808000D01*
X176827696Y-114808000D01*
X176802434Y-114935000D01*
X176802434Y-117475000D01*
X176830033Y-117613748D01*
X176908627Y-117731373D01*
X177026252Y-117809967D01*
X177165000Y-117837566D01*
X179705000Y-117837566D01*
X179843748Y-117809967D01*
X179961373Y-117731373D01*
X180039967Y-117613748D01*
X180067566Y-117475000D01*
X180067566Y-114935000D01*
X180042304Y-114808000D01*
X182704130Y-114808000D01*
X182333680Y-115055527D01*
X181981294Y-115582910D01*
X181857553Y-116205000D01*
X181981294Y-116827090D01*
X182333680Y-117354473D01*
X182861063Y-117706859D01*
X183483153Y-117830600D01*
X183546847Y-117830600D01*
X184168937Y-117706859D01*
X184696320Y-117354473D01*
X185048706Y-116827090D01*
X185172447Y-116205000D01*
X185048706Y-115582910D01*
X184696320Y-115055527D01*
X184325870Y-114808000D01*
X189804206Y-114808000D01*
X189968806Y-115054342D01*
X190249357Y-115241800D01*
X187604200Y-115241800D01*
X187409797Y-115280469D01*
X187244990Y-115390590D01*
X183517480Y-119118100D01*
X143802133Y-119118100D01*
X143675499Y-118991244D01*
X143400199Y-118876930D01*
X143102109Y-118876670D01*
X142826610Y-118990504D01*
X142615644Y-119201101D01*
X142501330Y-119476401D01*
X142501070Y-119774491D01*
X142614904Y-120049990D01*
X142825501Y-120260956D01*
X143100801Y-120375270D01*
X143398891Y-120375530D01*
X143674390Y-120261696D01*
X143802210Y-120134100D01*
X183710305Y-120134100D01*
X183815004Y-120387490D01*
X184025601Y-120598456D01*
X184300901Y-120712770D01*
X184598991Y-120713030D01*
X184874490Y-120599196D01*
X185085456Y-120388599D01*
X185199770Y-120113299D01*
X185199928Y-119932692D01*
X186514620Y-118618000D01*
X189980267Y-118618000D01*
X189968806Y-118625658D01*
X189737553Y-118971753D01*
X189656348Y-119380000D01*
X189737553Y-119788247D01*
X189838416Y-119939200D01*
X188046900Y-119939200D01*
X187852497Y-119977869D01*
X187687690Y-120087990D01*
X185056491Y-122719189D01*
X184823480Y-122298292D01*
X184401970Y-121962637D01*
X183884096Y-121813837D01*
X183667400Y-121965175D01*
X183667400Y-123037600D01*
X183687400Y-123037600D01*
X183687400Y-123342400D01*
X183667400Y-123342400D01*
X183667400Y-123362400D01*
X183362600Y-123362400D01*
X183362600Y-123342400D01*
X182051363Y-123342400D01*
X181938516Y-123553761D01*
X181945546Y-123610299D01*
X182036282Y-123774200D01*
X179582903Y-123774200D01*
X179700471Y-123598247D01*
X179781676Y-123190000D01*
X179709320Y-122826239D01*
X181938516Y-122826239D01*
X182051363Y-123037600D01*
X183362600Y-123037600D01*
X183362600Y-121965175D01*
X183145904Y-121813837D01*
X182628030Y-121962637D01*
X182206520Y-122298292D01*
X181945546Y-122769701D01*
X181938516Y-122826239D01*
X179709320Y-122826239D01*
X179700471Y-122781753D01*
X179469218Y-122435658D01*
X179123123Y-122204405D01*
X178714876Y-122123200D01*
X178155124Y-122123200D01*
X177746877Y-122204405D01*
X177400782Y-122435658D01*
X177169529Y-122781753D01*
X177088324Y-123190000D01*
X177169529Y-123598247D01*
X177400782Y-123944342D01*
X177746877Y-124175595D01*
X177927000Y-124211424D01*
X177927000Y-124282200D01*
X177965669Y-124476603D01*
X178075790Y-124641410D01*
X178240597Y-124751531D01*
X178435000Y-124790200D01*
X184211900Y-124790200D01*
X184406303Y-124751531D01*
X184571110Y-124641410D01*
X188257320Y-120955200D01*
X190283779Y-120955200D01*
X189968806Y-121165658D01*
X189737553Y-121511753D01*
X189656348Y-121920000D01*
X189737553Y-122328247D01*
X189968806Y-122674342D01*
X190314901Y-122905595D01*
X190723148Y-122986800D01*
X191800852Y-122986800D01*
X192209099Y-122905595D01*
X192555194Y-122674342D01*
X192786447Y-122328247D01*
X192867652Y-121920000D01*
X192786447Y-121511753D01*
X192555194Y-121165658D01*
X192238817Y-120954262D01*
X192428503Y-120916531D01*
X192593310Y-120806410D01*
X193420894Y-119978826D01*
X193524806Y-120134342D01*
X193870901Y-120365595D01*
X194279148Y-120446800D01*
X195356852Y-120446800D01*
X195765099Y-120365595D01*
X196111194Y-120134342D01*
X196342447Y-119788247D01*
X196423652Y-119380000D01*
X196342447Y-118971753D01*
X196111194Y-118625658D01*
X195939482Y-118510924D01*
X196001910Y-118469210D01*
X197335710Y-117135410D01*
X197445831Y-116970603D01*
X197484500Y-116776200D01*
X197484500Y-104683894D01*
X197777912Y-105123016D01*
X198552505Y-105640583D01*
X199466200Y-105822328D01*
X200379895Y-105640583D01*
X201154488Y-105123016D01*
X201474500Y-104644085D01*
X201474500Y-112254514D01*
X201111987Y-112012291D01*
X200660000Y-111922385D01*
X200208013Y-112012291D01*
X199824836Y-112268321D01*
X199568806Y-112651498D01*
X199478900Y-113103485D01*
X199478900Y-113667715D01*
X199568806Y-114119702D01*
X199796400Y-114460321D01*
X199796400Y-118394185D01*
X196398257Y-121792329D01*
X196342447Y-121511753D01*
X196111194Y-121165658D01*
X195765099Y-120934405D01*
X195356852Y-120853200D01*
X194279148Y-120853200D01*
X193870901Y-120934405D01*
X193524806Y-121165658D01*
X193293553Y-121511753D01*
X193212348Y-121920000D01*
X193293553Y-122328247D01*
X193524806Y-122674342D01*
X193870901Y-122905595D01*
X194279148Y-122986800D01*
X195203786Y-122986800D01*
X195058186Y-123132400D01*
X193697800Y-123132400D01*
X193367315Y-123198138D01*
X193274347Y-123260257D01*
X193087142Y-123385343D01*
X190688343Y-125784143D01*
X190501138Y-126064315D01*
X190435400Y-126394800D01*
X190435400Y-127273585D01*
X190296800Y-127412185D01*
X190296800Y-126461148D01*
X190215595Y-126052901D01*
X189984342Y-125706806D01*
X189638247Y-125475553D01*
X189230000Y-125394348D01*
X188821753Y-125475553D01*
X188475658Y-125706806D01*
X188244405Y-126052901D01*
X188163200Y-126461148D01*
X188163200Y-127538852D01*
X188244405Y-127947099D01*
X188429023Y-128223400D01*
X187490977Y-128223400D01*
X187675595Y-127947099D01*
X187756800Y-127538852D01*
X187756800Y-126461148D01*
X187675595Y-126052901D01*
X187444342Y-125706806D01*
X187098247Y-125475553D01*
X186690000Y-125394348D01*
X186281753Y-125475553D01*
X185935658Y-125706806D01*
X185704405Y-126052901D01*
X185623200Y-126461148D01*
X185623200Y-127538852D01*
X185704405Y-127947099D01*
X185889023Y-128223400D01*
X184950977Y-128223400D01*
X185135595Y-127947099D01*
X185216800Y-127538852D01*
X185216800Y-126461148D01*
X185135595Y-126052901D01*
X184904342Y-125706806D01*
X184558247Y-125475553D01*
X184150000Y-125394348D01*
X183741753Y-125475553D01*
X183395658Y-125706806D01*
X183164405Y-126052901D01*
X183083200Y-126461148D01*
X183083200Y-127538852D01*
X183164405Y-127947099D01*
X183349023Y-128223400D01*
X182410977Y-128223400D01*
X182595595Y-127947099D01*
X182676800Y-127538852D01*
X182676800Y-126461148D01*
X182595595Y-126052901D01*
X182364342Y-125706806D01*
X182018247Y-125475553D01*
X181610000Y-125394348D01*
X181201753Y-125475553D01*
X180855658Y-125706806D01*
X180624405Y-126052901D01*
X180543200Y-126461148D01*
X180543200Y-127538852D01*
X180624405Y-127947099D01*
X180809023Y-128223400D01*
X179870977Y-128223400D01*
X180055595Y-127947099D01*
X180136800Y-127538852D01*
X180136800Y-126461148D01*
X180055595Y-126052901D01*
X179824342Y-125706806D01*
X179478247Y-125475553D01*
X179070000Y-125394348D01*
X178661753Y-125475553D01*
X178315658Y-125706806D01*
X178084405Y-126052901D01*
X178003200Y-126461148D01*
X178003200Y-127538852D01*
X178084405Y-127947099D01*
X178269023Y-128223400D01*
X177330977Y-128223400D01*
X177515595Y-127947099D01*
X177596800Y-127538852D01*
X177596800Y-126461148D01*
X177515595Y-126052901D01*
X177284342Y-125706806D01*
X176938247Y-125475553D01*
X176530000Y-125394348D01*
X176121753Y-125475553D01*
X175775658Y-125706806D01*
X175544405Y-126052901D01*
X175463200Y-126461148D01*
X175463200Y-127538852D01*
X175544405Y-127947099D01*
X175729023Y-128223400D01*
X174790977Y-128223400D01*
X174975595Y-127947099D01*
X175056800Y-127538852D01*
X175056800Y-126461148D01*
X174975595Y-126052901D01*
X174744342Y-125706806D01*
X174398247Y-125475553D01*
X173990000Y-125394348D01*
X173581753Y-125475553D01*
X173235658Y-125706806D01*
X173004405Y-126052901D01*
X172923200Y-126461148D01*
X172923200Y-127538852D01*
X173004405Y-127947099D01*
X173189023Y-128223400D01*
X172250977Y-128223400D01*
X172435595Y-127947099D01*
X172516800Y-127538852D01*
X172516800Y-126461148D01*
X172435595Y-126052901D01*
X172204342Y-125706806D01*
X171858247Y-125475553D01*
X171450000Y-125394348D01*
X171041753Y-125475553D01*
X170695658Y-125706806D01*
X170464405Y-126052901D01*
X170383200Y-126461148D01*
X170383200Y-127538852D01*
X170464405Y-127947099D01*
X170649023Y-128223400D01*
X167170977Y-128223400D01*
X167355595Y-127947099D01*
X167436800Y-127538852D01*
X167436800Y-126461148D01*
X167355595Y-126052901D01*
X167124342Y-125706806D01*
X166778247Y-125475553D01*
X166370000Y-125394348D01*
X165961753Y-125475553D01*
X165615658Y-125706806D01*
X165384405Y-126052901D01*
X165303200Y-126461148D01*
X165303200Y-127538852D01*
X165384405Y-127947099D01*
X165569023Y-128223400D01*
X164630977Y-128223400D01*
X164815595Y-127947099D01*
X164896800Y-127538852D01*
X164896800Y-126461148D01*
X164815595Y-126052901D01*
X164584342Y-125706806D01*
X164238247Y-125475553D01*
X163830000Y-125394348D01*
X163421753Y-125475553D01*
X163075658Y-125706806D01*
X162844405Y-126052901D01*
X162763200Y-126461148D01*
X162763200Y-127538852D01*
X162844405Y-127947099D01*
X163029023Y-128223400D01*
X162090977Y-128223400D01*
X162275595Y-127947099D01*
X162356800Y-127538852D01*
X162356800Y-126461148D01*
X162275595Y-126052901D01*
X162044342Y-125706806D01*
X161698247Y-125475553D01*
X161290000Y-125394348D01*
X160881753Y-125475553D01*
X160535658Y-125706806D01*
X160304405Y-126052901D01*
X160223200Y-126461148D01*
X160223200Y-127538852D01*
X160304405Y-127947099D01*
X160489023Y-128223400D01*
X159550977Y-128223400D01*
X159735595Y-127947099D01*
X159816800Y-127538852D01*
X159816800Y-126461148D01*
X159735595Y-126052901D01*
X159504342Y-125706806D01*
X159158247Y-125475553D01*
X158750000Y-125394348D01*
X158341753Y-125475553D01*
X157995658Y-125706806D01*
X157764405Y-126052901D01*
X157683200Y-126461148D01*
X157683200Y-127538852D01*
X157764405Y-127947099D01*
X157949023Y-128223400D01*
X157010977Y-128223400D01*
X157195595Y-127947099D01*
X157276800Y-127538852D01*
X157276800Y-126461148D01*
X157195595Y-126052901D01*
X156964342Y-125706806D01*
X156618247Y-125475553D01*
X156210000Y-125394348D01*
X155801753Y-125475553D01*
X155455658Y-125706806D01*
X155224405Y-126052901D01*
X155143200Y-126461148D01*
X155143200Y-127538852D01*
X155224405Y-127947099D01*
X155409023Y-128223400D01*
X154470977Y-128223400D01*
X154655595Y-127947099D01*
X154736800Y-127538852D01*
X154736800Y-126461148D01*
X154655595Y-126052901D01*
X154424342Y-125706806D01*
X154078247Y-125475553D01*
X153670000Y-125394348D01*
X153261753Y-125475553D01*
X152915658Y-125706806D01*
X152684405Y-126052901D01*
X152603200Y-126461148D01*
X152603200Y-127538852D01*
X152684405Y-127947099D01*
X152869023Y-128223400D01*
X151930977Y-128223400D01*
X152115595Y-127947099D01*
X152196800Y-127538852D01*
X152196800Y-126461148D01*
X152115595Y-126052901D01*
X151884342Y-125706806D01*
X151538247Y-125475553D01*
X151130000Y-125394348D01*
X150721753Y-125475553D01*
X150375658Y-125706806D01*
X150144405Y-126052901D01*
X150063200Y-126461148D01*
X150063200Y-127538852D01*
X150144405Y-127947099D01*
X150329023Y-128223400D01*
X149390977Y-128223400D01*
X149575595Y-127947099D01*
X149656800Y-127538852D01*
X149656800Y-126461148D01*
X149575595Y-126052901D01*
X149344342Y-125706806D01*
X148998247Y-125475553D01*
X148590000Y-125394348D01*
X148181753Y-125475553D01*
X147835658Y-125706806D01*
X147604405Y-126052901D01*
X147523200Y-126461148D01*
X147523200Y-127538852D01*
X147604405Y-127947099D01*
X147789023Y-128223400D01*
X144371564Y-128223400D01*
X144542528Y-127967534D01*
X144627600Y-127539847D01*
X144627600Y-126460153D01*
X144542528Y-126032466D01*
X144300263Y-125669890D01*
X144272000Y-125651005D01*
X144272000Y-125069300D01*
X144213996Y-124777695D01*
X144048815Y-124530485D01*
X143815601Y-124374656D01*
X144183480Y-124081708D01*
X144444454Y-123610299D01*
X144451484Y-123553761D01*
X144338637Y-123342400D01*
X143027400Y-123342400D01*
X143027400Y-123362400D01*
X142722600Y-123362400D01*
X142722600Y-123342400D01*
X141411363Y-123342400D01*
X141369514Y-123420783D01*
X141138731Y-123190000D01*
X156768324Y-123190000D01*
X156849529Y-123598247D01*
X157080782Y-123944342D01*
X157426877Y-124175595D01*
X157835124Y-124256800D01*
X158394876Y-124256800D01*
X158803123Y-124175595D01*
X159149218Y-123944342D01*
X159380471Y-123598247D01*
X159389319Y-123553761D01*
X161618516Y-123553761D01*
X161625546Y-123610299D01*
X161886520Y-124081708D01*
X162308030Y-124417363D01*
X162825904Y-124566163D01*
X163042600Y-124414825D01*
X163042600Y-123342400D01*
X163347400Y-123342400D01*
X163347400Y-124414825D01*
X163564096Y-124566163D01*
X164081970Y-124417363D01*
X164503480Y-124081708D01*
X164764454Y-123610299D01*
X164771484Y-123553761D01*
X164658637Y-123342400D01*
X163347400Y-123342400D01*
X163042600Y-123342400D01*
X161731363Y-123342400D01*
X161618516Y-123553761D01*
X159389319Y-123553761D01*
X159461676Y-123190000D01*
X159389320Y-122826239D01*
X161618516Y-122826239D01*
X161731363Y-123037600D01*
X163042600Y-123037600D01*
X163042600Y-121965175D01*
X163347400Y-121965175D01*
X163347400Y-123037600D01*
X164658637Y-123037600D01*
X164771484Y-122826239D01*
X164764454Y-122769701D01*
X164503480Y-122298292D01*
X164081970Y-121962637D01*
X163564096Y-121813837D01*
X163347400Y-121965175D01*
X163042600Y-121965175D01*
X162825904Y-121813837D01*
X162308030Y-121962637D01*
X161886520Y-122298292D01*
X161625546Y-122769701D01*
X161618516Y-122826239D01*
X159389320Y-122826239D01*
X159380471Y-122781753D01*
X159149218Y-122435658D01*
X158803123Y-122204405D01*
X158394876Y-122123200D01*
X157835124Y-122123200D01*
X157426877Y-122204405D01*
X157080782Y-122435658D01*
X156849529Y-122781753D01*
X156768324Y-123190000D01*
X141138731Y-123190000D01*
X140774970Y-122826239D01*
X141298516Y-122826239D01*
X141411363Y-123037600D01*
X142722600Y-123037600D01*
X142722600Y-121965175D01*
X143027400Y-121965175D01*
X143027400Y-123037600D01*
X144338637Y-123037600D01*
X144451484Y-122826239D01*
X144444454Y-122769701D01*
X144183480Y-122298292D01*
X143761970Y-121962637D01*
X143244096Y-121813837D01*
X143027400Y-121965175D01*
X142722600Y-121965175D01*
X142505904Y-121813837D01*
X141988030Y-121962637D01*
X141566520Y-122298292D01*
X141305546Y-122769701D01*
X141298516Y-122826239D01*
X140774970Y-122826239D01*
X137308815Y-119360085D01*
X137261910Y-119328744D01*
X137061605Y-119194904D01*
X136770000Y-119136900D01*
X108149531Y-119136900D01*
X103947631Y-114935000D01*
X115842434Y-114935000D01*
X115842434Y-117475000D01*
X115870033Y-117613748D01*
X115948627Y-117731373D01*
X116066252Y-117809967D01*
X116205000Y-117837566D01*
X118745000Y-117837566D01*
X118883748Y-117809967D01*
X119001373Y-117731373D01*
X119079967Y-117613748D01*
X119107566Y-117475000D01*
X119107566Y-116205000D01*
X120897553Y-116205000D01*
X121021294Y-116827090D01*
X121373680Y-117354473D01*
X121901063Y-117706859D01*
X122523153Y-117830600D01*
X122586847Y-117830600D01*
X123208937Y-117706859D01*
X123736320Y-117354473D01*
X124088706Y-116827090D01*
X124212447Y-116205000D01*
X124088706Y-115582910D01*
X123736320Y-115055527D01*
X123208937Y-114703141D01*
X122586847Y-114579400D01*
X122523153Y-114579400D01*
X121901063Y-114703141D01*
X121373680Y-115055527D01*
X121021294Y-115582910D01*
X120897553Y-116205000D01*
X119107566Y-116205000D01*
X119107566Y-114935000D01*
X119079967Y-114796252D01*
X119001373Y-114678627D01*
X118883748Y-114600033D01*
X118745000Y-114572434D01*
X116205000Y-114572434D01*
X116066252Y-114600033D01*
X115948627Y-114678627D01*
X115870033Y-114796252D01*
X115842434Y-114935000D01*
X103947631Y-114935000D01*
X103871680Y-114859050D01*
X104367104Y-114615631D01*
X104713872Y-114203688D01*
X104876600Y-113690400D01*
X104876600Y-113182400D01*
X103657400Y-113182400D01*
X103657400Y-113202400D01*
X103352600Y-113202400D01*
X103352600Y-113182400D01*
X102195030Y-113182400D01*
X102082600Y-113069970D01*
X102082600Y-112490153D01*
X101997528Y-112062466D01*
X101863113Y-111861300D01*
X102294547Y-111861300D01*
X102133400Y-112369600D01*
X102133400Y-112877600D01*
X103352600Y-112877600D01*
X103352600Y-112857600D01*
X103657400Y-112857600D01*
X103657400Y-112877600D01*
X104876600Y-112877600D01*
X104876600Y-112369600D01*
X104715453Y-111861300D01*
X105146887Y-111861300D01*
X105012472Y-112062466D01*
X104927400Y-112490153D01*
X104927400Y-113569847D01*
X105012472Y-113997534D01*
X105254737Y-114360110D01*
X105617313Y-114602375D01*
X106045000Y-114687447D01*
X106472687Y-114602375D01*
X106835263Y-114360110D01*
X107077528Y-113997534D01*
X107162600Y-113569847D01*
X107162600Y-112490153D01*
X107077528Y-112062466D01*
X106908600Y-111809647D01*
X106908600Y-110997700D01*
X106842862Y-110667215D01*
X106655657Y-110387043D01*
X106375485Y-110199838D01*
X106045000Y-110134100D01*
X100261700Y-110134100D01*
X99931215Y-110199838D01*
X99651043Y-110387042D01*
X98819543Y-111218543D01*
X98632338Y-111498715D01*
X98566600Y-111829200D01*
X98566600Y-114171400D01*
X98604137Y-114360110D01*
X98632338Y-114501885D01*
X98819543Y-114782057D01*
X108795242Y-124757757D01*
X109075414Y-124944962D01*
X109130245Y-124955869D01*
X109405900Y-125010700D01*
X111120364Y-125010700D01*
X110581730Y-125233259D01*
X109995318Y-125818648D01*
X109677563Y-126583888D01*
X109676840Y-127412477D01*
X109993259Y-128178270D01*
X110578648Y-128764682D01*
X111343888Y-129082437D01*
X112172477Y-129083160D01*
X112938270Y-128766741D01*
X113524682Y-128181352D01*
X113842437Y-127416112D01*
X113843160Y-126587523D01*
X113526741Y-125821730D01*
X112941352Y-125235318D01*
X112400411Y-125010700D01*
X115026386Y-125010700D01*
X119713343Y-129697658D01*
X119993515Y-129884862D01*
X120324000Y-129950600D01*
X189843300Y-129950600D01*
X190173785Y-129884862D01*
X190453957Y-129697657D01*
X191909658Y-128241957D01*
X192096862Y-127961785D01*
X192162600Y-127631300D01*
X192162600Y-126752514D01*
X192227472Y-126687642D01*
X192226840Y-127412477D01*
X192543259Y-128178270D01*
X193128648Y-128764682D01*
X193893888Y-129082437D01*
X194722477Y-129083160D01*
X195488270Y-128766741D01*
X196074682Y-128181352D01*
X196392437Y-127416112D01*
X196393160Y-126587523D01*
X196076741Y-125821730D01*
X195491352Y-125235318D01*
X194726112Y-124917563D01*
X193998187Y-124916928D01*
X194055515Y-124859600D01*
X195415900Y-124859600D01*
X195746385Y-124793862D01*
X196026557Y-124606657D01*
X197878747Y-122754468D01*
X197878526Y-123007693D01*
X198030948Y-123376581D01*
X198312934Y-123659061D01*
X198681556Y-123812126D01*
X199080693Y-123812474D01*
X199196117Y-123764781D01*
X199148874Y-123878556D01*
X199148526Y-124277693D01*
X199300948Y-124646581D01*
X199565133Y-124911229D01*
X197713600Y-124911229D01*
X197594673Y-124934885D01*
X197493852Y-125002252D01*
X197426485Y-125103073D01*
X197402829Y-125222000D01*
X197402829Y-130009900D01*
X93764100Y-130009900D01*
X93764100Y-107950000D01*
X96159467Y-107950000D01*
X96298676Y-108649851D01*
X96695110Y-109243157D01*
X97288416Y-109639591D01*
X97988267Y-109778800D01*
X100131733Y-109778800D01*
X100831584Y-109639591D01*
X101424890Y-109243157D01*
X101821324Y-108649851D01*
X101960533Y-107950000D01*
X101821324Y-107250149D01*
X101424890Y-106656843D01*
X100831584Y-106260409D01*
X100131733Y-106121200D01*
X97988267Y-106121200D01*
X97288416Y-106260409D01*
X96695110Y-106656843D01*
X96298676Y-107250149D01*
X96159467Y-107950000D01*
X93764100Y-107950000D01*
X93764100Y-106033096D01*
X106573837Y-106033096D01*
X106722637Y-106550970D01*
X107058292Y-106972480D01*
X107529701Y-107233454D01*
X107586239Y-107240484D01*
X107797600Y-107127637D01*
X107797600Y-105816400D01*
X108102400Y-105816400D01*
X108102400Y-107127637D01*
X108313761Y-107240484D01*
X108370299Y-107233454D01*
X108841708Y-106972480D01*
X109177363Y-106550970D01*
X109326163Y-106033096D01*
X109174825Y-105816400D01*
X108102400Y-105816400D01*
X107797600Y-105816400D01*
X106725175Y-105816400D01*
X106573837Y-106033096D01*
X93764100Y-106033096D01*
X93764100Y-99706904D01*
X106573837Y-99706904D01*
X106725175Y-99923600D01*
X107797600Y-99923600D01*
X107797600Y-98612363D01*
X108102400Y-98612363D01*
X108102400Y-99923600D01*
X109174825Y-99923600D01*
X109326163Y-99706904D01*
X109177363Y-99189030D01*
X108841708Y-98767520D01*
X108370299Y-98506546D01*
X108313761Y-98499516D01*
X108102400Y-98612363D01*
X107797600Y-98612363D01*
X107586239Y-98499516D01*
X107529701Y-98506546D01*
X107058292Y-98767520D01*
X106722637Y-99189030D01*
X106573837Y-99706904D01*
X93764100Y-99706904D01*
X93764100Y-97790000D01*
X96159467Y-97790000D01*
X96298676Y-98489851D01*
X96695110Y-99083157D01*
X97288416Y-99479591D01*
X97988267Y-99618800D01*
X100131733Y-99618800D01*
X100831584Y-99479591D01*
X101424890Y-99083157D01*
X101821324Y-98489851D01*
X101960533Y-97790000D01*
X101821324Y-97090149D01*
X101424890Y-96496843D01*
X100831584Y-96100409D01*
X100131733Y-95961200D01*
X97988267Y-95961200D01*
X97288416Y-96100409D01*
X96695110Y-96496843D01*
X96298676Y-97090149D01*
X96159467Y-97790000D01*
X93764100Y-97790000D01*
X93764100Y-93345000D01*
X115842434Y-93345000D01*
X115842434Y-95885000D01*
X115870033Y-96023748D01*
X115948627Y-96141373D01*
X116066252Y-96219967D01*
X116205000Y-96247566D01*
X118745000Y-96247566D01*
X118883748Y-96219967D01*
X119001373Y-96141373D01*
X119079967Y-96023748D01*
X119107566Y-95885000D01*
X119107566Y-94615000D01*
X120897553Y-94615000D01*
X121021294Y-95237090D01*
X121373680Y-95764473D01*
X121901063Y-96116859D01*
X122523153Y-96240600D01*
X122586847Y-96240600D01*
X123208937Y-96116859D01*
X123736320Y-95764473D01*
X124088706Y-95237090D01*
X124212447Y-94615000D01*
X124088706Y-93992910D01*
X123736320Y-93465527D01*
X123555939Y-93345000D01*
X136162434Y-93345000D01*
X136162434Y-95885000D01*
X136190033Y-96023748D01*
X136268627Y-96141373D01*
X136386252Y-96219967D01*
X136525000Y-96247566D01*
X139065000Y-96247566D01*
X139203748Y-96219967D01*
X139321373Y-96141373D01*
X139399967Y-96023748D01*
X139427566Y-95885000D01*
X139427566Y-94615000D01*
X141217553Y-94615000D01*
X141341294Y-95237090D01*
X141693680Y-95764473D01*
X142221063Y-96116859D01*
X142843153Y-96240600D01*
X142906847Y-96240600D01*
X143528937Y-96116859D01*
X144056320Y-95764473D01*
X144408706Y-95237090D01*
X144532447Y-94615000D01*
X144408706Y-93992910D01*
X144056320Y-93465527D01*
X143528937Y-93113141D01*
X142906847Y-92989400D01*
X142843153Y-92989400D01*
X142221063Y-93113141D01*
X141693680Y-93465527D01*
X141341294Y-93992910D01*
X141217553Y-94615000D01*
X139427566Y-94615000D01*
X139427566Y-93345000D01*
X139399967Y-93206252D01*
X139321373Y-93088627D01*
X139203748Y-93010033D01*
X139065000Y-92982434D01*
X136525000Y-92982434D01*
X136386252Y-93010033D01*
X136268627Y-93088627D01*
X136190033Y-93206252D01*
X136162434Y-93345000D01*
X123555939Y-93345000D01*
X123208937Y-93113141D01*
X122586847Y-92989400D01*
X122523153Y-92989400D01*
X121901063Y-93113141D01*
X121373680Y-93465527D01*
X121021294Y-93992910D01*
X120897553Y-94615000D01*
X119107566Y-94615000D01*
X119107566Y-93345000D01*
X119079967Y-93206252D01*
X119001373Y-93088627D01*
X118883748Y-93010033D01*
X118745000Y-92982434D01*
X116205000Y-92982434D01*
X116066252Y-93010033D01*
X115948627Y-93088627D01*
X115870033Y-93206252D01*
X115842434Y-93345000D01*
X93764100Y-93345000D01*
X93764100Y-92919171D01*
X98552000Y-92919171D01*
X98670927Y-92895515D01*
X98771748Y-92828148D01*
X98839115Y-92727327D01*
X98862771Y-92608400D01*
X98862771Y-90756437D01*
X99125934Y-91020061D01*
X99494556Y-91173126D01*
X99893693Y-91173474D01*
X100262581Y-91021052D01*
X100545061Y-90739066D01*
X100698126Y-90370444D01*
X100698474Y-89971307D01*
X100546052Y-89602419D01*
X100264066Y-89319939D01*
X99895444Y-89166874D01*
X99496307Y-89166526D01*
X99127419Y-89318948D01*
X98844939Y-89600934D01*
X98818496Y-89664615D01*
X98771748Y-89594652D01*
X98670927Y-89527285D01*
X98552000Y-89503629D01*
X93764100Y-89503629D01*
X93764100Y-84187400D01*
X99936300Y-84187400D01*
X99936300Y-87757000D01*
X99974969Y-87951403D01*
X100085090Y-88116210D01*
X100249897Y-88226331D01*
X100444300Y-88265000D01*
X100463729Y-88265000D01*
X100463729Y-88646000D01*
X100487385Y-88764927D01*
X100554752Y-88865748D01*
X100655573Y-88933115D01*
X100774500Y-88956771D01*
X104965500Y-88956771D01*
X105084427Y-88933115D01*
X105185248Y-88865748D01*
X105252615Y-88764927D01*
X105276271Y-88646000D01*
X105276271Y-86868000D01*
X105252615Y-86749073D01*
X105199144Y-86669048D01*
X105310811Y-86622794D01*
X105482294Y-86451311D01*
X105575100Y-86227257D01*
X105575100Y-85521800D01*
X105422700Y-85369400D01*
X103022400Y-85369400D01*
X103022400Y-85389400D01*
X102717600Y-85389400D01*
X102717600Y-85369400D01*
X102697600Y-85369400D01*
X102697600Y-85064600D01*
X102717600Y-85064600D01*
X102717600Y-85044600D01*
X103022400Y-85044600D01*
X103022400Y-85064600D01*
X105422700Y-85064600D01*
X105575100Y-84912200D01*
X105575100Y-84530800D01*
X156007200Y-84530800D01*
X156201603Y-84492131D01*
X156366410Y-84382010D01*
X159900220Y-80848200D01*
X161290000Y-80848200D01*
X161484403Y-80809531D01*
X161649210Y-80699410D01*
X161759331Y-80534603D01*
X161798000Y-80340200D01*
X161798000Y-80197794D01*
X162044342Y-80033194D01*
X162275595Y-79687099D01*
X162356800Y-79278852D01*
X162356800Y-78201148D01*
X165303200Y-78201148D01*
X165303200Y-79278852D01*
X165384405Y-79687099D01*
X165615658Y-80033194D01*
X165961753Y-80264447D01*
X166370000Y-80345652D01*
X166778247Y-80264447D01*
X167124342Y-80033194D01*
X167355595Y-79687099D01*
X167436800Y-79278852D01*
X167436800Y-78201148D01*
X167355595Y-77792901D01*
X167124342Y-77446806D01*
X166778247Y-77215553D01*
X166370000Y-77134348D01*
X165961753Y-77215553D01*
X165615658Y-77446806D01*
X165384405Y-77792901D01*
X165303200Y-78201148D01*
X162356800Y-78201148D01*
X162275595Y-77792901D01*
X162044342Y-77446806D01*
X161698247Y-77215553D01*
X161290000Y-77134348D01*
X160881753Y-77215553D01*
X160535658Y-77446806D01*
X160304405Y-77792901D01*
X160223200Y-78201148D01*
X160223200Y-79278852D01*
X160304405Y-79687099D01*
X160401358Y-79832200D01*
X159689800Y-79832200D01*
X159630800Y-79843936D01*
X159735595Y-79687099D01*
X159816800Y-79278852D01*
X159816800Y-78201148D01*
X159735595Y-77792901D01*
X159504342Y-77446806D01*
X159158247Y-77215553D01*
X158750000Y-77134348D01*
X158341753Y-77215553D01*
X157995658Y-77446806D01*
X157764405Y-77792901D01*
X157683200Y-78201148D01*
X157683200Y-79278852D01*
X157764405Y-79687099D01*
X157995658Y-80033194D01*
X158201228Y-80170552D01*
X156202780Y-82169000D01*
X105276271Y-82169000D01*
X105276271Y-81788000D01*
X105252615Y-81669073D01*
X105185248Y-81568252D01*
X105084427Y-81500885D01*
X104965500Y-81477229D01*
X100774500Y-81477229D01*
X100655573Y-81500885D01*
X100554752Y-81568252D01*
X100487385Y-81669073D01*
X100463729Y-81788000D01*
X100463729Y-83543676D01*
X100414497Y-83553469D01*
X100249690Y-83663589D01*
X100085090Y-83828190D01*
X99974969Y-83992997D01*
X99936300Y-84187400D01*
X93764100Y-84187400D01*
X93764100Y-80930371D01*
X98552000Y-80930371D01*
X98670927Y-80906715D01*
X98771748Y-80839348D01*
X98818343Y-80769614D01*
X98843948Y-80831581D01*
X99125934Y-81114061D01*
X99494556Y-81267126D01*
X99893693Y-81267474D01*
X100262581Y-81115052D01*
X100545061Y-80833066D01*
X100698126Y-80464444D01*
X100698474Y-80065307D01*
X100546052Y-79696419D01*
X100264066Y-79413939D01*
X99895444Y-79260874D01*
X99496307Y-79260526D01*
X99127419Y-79412948D01*
X98862771Y-79677133D01*
X98862771Y-79152477D01*
X110946840Y-79152477D01*
X111263259Y-79918270D01*
X111848648Y-80504682D01*
X112613888Y-80822437D01*
X113442477Y-80823160D01*
X114208270Y-80506741D01*
X114794682Y-79921352D01*
X115112437Y-79156112D01*
X115113160Y-78327523D01*
X115060943Y-78201148D01*
X115519200Y-78201148D01*
X115519200Y-79278852D01*
X115600405Y-79687099D01*
X115831658Y-80033194D01*
X116177753Y-80264447D01*
X116586000Y-80345652D01*
X116994247Y-80264447D01*
X117340342Y-80033194D01*
X117571595Y-79687099D01*
X117652800Y-79278852D01*
X117652800Y-78201148D01*
X118059200Y-78201148D01*
X118059200Y-79278852D01*
X118140405Y-79687099D01*
X118371658Y-80033194D01*
X118717753Y-80264447D01*
X119126000Y-80345652D01*
X119534247Y-80264447D01*
X119880342Y-80033194D01*
X120111595Y-79687099D01*
X120192800Y-79278852D01*
X120192800Y-78201148D01*
X120599200Y-78201148D01*
X120599200Y-79278852D01*
X120680405Y-79687099D01*
X120911658Y-80033194D01*
X121257753Y-80264447D01*
X121666000Y-80345652D01*
X122074247Y-80264447D01*
X122420342Y-80033194D01*
X122651595Y-79687099D01*
X122732800Y-79278852D01*
X122732800Y-78201148D01*
X123139200Y-78201148D01*
X123139200Y-79278852D01*
X123220405Y-79687099D01*
X123451658Y-80033194D01*
X123797753Y-80264447D01*
X124206000Y-80345652D01*
X124614247Y-80264447D01*
X124960342Y-80033194D01*
X125191595Y-79687099D01*
X125272800Y-79278852D01*
X125272800Y-78201148D01*
X125679200Y-78201148D01*
X125679200Y-79278852D01*
X125760405Y-79687099D01*
X125991658Y-80033194D01*
X126337753Y-80264447D01*
X126746000Y-80345652D01*
X127154247Y-80264447D01*
X127500342Y-80033194D01*
X127731595Y-79687099D01*
X127812800Y-79278852D01*
X127812800Y-78201148D01*
X128219200Y-78201148D01*
X128219200Y-79278852D01*
X128300405Y-79687099D01*
X128531658Y-80033194D01*
X128877753Y-80264447D01*
X129286000Y-80345652D01*
X129694247Y-80264447D01*
X130040342Y-80033194D01*
X130271595Y-79687099D01*
X130352800Y-79278852D01*
X130352800Y-78201148D01*
X130759200Y-78201148D01*
X130759200Y-79278852D01*
X130840405Y-79687099D01*
X131071658Y-80033194D01*
X131417753Y-80264447D01*
X131826000Y-80345652D01*
X132234247Y-80264447D01*
X132580342Y-80033194D01*
X132811595Y-79687099D01*
X132892800Y-79278852D01*
X132892800Y-78201148D01*
X133299200Y-78201148D01*
X133299200Y-79278852D01*
X133380405Y-79687099D01*
X133611658Y-80033194D01*
X133957753Y-80264447D01*
X134366000Y-80345652D01*
X134774247Y-80264447D01*
X135120342Y-80033194D01*
X135351595Y-79687099D01*
X135432800Y-79278852D01*
X135432800Y-78201148D01*
X135839200Y-78201148D01*
X135839200Y-79278852D01*
X135920405Y-79687099D01*
X136151658Y-80033194D01*
X136497753Y-80264447D01*
X136906000Y-80345652D01*
X137314247Y-80264447D01*
X137660342Y-80033194D01*
X137891595Y-79687099D01*
X137972800Y-79278852D01*
X137972800Y-78201148D01*
X138379200Y-78201148D01*
X138379200Y-79278852D01*
X138460405Y-79687099D01*
X138691658Y-80033194D01*
X139037753Y-80264447D01*
X139446000Y-80345652D01*
X139854247Y-80264447D01*
X140200342Y-80033194D01*
X140431595Y-79687099D01*
X140512800Y-79278852D01*
X140512800Y-78201148D01*
X142443200Y-78201148D01*
X142443200Y-79278852D01*
X142524405Y-79687099D01*
X142755658Y-80033194D01*
X143101753Y-80264447D01*
X143510000Y-80345652D01*
X143918247Y-80264447D01*
X144264342Y-80033194D01*
X144495595Y-79687099D01*
X144576800Y-79278852D01*
X144576800Y-78201148D01*
X144983200Y-78201148D01*
X144983200Y-79278852D01*
X145064405Y-79687099D01*
X145295658Y-80033194D01*
X145641753Y-80264447D01*
X146050000Y-80345652D01*
X146458247Y-80264447D01*
X146804342Y-80033194D01*
X147035595Y-79687099D01*
X147116800Y-79278852D01*
X147116800Y-78201148D01*
X147523200Y-78201148D01*
X147523200Y-79278852D01*
X147604405Y-79687099D01*
X147835658Y-80033194D01*
X148181753Y-80264447D01*
X148590000Y-80345652D01*
X148998247Y-80264447D01*
X149344342Y-80033194D01*
X149575595Y-79687099D01*
X149656800Y-79278852D01*
X149656800Y-78201148D01*
X150063200Y-78201148D01*
X150063200Y-79278852D01*
X150144405Y-79687099D01*
X150375658Y-80033194D01*
X150721753Y-80264447D01*
X151130000Y-80345652D01*
X151538247Y-80264447D01*
X151884342Y-80033194D01*
X152115595Y-79687099D01*
X152196800Y-79278852D01*
X152196800Y-78201148D01*
X152603200Y-78201148D01*
X152603200Y-79278852D01*
X152684405Y-79687099D01*
X152915658Y-80033194D01*
X153261753Y-80264447D01*
X153670000Y-80345652D01*
X154078247Y-80264447D01*
X154424342Y-80033194D01*
X154655595Y-79687099D01*
X154736800Y-79278852D01*
X154736800Y-78201148D01*
X155143200Y-78201148D01*
X155143200Y-79278852D01*
X155224405Y-79687099D01*
X155455658Y-80033194D01*
X155801753Y-80264447D01*
X156210000Y-80345652D01*
X156618247Y-80264447D01*
X156964342Y-80033194D01*
X157195595Y-79687099D01*
X157276800Y-79278852D01*
X157276800Y-78201148D01*
X157195595Y-77792901D01*
X156964342Y-77446806D01*
X156618247Y-77215553D01*
X156210000Y-77134348D01*
X155801753Y-77215553D01*
X155455658Y-77446806D01*
X155224405Y-77792901D01*
X155143200Y-78201148D01*
X154736800Y-78201148D01*
X154655595Y-77792901D01*
X154424342Y-77446806D01*
X154078247Y-77215553D01*
X153670000Y-77134348D01*
X153261753Y-77215553D01*
X152915658Y-77446806D01*
X152684405Y-77792901D01*
X152603200Y-78201148D01*
X152196800Y-78201148D01*
X152115595Y-77792901D01*
X151884342Y-77446806D01*
X151538247Y-77215553D01*
X151130000Y-77134348D01*
X150721753Y-77215553D01*
X150375658Y-77446806D01*
X150144405Y-77792901D01*
X150063200Y-78201148D01*
X149656800Y-78201148D01*
X149575595Y-77792901D01*
X149344342Y-77446806D01*
X148998247Y-77215553D01*
X148590000Y-77134348D01*
X148181753Y-77215553D01*
X147835658Y-77446806D01*
X147604405Y-77792901D01*
X147523200Y-78201148D01*
X147116800Y-78201148D01*
X147035595Y-77792901D01*
X146804342Y-77446806D01*
X146458247Y-77215553D01*
X146050000Y-77134348D01*
X145641753Y-77215553D01*
X145295658Y-77446806D01*
X145064405Y-77792901D01*
X144983200Y-78201148D01*
X144576800Y-78201148D01*
X144495595Y-77792901D01*
X144264342Y-77446806D01*
X143918247Y-77215553D01*
X143510000Y-77134348D01*
X143101753Y-77215553D01*
X142755658Y-77446806D01*
X142524405Y-77792901D01*
X142443200Y-78201148D01*
X140512800Y-78201148D01*
X140431595Y-77792901D01*
X140200342Y-77446806D01*
X139854247Y-77215553D01*
X139446000Y-77134348D01*
X139037753Y-77215553D01*
X138691658Y-77446806D01*
X138460405Y-77792901D01*
X138379200Y-78201148D01*
X137972800Y-78201148D01*
X137891595Y-77792901D01*
X137660342Y-77446806D01*
X137314247Y-77215553D01*
X136906000Y-77134348D01*
X136497753Y-77215553D01*
X136151658Y-77446806D01*
X135920405Y-77792901D01*
X135839200Y-78201148D01*
X135432800Y-78201148D01*
X135351595Y-77792901D01*
X135120342Y-77446806D01*
X134774247Y-77215553D01*
X134366000Y-77134348D01*
X133957753Y-77215553D01*
X133611658Y-77446806D01*
X133380405Y-77792901D01*
X133299200Y-78201148D01*
X132892800Y-78201148D01*
X132811595Y-77792901D01*
X132580342Y-77446806D01*
X132234247Y-77215553D01*
X131826000Y-77134348D01*
X131417753Y-77215553D01*
X131071658Y-77446806D01*
X130840405Y-77792901D01*
X130759200Y-78201148D01*
X130352800Y-78201148D01*
X130271595Y-77792901D01*
X130040342Y-77446806D01*
X129694247Y-77215553D01*
X129286000Y-77134348D01*
X128877753Y-77215553D01*
X128531658Y-77446806D01*
X128300405Y-77792901D01*
X128219200Y-78201148D01*
X127812800Y-78201148D01*
X127731595Y-77792901D01*
X127500342Y-77446806D01*
X127154247Y-77215553D01*
X126746000Y-77134348D01*
X126337753Y-77215553D01*
X125991658Y-77446806D01*
X125760405Y-77792901D01*
X125679200Y-78201148D01*
X125272800Y-78201148D01*
X125191595Y-77792901D01*
X124960342Y-77446806D01*
X124614247Y-77215553D01*
X124206000Y-77134348D01*
X123797753Y-77215553D01*
X123451658Y-77446806D01*
X123220405Y-77792901D01*
X123139200Y-78201148D01*
X122732800Y-78201148D01*
X122651595Y-77792901D01*
X122420342Y-77446806D01*
X122074247Y-77215553D01*
X121666000Y-77134348D01*
X121257753Y-77215553D01*
X120911658Y-77446806D01*
X120680405Y-77792901D01*
X120599200Y-78201148D01*
X120192800Y-78201148D01*
X120111595Y-77792901D01*
X119880342Y-77446806D01*
X119534247Y-77215553D01*
X119126000Y-77134348D01*
X118717753Y-77215553D01*
X118371658Y-77446806D01*
X118140405Y-77792901D01*
X118059200Y-78201148D01*
X117652800Y-78201148D01*
X117571595Y-77792901D01*
X117340342Y-77446806D01*
X116994247Y-77215553D01*
X116586000Y-77134348D01*
X116177753Y-77215553D01*
X115831658Y-77446806D01*
X115600405Y-77792901D01*
X115519200Y-78201148D01*
X115060943Y-78201148D01*
X114796741Y-77561730D01*
X114211352Y-76975318D01*
X113446112Y-76657563D01*
X112617523Y-76656840D01*
X111851730Y-76973259D01*
X111265318Y-77558648D01*
X110947563Y-78323888D01*
X110946840Y-79152477D01*
X98862771Y-79152477D01*
X98862771Y-77825600D01*
X98839115Y-77706673D01*
X98771748Y-77605852D01*
X98670927Y-77538485D01*
X98552000Y-77514829D01*
X93764100Y-77514829D01*
X93764100Y-75730100D01*
X174687730Y-75730100D01*
X174668290Y-75743089D01*
X174668290Y-75743089D01*
G37*
X174668290Y-75743089D02*
X173630790Y-76780590D01*
X173520669Y-76945397D01*
X173482000Y-77139800D01*
X173482000Y-77282206D01*
X173235658Y-77446806D01*
X173004405Y-77792901D01*
X172923200Y-78201148D01*
X172923200Y-79278852D01*
X172976815Y-79548395D01*
X172516800Y-79088380D01*
X172516800Y-78201148D01*
X172435595Y-77792901D01*
X172204342Y-77446806D01*
X171858247Y-77215553D01*
X171450000Y-77134348D01*
X171041753Y-77215553D01*
X170695658Y-77446806D01*
X170464405Y-77792901D01*
X170383200Y-78201148D01*
X170383200Y-79278852D01*
X170464405Y-79687099D01*
X170695658Y-80033194D01*
X171041753Y-80264447D01*
X171357235Y-80327200D01*
X169615420Y-80327200D01*
X169458772Y-80170552D01*
X169664342Y-80033194D01*
X169895595Y-79687099D01*
X169976800Y-79278852D01*
X169976800Y-78201148D01*
X169895595Y-77792901D01*
X169664342Y-77446806D01*
X169318247Y-77215553D01*
X168910000Y-77134348D01*
X168501753Y-77215553D01*
X168155658Y-77446806D01*
X167924405Y-77792901D01*
X167843200Y-78201148D01*
X167843200Y-79278852D01*
X167924405Y-79687099D01*
X168155658Y-80033194D01*
X168402000Y-80197794D01*
X168402000Y-80340200D01*
X168440669Y-80534603D01*
X168550790Y-80699410D01*
X168833980Y-80982600D01*
X160499000Y-80982600D01*
X160304596Y-81021269D01*
X160139790Y-81131390D01*
X141271380Y-99999800D01*
X117475000Y-99999800D01*
X117280597Y-100038469D01*
X117115790Y-100148590D01*
X117005669Y-100313397D01*
X116967000Y-100507800D01*
X116967000Y-100578576D01*
X116786877Y-100614405D01*
X116440782Y-100845658D01*
X116209529Y-101191753D01*
X116128324Y-101600000D01*
X116209529Y-102008247D01*
X116440782Y-102354342D01*
X116786877Y-102585595D01*
X117195124Y-102666800D01*
X117754876Y-102666800D01*
X118163123Y-102585595D01*
X118509218Y-102354342D01*
X118740471Y-102008247D01*
X118821676Y-101600000D01*
X118740471Y-101191753D01*
X118622903Y-101015800D01*
X120173860Y-101015800D01*
X120129430Y-101122801D01*
X120129170Y-101420891D01*
X120243004Y-101696390D01*
X120375297Y-101828915D01*
X120409269Y-101999703D01*
X120519390Y-102164510D01*
X122113880Y-103759000D01*
X108801373Y-103759000D01*
X108935595Y-103558123D01*
X109016800Y-103149876D01*
X109016800Y-102590124D01*
X108935595Y-102181877D01*
X108704342Y-101835782D01*
X108397204Y-101630559D01*
X108841708Y-101384480D01*
X109177363Y-100962970D01*
X109326163Y-100445096D01*
X109174825Y-100228400D01*
X108102400Y-100228400D01*
X108102400Y-100248400D01*
X107797600Y-100248400D01*
X107797600Y-100228400D01*
X106725175Y-100228400D01*
X106573837Y-100445096D01*
X106722637Y-100962970D01*
X107058292Y-101384480D01*
X107502796Y-101630559D01*
X107195658Y-101835782D01*
X106964405Y-102181877D01*
X106890362Y-102554119D01*
X106861410Y-102510790D01*
X106696603Y-102400669D01*
X106502200Y-102362000D01*
X106354818Y-102362000D01*
X106190218Y-102115658D01*
X105844123Y-101884405D01*
X105435876Y-101803200D01*
X104876124Y-101803200D01*
X104467877Y-101884405D01*
X104121782Y-102115658D01*
X103890529Y-102461753D01*
X103809324Y-102870000D01*
X103890529Y-103278247D01*
X104121782Y-103624342D01*
X104467877Y-103855595D01*
X104876124Y-103936800D01*
X105435876Y-103936800D01*
X105844123Y-103855595D01*
X106190218Y-103624342D01*
X106193584Y-103619304D01*
X107001331Y-104427051D01*
X106722637Y-104777030D01*
X106573837Y-105294904D01*
X106725175Y-105511600D01*
X107797600Y-105511600D01*
X107797600Y-105491600D01*
X108102400Y-105491600D01*
X108102400Y-105511600D01*
X109174825Y-105511600D01*
X109326163Y-105294904D01*
X109177363Y-104777030D01*
X109175746Y-104775000D01*
X124521980Y-104775000D01*
X134406190Y-114659210D01*
X134570997Y-114769331D01*
X134765400Y-114808000D01*
X136187696Y-114808000D01*
X136162434Y-114935000D01*
X136162434Y-117475000D01*
X136190033Y-117613748D01*
X136268627Y-117731373D01*
X136386252Y-117809967D01*
X136525000Y-117837566D01*
X139065000Y-117837566D01*
X139203748Y-117809967D01*
X139321373Y-117731373D01*
X139399967Y-117613748D01*
X139427566Y-117475000D01*
X139427566Y-114935000D01*
X139402304Y-114808000D01*
X142064130Y-114808000D01*
X141693680Y-115055527D01*
X141341294Y-115582910D01*
X141217553Y-116205000D01*
X141341294Y-116827090D01*
X141693680Y-117354473D01*
X142221063Y-117706859D01*
X142843153Y-117830600D01*
X142906847Y-117830600D01*
X143528937Y-117706859D01*
X144056320Y-117354473D01*
X144408706Y-116827090D01*
X144532447Y-116205000D01*
X144408706Y-115582910D01*
X144056320Y-115055527D01*
X143685870Y-114808000D01*
X156507696Y-114808000D01*
X156482434Y-114935000D01*
X156482434Y-117475000D01*
X156510033Y-117613748D01*
X156588627Y-117731373D01*
X156706252Y-117809967D01*
X156845000Y-117837566D01*
X159385000Y-117837566D01*
X159523748Y-117809967D01*
X159641373Y-117731373D01*
X159719967Y-117613748D01*
X159747566Y-117475000D01*
X159747566Y-114935000D01*
X159722304Y-114808000D01*
X162384130Y-114808000D01*
X162013680Y-115055527D01*
X161661294Y-115582910D01*
X161537553Y-116205000D01*
X161661294Y-116827090D01*
X162013680Y-117354473D01*
X162541063Y-117706859D01*
X163163153Y-117830600D01*
X163226847Y-117830600D01*
X163848937Y-117706859D01*
X164376320Y-117354473D01*
X164728706Y-116827090D01*
X164852447Y-116205000D01*
X164728706Y-115582910D01*
X164376320Y-115055527D01*
X164005870Y-114808000D01*
X176827696Y-114808000D01*
X176802434Y-114935000D01*
X176802434Y-117475000D01*
X176830033Y-117613748D01*
X176908627Y-117731373D01*
X177026252Y-117809967D01*
X177165000Y-117837566D01*
X179705000Y-117837566D01*
X179843748Y-117809967D01*
X179961373Y-117731373D01*
X180039967Y-117613748D01*
X180067566Y-117475000D01*
X180067566Y-114935000D01*
X180042304Y-114808000D01*
X182704130Y-114808000D01*
X182333680Y-115055527D01*
X181981294Y-115582910D01*
X181857553Y-116205000D01*
X181981294Y-116827090D01*
X182333680Y-117354473D01*
X182861063Y-117706859D01*
X183483153Y-117830600D01*
X183546847Y-117830600D01*
X184168937Y-117706859D01*
X184696320Y-117354473D01*
X185048706Y-116827090D01*
X185172447Y-116205000D01*
X185048706Y-115582910D01*
X184696320Y-115055527D01*
X184325870Y-114808000D01*
X189804206Y-114808000D01*
X189968806Y-115054342D01*
X190249357Y-115241800D01*
X187604200Y-115241800D01*
X187409797Y-115280469D01*
X187244990Y-115390590D01*
X183517480Y-119118100D01*
X143802133Y-119118100D01*
X143675499Y-118991244D01*
X143400199Y-118876930D01*
X143102109Y-118876670D01*
X142826610Y-118990504D01*
X142615644Y-119201101D01*
X142501330Y-119476401D01*
X142501070Y-119774491D01*
X142614904Y-120049990D01*
X142825501Y-120260956D01*
X143100801Y-120375270D01*
X143398891Y-120375530D01*
X143674390Y-120261696D01*
X143802210Y-120134100D01*
X183710305Y-120134100D01*
X183815004Y-120387490D01*
X184025601Y-120598456D01*
X184300901Y-120712770D01*
X184598991Y-120713030D01*
X184874490Y-120599196D01*
X185085456Y-120388599D01*
X185199770Y-120113299D01*
X185199928Y-119932692D01*
X186514620Y-118618000D01*
X189980267Y-118618000D01*
X189968806Y-118625658D01*
X189737553Y-118971753D01*
X189656348Y-119380000D01*
X189737553Y-119788247D01*
X189838416Y-119939200D01*
X188046900Y-119939200D01*
X187852497Y-119977869D01*
X187687690Y-120087990D01*
X185056491Y-122719189D01*
X184823480Y-122298292D01*
X184401970Y-121962637D01*
X183884096Y-121813837D01*
X183667400Y-121965175D01*
X183667400Y-123037600D01*
X183687400Y-123037600D01*
X183687400Y-123342400D01*
X183667400Y-123342400D01*
X183667400Y-123362400D01*
X183362600Y-123362400D01*
X183362600Y-123342400D01*
X182051363Y-123342400D01*
X181938516Y-123553761D01*
X181945546Y-123610299D01*
X182036282Y-123774200D01*
X179582903Y-123774200D01*
X179700471Y-123598247D01*
X179781676Y-123190000D01*
X179709320Y-122826239D01*
X181938516Y-122826239D01*
X182051363Y-123037600D01*
X183362600Y-123037600D01*
X183362600Y-121965175D01*
X183145904Y-121813837D01*
X182628030Y-121962637D01*
X182206520Y-122298292D01*
X181945546Y-122769701D01*
X181938516Y-122826239D01*
X179709320Y-122826239D01*
X179700471Y-122781753D01*
X179469218Y-122435658D01*
X179123123Y-122204405D01*
X178714876Y-122123200D01*
X178155124Y-122123200D01*
X177746877Y-122204405D01*
X177400782Y-122435658D01*
X177169529Y-122781753D01*
X177088324Y-123190000D01*
X177169529Y-123598247D01*
X177400782Y-123944342D01*
X177746877Y-124175595D01*
X177927000Y-124211424D01*
X177927000Y-124282200D01*
X177965669Y-124476603D01*
X178075790Y-124641410D01*
X178240597Y-124751531D01*
X178435000Y-124790200D01*
X184211900Y-124790200D01*
X184406303Y-124751531D01*
X184571110Y-124641410D01*
X188257320Y-120955200D01*
X190283779Y-120955200D01*
X189968806Y-121165658D01*
X189737553Y-121511753D01*
X189656348Y-121920000D01*
X189737553Y-122328247D01*
X189968806Y-122674342D01*
X190314901Y-122905595D01*
X190723148Y-122986800D01*
X191800852Y-122986800D01*
X192209099Y-122905595D01*
X192555194Y-122674342D01*
X192786447Y-122328247D01*
X192867652Y-121920000D01*
X192786447Y-121511753D01*
X192555194Y-121165658D01*
X192238817Y-120954262D01*
X192428503Y-120916531D01*
X192593310Y-120806410D01*
X193420894Y-119978826D01*
X193524806Y-120134342D01*
X193870901Y-120365595D01*
X194279148Y-120446800D01*
X195356852Y-120446800D01*
X195765099Y-120365595D01*
X196111194Y-120134342D01*
X196342447Y-119788247D01*
X196423652Y-119380000D01*
X196342447Y-118971753D01*
X196111194Y-118625658D01*
X195939482Y-118510924D01*
X196001910Y-118469210D01*
X197335710Y-117135410D01*
X197445831Y-116970603D01*
X197484500Y-116776200D01*
X197484500Y-104683894D01*
X197777912Y-105123016D01*
X198552505Y-105640583D01*
X199466200Y-105822328D01*
X200379895Y-105640583D01*
X201154488Y-105123016D01*
X201474500Y-104644085D01*
X201474500Y-112254514D01*
X201111987Y-112012291D01*
X200660000Y-111922385D01*
X200208013Y-112012291D01*
X199824836Y-112268321D01*
X199568806Y-112651498D01*
X199478900Y-113103485D01*
X199478900Y-113667715D01*
X199568806Y-114119702D01*
X199796400Y-114460321D01*
X199796400Y-118394185D01*
X196398257Y-121792329D01*
X196342447Y-121511753D01*
X196111194Y-121165658D01*
X195765099Y-120934405D01*
X195356852Y-120853200D01*
X194279148Y-120853200D01*
X193870901Y-120934405D01*
X193524806Y-121165658D01*
X193293553Y-121511753D01*
X193212348Y-121920000D01*
X193293553Y-122328247D01*
X193524806Y-122674342D01*
X193870901Y-122905595D01*
X194279148Y-122986800D01*
X195203786Y-122986800D01*
X195058186Y-123132400D01*
X193697800Y-123132400D01*
X193367315Y-123198138D01*
X193274347Y-123260257D01*
X193087142Y-123385343D01*
X190688343Y-125784143D01*
X190501138Y-126064315D01*
X190435400Y-126394800D01*
X190435400Y-127273585D01*
X190296800Y-127412185D01*
X190296800Y-126461148D01*
X190215595Y-126052901D01*
X189984342Y-125706806D01*
X189638247Y-125475553D01*
X189230000Y-125394348D01*
X188821753Y-125475553D01*
X188475658Y-125706806D01*
X188244405Y-126052901D01*
X188163200Y-126461148D01*
X188163200Y-127538852D01*
X188244405Y-127947099D01*
X188429023Y-128223400D01*
X187490977Y-128223400D01*
X187675595Y-127947099D01*
X187756800Y-127538852D01*
X187756800Y-126461148D01*
X187675595Y-126052901D01*
X187444342Y-125706806D01*
X187098247Y-125475553D01*
X186690000Y-125394348D01*
X186281753Y-125475553D01*
X185935658Y-125706806D01*
X185704405Y-126052901D01*
X185623200Y-126461148D01*
X185623200Y-127538852D01*
X185704405Y-127947099D01*
X185889023Y-128223400D01*
X184950977Y-128223400D01*
X185135595Y-127947099D01*
X185216800Y-127538852D01*
X185216800Y-126461148D01*
X185135595Y-126052901D01*
X184904342Y-125706806D01*
X184558247Y-125475553D01*
X184150000Y-125394348D01*
X183741753Y-125475553D01*
X183395658Y-125706806D01*
X183164405Y-126052901D01*
X183083200Y-126461148D01*
X183083200Y-127538852D01*
X183164405Y-127947099D01*
X183349023Y-128223400D01*
X182410977Y-128223400D01*
X182595595Y-127947099D01*
X182676800Y-127538852D01*
X182676800Y-126461148D01*
X182595595Y-126052901D01*
X182364342Y-125706806D01*
X182018247Y-125475553D01*
X181610000Y-125394348D01*
X181201753Y-125475553D01*
X180855658Y-125706806D01*
X180624405Y-126052901D01*
X180543200Y-126461148D01*
X180543200Y-127538852D01*
X180624405Y-127947099D01*
X180809023Y-128223400D01*
X179870977Y-128223400D01*
X180055595Y-127947099D01*
X180136800Y-127538852D01*
X180136800Y-126461148D01*
X180055595Y-126052901D01*
X179824342Y-125706806D01*
X179478247Y-125475553D01*
X179070000Y-125394348D01*
X178661753Y-125475553D01*
X178315658Y-125706806D01*
X178084405Y-126052901D01*
X178003200Y-126461148D01*
X178003200Y-127538852D01*
X178084405Y-127947099D01*
X178269023Y-128223400D01*
X177330977Y-128223400D01*
X177515595Y-127947099D01*
X177596800Y-127538852D01*
X177596800Y-126461148D01*
X177515595Y-126052901D01*
X177284342Y-125706806D01*
X176938247Y-125475553D01*
X176530000Y-125394348D01*
X176121753Y-125475553D01*
X175775658Y-125706806D01*
X175544405Y-126052901D01*
X175463200Y-126461148D01*
X175463200Y-127538852D01*
X175544405Y-127947099D01*
X175729023Y-128223400D01*
X174790977Y-128223400D01*
X174975595Y-127947099D01*
X175056800Y-127538852D01*
X175056800Y-126461148D01*
X174975595Y-126052901D01*
X174744342Y-125706806D01*
X174398247Y-125475553D01*
X173990000Y-125394348D01*
X173581753Y-125475553D01*
X173235658Y-125706806D01*
X173004405Y-126052901D01*
X172923200Y-126461148D01*
X172923200Y-127538852D01*
X173004405Y-127947099D01*
X173189023Y-128223400D01*
X172250977Y-128223400D01*
X172435595Y-127947099D01*
X172516800Y-127538852D01*
X172516800Y-126461148D01*
X172435595Y-126052901D01*
X172204342Y-125706806D01*
X171858247Y-125475553D01*
X171450000Y-125394348D01*
X171041753Y-125475553D01*
X170695658Y-125706806D01*
X170464405Y-126052901D01*
X170383200Y-126461148D01*
X170383200Y-127538852D01*
X170464405Y-127947099D01*
X170649023Y-128223400D01*
X167170977Y-128223400D01*
X167355595Y-127947099D01*
X167436800Y-127538852D01*
X167436800Y-126461148D01*
X167355595Y-126052901D01*
X167124342Y-125706806D01*
X166778247Y-125475553D01*
X166370000Y-125394348D01*
X165961753Y-125475553D01*
X165615658Y-125706806D01*
X165384405Y-126052901D01*
X165303200Y-126461148D01*
X165303200Y-127538852D01*
X165384405Y-127947099D01*
X165569023Y-128223400D01*
X164630977Y-128223400D01*
X164815595Y-127947099D01*
X164896800Y-127538852D01*
X164896800Y-126461148D01*
X164815595Y-126052901D01*
X164584342Y-125706806D01*
X164238247Y-125475553D01*
X163830000Y-125394348D01*
X163421753Y-125475553D01*
X163075658Y-125706806D01*
X162844405Y-126052901D01*
X162763200Y-126461148D01*
X162763200Y-127538852D01*
X162844405Y-127947099D01*
X163029023Y-128223400D01*
X162090977Y-128223400D01*
X162275595Y-127947099D01*
X162356800Y-127538852D01*
X162356800Y-126461148D01*
X162275595Y-126052901D01*
X162044342Y-125706806D01*
X161698247Y-125475553D01*
X161290000Y-125394348D01*
X160881753Y-125475553D01*
X160535658Y-125706806D01*
X160304405Y-126052901D01*
X160223200Y-126461148D01*
X160223200Y-127538852D01*
X160304405Y-127947099D01*
X160489023Y-128223400D01*
X159550977Y-128223400D01*
X159735595Y-127947099D01*
X159816800Y-127538852D01*
X159816800Y-126461148D01*
X159735595Y-126052901D01*
X159504342Y-125706806D01*
X159158247Y-125475553D01*
X158750000Y-125394348D01*
X158341753Y-125475553D01*
X157995658Y-125706806D01*
X157764405Y-126052901D01*
X157683200Y-126461148D01*
X157683200Y-127538852D01*
X157764405Y-127947099D01*
X157949023Y-128223400D01*
X157010977Y-128223400D01*
X157195595Y-127947099D01*
X157276800Y-127538852D01*
X157276800Y-126461148D01*
X157195595Y-126052901D01*
X156964342Y-125706806D01*
X156618247Y-125475553D01*
X156210000Y-125394348D01*
X155801753Y-125475553D01*
X155455658Y-125706806D01*
X155224405Y-126052901D01*
X155143200Y-126461148D01*
X155143200Y-127538852D01*
X155224405Y-127947099D01*
X155409023Y-128223400D01*
X154470977Y-128223400D01*
X154655595Y-127947099D01*
X154736800Y-127538852D01*
X154736800Y-126461148D01*
X154655595Y-126052901D01*
X154424342Y-125706806D01*
X154078247Y-125475553D01*
X153670000Y-125394348D01*
X153261753Y-125475553D01*
X152915658Y-125706806D01*
X152684405Y-126052901D01*
X152603200Y-126461148D01*
X152603200Y-127538852D01*
X152684405Y-127947099D01*
X152869023Y-128223400D01*
X151930977Y-128223400D01*
X152115595Y-127947099D01*
X152196800Y-127538852D01*
X152196800Y-126461148D01*
X152115595Y-126052901D01*
X151884342Y-125706806D01*
X151538247Y-125475553D01*
X151130000Y-125394348D01*
X150721753Y-125475553D01*
X150375658Y-125706806D01*
X150144405Y-126052901D01*
X150063200Y-126461148D01*
X150063200Y-127538852D01*
X150144405Y-127947099D01*
X150329023Y-128223400D01*
X149390977Y-128223400D01*
X149575595Y-127947099D01*
X149656800Y-127538852D01*
X149656800Y-126461148D01*
X149575595Y-126052901D01*
X149344342Y-125706806D01*
X148998247Y-125475553D01*
X148590000Y-125394348D01*
X148181753Y-125475553D01*
X147835658Y-125706806D01*
X147604405Y-126052901D01*
X147523200Y-126461148D01*
X147523200Y-127538852D01*
X147604405Y-127947099D01*
X147789023Y-128223400D01*
X144371564Y-128223400D01*
X144542528Y-127967534D01*
X144627600Y-127539847D01*
X144627600Y-126460153D01*
X144542528Y-126032466D01*
X144300263Y-125669890D01*
X144272000Y-125651005D01*
X144272000Y-125069300D01*
X144213996Y-124777695D01*
X144048815Y-124530485D01*
X143815601Y-124374656D01*
X144183480Y-124081708D01*
X144444454Y-123610299D01*
X144451484Y-123553761D01*
X144338637Y-123342400D01*
X143027400Y-123342400D01*
X143027400Y-123362400D01*
X142722600Y-123362400D01*
X142722600Y-123342400D01*
X141411363Y-123342400D01*
X141369514Y-123420783D01*
X141138731Y-123190000D01*
X156768324Y-123190000D01*
X156849529Y-123598247D01*
X157080782Y-123944342D01*
X157426877Y-124175595D01*
X157835124Y-124256800D01*
X158394876Y-124256800D01*
X158803123Y-124175595D01*
X159149218Y-123944342D01*
X159380471Y-123598247D01*
X159389319Y-123553761D01*
X161618516Y-123553761D01*
X161625546Y-123610299D01*
X161886520Y-124081708D01*
X162308030Y-124417363D01*
X162825904Y-124566163D01*
X163042600Y-124414825D01*
X163042600Y-123342400D01*
X163347400Y-123342400D01*
X163347400Y-124414825D01*
X163564096Y-124566163D01*
X164081970Y-124417363D01*
X164503480Y-124081708D01*
X164764454Y-123610299D01*
X164771484Y-123553761D01*
X164658637Y-123342400D01*
X163347400Y-123342400D01*
X163042600Y-123342400D01*
X161731363Y-123342400D01*
X161618516Y-123553761D01*
X159389319Y-123553761D01*
X159461676Y-123190000D01*
X159389320Y-122826239D01*
X161618516Y-122826239D01*
X161731363Y-123037600D01*
X163042600Y-123037600D01*
X163042600Y-121965175D01*
X163347400Y-121965175D01*
X163347400Y-123037600D01*
X164658637Y-123037600D01*
X164771484Y-122826239D01*
X164764454Y-122769701D01*
X164503480Y-122298292D01*
X164081970Y-121962637D01*
X163564096Y-121813837D01*
X163347400Y-121965175D01*
X163042600Y-121965175D01*
X162825904Y-121813837D01*
X162308030Y-121962637D01*
X161886520Y-122298292D01*
X161625546Y-122769701D01*
X161618516Y-122826239D01*
X159389320Y-122826239D01*
X159380471Y-122781753D01*
X159149218Y-122435658D01*
X158803123Y-122204405D01*
X158394876Y-122123200D01*
X157835124Y-122123200D01*
X157426877Y-122204405D01*
X157080782Y-122435658D01*
X156849529Y-122781753D01*
X156768324Y-123190000D01*
X141138731Y-123190000D01*
X140774970Y-122826239D01*
X141298516Y-122826239D01*
X141411363Y-123037600D01*
X142722600Y-123037600D01*
X142722600Y-121965175D01*
X143027400Y-121965175D01*
X143027400Y-123037600D01*
X144338637Y-123037600D01*
X144451484Y-122826239D01*
X144444454Y-122769701D01*
X144183480Y-122298292D01*
X143761970Y-121962637D01*
X143244096Y-121813837D01*
X143027400Y-121965175D01*
X142722600Y-121965175D01*
X142505904Y-121813837D01*
X141988030Y-121962637D01*
X141566520Y-122298292D01*
X141305546Y-122769701D01*
X141298516Y-122826239D01*
X140774970Y-122826239D01*
X137308815Y-119360085D01*
X137261910Y-119328744D01*
X137061605Y-119194904D01*
X136770000Y-119136900D01*
X108149531Y-119136900D01*
X103947631Y-114935000D01*
X115842434Y-114935000D01*
X115842434Y-117475000D01*
X115870033Y-117613748D01*
X115948627Y-117731373D01*
X116066252Y-117809967D01*
X116205000Y-117837566D01*
X118745000Y-117837566D01*
X118883748Y-117809967D01*
X119001373Y-117731373D01*
X119079967Y-117613748D01*
X119107566Y-117475000D01*
X119107566Y-116205000D01*
X120897553Y-116205000D01*
X121021294Y-116827090D01*
X121373680Y-117354473D01*
X121901063Y-117706859D01*
X122523153Y-117830600D01*
X122586847Y-117830600D01*
X123208937Y-117706859D01*
X123736320Y-117354473D01*
X124088706Y-116827090D01*
X124212447Y-116205000D01*
X124088706Y-115582910D01*
X123736320Y-115055527D01*
X123208937Y-114703141D01*
X122586847Y-114579400D01*
X122523153Y-114579400D01*
X121901063Y-114703141D01*
X121373680Y-115055527D01*
X121021294Y-115582910D01*
X120897553Y-116205000D01*
X119107566Y-116205000D01*
X119107566Y-114935000D01*
X119079967Y-114796252D01*
X119001373Y-114678627D01*
X118883748Y-114600033D01*
X118745000Y-114572434D01*
X116205000Y-114572434D01*
X116066252Y-114600033D01*
X115948627Y-114678627D01*
X115870033Y-114796252D01*
X115842434Y-114935000D01*
X103947631Y-114935000D01*
X103871680Y-114859050D01*
X104367104Y-114615631D01*
X104713872Y-114203688D01*
X104876600Y-113690400D01*
X104876600Y-113182400D01*
X103657400Y-113182400D01*
X103657400Y-113202400D01*
X103352600Y-113202400D01*
X103352600Y-113182400D01*
X102195030Y-113182400D01*
X102082600Y-113069970D01*
X102082600Y-112490153D01*
X101997528Y-112062466D01*
X101863113Y-111861300D01*
X102294547Y-111861300D01*
X102133400Y-112369600D01*
X102133400Y-112877600D01*
X103352600Y-112877600D01*
X103352600Y-112857600D01*
X103657400Y-112857600D01*
X103657400Y-112877600D01*
X104876600Y-112877600D01*
X104876600Y-112369600D01*
X104715453Y-111861300D01*
X105146887Y-111861300D01*
X105012472Y-112062466D01*
X104927400Y-112490153D01*
X104927400Y-113569847D01*
X105012472Y-113997534D01*
X105254737Y-114360110D01*
X105617313Y-114602375D01*
X106045000Y-114687447D01*
X106472687Y-114602375D01*
X106835263Y-114360110D01*
X107077528Y-113997534D01*
X107162600Y-113569847D01*
X107162600Y-112490153D01*
X107077528Y-112062466D01*
X106908600Y-111809647D01*
X106908600Y-110997700D01*
X106842862Y-110667215D01*
X106655657Y-110387043D01*
X106375485Y-110199838D01*
X106045000Y-110134100D01*
X100261700Y-110134100D01*
X99931215Y-110199838D01*
X99651043Y-110387042D01*
X98819543Y-111218543D01*
X98632338Y-111498715D01*
X98566600Y-111829200D01*
X98566600Y-114171400D01*
X98604137Y-114360110D01*
X98632338Y-114501885D01*
X98819543Y-114782057D01*
X108795242Y-124757757D01*
X109075414Y-124944962D01*
X109130245Y-124955869D01*
X109405900Y-125010700D01*
X111120364Y-125010700D01*
X110581730Y-125233259D01*
X109995318Y-125818648D01*
X109677563Y-126583888D01*
X109676840Y-127412477D01*
X109993259Y-128178270D01*
X110578648Y-128764682D01*
X111343888Y-129082437D01*
X112172477Y-129083160D01*
X112938270Y-128766741D01*
X113524682Y-128181352D01*
X113842437Y-127416112D01*
X113843160Y-126587523D01*
X113526741Y-125821730D01*
X112941352Y-125235318D01*
X112400411Y-125010700D01*
X115026386Y-125010700D01*
X119713343Y-129697658D01*
X119993515Y-129884862D01*
X120324000Y-129950600D01*
X189843300Y-129950600D01*
X190173785Y-129884862D01*
X190453957Y-129697657D01*
X191909658Y-128241957D01*
X192096862Y-127961785D01*
X192162600Y-127631300D01*
X192162600Y-126752514D01*
X192227472Y-126687642D01*
X192226840Y-127412477D01*
X192543259Y-128178270D01*
X193128648Y-128764682D01*
X193893888Y-129082437D01*
X194722477Y-129083160D01*
X195488270Y-128766741D01*
X196074682Y-128181352D01*
X196392437Y-127416112D01*
X196393160Y-126587523D01*
X196076741Y-125821730D01*
X195491352Y-125235318D01*
X194726112Y-124917563D01*
X193998187Y-124916928D01*
X194055515Y-124859600D01*
X195415900Y-124859600D01*
X195746385Y-124793862D01*
X196026557Y-124606657D01*
X197878747Y-122754468D01*
X197878526Y-123007693D01*
X198030948Y-123376581D01*
X198312934Y-123659061D01*
X198681556Y-123812126D01*
X199080693Y-123812474D01*
X199196117Y-123764781D01*
X199148874Y-123878556D01*
X199148526Y-124277693D01*
X199300948Y-124646581D01*
X199565133Y-124911229D01*
X197713600Y-124911229D01*
X197594673Y-124934885D01*
X197493852Y-125002252D01*
X197426485Y-125103073D01*
X197402829Y-125222000D01*
X197402829Y-130009900D01*
X93764100Y-130009900D01*
X93764100Y-107950000D01*
X96159467Y-107950000D01*
X96298676Y-108649851D01*
X96695110Y-109243157D01*
X97288416Y-109639591D01*
X97988267Y-109778800D01*
X100131733Y-109778800D01*
X100831584Y-109639591D01*
X101424890Y-109243157D01*
X101821324Y-108649851D01*
X101960533Y-107950000D01*
X101821324Y-107250149D01*
X101424890Y-106656843D01*
X100831584Y-106260409D01*
X100131733Y-106121200D01*
X97988267Y-106121200D01*
X97288416Y-106260409D01*
X96695110Y-106656843D01*
X96298676Y-107250149D01*
X96159467Y-107950000D01*
X93764100Y-107950000D01*
X93764100Y-106033096D01*
X106573837Y-106033096D01*
X106722637Y-106550970D01*
X107058292Y-106972480D01*
X107529701Y-107233454D01*
X107586239Y-107240484D01*
X107797600Y-107127637D01*
X107797600Y-105816400D01*
X108102400Y-105816400D01*
X108102400Y-107127637D01*
X108313761Y-107240484D01*
X108370299Y-107233454D01*
X108841708Y-106972480D01*
X109177363Y-106550970D01*
X109326163Y-106033096D01*
X109174825Y-105816400D01*
X108102400Y-105816400D01*
X107797600Y-105816400D01*
X106725175Y-105816400D01*
X106573837Y-106033096D01*
X93764100Y-106033096D01*
X93764100Y-99706904D01*
X106573837Y-99706904D01*
X106725175Y-99923600D01*
X107797600Y-99923600D01*
X107797600Y-98612363D01*
X108102400Y-98612363D01*
X108102400Y-99923600D01*
X109174825Y-99923600D01*
X109326163Y-99706904D01*
X109177363Y-99189030D01*
X108841708Y-98767520D01*
X108370299Y-98506546D01*
X108313761Y-98499516D01*
X108102400Y-98612363D01*
X107797600Y-98612363D01*
X107586239Y-98499516D01*
X107529701Y-98506546D01*
X107058292Y-98767520D01*
X106722637Y-99189030D01*
X106573837Y-99706904D01*
X93764100Y-99706904D01*
X93764100Y-97790000D01*
X96159467Y-97790000D01*
X96298676Y-98489851D01*
X96695110Y-99083157D01*
X97288416Y-99479591D01*
X97988267Y-99618800D01*
X100131733Y-99618800D01*
X100831584Y-99479591D01*
X101424890Y-99083157D01*
X101821324Y-98489851D01*
X101960533Y-97790000D01*
X101821324Y-97090149D01*
X101424890Y-96496843D01*
X100831584Y-96100409D01*
X100131733Y-95961200D01*
X97988267Y-95961200D01*
X97288416Y-96100409D01*
X96695110Y-96496843D01*
X96298676Y-97090149D01*
X96159467Y-97790000D01*
X93764100Y-97790000D01*
X93764100Y-93345000D01*
X115842434Y-93345000D01*
X115842434Y-95885000D01*
X115870033Y-96023748D01*
X115948627Y-96141373D01*
X116066252Y-96219967D01*
X116205000Y-96247566D01*
X118745000Y-96247566D01*
X118883748Y-96219967D01*
X119001373Y-96141373D01*
X119079967Y-96023748D01*
X119107566Y-95885000D01*
X119107566Y-94615000D01*
X120897553Y-94615000D01*
X121021294Y-95237090D01*
X121373680Y-95764473D01*
X121901063Y-96116859D01*
X122523153Y-96240600D01*
X122586847Y-96240600D01*
X123208937Y-96116859D01*
X123736320Y-95764473D01*
X124088706Y-95237090D01*
X124212447Y-94615000D01*
X124088706Y-93992910D01*
X123736320Y-93465527D01*
X123555939Y-93345000D01*
X136162434Y-93345000D01*
X136162434Y-95885000D01*
X136190033Y-96023748D01*
X136268627Y-96141373D01*
X136386252Y-96219967D01*
X136525000Y-96247566D01*
X139065000Y-96247566D01*
X139203748Y-96219967D01*
X139321373Y-96141373D01*
X139399967Y-96023748D01*
X139427566Y-95885000D01*
X139427566Y-94615000D01*
X141217553Y-94615000D01*
X141341294Y-95237090D01*
X141693680Y-95764473D01*
X142221063Y-96116859D01*
X142843153Y-96240600D01*
X142906847Y-96240600D01*
X143528937Y-96116859D01*
X144056320Y-95764473D01*
X144408706Y-95237090D01*
X144532447Y-94615000D01*
X144408706Y-93992910D01*
X144056320Y-93465527D01*
X143528937Y-93113141D01*
X142906847Y-92989400D01*
X142843153Y-92989400D01*
X142221063Y-93113141D01*
X141693680Y-93465527D01*
X141341294Y-93992910D01*
X141217553Y-94615000D01*
X139427566Y-94615000D01*
X139427566Y-93345000D01*
X139399967Y-93206252D01*
X139321373Y-93088627D01*
X139203748Y-93010033D01*
X139065000Y-92982434D01*
X136525000Y-92982434D01*
X136386252Y-93010033D01*
X136268627Y-93088627D01*
X136190033Y-93206252D01*
X136162434Y-93345000D01*
X123555939Y-93345000D01*
X123208937Y-93113141D01*
X122586847Y-92989400D01*
X122523153Y-92989400D01*
X121901063Y-93113141D01*
X121373680Y-93465527D01*
X121021294Y-93992910D01*
X120897553Y-94615000D01*
X119107566Y-94615000D01*
X119107566Y-93345000D01*
X119079967Y-93206252D01*
X119001373Y-93088627D01*
X118883748Y-93010033D01*
X118745000Y-92982434D01*
X116205000Y-92982434D01*
X116066252Y-93010033D01*
X115948627Y-93088627D01*
X115870033Y-93206252D01*
X115842434Y-93345000D01*
X93764100Y-93345000D01*
X93764100Y-92919171D01*
X98552000Y-92919171D01*
X98670927Y-92895515D01*
X98771748Y-92828148D01*
X98839115Y-92727327D01*
X98862771Y-92608400D01*
X98862771Y-90756437D01*
X99125934Y-91020061D01*
X99494556Y-91173126D01*
X99893693Y-91173474D01*
X100262581Y-91021052D01*
X100545061Y-90739066D01*
X100698126Y-90370444D01*
X100698474Y-89971307D01*
X100546052Y-89602419D01*
X100264066Y-89319939D01*
X99895444Y-89166874D01*
X99496307Y-89166526D01*
X99127419Y-89318948D01*
X98844939Y-89600934D01*
X98818496Y-89664615D01*
X98771748Y-89594652D01*
X98670927Y-89527285D01*
X98552000Y-89503629D01*
X93764100Y-89503629D01*
X93764100Y-84187400D01*
X99936300Y-84187400D01*
X99936300Y-87757000D01*
X99974969Y-87951403D01*
X100085090Y-88116210D01*
X100249897Y-88226331D01*
X100444300Y-88265000D01*
X100463729Y-88265000D01*
X100463729Y-88646000D01*
X100487385Y-88764927D01*
X100554752Y-88865748D01*
X100655573Y-88933115D01*
X100774500Y-88956771D01*
X104965500Y-88956771D01*
X105084427Y-88933115D01*
X105185248Y-88865748D01*
X105252615Y-88764927D01*
X105276271Y-88646000D01*
X105276271Y-86868000D01*
X105252615Y-86749073D01*
X105199144Y-86669048D01*
X105310811Y-86622794D01*
X105482294Y-86451311D01*
X105575100Y-86227257D01*
X105575100Y-85521800D01*
X105422700Y-85369400D01*
X103022400Y-85369400D01*
X103022400Y-85389400D01*
X102717600Y-85389400D01*
X102717600Y-85369400D01*
X102697600Y-85369400D01*
X102697600Y-85064600D01*
X102717600Y-85064600D01*
X102717600Y-85044600D01*
X103022400Y-85044600D01*
X103022400Y-85064600D01*
X105422700Y-85064600D01*
X105575100Y-84912200D01*
X105575100Y-84530800D01*
X156007200Y-84530800D01*
X156201603Y-84492131D01*
X156366410Y-84382010D01*
X159900220Y-80848200D01*
X161290000Y-80848200D01*
X161484403Y-80809531D01*
X161649210Y-80699410D01*
X161759331Y-80534603D01*
X161798000Y-80340200D01*
X161798000Y-80197794D01*
X162044342Y-80033194D01*
X162275595Y-79687099D01*
X162356800Y-79278852D01*
X162356800Y-78201148D01*
X165303200Y-78201148D01*
X165303200Y-79278852D01*
X165384405Y-79687099D01*
X165615658Y-80033194D01*
X165961753Y-80264447D01*
X166370000Y-80345652D01*
X166778247Y-80264447D01*
X167124342Y-80033194D01*
X167355595Y-79687099D01*
X167436800Y-79278852D01*
X167436800Y-78201148D01*
X167355595Y-77792901D01*
X167124342Y-77446806D01*
X166778247Y-77215553D01*
X166370000Y-77134348D01*
X165961753Y-77215553D01*
X165615658Y-77446806D01*
X165384405Y-77792901D01*
X165303200Y-78201148D01*
X162356800Y-78201148D01*
X162275595Y-77792901D01*
X162044342Y-77446806D01*
X161698247Y-77215553D01*
X161290000Y-77134348D01*
X160881753Y-77215553D01*
X160535658Y-77446806D01*
X160304405Y-77792901D01*
X160223200Y-78201148D01*
X160223200Y-79278852D01*
X160304405Y-79687099D01*
X160401358Y-79832200D01*
X159689800Y-79832200D01*
X159630800Y-79843936D01*
X159735595Y-79687099D01*
X159816800Y-79278852D01*
X159816800Y-78201148D01*
X159735595Y-77792901D01*
X159504342Y-77446806D01*
X159158247Y-77215553D01*
X158750000Y-77134348D01*
X158341753Y-77215553D01*
X157995658Y-77446806D01*
X157764405Y-77792901D01*
X157683200Y-78201148D01*
X157683200Y-79278852D01*
X157764405Y-79687099D01*
X157995658Y-80033194D01*
X158201228Y-80170552D01*
X156202780Y-82169000D01*
X105276271Y-82169000D01*
X105276271Y-81788000D01*
X105252615Y-81669073D01*
X105185248Y-81568252D01*
X105084427Y-81500885D01*
X104965500Y-81477229D01*
X100774500Y-81477229D01*
X100655573Y-81500885D01*
X100554752Y-81568252D01*
X100487385Y-81669073D01*
X100463729Y-81788000D01*
X100463729Y-83543676D01*
X100414497Y-83553469D01*
X100249690Y-83663589D01*
X100085090Y-83828190D01*
X99974969Y-83992997D01*
X99936300Y-84187400D01*
X93764100Y-84187400D01*
X93764100Y-80930371D01*
X98552000Y-80930371D01*
X98670927Y-80906715D01*
X98771748Y-80839348D01*
X98818343Y-80769614D01*
X98843948Y-80831581D01*
X99125934Y-81114061D01*
X99494556Y-81267126D01*
X99893693Y-81267474D01*
X100262581Y-81115052D01*
X100545061Y-80833066D01*
X100698126Y-80464444D01*
X100698474Y-80065307D01*
X100546052Y-79696419D01*
X100264066Y-79413939D01*
X99895444Y-79260874D01*
X99496307Y-79260526D01*
X99127419Y-79412948D01*
X98862771Y-79677133D01*
X98862771Y-79152477D01*
X110946840Y-79152477D01*
X111263259Y-79918270D01*
X111848648Y-80504682D01*
X112613888Y-80822437D01*
X113442477Y-80823160D01*
X114208270Y-80506741D01*
X114794682Y-79921352D01*
X115112437Y-79156112D01*
X115113160Y-78327523D01*
X115060943Y-78201148D01*
X115519200Y-78201148D01*
X115519200Y-79278852D01*
X115600405Y-79687099D01*
X115831658Y-80033194D01*
X116177753Y-80264447D01*
X116586000Y-80345652D01*
X116994247Y-80264447D01*
X117340342Y-80033194D01*
X117571595Y-79687099D01*
X117652800Y-79278852D01*
X117652800Y-78201148D01*
X118059200Y-78201148D01*
X118059200Y-79278852D01*
X118140405Y-79687099D01*
X118371658Y-80033194D01*
X118717753Y-80264447D01*
X119126000Y-80345652D01*
X119534247Y-80264447D01*
X119880342Y-80033194D01*
X120111595Y-79687099D01*
X120192800Y-79278852D01*
X120192800Y-78201148D01*
X120599200Y-78201148D01*
X120599200Y-79278852D01*
X120680405Y-79687099D01*
X120911658Y-80033194D01*
X121257753Y-80264447D01*
X121666000Y-80345652D01*
X122074247Y-80264447D01*
X122420342Y-80033194D01*
X122651595Y-79687099D01*
X122732800Y-79278852D01*
X122732800Y-78201148D01*
X123139200Y-78201148D01*
X123139200Y-79278852D01*
X123220405Y-79687099D01*
X123451658Y-80033194D01*
X123797753Y-80264447D01*
X124206000Y-80345652D01*
X124614247Y-80264447D01*
X124960342Y-80033194D01*
X125191595Y-79687099D01*
X125272800Y-79278852D01*
X125272800Y-78201148D01*
X125679200Y-78201148D01*
X125679200Y-79278852D01*
X125760405Y-79687099D01*
X125991658Y-80033194D01*
X126337753Y-80264447D01*
X126746000Y-80345652D01*
X127154247Y-80264447D01*
X127500342Y-80033194D01*
X127731595Y-79687099D01*
X127812800Y-79278852D01*
X127812800Y-78201148D01*
X128219200Y-78201148D01*
X128219200Y-79278852D01*
X128300405Y-79687099D01*
X128531658Y-80033194D01*
X128877753Y-80264447D01*
X129286000Y-80345652D01*
X129694247Y-80264447D01*
X130040342Y-80033194D01*
X130271595Y-79687099D01*
X130352800Y-79278852D01*
X130352800Y-78201148D01*
X130759200Y-78201148D01*
X130759200Y-79278852D01*
X130840405Y-79687099D01*
X131071658Y-80033194D01*
X131417753Y-80264447D01*
X131826000Y-80345652D01*
X132234247Y-80264447D01*
X132580342Y-80033194D01*
X132811595Y-79687099D01*
X132892800Y-79278852D01*
X132892800Y-78201148D01*
X133299200Y-78201148D01*
X133299200Y-79278852D01*
X133380405Y-79687099D01*
X133611658Y-80033194D01*
X133957753Y-80264447D01*
X134366000Y-80345652D01*
X134774247Y-80264447D01*
X135120342Y-80033194D01*
X135351595Y-79687099D01*
X135432800Y-79278852D01*
X135432800Y-78201148D01*
X135839200Y-78201148D01*
X135839200Y-79278852D01*
X135920405Y-79687099D01*
X136151658Y-80033194D01*
X136497753Y-80264447D01*
X136906000Y-80345652D01*
X137314247Y-80264447D01*
X137660342Y-80033194D01*
X137891595Y-79687099D01*
X137972800Y-79278852D01*
X137972800Y-78201148D01*
X138379200Y-78201148D01*
X138379200Y-79278852D01*
X138460405Y-79687099D01*
X138691658Y-80033194D01*
X139037753Y-80264447D01*
X139446000Y-80345652D01*
X139854247Y-80264447D01*
X140200342Y-80033194D01*
X140431595Y-79687099D01*
X140512800Y-79278852D01*
X140512800Y-78201148D01*
X142443200Y-78201148D01*
X142443200Y-79278852D01*
X142524405Y-79687099D01*
X142755658Y-80033194D01*
X143101753Y-80264447D01*
X143510000Y-80345652D01*
X143918247Y-80264447D01*
X144264342Y-80033194D01*
X144495595Y-79687099D01*
X144576800Y-79278852D01*
X144576800Y-78201148D01*
X144983200Y-78201148D01*
X144983200Y-79278852D01*
X145064405Y-79687099D01*
X145295658Y-80033194D01*
X145641753Y-80264447D01*
X146050000Y-80345652D01*
X146458247Y-80264447D01*
X146804342Y-80033194D01*
X147035595Y-79687099D01*
X147116800Y-79278852D01*
X147116800Y-78201148D01*
X147523200Y-78201148D01*
X147523200Y-79278852D01*
X147604405Y-79687099D01*
X147835658Y-80033194D01*
X148181753Y-80264447D01*
X148590000Y-80345652D01*
X148998247Y-80264447D01*
X149344342Y-80033194D01*
X149575595Y-79687099D01*
X149656800Y-79278852D01*
X149656800Y-78201148D01*
X150063200Y-78201148D01*
X150063200Y-79278852D01*
X150144405Y-79687099D01*
X150375658Y-80033194D01*
X150721753Y-80264447D01*
X151130000Y-80345652D01*
X151538247Y-80264447D01*
X151884342Y-80033194D01*
X152115595Y-79687099D01*
X152196800Y-79278852D01*
X152196800Y-78201148D01*
X152603200Y-78201148D01*
X152603200Y-79278852D01*
X152684405Y-79687099D01*
X152915658Y-80033194D01*
X153261753Y-80264447D01*
X153670000Y-80345652D01*
X154078247Y-80264447D01*
X154424342Y-80033194D01*
X154655595Y-79687099D01*
X154736800Y-79278852D01*
X154736800Y-78201148D01*
X155143200Y-78201148D01*
X155143200Y-79278852D01*
X155224405Y-79687099D01*
X155455658Y-80033194D01*
X155801753Y-80264447D01*
X156210000Y-80345652D01*
X156618247Y-80264447D01*
X156964342Y-80033194D01*
X157195595Y-79687099D01*
X157276800Y-79278852D01*
X157276800Y-78201148D01*
X157195595Y-77792901D01*
X156964342Y-77446806D01*
X156618247Y-77215553D01*
X156210000Y-77134348D01*
X155801753Y-77215553D01*
X155455658Y-77446806D01*
X155224405Y-77792901D01*
X155143200Y-78201148D01*
X154736800Y-78201148D01*
X154655595Y-77792901D01*
X154424342Y-77446806D01*
X154078247Y-77215553D01*
X153670000Y-77134348D01*
X153261753Y-77215553D01*
X152915658Y-77446806D01*
X152684405Y-77792901D01*
X152603200Y-78201148D01*
X152196800Y-78201148D01*
X152115595Y-77792901D01*
X151884342Y-77446806D01*
X151538247Y-77215553D01*
X151130000Y-77134348D01*
X150721753Y-77215553D01*
X150375658Y-77446806D01*
X150144405Y-77792901D01*
X150063200Y-78201148D01*
X149656800Y-78201148D01*
X149575595Y-77792901D01*
X149344342Y-77446806D01*
X148998247Y-77215553D01*
X148590000Y-77134348D01*
X148181753Y-77215553D01*
X147835658Y-77446806D01*
X147604405Y-77792901D01*
X147523200Y-78201148D01*
X147116800Y-78201148D01*
X147035595Y-77792901D01*
X146804342Y-77446806D01*
X146458247Y-77215553D01*
X146050000Y-77134348D01*
X145641753Y-77215553D01*
X145295658Y-77446806D01*
X145064405Y-77792901D01*
X144983200Y-78201148D01*
X144576800Y-78201148D01*
X144495595Y-77792901D01*
X144264342Y-77446806D01*
X143918247Y-77215553D01*
X143510000Y-77134348D01*
X143101753Y-77215553D01*
X142755658Y-77446806D01*
X142524405Y-77792901D01*
X142443200Y-78201148D01*
X140512800Y-78201148D01*
X140431595Y-77792901D01*
X140200342Y-77446806D01*
X139854247Y-77215553D01*
X139446000Y-77134348D01*
X139037753Y-77215553D01*
X138691658Y-77446806D01*
X138460405Y-77792901D01*
X138379200Y-78201148D01*
X137972800Y-78201148D01*
X137891595Y-77792901D01*
X137660342Y-77446806D01*
X137314247Y-77215553D01*
X136906000Y-77134348D01*
X136497753Y-77215553D01*
X136151658Y-77446806D01*
X135920405Y-77792901D01*
X135839200Y-78201148D01*
X135432800Y-78201148D01*
X135351595Y-77792901D01*
X135120342Y-77446806D01*
X134774247Y-77215553D01*
X134366000Y-77134348D01*
X133957753Y-77215553D01*
X133611658Y-77446806D01*
X133380405Y-77792901D01*
X133299200Y-78201148D01*
X132892800Y-78201148D01*
X132811595Y-77792901D01*
X132580342Y-77446806D01*
X132234247Y-77215553D01*
X131826000Y-77134348D01*
X131417753Y-77215553D01*
X131071658Y-77446806D01*
X130840405Y-77792901D01*
X130759200Y-78201148D01*
X130352800Y-78201148D01*
X130271595Y-77792901D01*
X130040342Y-77446806D01*
X129694247Y-77215553D01*
X129286000Y-77134348D01*
X128877753Y-77215553D01*
X128531658Y-77446806D01*
X128300405Y-77792901D01*
X128219200Y-78201148D01*
X127812800Y-78201148D01*
X127731595Y-77792901D01*
X127500342Y-77446806D01*
X127154247Y-77215553D01*
X126746000Y-77134348D01*
X126337753Y-77215553D01*
X125991658Y-77446806D01*
X125760405Y-77792901D01*
X125679200Y-78201148D01*
X125272800Y-78201148D01*
X125191595Y-77792901D01*
X124960342Y-77446806D01*
X124614247Y-77215553D01*
X124206000Y-77134348D01*
X123797753Y-77215553D01*
X123451658Y-77446806D01*
X123220405Y-77792901D01*
X123139200Y-78201148D01*
X122732800Y-78201148D01*
X122651595Y-77792901D01*
X122420342Y-77446806D01*
X122074247Y-77215553D01*
X121666000Y-77134348D01*
X121257753Y-77215553D01*
X120911658Y-77446806D01*
X120680405Y-77792901D01*
X120599200Y-78201148D01*
X120192800Y-78201148D01*
X120111595Y-77792901D01*
X119880342Y-77446806D01*
X119534247Y-77215553D01*
X119126000Y-77134348D01*
X118717753Y-77215553D01*
X118371658Y-77446806D01*
X118140405Y-77792901D01*
X118059200Y-78201148D01*
X117652800Y-78201148D01*
X117571595Y-77792901D01*
X117340342Y-77446806D01*
X116994247Y-77215553D01*
X116586000Y-77134348D01*
X116177753Y-77215553D01*
X115831658Y-77446806D01*
X115600405Y-77792901D01*
X115519200Y-78201148D01*
X115060943Y-78201148D01*
X114796741Y-77561730D01*
X114211352Y-76975318D01*
X113446112Y-76657563D01*
X112617523Y-76656840D01*
X111851730Y-76973259D01*
X111265318Y-77558648D01*
X110947563Y-78323888D01*
X110946840Y-79152477D01*
X98862771Y-79152477D01*
X98862771Y-77825600D01*
X98839115Y-77706673D01*
X98771748Y-77605852D01*
X98670927Y-77538485D01*
X98552000Y-77514829D01*
X93764100Y-77514829D01*
X93764100Y-75730100D01*
X174687730Y-75730100D01*
X174668290Y-75743089D01*
G36*
X211035900Y-77387829D02*
X206502000Y-77387829D01*
X206383073Y-77411485D01*
X206282252Y-77478852D01*
X206214885Y-77579673D01*
X206191229Y-77698600D01*
X206191229Y-79550563D01*
X205928066Y-79286939D01*
X205559444Y-79133874D01*
X205160307Y-79133526D01*
X204791419Y-79285948D01*
X204508939Y-79567934D01*
X204355874Y-79936556D01*
X204355526Y-80335693D01*
X204507948Y-80704581D01*
X204789934Y-80987061D01*
X205158556Y-81140126D01*
X205557693Y-81140474D01*
X205926581Y-80988052D01*
X206209061Y-80706066D01*
X206235504Y-80642385D01*
X206282252Y-80712348D01*
X206383073Y-80779715D01*
X206502000Y-80803371D01*
X211035900Y-80803371D01*
X211035900Y-89376629D01*
X206502000Y-89376629D01*
X206383073Y-89400285D01*
X206282252Y-89467652D01*
X206235657Y-89537386D01*
X206210052Y-89475419D01*
X205928066Y-89192939D01*
X205559444Y-89039874D01*
X205160307Y-89039526D01*
X204791419Y-89191948D01*
X204508939Y-89473934D01*
X204355874Y-89842556D01*
X204355526Y-90241693D01*
X204507948Y-90610581D01*
X204789934Y-90893061D01*
X205158556Y-91046126D01*
X205557693Y-91046474D01*
X205926581Y-90894052D01*
X206191229Y-90629867D01*
X206191229Y-92481400D01*
X206214885Y-92600327D01*
X206282252Y-92701148D01*
X206383073Y-92768515D01*
X206502000Y-92792171D01*
X211035900Y-92792171D01*
X211035900Y-130009900D01*
X210267171Y-130009900D01*
X210267171Y-125222000D01*
X210243515Y-125103073D01*
X210176148Y-125002252D01*
X210075327Y-124934885D01*
X209956400Y-124911229D01*
X208104437Y-124911229D01*
X208368061Y-124648066D01*
X208521126Y-124279444D01*
X208521474Y-123880307D01*
X208473781Y-123764883D01*
X208587556Y-123812126D01*
X208986693Y-123812474D01*
X209355581Y-123660052D01*
X209638061Y-123378066D01*
X209791126Y-123009444D01*
X209791474Y-122610307D01*
X209639052Y-122241419D01*
X209357066Y-121958939D01*
X208988444Y-121805874D01*
X208589307Y-121805526D01*
X208220419Y-121957948D01*
X207937939Y-122239934D01*
X207784874Y-122608556D01*
X207784526Y-123007693D01*
X207832219Y-123123117D01*
X207718444Y-123075874D01*
X207319307Y-123075526D01*
X206950419Y-123227948D01*
X206667939Y-123509934D01*
X206514874Y-123878556D01*
X206514526Y-124277693D01*
X206666948Y-124646581D01*
X206948934Y-124929061D01*
X207012615Y-124955504D01*
X206942652Y-125002252D01*
X206875285Y-125103073D01*
X206851629Y-125222000D01*
X206851629Y-130009900D01*
X200818371Y-130009900D01*
X200818371Y-125222000D01*
X200794715Y-125103073D01*
X200727348Y-125002252D01*
X200657614Y-124955657D01*
X200719581Y-124930052D01*
X201002061Y-124648066D01*
X201155126Y-124279444D01*
X201155474Y-123880307D01*
X201003052Y-123511419D01*
X200721066Y-123228939D01*
X200352444Y-123075874D01*
X199953307Y-123075526D01*
X199837883Y-123123219D01*
X199885126Y-123009444D01*
X199885474Y-122610307D01*
X199733052Y-122241419D01*
X199451066Y-121958939D01*
X199082444Y-121805874D01*
X198827563Y-121805652D01*
X200801600Y-119831615D01*
X201313434Y-120343449D01*
X201313434Y-122999500D01*
X201341033Y-123138248D01*
X201419627Y-123255873D01*
X201537252Y-123334467D01*
X201676000Y-123362066D01*
X203454000Y-123362066D01*
X203592748Y-123334467D01*
X203672773Y-123280996D01*
X203699206Y-123344811D01*
X203870689Y-123516294D01*
X204094743Y-123609100D01*
X204800200Y-123609100D01*
X204952600Y-123456700D01*
X204952600Y-121056400D01*
X205257400Y-121056400D01*
X205257400Y-123456700D01*
X205409800Y-123609100D01*
X206115257Y-123609100D01*
X206339311Y-123516294D01*
X206510794Y-123344811D01*
X206603600Y-123120757D01*
X206603600Y-121208800D01*
X206451200Y-121056400D01*
X205257400Y-121056400D01*
X204952600Y-121056400D01*
X204932600Y-121056400D01*
X204932600Y-120751600D01*
X204952600Y-120751600D01*
X204952600Y-118351300D01*
X205257400Y-118351300D01*
X205257400Y-120751600D01*
X206451200Y-120751600D01*
X206603600Y-120599200D01*
X206603600Y-118687243D01*
X206510794Y-118463189D01*
X206339311Y-118291706D01*
X206115257Y-118198900D01*
X205409800Y-118198900D01*
X205257400Y-118351300D01*
X204952600Y-118351300D01*
X204800200Y-118198900D01*
X204094743Y-118198900D01*
X203870689Y-118291706D01*
X203699206Y-118463189D01*
X203672773Y-118527004D01*
X203592748Y-118473533D01*
X203454000Y-118445934D01*
X201858548Y-118445934D01*
X201553857Y-118141243D01*
X201523600Y-118121026D01*
X201523600Y-117021396D01*
X201557501Y-117055356D01*
X201832801Y-117169670D01*
X202130891Y-117169930D01*
X202406390Y-117056096D01*
X202617356Y-116845499D01*
X202731670Y-116570199D01*
X202731930Y-116272109D01*
X202618096Y-115996610D01*
X202490500Y-115868790D01*
X202490500Y-113103485D01*
X204558900Y-113103485D01*
X204558900Y-113667715D01*
X204648806Y-114119702D01*
X204904836Y-114502879D01*
X205288013Y-114758909D01*
X205740000Y-114848815D01*
X206191987Y-114758909D01*
X206575164Y-114502879D01*
X206831194Y-114119702D01*
X206921100Y-113667715D01*
X206921100Y-113103485D01*
X206831194Y-112651498D01*
X206575164Y-112268321D01*
X206191987Y-112012291D01*
X205740000Y-111922385D01*
X205288013Y-112012291D01*
X204904836Y-112268321D01*
X204648806Y-112651498D01*
X204558900Y-113103485D01*
X202490500Y-113103485D01*
X202490500Y-107365800D01*
X203550667Y-107365800D01*
X203709211Y-108162853D01*
X204160705Y-108838562D01*
X204836414Y-109290056D01*
X205633467Y-109448600D01*
X207268933Y-109448600D01*
X208065986Y-109290056D01*
X208741695Y-108838562D01*
X209193189Y-108162853D01*
X209351733Y-107365800D01*
X209193189Y-106568747D01*
X208741695Y-105893038D01*
X208065986Y-105441544D01*
X207268933Y-105283000D01*
X205633467Y-105283000D01*
X204836414Y-105441544D01*
X204160705Y-105893038D01*
X203709211Y-106568747D01*
X203550667Y-107365800D01*
X202490500Y-107365800D01*
X202490500Y-104177852D01*
X202648549Y-104450525D01*
X203390106Y-105017534D01*
X204292200Y-105257600D01*
X204800200Y-105257600D01*
X204800200Y-103022400D01*
X204780200Y-103022400D01*
X204780200Y-102717600D01*
X204800200Y-102717600D01*
X204800200Y-100482400D01*
X205105000Y-100482400D01*
X205105000Y-102717600D01*
X205125000Y-102717600D01*
X205125000Y-103022400D01*
X205105000Y-103022400D01*
X205105000Y-105257600D01*
X205613000Y-105257600D01*
X206515094Y-105017534D01*
X207256651Y-104450525D01*
X207618277Y-103826632D01*
X207737463Y-103946026D01*
X208204073Y-104139779D01*
X208709310Y-104140220D01*
X209176258Y-103947282D01*
X209533826Y-103590337D01*
X209727579Y-103123727D01*
X209728020Y-102618490D01*
X209535082Y-102151542D01*
X209178137Y-101793974D01*
X208711527Y-101600221D01*
X208206290Y-101599780D01*
X207739342Y-101792718D01*
X207618352Y-101913498D01*
X207256651Y-101289475D01*
X206515094Y-100722466D01*
X205613000Y-100482400D01*
X205105000Y-100482400D01*
X204800200Y-100482400D01*
X204292200Y-100482400D01*
X203390106Y-100722466D01*
X202648549Y-101289475D01*
X202490500Y-101562148D01*
X202490500Y-98663500D01*
X202451831Y-98469097D01*
X202388423Y-98374200D01*
X203550667Y-98374200D01*
X203709211Y-99171253D01*
X204160705Y-99846962D01*
X204836414Y-100298456D01*
X205633467Y-100457000D01*
X207268933Y-100457000D01*
X208065986Y-100298456D01*
X208741695Y-99846962D01*
X209193189Y-99171253D01*
X209351733Y-98374200D01*
X209193189Y-97577147D01*
X208741695Y-96901438D01*
X208065986Y-96449944D01*
X207268933Y-96291400D01*
X205633467Y-96291400D01*
X204836414Y-96449944D01*
X204160705Y-96901438D01*
X203709211Y-97577147D01*
X203550667Y-98374200D01*
X202388423Y-98374200D01*
X202341710Y-98304289D01*
X199237600Y-95200180D01*
X199237600Y-94132400D01*
X199542400Y-94132400D01*
X199542400Y-95204825D01*
X199759096Y-95356163D01*
X200276970Y-95207363D01*
X200698480Y-94871708D01*
X200959454Y-94400299D01*
X200966484Y-94343761D01*
X200853637Y-94132400D01*
X199542400Y-94132400D01*
X199237600Y-94132400D01*
X199217600Y-94132400D01*
X199217600Y-93980000D01*
X203071529Y-93980000D01*
X203156601Y-94407687D01*
X203398866Y-94770263D01*
X203761442Y-95012528D01*
X204189129Y-95097600D01*
X204750871Y-95097600D01*
X205178558Y-95012528D01*
X205541134Y-94770263D01*
X205783399Y-94407687D01*
X205868471Y-93980000D01*
X205783399Y-93552313D01*
X205541134Y-93189737D01*
X205178558Y-92947472D01*
X204750871Y-92862400D01*
X204189129Y-92862400D01*
X203761442Y-92947472D01*
X203398866Y-93189737D01*
X203156601Y-93552313D01*
X203071529Y-93980000D01*
X199217600Y-93980000D01*
X199217600Y-93827600D01*
X199237600Y-93827600D01*
X199237600Y-92755175D01*
X199542400Y-92755175D01*
X199542400Y-93827600D01*
X200853637Y-93827600D01*
X200966484Y-93616239D01*
X200959454Y-93559701D01*
X200698480Y-93088292D01*
X200276970Y-92752637D01*
X199759096Y-92603837D01*
X199542400Y-92755175D01*
X199237600Y-92755175D01*
X199020904Y-92603837D01*
X198503030Y-92752637D01*
X198081520Y-93088292D01*
X197820546Y-93559701D01*
X197813516Y-93616239D01*
X197926362Y-93827598D01*
X197865018Y-93827598D01*
X197384500Y-93347080D01*
X197384500Y-85935096D01*
X197464090Y-86054210D01*
X199399090Y-87989210D01*
X199563896Y-88099331D01*
X199596150Y-88105746D01*
X199758300Y-88138000D01*
X199777729Y-88138000D01*
X199777729Y-88519000D01*
X199801385Y-88637927D01*
X199868752Y-88738748D01*
X199969573Y-88806115D01*
X200088500Y-88829771D01*
X204279500Y-88829771D01*
X204398427Y-88806115D01*
X204499248Y-88738748D01*
X204566615Y-88637927D01*
X204590271Y-88519000D01*
X204590271Y-86741000D01*
X204566615Y-86622073D01*
X204513144Y-86542048D01*
X204624811Y-86495794D01*
X204796294Y-86324311D01*
X204889100Y-86100257D01*
X204889100Y-85394800D01*
X204736700Y-85242400D01*
X202336400Y-85242400D01*
X202336400Y-85262400D01*
X202031600Y-85262400D01*
X202031600Y-85242400D01*
X199631300Y-85242400D01*
X199478900Y-85394800D01*
X199478900Y-86100257D01*
X199571706Y-86324311D01*
X199743189Y-86495794D01*
X199854856Y-86542048D01*
X199801385Y-86622073D01*
X199777729Y-86741000D01*
X199777729Y-86931009D01*
X198331300Y-85484580D01*
X198331300Y-83788687D01*
X198681556Y-83934126D01*
X199080693Y-83934474D01*
X199449581Y-83782052D01*
X199732061Y-83500066D01*
X199777729Y-83390085D01*
X199777729Y-83439000D01*
X199801385Y-83557927D01*
X199854856Y-83637952D01*
X199743189Y-83684206D01*
X199571706Y-83855689D01*
X199478900Y-84079743D01*
X199478900Y-84785200D01*
X199631300Y-84937600D01*
X202031600Y-84937600D01*
X202031600Y-84917600D01*
X202336400Y-84917600D01*
X202336400Y-84937600D01*
X204736700Y-84937600D01*
X204889100Y-84785200D01*
X204889100Y-84079743D01*
X204796294Y-83855689D01*
X204624811Y-83684206D01*
X204513144Y-83637952D01*
X204566615Y-83557927D01*
X204590271Y-83439000D01*
X204590271Y-83129693D01*
X207784526Y-83129693D01*
X207936948Y-83498581D01*
X208218934Y-83781061D01*
X208587556Y-83934126D01*
X208986693Y-83934474D01*
X209355581Y-83782052D01*
X209638061Y-83500066D01*
X209791126Y-83131444D01*
X209791474Y-82732307D01*
X209639052Y-82363419D01*
X209357066Y-82080939D01*
X208988444Y-81927874D01*
X208589307Y-81927526D01*
X208220419Y-82079948D01*
X207937939Y-82361934D01*
X207784874Y-82730556D01*
X207784526Y-83129693D01*
X204590271Y-83129693D01*
X204590271Y-81661000D01*
X204566615Y-81542073D01*
X204499248Y-81441252D01*
X204398427Y-81373885D01*
X204279500Y-81350229D01*
X201702649Y-81350229D01*
X196095510Y-75743090D01*
X196076069Y-75730100D01*
X211035900Y-75730100D01*
X211035900Y-77387829D01*
X211035900Y-77387829D01*
G37*
X211035900Y-77387829D02*
X206502000Y-77387829D01*
X206383073Y-77411485D01*
X206282252Y-77478852D01*
X206214885Y-77579673D01*
X206191229Y-77698600D01*
X206191229Y-79550563D01*
X205928066Y-79286939D01*
X205559444Y-79133874D01*
X205160307Y-79133526D01*
X204791419Y-79285948D01*
X204508939Y-79567934D01*
X204355874Y-79936556D01*
X204355526Y-80335693D01*
X204507948Y-80704581D01*
X204789934Y-80987061D01*
X205158556Y-81140126D01*
X205557693Y-81140474D01*
X205926581Y-80988052D01*
X206209061Y-80706066D01*
X206235504Y-80642385D01*
X206282252Y-80712348D01*
X206383073Y-80779715D01*
X206502000Y-80803371D01*
X211035900Y-80803371D01*
X211035900Y-89376629D01*
X206502000Y-89376629D01*
X206383073Y-89400285D01*
X206282252Y-89467652D01*
X206235657Y-89537386D01*
X206210052Y-89475419D01*
X205928066Y-89192939D01*
X205559444Y-89039874D01*
X205160307Y-89039526D01*
X204791419Y-89191948D01*
X204508939Y-89473934D01*
X204355874Y-89842556D01*
X204355526Y-90241693D01*
X204507948Y-90610581D01*
X204789934Y-90893061D01*
X205158556Y-91046126D01*
X205557693Y-91046474D01*
X205926581Y-90894052D01*
X206191229Y-90629867D01*
X206191229Y-92481400D01*
X206214885Y-92600327D01*
X206282252Y-92701148D01*
X206383073Y-92768515D01*
X206502000Y-92792171D01*
X211035900Y-92792171D01*
X211035900Y-130009900D01*
X210267171Y-130009900D01*
X210267171Y-125222000D01*
X210243515Y-125103073D01*
X210176148Y-125002252D01*
X210075327Y-124934885D01*
X209956400Y-124911229D01*
X208104437Y-124911229D01*
X208368061Y-124648066D01*
X208521126Y-124279444D01*
X208521474Y-123880307D01*
X208473781Y-123764883D01*
X208587556Y-123812126D01*
X208986693Y-123812474D01*
X209355581Y-123660052D01*
X209638061Y-123378066D01*
X209791126Y-123009444D01*
X209791474Y-122610307D01*
X209639052Y-122241419D01*
X209357066Y-121958939D01*
X208988444Y-121805874D01*
X208589307Y-121805526D01*
X208220419Y-121957948D01*
X207937939Y-122239934D01*
X207784874Y-122608556D01*
X207784526Y-123007693D01*
X207832219Y-123123117D01*
X207718444Y-123075874D01*
X207319307Y-123075526D01*
X206950419Y-123227948D01*
X206667939Y-123509934D01*
X206514874Y-123878556D01*
X206514526Y-124277693D01*
X206666948Y-124646581D01*
X206948934Y-124929061D01*
X207012615Y-124955504D01*
X206942652Y-125002252D01*
X206875285Y-125103073D01*
X206851629Y-125222000D01*
X206851629Y-130009900D01*
X200818371Y-130009900D01*
X200818371Y-125222000D01*
X200794715Y-125103073D01*
X200727348Y-125002252D01*
X200657614Y-124955657D01*
X200719581Y-124930052D01*
X201002061Y-124648066D01*
X201155126Y-124279444D01*
X201155474Y-123880307D01*
X201003052Y-123511419D01*
X200721066Y-123228939D01*
X200352444Y-123075874D01*
X199953307Y-123075526D01*
X199837883Y-123123219D01*
X199885126Y-123009444D01*
X199885474Y-122610307D01*
X199733052Y-122241419D01*
X199451066Y-121958939D01*
X199082444Y-121805874D01*
X198827563Y-121805652D01*
X200801600Y-119831615D01*
X201313434Y-120343449D01*
X201313434Y-122999500D01*
X201341033Y-123138248D01*
X201419627Y-123255873D01*
X201537252Y-123334467D01*
X201676000Y-123362066D01*
X203454000Y-123362066D01*
X203592748Y-123334467D01*
X203672773Y-123280996D01*
X203699206Y-123344811D01*
X203870689Y-123516294D01*
X204094743Y-123609100D01*
X204800200Y-123609100D01*
X204952600Y-123456700D01*
X204952600Y-121056400D01*
X205257400Y-121056400D01*
X205257400Y-123456700D01*
X205409800Y-123609100D01*
X206115257Y-123609100D01*
X206339311Y-123516294D01*
X206510794Y-123344811D01*
X206603600Y-123120757D01*
X206603600Y-121208800D01*
X206451200Y-121056400D01*
X205257400Y-121056400D01*
X204952600Y-121056400D01*
X204932600Y-121056400D01*
X204932600Y-120751600D01*
X204952600Y-120751600D01*
X204952600Y-118351300D01*
X205257400Y-118351300D01*
X205257400Y-120751600D01*
X206451200Y-120751600D01*
X206603600Y-120599200D01*
X206603600Y-118687243D01*
X206510794Y-118463189D01*
X206339311Y-118291706D01*
X206115257Y-118198900D01*
X205409800Y-118198900D01*
X205257400Y-118351300D01*
X204952600Y-118351300D01*
X204800200Y-118198900D01*
X204094743Y-118198900D01*
X203870689Y-118291706D01*
X203699206Y-118463189D01*
X203672773Y-118527004D01*
X203592748Y-118473533D01*
X203454000Y-118445934D01*
X201858548Y-118445934D01*
X201553857Y-118141243D01*
X201523600Y-118121026D01*
X201523600Y-117021396D01*
X201557501Y-117055356D01*
X201832801Y-117169670D01*
X202130891Y-117169930D01*
X202406390Y-117056096D01*
X202617356Y-116845499D01*
X202731670Y-116570199D01*
X202731930Y-116272109D01*
X202618096Y-115996610D01*
X202490500Y-115868790D01*
X202490500Y-113103485D01*
X204558900Y-113103485D01*
X204558900Y-113667715D01*
X204648806Y-114119702D01*
X204904836Y-114502879D01*
X205288013Y-114758909D01*
X205740000Y-114848815D01*
X206191987Y-114758909D01*
X206575164Y-114502879D01*
X206831194Y-114119702D01*
X206921100Y-113667715D01*
X206921100Y-113103485D01*
X206831194Y-112651498D01*
X206575164Y-112268321D01*
X206191987Y-112012291D01*
X205740000Y-111922385D01*
X205288013Y-112012291D01*
X204904836Y-112268321D01*
X204648806Y-112651498D01*
X204558900Y-113103485D01*
X202490500Y-113103485D01*
X202490500Y-107365800D01*
X203550667Y-107365800D01*
X203709211Y-108162853D01*
X204160705Y-108838562D01*
X204836414Y-109290056D01*
X205633467Y-109448600D01*
X207268933Y-109448600D01*
X208065986Y-109290056D01*
X208741695Y-108838562D01*
X209193189Y-108162853D01*
X209351733Y-107365800D01*
X209193189Y-106568747D01*
X208741695Y-105893038D01*
X208065986Y-105441544D01*
X207268933Y-105283000D01*
X205633467Y-105283000D01*
X204836414Y-105441544D01*
X204160705Y-105893038D01*
X203709211Y-106568747D01*
X203550667Y-107365800D01*
X202490500Y-107365800D01*
X202490500Y-104177852D01*
X202648549Y-104450525D01*
X203390106Y-105017534D01*
X204292200Y-105257600D01*
X204800200Y-105257600D01*
X204800200Y-103022400D01*
X204780200Y-103022400D01*
X204780200Y-102717600D01*
X204800200Y-102717600D01*
X204800200Y-100482400D01*
X205105000Y-100482400D01*
X205105000Y-102717600D01*
X205125000Y-102717600D01*
X205125000Y-103022400D01*
X205105000Y-103022400D01*
X205105000Y-105257600D01*
X205613000Y-105257600D01*
X206515094Y-105017534D01*
X207256651Y-104450525D01*
X207618277Y-103826632D01*
X207737463Y-103946026D01*
X208204073Y-104139779D01*
X208709310Y-104140220D01*
X209176258Y-103947282D01*
X209533826Y-103590337D01*
X209727579Y-103123727D01*
X209728020Y-102618490D01*
X209535082Y-102151542D01*
X209178137Y-101793974D01*
X208711527Y-101600221D01*
X208206290Y-101599780D01*
X207739342Y-101792718D01*
X207618352Y-101913498D01*
X207256651Y-101289475D01*
X206515094Y-100722466D01*
X205613000Y-100482400D01*
X205105000Y-100482400D01*
X204800200Y-100482400D01*
X204292200Y-100482400D01*
X203390106Y-100722466D01*
X202648549Y-101289475D01*
X202490500Y-101562148D01*
X202490500Y-98663500D01*
X202451831Y-98469097D01*
X202388423Y-98374200D01*
X203550667Y-98374200D01*
X203709211Y-99171253D01*
X204160705Y-99846962D01*
X204836414Y-100298456D01*
X205633467Y-100457000D01*
X207268933Y-100457000D01*
X208065986Y-100298456D01*
X208741695Y-99846962D01*
X209193189Y-99171253D01*
X209351733Y-98374200D01*
X209193189Y-97577147D01*
X208741695Y-96901438D01*
X208065986Y-96449944D01*
X207268933Y-96291400D01*
X205633467Y-96291400D01*
X204836414Y-96449944D01*
X204160705Y-96901438D01*
X203709211Y-97577147D01*
X203550667Y-98374200D01*
X202388423Y-98374200D01*
X202341710Y-98304289D01*
X199237600Y-95200180D01*
X199237600Y-94132400D01*
X199542400Y-94132400D01*
X199542400Y-95204825D01*
X199759096Y-95356163D01*
X200276970Y-95207363D01*
X200698480Y-94871708D01*
X200959454Y-94400299D01*
X200966484Y-94343761D01*
X200853637Y-94132400D01*
X199542400Y-94132400D01*
X199237600Y-94132400D01*
X199217600Y-94132400D01*
X199217600Y-93980000D01*
X203071529Y-93980000D01*
X203156601Y-94407687D01*
X203398866Y-94770263D01*
X203761442Y-95012528D01*
X204189129Y-95097600D01*
X204750871Y-95097600D01*
X205178558Y-95012528D01*
X205541134Y-94770263D01*
X205783399Y-94407687D01*
X205868471Y-93980000D01*
X205783399Y-93552313D01*
X205541134Y-93189737D01*
X205178558Y-92947472D01*
X204750871Y-92862400D01*
X204189129Y-92862400D01*
X203761442Y-92947472D01*
X203398866Y-93189737D01*
X203156601Y-93552313D01*
X203071529Y-93980000D01*
X199217600Y-93980000D01*
X199217600Y-93827600D01*
X199237600Y-93827600D01*
X199237600Y-92755175D01*
X199542400Y-92755175D01*
X199542400Y-93827600D01*
X200853637Y-93827600D01*
X200966484Y-93616239D01*
X200959454Y-93559701D01*
X200698480Y-93088292D01*
X200276970Y-92752637D01*
X199759096Y-92603837D01*
X199542400Y-92755175D01*
X199237600Y-92755175D01*
X199020904Y-92603837D01*
X198503030Y-92752637D01*
X198081520Y-93088292D01*
X197820546Y-93559701D01*
X197813516Y-93616239D01*
X197926362Y-93827598D01*
X197865018Y-93827598D01*
X197384500Y-93347080D01*
X197384500Y-85935096D01*
X197464090Y-86054210D01*
X199399090Y-87989210D01*
X199563896Y-88099331D01*
X199596150Y-88105746D01*
X199758300Y-88138000D01*
X199777729Y-88138000D01*
X199777729Y-88519000D01*
X199801385Y-88637927D01*
X199868752Y-88738748D01*
X199969573Y-88806115D01*
X200088500Y-88829771D01*
X204279500Y-88829771D01*
X204398427Y-88806115D01*
X204499248Y-88738748D01*
X204566615Y-88637927D01*
X204590271Y-88519000D01*
X204590271Y-86741000D01*
X204566615Y-86622073D01*
X204513144Y-86542048D01*
X204624811Y-86495794D01*
X204796294Y-86324311D01*
X204889100Y-86100257D01*
X204889100Y-85394800D01*
X204736700Y-85242400D01*
X202336400Y-85242400D01*
X202336400Y-85262400D01*
X202031600Y-85262400D01*
X202031600Y-85242400D01*
X199631300Y-85242400D01*
X199478900Y-85394800D01*
X199478900Y-86100257D01*
X199571706Y-86324311D01*
X199743189Y-86495794D01*
X199854856Y-86542048D01*
X199801385Y-86622073D01*
X199777729Y-86741000D01*
X199777729Y-86931009D01*
X198331300Y-85484580D01*
X198331300Y-83788687D01*
X198681556Y-83934126D01*
X199080693Y-83934474D01*
X199449581Y-83782052D01*
X199732061Y-83500066D01*
X199777729Y-83390085D01*
X199777729Y-83439000D01*
X199801385Y-83557927D01*
X199854856Y-83637952D01*
X199743189Y-83684206D01*
X199571706Y-83855689D01*
X199478900Y-84079743D01*
X199478900Y-84785200D01*
X199631300Y-84937600D01*
X202031600Y-84937600D01*
X202031600Y-84917600D01*
X202336400Y-84917600D01*
X202336400Y-84937600D01*
X204736700Y-84937600D01*
X204889100Y-84785200D01*
X204889100Y-84079743D01*
X204796294Y-83855689D01*
X204624811Y-83684206D01*
X204513144Y-83637952D01*
X204566615Y-83557927D01*
X204590271Y-83439000D01*
X204590271Y-83129693D01*
X207784526Y-83129693D01*
X207936948Y-83498581D01*
X208218934Y-83781061D01*
X208587556Y-83934126D01*
X208986693Y-83934474D01*
X209355581Y-83782052D01*
X209638061Y-83500066D01*
X209791126Y-83131444D01*
X209791474Y-82732307D01*
X209639052Y-82363419D01*
X209357066Y-82080939D01*
X208988444Y-81927874D01*
X208589307Y-81927526D01*
X208220419Y-82079948D01*
X207937939Y-82361934D01*
X207784874Y-82730556D01*
X207784526Y-83129693D01*
X204590271Y-83129693D01*
X204590271Y-81661000D01*
X204566615Y-81542073D01*
X204499248Y-81441252D01*
X204398427Y-81373885D01*
X204279500Y-81350229D01*
X201702649Y-81350229D01*
X196095510Y-75743090D01*
X196076069Y-75730100D01*
X211035900Y-75730100D01*
X211035900Y-77387829D01*
G36*
X107295085Y-120437716D02*
X107542296Y-120602897D01*
X107833900Y-120660900D01*
X136454370Y-120660900D01*
X137916670Y-122123200D01*
X137515124Y-122123200D01*
X137106877Y-122204405D01*
X136760782Y-122435658D01*
X136529529Y-122781753D01*
X136448324Y-123190000D01*
X136529529Y-123598247D01*
X136760782Y-123944342D01*
X137106877Y-124175595D01*
X137515124Y-124256800D01*
X138074876Y-124256800D01*
X138483123Y-124175595D01*
X138829218Y-123944342D01*
X139060471Y-123598247D01*
X139115428Y-123321959D01*
X140913869Y-125120400D01*
X140817598Y-125120400D01*
X140817598Y-125282362D01*
X140606239Y-125169516D01*
X140107896Y-125414369D01*
X139761128Y-125826312D01*
X139700000Y-126019126D01*
X139638872Y-125826312D01*
X139292104Y-125414369D01*
X138793761Y-125169516D01*
X138582400Y-125282363D01*
X138582400Y-126847600D01*
X140817600Y-126847600D01*
X140817600Y-126827600D01*
X141122400Y-126827600D01*
X141122400Y-126847600D01*
X142341600Y-126847600D01*
X142341600Y-126339600D01*
X142180453Y-125831300D01*
X142611887Y-125831300D01*
X142477472Y-126032466D01*
X142392400Y-126460153D01*
X142392400Y-127539847D01*
X142477472Y-127967534D01*
X142648436Y-128223400D01*
X142137025Y-128223400D01*
X142178872Y-128173688D01*
X142341600Y-127660400D01*
X142341600Y-127152400D01*
X141122400Y-127152400D01*
X141122400Y-127172400D01*
X140817600Y-127172400D01*
X140817600Y-127152400D01*
X138582400Y-127152400D01*
X138582400Y-127172400D01*
X138277600Y-127172400D01*
X138277600Y-127152400D01*
X137058400Y-127152400D01*
X137058400Y-127660400D01*
X137221128Y-128173688D01*
X137262975Y-128223400D01*
X136690977Y-128223400D01*
X136875595Y-127947099D01*
X136956800Y-127538852D01*
X136956800Y-126461148D01*
X136932623Y-126339600D01*
X137058400Y-126339600D01*
X137058400Y-126847600D01*
X138277600Y-126847600D01*
X138277600Y-125282363D01*
X138066239Y-125169516D01*
X137567896Y-125414369D01*
X137221128Y-125826312D01*
X137058400Y-126339600D01*
X136932623Y-126339600D01*
X136875595Y-126052901D01*
X136644342Y-125706806D01*
X136298247Y-125475553D01*
X135890000Y-125394348D01*
X135481753Y-125475553D01*
X135135658Y-125706806D01*
X134904405Y-126052901D01*
X134823200Y-126461148D01*
X134823200Y-127538852D01*
X134904405Y-127947099D01*
X135089023Y-128223400D01*
X134150977Y-128223400D01*
X134335595Y-127947099D01*
X134416800Y-127538852D01*
X134416800Y-126461148D01*
X134335595Y-126052901D01*
X134104342Y-125706806D01*
X133758247Y-125475553D01*
X133350000Y-125394348D01*
X132941753Y-125475553D01*
X132595658Y-125706806D01*
X132364405Y-126052901D01*
X132283200Y-126461148D01*
X132283200Y-127538852D01*
X132364405Y-127947099D01*
X132549023Y-128223400D01*
X131610977Y-128223400D01*
X131795595Y-127947099D01*
X131876800Y-127538852D01*
X131876800Y-126461148D01*
X131795595Y-126052901D01*
X131564342Y-125706806D01*
X131218247Y-125475553D01*
X130810000Y-125394348D01*
X130401753Y-125475553D01*
X130055658Y-125706806D01*
X129824405Y-126052901D01*
X129743200Y-126461148D01*
X129743200Y-127538852D01*
X129824405Y-127947099D01*
X130009023Y-128223400D01*
X129070977Y-128223400D01*
X129255595Y-127947099D01*
X129336800Y-127538852D01*
X129336800Y-126461148D01*
X129255595Y-126052901D01*
X129024342Y-125706806D01*
X128678247Y-125475553D01*
X128270000Y-125394348D01*
X127861753Y-125475553D01*
X127515658Y-125706806D01*
X127284405Y-126052901D01*
X127203200Y-126461148D01*
X127203200Y-127538852D01*
X127284405Y-127947099D01*
X127469023Y-128223400D01*
X126530977Y-128223400D01*
X126715595Y-127947099D01*
X126796800Y-127538852D01*
X126796800Y-126461148D01*
X126715595Y-126052901D01*
X126484342Y-125706806D01*
X126138247Y-125475553D01*
X125730000Y-125394348D01*
X125321753Y-125475553D01*
X124975658Y-125706806D01*
X124744405Y-126052901D01*
X124663200Y-126461148D01*
X124663200Y-127538852D01*
X124744405Y-127947099D01*
X124929023Y-128223400D01*
X120681715Y-128223400D01*
X115994757Y-123536443D01*
X115714585Y-123349238D01*
X115680208Y-123342400D01*
X115384100Y-123283500D01*
X109763615Y-123283500D01*
X109670115Y-123190000D01*
X116128324Y-123190000D01*
X116209529Y-123598247D01*
X116440782Y-123944342D01*
X116786877Y-124175595D01*
X117195124Y-124256800D01*
X117754876Y-124256800D01*
X118163123Y-124175595D01*
X118509218Y-123944342D01*
X118740471Y-123598247D01*
X118749319Y-123553761D01*
X120978516Y-123553761D01*
X120985546Y-123610299D01*
X121246520Y-124081708D01*
X121668030Y-124417363D01*
X122185904Y-124566163D01*
X122402600Y-124414825D01*
X122402600Y-123342400D01*
X122707400Y-123342400D01*
X122707400Y-124414825D01*
X122924096Y-124566163D01*
X123441970Y-124417363D01*
X123863480Y-124081708D01*
X124124454Y-123610299D01*
X124131484Y-123553761D01*
X124018637Y-123342400D01*
X122707400Y-123342400D01*
X122402600Y-123342400D01*
X121091363Y-123342400D01*
X120978516Y-123553761D01*
X118749319Y-123553761D01*
X118821676Y-123190000D01*
X118749320Y-122826239D01*
X120978516Y-122826239D01*
X121091363Y-123037600D01*
X122402600Y-123037600D01*
X122402600Y-121965175D01*
X122707400Y-121965175D01*
X122707400Y-123037600D01*
X124018637Y-123037600D01*
X124131484Y-122826239D01*
X124124454Y-122769701D01*
X123863480Y-122298292D01*
X123441970Y-121962637D01*
X122924096Y-121813837D01*
X122707400Y-121965175D01*
X122402600Y-121965175D01*
X122185904Y-121813837D01*
X121668030Y-121962637D01*
X121246520Y-122298292D01*
X120985546Y-122769701D01*
X120978516Y-122826239D01*
X118749320Y-122826239D01*
X118740471Y-122781753D01*
X118509218Y-122435658D01*
X118163123Y-122204405D01*
X117754876Y-122123200D01*
X117195124Y-122123200D01*
X116786877Y-122204405D01*
X116440782Y-122435658D01*
X116209529Y-122781753D01*
X116128324Y-123190000D01*
X109670115Y-123190000D01*
X101133954Y-114653840D01*
X101392687Y-114602375D01*
X101432885Y-114575515D01*
X107295085Y-120437716D01*
X107295085Y-120437716D01*
G37*
X107295085Y-120437716D02*
X107542296Y-120602897D01*
X107833900Y-120660900D01*
X136454370Y-120660900D01*
X137916670Y-122123200D01*
X137515124Y-122123200D01*
X137106877Y-122204405D01*
X136760782Y-122435658D01*
X136529529Y-122781753D01*
X136448324Y-123190000D01*
X136529529Y-123598247D01*
X136760782Y-123944342D01*
X137106877Y-124175595D01*
X137515124Y-124256800D01*
X138074876Y-124256800D01*
X138483123Y-124175595D01*
X138829218Y-123944342D01*
X139060471Y-123598247D01*
X139115428Y-123321959D01*
X140913869Y-125120400D01*
X140817598Y-125120400D01*
X140817598Y-125282362D01*
X140606239Y-125169516D01*
X140107896Y-125414369D01*
X139761128Y-125826312D01*
X139700000Y-126019126D01*
X139638872Y-125826312D01*
X139292104Y-125414369D01*
X138793761Y-125169516D01*
X138582400Y-125282363D01*
X138582400Y-126847600D01*
X140817600Y-126847600D01*
X140817600Y-126827600D01*
X141122400Y-126827600D01*
X141122400Y-126847600D01*
X142341600Y-126847600D01*
X142341600Y-126339600D01*
X142180453Y-125831300D01*
X142611887Y-125831300D01*
X142477472Y-126032466D01*
X142392400Y-126460153D01*
X142392400Y-127539847D01*
X142477472Y-127967534D01*
X142648436Y-128223400D01*
X142137025Y-128223400D01*
X142178872Y-128173688D01*
X142341600Y-127660400D01*
X142341600Y-127152400D01*
X141122400Y-127152400D01*
X141122400Y-127172400D01*
X140817600Y-127172400D01*
X140817600Y-127152400D01*
X138582400Y-127152400D01*
X138582400Y-127172400D01*
X138277600Y-127172400D01*
X138277600Y-127152400D01*
X137058400Y-127152400D01*
X137058400Y-127660400D01*
X137221128Y-128173688D01*
X137262975Y-128223400D01*
X136690977Y-128223400D01*
X136875595Y-127947099D01*
X136956800Y-127538852D01*
X136956800Y-126461148D01*
X136932623Y-126339600D01*
X137058400Y-126339600D01*
X137058400Y-126847600D01*
X138277600Y-126847600D01*
X138277600Y-125282363D01*
X138066239Y-125169516D01*
X137567896Y-125414369D01*
X137221128Y-125826312D01*
X137058400Y-126339600D01*
X136932623Y-126339600D01*
X136875595Y-126052901D01*
X136644342Y-125706806D01*
X136298247Y-125475553D01*
X135890000Y-125394348D01*
X135481753Y-125475553D01*
X135135658Y-125706806D01*
X134904405Y-126052901D01*
X134823200Y-126461148D01*
X134823200Y-127538852D01*
X134904405Y-127947099D01*
X135089023Y-128223400D01*
X134150977Y-128223400D01*
X134335595Y-127947099D01*
X134416800Y-127538852D01*
X134416800Y-126461148D01*
X134335595Y-126052901D01*
X134104342Y-125706806D01*
X133758247Y-125475553D01*
X133350000Y-125394348D01*
X132941753Y-125475553D01*
X132595658Y-125706806D01*
X132364405Y-126052901D01*
X132283200Y-126461148D01*
X132283200Y-127538852D01*
X132364405Y-127947099D01*
X132549023Y-128223400D01*
X131610977Y-128223400D01*
X131795595Y-127947099D01*
X131876800Y-127538852D01*
X131876800Y-126461148D01*
X131795595Y-126052901D01*
X131564342Y-125706806D01*
X131218247Y-125475553D01*
X130810000Y-125394348D01*
X130401753Y-125475553D01*
X130055658Y-125706806D01*
X129824405Y-126052901D01*
X129743200Y-126461148D01*
X129743200Y-127538852D01*
X129824405Y-127947099D01*
X130009023Y-128223400D01*
X129070977Y-128223400D01*
X129255595Y-127947099D01*
X129336800Y-127538852D01*
X129336800Y-126461148D01*
X129255595Y-126052901D01*
X129024342Y-125706806D01*
X128678247Y-125475553D01*
X128270000Y-125394348D01*
X127861753Y-125475553D01*
X127515658Y-125706806D01*
X127284405Y-126052901D01*
X127203200Y-126461148D01*
X127203200Y-127538852D01*
X127284405Y-127947099D01*
X127469023Y-128223400D01*
X126530977Y-128223400D01*
X126715595Y-127947099D01*
X126796800Y-127538852D01*
X126796800Y-126461148D01*
X126715595Y-126052901D01*
X126484342Y-125706806D01*
X126138247Y-125475553D01*
X125730000Y-125394348D01*
X125321753Y-125475553D01*
X124975658Y-125706806D01*
X124744405Y-126052901D01*
X124663200Y-126461148D01*
X124663200Y-127538852D01*
X124744405Y-127947099D01*
X124929023Y-128223400D01*
X120681715Y-128223400D01*
X115994757Y-123536443D01*
X115714585Y-123349238D01*
X115680208Y-123342400D01*
X115384100Y-123283500D01*
X109763615Y-123283500D01*
X109670115Y-123190000D01*
X116128324Y-123190000D01*
X116209529Y-123598247D01*
X116440782Y-123944342D01*
X116786877Y-124175595D01*
X117195124Y-124256800D01*
X117754876Y-124256800D01*
X118163123Y-124175595D01*
X118509218Y-123944342D01*
X118740471Y-123598247D01*
X118749319Y-123553761D01*
X120978516Y-123553761D01*
X120985546Y-123610299D01*
X121246520Y-124081708D01*
X121668030Y-124417363D01*
X122185904Y-124566163D01*
X122402600Y-124414825D01*
X122402600Y-123342400D01*
X122707400Y-123342400D01*
X122707400Y-124414825D01*
X122924096Y-124566163D01*
X123441970Y-124417363D01*
X123863480Y-124081708D01*
X124124454Y-123610299D01*
X124131484Y-123553761D01*
X124018637Y-123342400D01*
X122707400Y-123342400D01*
X122402600Y-123342400D01*
X121091363Y-123342400D01*
X120978516Y-123553761D01*
X118749319Y-123553761D01*
X118821676Y-123190000D01*
X118749320Y-122826239D01*
X120978516Y-122826239D01*
X121091363Y-123037600D01*
X122402600Y-123037600D01*
X122402600Y-121965175D01*
X122707400Y-121965175D01*
X122707400Y-123037600D01*
X124018637Y-123037600D01*
X124131484Y-122826239D01*
X124124454Y-122769701D01*
X123863480Y-122298292D01*
X123441970Y-121962637D01*
X122924096Y-121813837D01*
X122707400Y-121965175D01*
X122402600Y-121965175D01*
X122185904Y-121813837D01*
X121668030Y-121962637D01*
X121246520Y-122298292D01*
X120985546Y-122769701D01*
X120978516Y-122826239D01*
X118749320Y-122826239D01*
X118740471Y-122781753D01*
X118509218Y-122435658D01*
X118163123Y-122204405D01*
X117754876Y-122123200D01*
X117195124Y-122123200D01*
X116786877Y-122204405D01*
X116440782Y-122435658D01*
X116209529Y-122781753D01*
X116128324Y-123190000D01*
X109670115Y-123190000D01*
X101133954Y-114653840D01*
X101392687Y-114602375D01*
X101432885Y-114575515D01*
X107295085Y-120437716D01*
G36*
X189737553Y-88491753D02*
X189656348Y-88900000D01*
X189737553Y-89308247D01*
X189968806Y-89654342D01*
X190314901Y-89885595D01*
X190723148Y-89966800D01*
X191800852Y-89966800D01*
X192209099Y-89885595D01*
X192555194Y-89654342D01*
X192709800Y-89422957D01*
X192709800Y-90917043D01*
X192555194Y-90685658D01*
X192209099Y-90454405D01*
X191800852Y-90373200D01*
X190723148Y-90373200D01*
X190314901Y-90454405D01*
X189968806Y-90685658D01*
X189737553Y-91031753D01*
X189656348Y-91440000D01*
X189737553Y-91848247D01*
X189968806Y-92194342D01*
X190314901Y-92425595D01*
X190723148Y-92506800D01*
X191800852Y-92506800D01*
X192209099Y-92425595D01*
X192555194Y-92194342D01*
X192709800Y-91962957D01*
X192709800Y-93457043D01*
X192555194Y-93225658D01*
X192209099Y-92994405D01*
X191800852Y-92913200D01*
X190723148Y-92913200D01*
X190314901Y-92994405D01*
X189968806Y-93225658D01*
X189737553Y-93571753D01*
X189656348Y-93980000D01*
X189737553Y-94388247D01*
X189968806Y-94734342D01*
X190314901Y-94965595D01*
X190723148Y-95046800D01*
X191800852Y-95046800D01*
X192209099Y-94965595D01*
X192555194Y-94734342D01*
X192709800Y-94502957D01*
X192709800Y-95997043D01*
X192555194Y-95765658D01*
X192209099Y-95534405D01*
X191800852Y-95453200D01*
X190723148Y-95453200D01*
X190314901Y-95534405D01*
X189968806Y-95765658D01*
X189737553Y-96111753D01*
X189656348Y-96520000D01*
X189737553Y-96928247D01*
X189968806Y-97274342D01*
X190314901Y-97505595D01*
X190723148Y-97586800D01*
X191800852Y-97586800D01*
X192209099Y-97505595D01*
X192555194Y-97274342D01*
X192724953Y-97020279D01*
X192748469Y-97138503D01*
X192858590Y-97303310D01*
X193501690Y-97946410D01*
X193666497Y-98056531D01*
X193844624Y-98091963D01*
X193524806Y-98305658D01*
X193293553Y-98651753D01*
X193212348Y-99060000D01*
X193293553Y-99468247D01*
X193524806Y-99814342D01*
X193870901Y-100045595D01*
X194279148Y-100126800D01*
X195356852Y-100126800D01*
X195765099Y-100045595D01*
X196111194Y-99814342D01*
X196342447Y-99468247D01*
X196383656Y-99261076D01*
X196468500Y-99345920D01*
X196468500Y-108722005D01*
X196418200Y-108712000D01*
X196275794Y-108712000D01*
X196111194Y-108465658D01*
X195765099Y-108234405D01*
X195356852Y-108153200D01*
X194279148Y-108153200D01*
X193870901Y-108234405D01*
X193725800Y-108331358D01*
X193725800Y-107568642D01*
X193870901Y-107665595D01*
X194279148Y-107746800D01*
X195356852Y-107746800D01*
X195765099Y-107665595D01*
X196111194Y-107434342D01*
X196342447Y-107088247D01*
X196423652Y-106680000D01*
X196342447Y-106271753D01*
X196111194Y-105925658D01*
X195765099Y-105694405D01*
X195356852Y-105613200D01*
X194279148Y-105613200D01*
X193870901Y-105694405D01*
X193524806Y-105925658D01*
X193360206Y-106172000D01*
X193217800Y-106172000D01*
X193023397Y-106210669D01*
X192858590Y-106320790D01*
X192810513Y-106392742D01*
X192786447Y-106271753D01*
X192555194Y-105925658D01*
X192209099Y-105694405D01*
X191800852Y-105613200D01*
X190723148Y-105613200D01*
X190314901Y-105694405D01*
X189968806Y-105925658D01*
X189804206Y-106172000D01*
X188310583Y-106172000D01*
X188424010Y-106096210D01*
X189831448Y-104688772D01*
X189968806Y-104894342D01*
X190314901Y-105125595D01*
X190723148Y-105206800D01*
X191800852Y-105206800D01*
X192209099Y-105125595D01*
X192555194Y-104894342D01*
X192786447Y-104548247D01*
X192867652Y-104140000D01*
X193212348Y-104140000D01*
X193293553Y-104548247D01*
X193524806Y-104894342D01*
X193870901Y-105125595D01*
X194279148Y-105206800D01*
X195356852Y-105206800D01*
X195765099Y-105125595D01*
X196111194Y-104894342D01*
X196342447Y-104548247D01*
X196423652Y-104140000D01*
X196342447Y-103731753D01*
X196111194Y-103385658D01*
X195765099Y-103154405D01*
X195356852Y-103073200D01*
X194279148Y-103073200D01*
X193870901Y-103154405D01*
X193524806Y-103385658D01*
X193293553Y-103731753D01*
X193212348Y-104140000D01*
X192867652Y-104140000D01*
X192786447Y-103731753D01*
X192555194Y-103385658D01*
X192394461Y-103278259D01*
X193442123Y-102230598D01*
X193524806Y-102354342D01*
X193870901Y-102585595D01*
X194279148Y-102666800D01*
X195356852Y-102666800D01*
X195765099Y-102585595D01*
X196111194Y-102354342D01*
X196342447Y-102008247D01*
X196423652Y-101600000D01*
X196342447Y-101191753D01*
X196111194Y-100845658D01*
X195765099Y-100614405D01*
X195356852Y-100533200D01*
X194279148Y-100533200D01*
X193870901Y-100614405D01*
X193524806Y-100845658D01*
X193360206Y-101092000D01*
X193217800Y-101092000D01*
X193023397Y-101130669D01*
X192858590Y-101240790D01*
X192810513Y-101312742D01*
X192786447Y-101191753D01*
X192555194Y-100845658D01*
X192209099Y-100614405D01*
X191800852Y-100533200D01*
X190723148Y-100533200D01*
X190314901Y-100614405D01*
X189968806Y-100845658D01*
X189804206Y-101092000D01*
X188224200Y-101092000D01*
X188029797Y-101130669D01*
X187864990Y-101240790D01*
X185339880Y-103765900D01*
X165248520Y-103765900D01*
X167414420Y-101600000D01*
X177088324Y-101600000D01*
X177169529Y-102008247D01*
X177400782Y-102354342D01*
X177746877Y-102585595D01*
X178155124Y-102666800D01*
X178714876Y-102666800D01*
X179123123Y-102585595D01*
X179469218Y-102354342D01*
X179700471Y-102008247D01*
X179709319Y-101963761D01*
X181938516Y-101963761D01*
X181945546Y-102020299D01*
X182206520Y-102491708D01*
X182628030Y-102827363D01*
X183145904Y-102976163D01*
X183362600Y-102824825D01*
X183362600Y-101752400D01*
X183667400Y-101752400D01*
X183667400Y-102824825D01*
X183884096Y-102976163D01*
X184401970Y-102827363D01*
X184823480Y-102491708D01*
X185084454Y-102020299D01*
X185091484Y-101963761D01*
X184978637Y-101752400D01*
X183667400Y-101752400D01*
X183362600Y-101752400D01*
X182051363Y-101752400D01*
X181938516Y-101963761D01*
X179709319Y-101963761D01*
X179781676Y-101600000D01*
X179709320Y-101236239D01*
X181938516Y-101236239D01*
X182051363Y-101447600D01*
X183362600Y-101447600D01*
X183362600Y-100375175D01*
X183667400Y-100375175D01*
X183667400Y-101447600D01*
X184978637Y-101447600D01*
X185091484Y-101236239D01*
X185084454Y-101179701D01*
X184823480Y-100708292D01*
X184401970Y-100372637D01*
X183884096Y-100223837D01*
X183667400Y-100375175D01*
X183362600Y-100375175D01*
X183145904Y-100223837D01*
X182628030Y-100372637D01*
X182206520Y-100708292D01*
X181945546Y-101179701D01*
X181938516Y-101236239D01*
X179709320Y-101236239D01*
X179700471Y-101191753D01*
X179469218Y-100845658D01*
X179123123Y-100614405D01*
X178714876Y-100533200D01*
X178155124Y-100533200D01*
X177746877Y-100614405D01*
X177400782Y-100845658D01*
X177169529Y-101191753D01*
X177088324Y-101600000D01*
X167414420Y-101600000D01*
X169954420Y-99060000D01*
X189656348Y-99060000D01*
X189737553Y-99468247D01*
X189968806Y-99814342D01*
X190314901Y-100045595D01*
X190723148Y-100126800D01*
X191800852Y-100126800D01*
X192209099Y-100045595D01*
X192555194Y-99814342D01*
X192786447Y-99468247D01*
X192867652Y-99060000D01*
X192786447Y-98651753D01*
X192555194Y-98305658D01*
X192209099Y-98074405D01*
X191800852Y-97993200D01*
X190723148Y-97993200D01*
X190314901Y-98074405D01*
X189968806Y-98305658D01*
X189737553Y-98651753D01*
X189656348Y-99060000D01*
X169954420Y-99060000D01*
X175669420Y-93345000D01*
X176802434Y-93345000D01*
X176802434Y-95885000D01*
X176830033Y-96023748D01*
X176908627Y-96141373D01*
X177026252Y-96219967D01*
X177165000Y-96247566D01*
X179705000Y-96247566D01*
X179843748Y-96219967D01*
X179961373Y-96141373D01*
X180039967Y-96023748D01*
X180067566Y-95885000D01*
X180067566Y-94615000D01*
X181857553Y-94615000D01*
X181981294Y-95237090D01*
X182333680Y-95764473D01*
X182861063Y-96116859D01*
X183483153Y-96240600D01*
X183546847Y-96240600D01*
X184168937Y-96116859D01*
X184696320Y-95764473D01*
X185048706Y-95237090D01*
X185172447Y-94615000D01*
X185048706Y-93992910D01*
X184696320Y-93465527D01*
X184168937Y-93113141D01*
X183546847Y-92989400D01*
X183483153Y-92989400D01*
X182861063Y-93113141D01*
X182333680Y-93465527D01*
X181981294Y-93992910D01*
X181857553Y-94615000D01*
X180067566Y-94615000D01*
X180067566Y-93345000D01*
X180039967Y-93206252D01*
X179961373Y-93088627D01*
X179843748Y-93010033D01*
X179705000Y-92982434D01*
X177165000Y-92982434D01*
X177026252Y-93010033D01*
X176908627Y-93088627D01*
X176830033Y-93206252D01*
X176802434Y-93345000D01*
X175669420Y-93345000D01*
X180696621Y-88317800D01*
X189853785Y-88317800D01*
X189737553Y-88491753D01*
X189737553Y-88491753D01*
G37*
X189737553Y-88491753D02*
X189656348Y-88900000D01*
X189737553Y-89308247D01*
X189968806Y-89654342D01*
X190314901Y-89885595D01*
X190723148Y-89966800D01*
X191800852Y-89966800D01*
X192209099Y-89885595D01*
X192555194Y-89654342D01*
X192709800Y-89422957D01*
X192709800Y-90917043D01*
X192555194Y-90685658D01*
X192209099Y-90454405D01*
X191800852Y-90373200D01*
X190723148Y-90373200D01*
X190314901Y-90454405D01*
X189968806Y-90685658D01*
X189737553Y-91031753D01*
X189656348Y-91440000D01*
X189737553Y-91848247D01*
X189968806Y-92194342D01*
X190314901Y-92425595D01*
X190723148Y-92506800D01*
X191800852Y-92506800D01*
X192209099Y-92425595D01*
X192555194Y-92194342D01*
X192709800Y-91962957D01*
X192709800Y-93457043D01*
X192555194Y-93225658D01*
X192209099Y-92994405D01*
X191800852Y-92913200D01*
X190723148Y-92913200D01*
X190314901Y-92994405D01*
X189968806Y-93225658D01*
X189737553Y-93571753D01*
X189656348Y-93980000D01*
X189737553Y-94388247D01*
X189968806Y-94734342D01*
X190314901Y-94965595D01*
X190723148Y-95046800D01*
X191800852Y-95046800D01*
X192209099Y-94965595D01*
X192555194Y-94734342D01*
X192709800Y-94502957D01*
X192709800Y-95997043D01*
X192555194Y-95765658D01*
X192209099Y-95534405D01*
X191800852Y-95453200D01*
X190723148Y-95453200D01*
X190314901Y-95534405D01*
X189968806Y-95765658D01*
X189737553Y-96111753D01*
X189656348Y-96520000D01*
X189737553Y-96928247D01*
X189968806Y-97274342D01*
X190314901Y-97505595D01*
X190723148Y-97586800D01*
X191800852Y-97586800D01*
X192209099Y-97505595D01*
X192555194Y-97274342D01*
X192724953Y-97020279D01*
X192748469Y-97138503D01*
X192858590Y-97303310D01*
X193501690Y-97946410D01*
X193666497Y-98056531D01*
X193844624Y-98091963D01*
X193524806Y-98305658D01*
X193293553Y-98651753D01*
X193212348Y-99060000D01*
X193293553Y-99468247D01*
X193524806Y-99814342D01*
X193870901Y-100045595D01*
X194279148Y-100126800D01*
X195356852Y-100126800D01*
X195765099Y-100045595D01*
X196111194Y-99814342D01*
X196342447Y-99468247D01*
X196383656Y-99261076D01*
X196468500Y-99345920D01*
X196468500Y-108722005D01*
X196418200Y-108712000D01*
X196275794Y-108712000D01*
X196111194Y-108465658D01*
X195765099Y-108234405D01*
X195356852Y-108153200D01*
X194279148Y-108153200D01*
X193870901Y-108234405D01*
X193725800Y-108331358D01*
X193725800Y-107568642D01*
X193870901Y-107665595D01*
X194279148Y-107746800D01*
X195356852Y-107746800D01*
X195765099Y-107665595D01*
X196111194Y-107434342D01*
X196342447Y-107088247D01*
X196423652Y-106680000D01*
X196342447Y-106271753D01*
X196111194Y-105925658D01*
X195765099Y-105694405D01*
X195356852Y-105613200D01*
X194279148Y-105613200D01*
X193870901Y-105694405D01*
X193524806Y-105925658D01*
X193360206Y-106172000D01*
X193217800Y-106172000D01*
X193023397Y-106210669D01*
X192858590Y-106320790D01*
X192810513Y-106392742D01*
X192786447Y-106271753D01*
X192555194Y-105925658D01*
X192209099Y-105694405D01*
X191800852Y-105613200D01*
X190723148Y-105613200D01*
X190314901Y-105694405D01*
X189968806Y-105925658D01*
X189804206Y-106172000D01*
X188310583Y-106172000D01*
X188424010Y-106096210D01*
X189831448Y-104688772D01*
X189968806Y-104894342D01*
X190314901Y-105125595D01*
X190723148Y-105206800D01*
X191800852Y-105206800D01*
X192209099Y-105125595D01*
X192555194Y-104894342D01*
X192786447Y-104548247D01*
X192867652Y-104140000D01*
X193212348Y-104140000D01*
X193293553Y-104548247D01*
X193524806Y-104894342D01*
X193870901Y-105125595D01*
X194279148Y-105206800D01*
X195356852Y-105206800D01*
X195765099Y-105125595D01*
X196111194Y-104894342D01*
X196342447Y-104548247D01*
X196423652Y-104140000D01*
X196342447Y-103731753D01*
X196111194Y-103385658D01*
X195765099Y-103154405D01*
X195356852Y-103073200D01*
X194279148Y-103073200D01*
X193870901Y-103154405D01*
X193524806Y-103385658D01*
X193293553Y-103731753D01*
X193212348Y-104140000D01*
X192867652Y-104140000D01*
X192786447Y-103731753D01*
X192555194Y-103385658D01*
X192394461Y-103278259D01*
X193442123Y-102230598D01*
X193524806Y-102354342D01*
X193870901Y-102585595D01*
X194279148Y-102666800D01*
X195356852Y-102666800D01*
X195765099Y-102585595D01*
X196111194Y-102354342D01*
X196342447Y-102008247D01*
X196423652Y-101600000D01*
X196342447Y-101191753D01*
X196111194Y-100845658D01*
X195765099Y-100614405D01*
X195356852Y-100533200D01*
X194279148Y-100533200D01*
X193870901Y-100614405D01*
X193524806Y-100845658D01*
X193360206Y-101092000D01*
X193217800Y-101092000D01*
X193023397Y-101130669D01*
X192858590Y-101240790D01*
X192810513Y-101312742D01*
X192786447Y-101191753D01*
X192555194Y-100845658D01*
X192209099Y-100614405D01*
X191800852Y-100533200D01*
X190723148Y-100533200D01*
X190314901Y-100614405D01*
X189968806Y-100845658D01*
X189804206Y-101092000D01*
X188224200Y-101092000D01*
X188029797Y-101130669D01*
X187864990Y-101240790D01*
X185339880Y-103765900D01*
X165248520Y-103765900D01*
X167414420Y-101600000D01*
X177088324Y-101600000D01*
X177169529Y-102008247D01*
X177400782Y-102354342D01*
X177746877Y-102585595D01*
X178155124Y-102666800D01*
X178714876Y-102666800D01*
X179123123Y-102585595D01*
X179469218Y-102354342D01*
X179700471Y-102008247D01*
X179709319Y-101963761D01*
X181938516Y-101963761D01*
X181945546Y-102020299D01*
X182206520Y-102491708D01*
X182628030Y-102827363D01*
X183145904Y-102976163D01*
X183362600Y-102824825D01*
X183362600Y-101752400D01*
X183667400Y-101752400D01*
X183667400Y-102824825D01*
X183884096Y-102976163D01*
X184401970Y-102827363D01*
X184823480Y-102491708D01*
X185084454Y-102020299D01*
X185091484Y-101963761D01*
X184978637Y-101752400D01*
X183667400Y-101752400D01*
X183362600Y-101752400D01*
X182051363Y-101752400D01*
X181938516Y-101963761D01*
X179709319Y-101963761D01*
X179781676Y-101600000D01*
X179709320Y-101236239D01*
X181938516Y-101236239D01*
X182051363Y-101447600D01*
X183362600Y-101447600D01*
X183362600Y-100375175D01*
X183667400Y-100375175D01*
X183667400Y-101447600D01*
X184978637Y-101447600D01*
X185091484Y-101236239D01*
X185084454Y-101179701D01*
X184823480Y-100708292D01*
X184401970Y-100372637D01*
X183884096Y-100223837D01*
X183667400Y-100375175D01*
X183362600Y-100375175D01*
X183145904Y-100223837D01*
X182628030Y-100372637D01*
X182206520Y-100708292D01*
X181945546Y-101179701D01*
X181938516Y-101236239D01*
X179709320Y-101236239D01*
X179700471Y-101191753D01*
X179469218Y-100845658D01*
X179123123Y-100614405D01*
X178714876Y-100533200D01*
X178155124Y-100533200D01*
X177746877Y-100614405D01*
X177400782Y-100845658D01*
X177169529Y-101191753D01*
X177088324Y-101600000D01*
X167414420Y-101600000D01*
X169954420Y-99060000D01*
X189656348Y-99060000D01*
X189737553Y-99468247D01*
X189968806Y-99814342D01*
X190314901Y-100045595D01*
X190723148Y-100126800D01*
X191800852Y-100126800D01*
X192209099Y-100045595D01*
X192555194Y-99814342D01*
X192786447Y-99468247D01*
X192867652Y-99060000D01*
X192786447Y-98651753D01*
X192555194Y-98305658D01*
X192209099Y-98074405D01*
X191800852Y-97993200D01*
X190723148Y-97993200D01*
X190314901Y-98074405D01*
X189968806Y-98305658D01*
X189737553Y-98651753D01*
X189656348Y-99060000D01*
X169954420Y-99060000D01*
X175669420Y-93345000D01*
X176802434Y-93345000D01*
X176802434Y-95885000D01*
X176830033Y-96023748D01*
X176908627Y-96141373D01*
X177026252Y-96219967D01*
X177165000Y-96247566D01*
X179705000Y-96247566D01*
X179843748Y-96219967D01*
X179961373Y-96141373D01*
X180039967Y-96023748D01*
X180067566Y-95885000D01*
X180067566Y-94615000D01*
X181857553Y-94615000D01*
X181981294Y-95237090D01*
X182333680Y-95764473D01*
X182861063Y-96116859D01*
X183483153Y-96240600D01*
X183546847Y-96240600D01*
X184168937Y-96116859D01*
X184696320Y-95764473D01*
X185048706Y-95237090D01*
X185172447Y-94615000D01*
X185048706Y-93992910D01*
X184696320Y-93465527D01*
X184168937Y-93113141D01*
X183546847Y-92989400D01*
X183483153Y-92989400D01*
X182861063Y-93113141D01*
X182333680Y-93465527D01*
X181981294Y-93992910D01*
X181857553Y-94615000D01*
X180067566Y-94615000D01*
X180067566Y-93345000D01*
X180039967Y-93206252D01*
X179961373Y-93088627D01*
X179843748Y-93010033D01*
X179705000Y-92982434D01*
X177165000Y-92982434D01*
X177026252Y-93010033D01*
X176908627Y-93088627D01*
X176830033Y-93206252D01*
X176802434Y-93345000D01*
X175669420Y-93345000D01*
X180696621Y-88317800D01*
X189853785Y-88317800D01*
X189737553Y-88491753D01*
G36*
X136529529Y-101191753D02*
X136448324Y-101600000D01*
X136529529Y-102008247D01*
X136693602Y-102253800D01*
X135733700Y-102253800D01*
X135696443Y-102261211D01*
X135652899Y-102243130D01*
X135354809Y-102242870D01*
X135079310Y-102356704D01*
X134868344Y-102567301D01*
X134754030Y-102842601D01*
X134753770Y-103140691D01*
X134807406Y-103270500D01*
X134353621Y-103270500D01*
X134127310Y-103044190D01*
X133962503Y-102934069D01*
X133768100Y-102895400D01*
X123205178Y-102895400D01*
X123441970Y-102827363D01*
X123863480Y-102491708D01*
X124124454Y-102020299D01*
X124131484Y-101963761D01*
X124018637Y-101752400D01*
X122707400Y-101752400D01*
X122707400Y-101772400D01*
X122402600Y-101772400D01*
X122402600Y-101752400D01*
X122382600Y-101752400D01*
X122382600Y-101447600D01*
X122402600Y-101447600D01*
X122402600Y-101427600D01*
X122707400Y-101427600D01*
X122707400Y-101447600D01*
X124018637Y-101447600D01*
X124131484Y-101236239D01*
X124124454Y-101179701D01*
X124033718Y-101015800D01*
X136647097Y-101015800D01*
X136529529Y-101191753D01*
X136529529Y-101191753D01*
G37*
X136529529Y-101191753D02*
X136448324Y-101600000D01*
X136529529Y-102008247D01*
X136693602Y-102253800D01*
X135733700Y-102253800D01*
X135696443Y-102261211D01*
X135652899Y-102243130D01*
X135354809Y-102242870D01*
X135079310Y-102356704D01*
X134868344Y-102567301D01*
X134754030Y-102842601D01*
X134753770Y-103140691D01*
X134807406Y-103270500D01*
X134353621Y-103270500D01*
X134127310Y-103044190D01*
X133962503Y-102934069D01*
X133768100Y-102895400D01*
X123205178Y-102895400D01*
X123441970Y-102827363D01*
X123863480Y-102491708D01*
X124124454Y-102020299D01*
X124131484Y-101963761D01*
X124018637Y-101752400D01*
X122707400Y-101752400D01*
X122707400Y-101772400D01*
X122402600Y-101772400D01*
X122402600Y-101752400D01*
X122382600Y-101752400D01*
X122382600Y-101447600D01*
X122402600Y-101447600D01*
X122402600Y-101427600D01*
X122707400Y-101427600D01*
X122707400Y-101447600D01*
X124018637Y-101447600D01*
X124131484Y-101236239D01*
X124124454Y-101179701D01*
X124033718Y-101015800D01*
X136647097Y-101015800D01*
X136529529Y-101191753D01*
G36*
X196368500Y-83542731D02*
X196342447Y-83411753D01*
X196111194Y-83065658D01*
X195765099Y-82834405D01*
X195356852Y-82753200D01*
X194279148Y-82753200D01*
X193870901Y-82834405D01*
X193524806Y-83065658D01*
X193293553Y-83411753D01*
X193212348Y-83820000D01*
X193293553Y-84228247D01*
X193524806Y-84574342D01*
X193870901Y-84805595D01*
X194279148Y-84886800D01*
X195356852Y-84886800D01*
X195765099Y-84805595D01*
X196111194Y-84574342D01*
X196342447Y-84228247D01*
X196368500Y-84097269D01*
X196368500Y-86082731D01*
X196342447Y-85951753D01*
X196111194Y-85605658D01*
X195765099Y-85374405D01*
X195356852Y-85293200D01*
X194279148Y-85293200D01*
X193870901Y-85374405D01*
X193524806Y-85605658D01*
X193360206Y-85852000D01*
X193217800Y-85852000D01*
X193023397Y-85890669D01*
X192858590Y-86000790D01*
X192810513Y-86072742D01*
X192786447Y-85951753D01*
X192555194Y-85605658D01*
X192209099Y-85374405D01*
X191800852Y-85293200D01*
X190723148Y-85293200D01*
X190314901Y-85374405D01*
X189968806Y-85605658D01*
X189804206Y-85852000D01*
X180277700Y-85852000D01*
X180083297Y-85890669D01*
X179918490Y-86000790D01*
X164755590Y-101163690D01*
X164503480Y-100708292D01*
X164081970Y-100372637D01*
X163564096Y-100223837D01*
X163347400Y-100375175D01*
X163347400Y-101447600D01*
X163367400Y-101447600D01*
X163367400Y-101752400D01*
X163347400Y-101752400D01*
X163347400Y-101772400D01*
X163042600Y-101772400D01*
X163042600Y-101752400D01*
X161731363Y-101752400D01*
X161618516Y-101963761D01*
X161625546Y-102020299D01*
X161754813Y-102253800D01*
X159216398Y-102253800D01*
X159313818Y-102108000D01*
X159461200Y-102108000D01*
X159655603Y-102069331D01*
X159820410Y-101959210D01*
X160543381Y-101236239D01*
X161618516Y-101236239D01*
X161731363Y-101447600D01*
X163042600Y-101447600D01*
X163042600Y-100375175D01*
X162825904Y-100223837D01*
X162308030Y-100372637D01*
X161886520Y-100708292D01*
X161625546Y-101179701D01*
X161618516Y-101236239D01*
X160543381Y-101236239D01*
X177451620Y-84328000D01*
X189804206Y-84328000D01*
X189968806Y-84574342D01*
X190314901Y-84805595D01*
X190723148Y-84886800D01*
X191800852Y-84886800D01*
X192209099Y-84805595D01*
X192555194Y-84574342D01*
X192786447Y-84228247D01*
X192867652Y-83820000D01*
X192786447Y-83411753D01*
X192555194Y-83065658D01*
X192274095Y-82877834D01*
X192456603Y-82841531D01*
X192621410Y-82731410D01*
X193442163Y-81910658D01*
X193524806Y-82034342D01*
X193870901Y-82265595D01*
X194279148Y-82346800D01*
X195356852Y-82346800D01*
X195765099Y-82265595D01*
X196111194Y-82034342D01*
X196342447Y-81688247D01*
X196368500Y-81557269D01*
X196368500Y-83542731D01*
X196368500Y-83542731D01*
G37*
X196368500Y-83542731D02*
X196342447Y-83411753D01*
X196111194Y-83065658D01*
X195765099Y-82834405D01*
X195356852Y-82753200D01*
X194279148Y-82753200D01*
X193870901Y-82834405D01*
X193524806Y-83065658D01*
X193293553Y-83411753D01*
X193212348Y-83820000D01*
X193293553Y-84228247D01*
X193524806Y-84574342D01*
X193870901Y-84805595D01*
X194279148Y-84886800D01*
X195356852Y-84886800D01*
X195765099Y-84805595D01*
X196111194Y-84574342D01*
X196342447Y-84228247D01*
X196368500Y-84097269D01*
X196368500Y-86082731D01*
X196342447Y-85951753D01*
X196111194Y-85605658D01*
X195765099Y-85374405D01*
X195356852Y-85293200D01*
X194279148Y-85293200D01*
X193870901Y-85374405D01*
X193524806Y-85605658D01*
X193360206Y-85852000D01*
X193217800Y-85852000D01*
X193023397Y-85890669D01*
X192858590Y-86000790D01*
X192810513Y-86072742D01*
X192786447Y-85951753D01*
X192555194Y-85605658D01*
X192209099Y-85374405D01*
X191800852Y-85293200D01*
X190723148Y-85293200D01*
X190314901Y-85374405D01*
X189968806Y-85605658D01*
X189804206Y-85852000D01*
X180277700Y-85852000D01*
X180083297Y-85890669D01*
X179918490Y-86000790D01*
X164755590Y-101163690D01*
X164503480Y-100708292D01*
X164081970Y-100372637D01*
X163564096Y-100223837D01*
X163347400Y-100375175D01*
X163347400Y-101447600D01*
X163367400Y-101447600D01*
X163367400Y-101752400D01*
X163347400Y-101752400D01*
X163347400Y-101772400D01*
X163042600Y-101772400D01*
X163042600Y-101752400D01*
X161731363Y-101752400D01*
X161618516Y-101963761D01*
X161625546Y-102020299D01*
X161754813Y-102253800D01*
X159216398Y-102253800D01*
X159313818Y-102108000D01*
X159461200Y-102108000D01*
X159655603Y-102069331D01*
X159820410Y-101959210D01*
X160543381Y-101236239D01*
X161618516Y-101236239D01*
X161731363Y-101447600D01*
X163042600Y-101447600D01*
X163042600Y-100375175D01*
X162825904Y-100223837D01*
X162308030Y-100372637D01*
X161886520Y-100708292D01*
X161625546Y-101179701D01*
X161618516Y-101236239D01*
X160543381Y-101236239D01*
X177451620Y-84328000D01*
X189804206Y-84328000D01*
X189968806Y-84574342D01*
X190314901Y-84805595D01*
X190723148Y-84886800D01*
X191800852Y-84886800D01*
X192209099Y-84805595D01*
X192555194Y-84574342D01*
X192786447Y-84228247D01*
X192867652Y-83820000D01*
X192786447Y-83411753D01*
X192555194Y-83065658D01*
X192274095Y-82877834D01*
X192456603Y-82841531D01*
X192621410Y-82731410D01*
X193442163Y-81910658D01*
X193524806Y-82034342D01*
X193870901Y-82265595D01*
X194279148Y-82346800D01*
X195356852Y-82346800D01*
X195765099Y-82265595D01*
X196111194Y-82034342D01*
X196342447Y-81688247D01*
X196368500Y-81557269D01*
X196368500Y-83542731D01*
G36*
X189968806Y-83065658D02*
X189804206Y-83312000D01*
X177241200Y-83312000D01*
X177046796Y-83350669D01*
X176881990Y-83460790D01*
X159288569Y-101054211D01*
X159149218Y-100845658D01*
X158803123Y-100614405D01*
X158394876Y-100533200D01*
X157835124Y-100533200D01*
X157426877Y-100614405D01*
X157080782Y-100845658D01*
X156849529Y-101191753D01*
X156768324Y-101600000D01*
X156849529Y-102008247D01*
X157013602Y-102253800D01*
X144315187Y-102253800D01*
X144444454Y-102020299D01*
X144451484Y-101963761D01*
X144338637Y-101752400D01*
X143027400Y-101752400D01*
X143027400Y-101772400D01*
X142722600Y-101772400D01*
X142722600Y-101752400D01*
X142702600Y-101752400D01*
X142702600Y-101447600D01*
X142722600Y-101447600D01*
X142722600Y-101427600D01*
X143027400Y-101427600D01*
X143027400Y-101447600D01*
X144338637Y-101447600D01*
X144451484Y-101236239D01*
X144444454Y-101179701D01*
X144183480Y-100708292D01*
X143761970Y-100372637D01*
X143244096Y-100223837D01*
X143119058Y-100311162D01*
X150085220Y-93345000D01*
X156482434Y-93345000D01*
X156482434Y-95885000D01*
X156510033Y-96023748D01*
X156588627Y-96141373D01*
X156706252Y-96219967D01*
X156845000Y-96247566D01*
X159385000Y-96247566D01*
X159523748Y-96219967D01*
X159641373Y-96141373D01*
X159719967Y-96023748D01*
X159747566Y-95885000D01*
X159747566Y-94615000D01*
X161537553Y-94615000D01*
X161661294Y-95237090D01*
X162013680Y-95764473D01*
X162541063Y-96116859D01*
X163163153Y-96240600D01*
X163226847Y-96240600D01*
X163848937Y-96116859D01*
X164376320Y-95764473D01*
X164728706Y-95237090D01*
X164852447Y-94615000D01*
X164728706Y-93992910D01*
X164376320Y-93465527D01*
X163848937Y-93113141D01*
X163226847Y-92989400D01*
X163163153Y-92989400D01*
X162541063Y-93113141D01*
X162013680Y-93465527D01*
X161661294Y-93992910D01*
X161537553Y-94615000D01*
X159747566Y-94615000D01*
X159747566Y-93345000D01*
X159719967Y-93206252D01*
X159641373Y-93088627D01*
X159523748Y-93010033D01*
X159385000Y-92982434D01*
X156845000Y-92982434D01*
X156706252Y-93010033D01*
X156588627Y-93088627D01*
X156510033Y-93206252D01*
X156482434Y-93345000D01*
X150085220Y-93345000D01*
X160550021Y-82880200D01*
X190246364Y-82880200D01*
X189968806Y-83065658D01*
X189968806Y-83065658D01*
G37*
X189968806Y-83065658D02*
X189804206Y-83312000D01*
X177241200Y-83312000D01*
X177046796Y-83350669D01*
X176881990Y-83460790D01*
X159288569Y-101054211D01*
X159149218Y-100845658D01*
X158803123Y-100614405D01*
X158394876Y-100533200D01*
X157835124Y-100533200D01*
X157426877Y-100614405D01*
X157080782Y-100845658D01*
X156849529Y-101191753D01*
X156768324Y-101600000D01*
X156849529Y-102008247D01*
X157013602Y-102253800D01*
X144315187Y-102253800D01*
X144444454Y-102020299D01*
X144451484Y-101963761D01*
X144338637Y-101752400D01*
X143027400Y-101752400D01*
X143027400Y-101772400D01*
X142722600Y-101772400D01*
X142722600Y-101752400D01*
X142702600Y-101752400D01*
X142702600Y-101447600D01*
X142722600Y-101447600D01*
X142722600Y-101427600D01*
X143027400Y-101427600D01*
X143027400Y-101447600D01*
X144338637Y-101447600D01*
X144451484Y-101236239D01*
X144444454Y-101179701D01*
X144183480Y-100708292D01*
X143761970Y-100372637D01*
X143244096Y-100223837D01*
X143119058Y-100311162D01*
X150085220Y-93345000D01*
X156482434Y-93345000D01*
X156482434Y-95885000D01*
X156510033Y-96023748D01*
X156588627Y-96141373D01*
X156706252Y-96219967D01*
X156845000Y-96247566D01*
X159385000Y-96247566D01*
X159523748Y-96219967D01*
X159641373Y-96141373D01*
X159719967Y-96023748D01*
X159747566Y-95885000D01*
X159747566Y-94615000D01*
X161537553Y-94615000D01*
X161661294Y-95237090D01*
X162013680Y-95764473D01*
X162541063Y-96116859D01*
X163163153Y-96240600D01*
X163226847Y-96240600D01*
X163848937Y-96116859D01*
X164376320Y-95764473D01*
X164728706Y-95237090D01*
X164852447Y-94615000D01*
X164728706Y-93992910D01*
X164376320Y-93465527D01*
X163848937Y-93113141D01*
X163226847Y-92989400D01*
X163163153Y-92989400D01*
X162541063Y-93113141D01*
X162013680Y-93465527D01*
X161661294Y-93992910D01*
X161537553Y-94615000D01*
X159747566Y-94615000D01*
X159747566Y-93345000D01*
X159719967Y-93206252D01*
X159641373Y-93088627D01*
X159523748Y-93010033D01*
X159385000Y-92982434D01*
X156845000Y-92982434D01*
X156706252Y-93010033D01*
X156588627Y-93088627D01*
X156510033Y-93206252D01*
X156482434Y-93345000D01*
X150085220Y-93345000D01*
X160550021Y-82880200D01*
X190246364Y-82880200D01*
X189968806Y-83065658D01*
M02*
