G04 #@! TF.FileFunction,Copper,L1,Top,Signal*
%FSLAX46Y46*%
G04 Gerber Fmt 4.6, Leading zero omitted, Abs format (unit mm)*
G04 Created by KiCad (PCBNEW 0.201603210401+6634~43~ubuntu14.04.1-product) date Fri 08 Apr 2016 01:16:15 PM EDT*
%MOMM*%
G01*
G04 APERTURE LIST*
%ADD10C,0.100000*%
%ADD11C,0.228600*%
%ADD12O,1.524000X2.540000*%
%ADD13C,1.930400*%
%ADD14O,4.572000X3.556000*%
%ADD15O,4.064000X5.080000*%
%ADD16O,5.080000X3.556000*%
%ADD17O,5.080000X3.048000*%
%ADD18O,2.032000X1.524000*%
%ADD19O,1.524000X2.032000*%
%ADD20C,3.556000*%
%ADD21O,2.540000X1.524000*%
%ADD22O,1.651000X2.159000*%
%ADD23R,4.191000X1.778000*%
%ADD24C,1.397000*%
%ADD25R,4.826000X2.794000*%
%ADD26R,1.778000X4.191000*%
%ADD27R,2.794000X4.826000*%
%ADD28R,2.540000X2.540000*%
%ADD29O,2.540000X2.540000*%
%ADD30C,1.016000*%
%ADD31C,0.406400*%
%ADD32C,0.203200*%
G04 APERTURE END LIST*
D10*
D11*
X211455000Y-75311000D02*
X93345000Y-75311000D01*
X211455000Y-130429000D02*
X211455000Y-75311000D01*
X93345000Y-130429000D02*
X211455000Y-130429000D01*
X93345000Y-75311000D02*
X93345000Y-130429000D01*
D12*
X103505000Y-113030000D03*
X100965000Y-113030000D03*
X106045000Y-113030000D03*
D13*
X208457800Y-102870000D03*
D14*
X204952600Y-102870000D03*
D15*
X199466200Y-102870000D03*
D16*
X206451200Y-98374200D03*
X206451200Y-107365800D03*
D17*
X99060000Y-107950000D03*
X99060000Y-97790000D03*
D18*
X105156000Y-102870000D03*
D19*
X107950000Y-102870000D03*
X107950000Y-100076000D03*
X107950000Y-105664000D03*
D20*
X111760000Y-127000000D03*
X113030000Y-78740000D03*
X194310000Y-127000000D03*
X187960000Y-78740000D03*
D12*
X125730000Y-127000000D03*
X128270000Y-127000000D03*
X130810000Y-127000000D03*
X133350000Y-127000000D03*
X135890000Y-127000000D03*
X138430000Y-127000000D03*
X140970000Y-127000000D03*
X143510000Y-127000000D03*
X148590000Y-127000000D03*
X151130000Y-127000000D03*
X153670000Y-127000000D03*
X156210000Y-127000000D03*
X158750000Y-127000000D03*
X161290000Y-127000000D03*
X163830000Y-127000000D03*
X166370000Y-127000000D03*
X171450000Y-127000000D03*
X173990000Y-127000000D03*
X176530000Y-127000000D03*
X179070000Y-127000000D03*
X181610000Y-127000000D03*
X184150000Y-127000000D03*
X186690000Y-127000000D03*
X189230000Y-127000000D03*
X116586000Y-78740000D03*
X119126000Y-78740000D03*
X121666000Y-78740000D03*
X124206000Y-78740000D03*
X126746000Y-78740000D03*
X129286000Y-78740000D03*
X131826000Y-78740000D03*
X134366000Y-78740000D03*
X136906000Y-78740000D03*
X139446000Y-78740000D03*
X143510000Y-78740000D03*
X161290000Y-78740000D03*
X158750000Y-78740000D03*
X156210000Y-78740000D03*
X153670000Y-78740000D03*
X151130000Y-78740000D03*
X148590000Y-78740000D03*
X146050000Y-78740000D03*
X166370000Y-78740000D03*
X168910000Y-78740000D03*
X171450000Y-78740000D03*
X173990000Y-78740000D03*
X176530000Y-78740000D03*
X179070000Y-78740000D03*
X181610000Y-78740000D03*
X184150000Y-78740000D03*
X191770000Y-78232000D03*
X194310000Y-78232000D03*
D21*
X191262000Y-81280000D03*
X194818000Y-81280000D03*
X191262000Y-83820000D03*
X194818000Y-83820000D03*
X191262000Y-86360000D03*
X194818000Y-86360000D03*
X191262000Y-88900000D03*
X194818000Y-88900000D03*
X191262000Y-91440000D03*
X194818000Y-91440000D03*
X191262000Y-93980000D03*
X194818000Y-93980000D03*
X191262000Y-96520000D03*
X194818000Y-96520000D03*
X191262000Y-99060000D03*
X194818000Y-99060000D03*
X191262000Y-101600000D03*
X194818000Y-101600000D03*
X191262000Y-104140000D03*
X194818000Y-104140000D03*
X191262000Y-106680000D03*
X194818000Y-106680000D03*
X191262000Y-109220000D03*
X194818000Y-109220000D03*
X191262000Y-111760000D03*
X194818000Y-111760000D03*
X191262000Y-114300000D03*
X194818000Y-114300000D03*
X191262000Y-116840000D03*
X194818000Y-116840000D03*
X191262000Y-119380000D03*
X194818000Y-119380000D03*
X191262000Y-121920000D03*
X194818000Y-121920000D03*
D22*
X200660000Y-113385600D03*
X205740000Y-113385600D03*
D23*
X102870000Y-87757000D03*
X102870000Y-85217000D03*
X102870000Y-82677000D03*
D24*
X99695000Y-90170000D03*
X99695000Y-80264000D03*
D25*
X96139000Y-91211400D03*
X96139000Y-79222600D03*
D24*
X208788000Y-82931000D03*
X198882000Y-82931000D03*
D23*
X202184000Y-82550000D03*
X202184000Y-85090000D03*
X202184000Y-87630000D03*
D24*
X205359000Y-80137000D03*
X205359000Y-90043000D03*
D25*
X208915000Y-79095600D03*
X208915000Y-91084400D03*
D24*
X198882000Y-122809000D03*
X208788000Y-122809000D03*
D26*
X205105000Y-120904000D03*
X202565000Y-120904000D03*
D24*
X207518000Y-124079000D03*
X200152000Y-124079000D03*
D27*
X208559400Y-127635000D03*
X199110600Y-127635000D03*
D18*
X183515000Y-123190000D03*
X178435000Y-123190000D03*
X163195000Y-123190000D03*
X158115000Y-123190000D03*
X142875000Y-123190000D03*
X137795000Y-123190000D03*
X122555000Y-123190000D03*
X117475000Y-123190000D03*
X183515000Y-101600000D03*
X178435000Y-101600000D03*
X163195000Y-101600000D03*
X158115000Y-101600000D03*
X142875000Y-101600000D03*
X137795000Y-101600000D03*
X122555000Y-101600000D03*
X117475000Y-101600000D03*
X199390000Y-93980000D03*
X204470000Y-93980000D03*
D28*
X178435000Y-116205000D03*
D29*
X183515000Y-116205000D03*
D28*
X158115000Y-116205000D03*
D29*
X163195000Y-116205000D03*
D28*
X137795000Y-116205000D03*
D29*
X142875000Y-116205000D03*
D28*
X117475000Y-116205000D03*
D29*
X122555000Y-116205000D03*
D28*
X178435000Y-94615000D03*
D29*
X183515000Y-94615000D03*
D28*
X158115000Y-94615000D03*
D29*
X163195000Y-94615000D03*
D28*
X137795000Y-94615000D03*
D29*
X142875000Y-94615000D03*
D28*
X117475000Y-94615000D03*
D29*
X122555000Y-94615000D03*
D30*
X106045000Y-113030000D02*
X106045000Y-115062300D01*
X202565000Y-112718600D02*
X200686800Y-110840400D01*
X202565000Y-120904000D02*
X202565000Y-112718600D01*
X200686800Y-107392900D02*
X200686800Y-110840400D01*
X199466200Y-106172300D02*
X200686800Y-107392900D01*
X120546700Y-129564000D02*
X106045000Y-115062300D01*
X195347700Y-129564000D02*
X120546700Y-129564000D01*
X196951200Y-127960500D02*
X195347700Y-129564000D01*
X196951200Y-114576000D02*
X196951200Y-127960500D01*
X200686800Y-110840400D02*
X196951200Y-114576000D01*
X199466200Y-102870000D02*
X199466200Y-106172300D01*
D31*
X107950000Y-87871300D02*
X105295700Y-85217000D01*
X107950000Y-100330000D02*
X107950000Y-87871300D01*
X102870000Y-85217000D02*
X105295700Y-85217000D01*
X204977600Y-123457100D02*
X205105000Y-123329700D01*
X201483100Y-123457100D02*
X204977600Y-123457100D01*
X200660000Y-122634000D02*
X201483100Y-123457100D01*
X200660000Y-113385600D02*
X200660000Y-122634000D01*
X205105000Y-120904000D02*
X205105000Y-123329700D01*
X204609700Y-89011600D02*
X204609700Y-85090000D01*
X203127500Y-90493800D02*
X204609700Y-89011600D01*
X203127500Y-98824000D02*
X203127500Y-90493800D01*
X205065300Y-100761800D02*
X203127500Y-98824000D01*
X205460600Y-100761800D02*
X205065300Y-100761800D01*
X205460600Y-102870000D02*
X205460600Y-100761800D01*
X202184000Y-85090000D02*
X204609700Y-85090000D01*
X105410000Y-109829600D02*
X105410000Y-102870000D01*
X115747400Y-120167000D02*
X105410000Y-109829600D01*
X115747400Y-123293300D02*
X115747400Y-120167000D01*
X117244600Y-124790500D02*
X115747400Y-123293300D01*
X179171300Y-124790500D02*
X117244600Y-124790500D01*
X189661800Y-114300000D02*
X179171300Y-124790500D01*
X191770000Y-114300000D02*
X189661800Y-114300000D01*
X157607400Y-84022800D02*
X161290000Y-80340200D01*
X100608900Y-84022800D02*
X157607400Y-84022800D01*
X100444300Y-84187400D02*
X100608900Y-84022800D01*
X100444300Y-87757000D02*
X100444300Y-84187400D01*
X102870000Y-87757000D02*
X100444300Y-87757000D01*
X161290000Y-78740000D02*
X161290000Y-80340200D01*
X158750000Y-78740000D02*
X158750000Y-80340200D01*
X156413200Y-82677000D02*
X102870000Y-82677000D01*
X158750000Y-80340200D02*
X156413200Y-82677000D01*
X178739800Y-87630000D02*
X171450000Y-80340200D01*
X202184000Y-87630000D02*
X178739800Y-87630000D01*
X171450000Y-78740000D02*
X171450000Y-80340200D01*
X176003300Y-82353500D02*
X173990000Y-80340200D01*
X197872000Y-82353500D02*
X176003300Y-82353500D01*
X198318000Y-81907500D02*
X197872000Y-82353500D01*
X201541500Y-81907500D02*
X198318000Y-81907500D01*
X202184000Y-82550000D02*
X201541500Y-81907500D01*
X173990000Y-78740000D02*
X173990000Y-80340200D01*
X122555000Y-101600000D02*
X122555000Y-100507800D01*
X191770000Y-101600000D02*
X189661800Y-101600000D01*
X123571600Y-99491200D02*
X122555000Y-100507800D01*
X187553000Y-99491200D02*
X123571600Y-99491200D01*
X189661800Y-101600000D02*
X187553000Y-99491200D01*
X193217800Y-101736800D02*
X193217800Y-101600000D01*
X192262500Y-102692100D02*
X193217800Y-101736800D01*
X188253600Y-102692100D02*
X192262500Y-102692100D01*
X185561000Y-99999500D02*
X188253600Y-102692100D01*
X143383300Y-99999500D02*
X185561000Y-99999500D01*
X142875000Y-100507800D02*
X143383300Y-99999500D01*
X142875000Y-101600000D02*
X142875000Y-100507800D01*
X194310000Y-101600000D02*
X193217800Y-101600000D01*
X183092500Y-104140000D02*
X191770000Y-104140000D01*
X179460300Y-100507800D02*
X183092500Y-104140000D01*
X163195000Y-100507800D02*
X179460300Y-100507800D01*
X163195000Y-101600000D02*
X163195000Y-100507800D01*
X139130600Y-124282200D02*
X122555000Y-124282200D01*
X156732800Y-106680000D02*
X139130600Y-124282200D01*
X191770000Y-106680000D02*
X156732800Y-106680000D01*
X122555000Y-123190000D02*
X122555000Y-124282200D01*
X193217800Y-106793200D02*
X193217800Y-106680000D01*
X192061000Y-107950000D02*
X193217800Y-106793200D01*
X157022800Y-107950000D02*
X192061000Y-107950000D01*
X142875000Y-122097800D02*
X157022800Y-107950000D01*
X142875000Y-123190000D02*
X142875000Y-122097800D01*
X194310000Y-106680000D02*
X193217800Y-106680000D01*
X163195000Y-123190000D02*
X163195000Y-122097800D01*
X176072800Y-109220000D02*
X191770000Y-109220000D01*
X163195000Y-122097800D02*
X176072800Y-109220000D01*
X158115000Y-124282200D02*
X178435000Y-124282200D01*
X158115000Y-123190000D02*
X158115000Y-124282200D01*
X178435000Y-123190000D02*
X178435000Y-124282200D01*
X158115000Y-102692200D02*
X178435000Y-102692200D01*
X158115000Y-101600000D02*
X158115000Y-102692200D01*
X178435000Y-101600000D02*
X178435000Y-102692200D01*
X117475000Y-101600000D02*
X117475000Y-102692200D01*
X137795000Y-101600000D02*
X137795000Y-102692200D01*
X137795000Y-123190000D02*
X137795000Y-122097800D01*
X136048000Y-120350800D02*
X137795000Y-122097800D01*
X136048000Y-104439200D02*
X136048000Y-120350800D01*
X136048000Y-104439200D02*
X137795000Y-102692200D01*
X117475000Y-123190000D02*
X117475000Y-122097800D01*
X119222000Y-120350800D02*
X119222000Y-104439200D01*
X117475000Y-122097800D02*
X119222000Y-120350800D01*
X117475000Y-102692200D02*
X119222000Y-104439200D01*
X119222000Y-104439200D02*
X136048000Y-104439200D01*
D32*
G36*
X211035900Y-77387829D02*
X206502000Y-77387829D01*
X206383073Y-77411485D01*
X206282252Y-77478852D01*
X206214885Y-77579673D01*
X206191229Y-77698600D01*
X206191229Y-79550563D01*
X205928066Y-79286939D01*
X205559444Y-79133874D01*
X205160307Y-79133526D01*
X204791419Y-79285948D01*
X204508939Y-79567934D01*
X204355874Y-79936556D01*
X204355526Y-80335693D01*
X204507948Y-80704581D01*
X204789934Y-80987061D01*
X205158556Y-81140126D01*
X205557693Y-81140474D01*
X205926581Y-80988052D01*
X206209061Y-80706066D01*
X206235504Y-80642385D01*
X206282252Y-80712348D01*
X206383073Y-80779715D01*
X206502000Y-80803371D01*
X211035900Y-80803371D01*
X211035900Y-89376629D01*
X206502000Y-89376629D01*
X206383073Y-89400285D01*
X206282252Y-89467652D01*
X206235657Y-89537386D01*
X206210052Y-89475419D01*
X205928066Y-89192939D01*
X205559444Y-89039874D01*
X205160307Y-89039526D01*
X204791419Y-89191948D01*
X204508939Y-89473934D01*
X204355874Y-89842556D01*
X204355526Y-90241693D01*
X204507948Y-90610581D01*
X204789934Y-90893061D01*
X205158556Y-91046126D01*
X205557693Y-91046474D01*
X205926581Y-90894052D01*
X206191229Y-90629867D01*
X206191229Y-92481400D01*
X206214885Y-92600327D01*
X206282252Y-92701148D01*
X206383073Y-92768515D01*
X206502000Y-92792171D01*
X211035900Y-92792171D01*
X211035900Y-130009900D01*
X210267171Y-130009900D01*
X210267171Y-125222000D01*
X210243515Y-125103073D01*
X210176148Y-125002252D01*
X210075327Y-124934885D01*
X209956400Y-124911229D01*
X208104437Y-124911229D01*
X208368061Y-124648066D01*
X208521126Y-124279444D01*
X208521474Y-123880307D01*
X208473781Y-123764883D01*
X208587556Y-123812126D01*
X208986693Y-123812474D01*
X209355581Y-123660052D01*
X209638061Y-123378066D01*
X209791126Y-123009444D01*
X209791474Y-122610307D01*
X209639052Y-122241419D01*
X209357066Y-121958939D01*
X208988444Y-121805874D01*
X208589307Y-121805526D01*
X208220419Y-121957948D01*
X207937939Y-122239934D01*
X207784874Y-122608556D01*
X207784526Y-123007693D01*
X207832219Y-123123117D01*
X207718444Y-123075874D01*
X207319307Y-123075526D01*
X206950419Y-123227948D01*
X206667939Y-123509934D01*
X206514874Y-123878556D01*
X206514526Y-124277693D01*
X206666948Y-124646581D01*
X206948934Y-124929061D01*
X207012615Y-124955504D01*
X206942652Y-125002252D01*
X206875285Y-125103073D01*
X206851629Y-125222000D01*
X206851629Y-130009900D01*
X200818371Y-130009900D01*
X200818371Y-125222000D01*
X200794715Y-125103073D01*
X200727348Y-125002252D01*
X200657614Y-124955657D01*
X200719581Y-124930052D01*
X201002061Y-124648066D01*
X201155126Y-124279444D01*
X201155474Y-123880307D01*
X201003052Y-123511419D01*
X200721066Y-123228939D01*
X200352444Y-123075874D01*
X199953307Y-123075526D01*
X199837883Y-123123219D01*
X199885126Y-123009444D01*
X199885474Y-122610307D01*
X199733052Y-122241419D01*
X199451066Y-121958939D01*
X199082444Y-121805874D01*
X198683307Y-121805526D01*
X198314419Y-121957948D01*
X198031939Y-122239934D01*
X197878874Y-122608556D01*
X197878526Y-123007693D01*
X198030948Y-123376581D01*
X198312934Y-123659061D01*
X198681556Y-123812126D01*
X199080693Y-123812474D01*
X199196117Y-123764781D01*
X199148874Y-123878556D01*
X199148526Y-124277693D01*
X199300948Y-124646581D01*
X199565133Y-124911229D01*
X197814800Y-124911229D01*
X197814800Y-114933714D01*
X199224900Y-113523615D01*
X199224900Y-113538002D01*
X199371922Y-113538002D01*
X199221364Y-113764591D01*
X199378706Y-114305619D01*
X199731113Y-114745251D01*
X200224935Y-115016558D01*
X200286247Y-115025176D01*
X200507600Y-114913214D01*
X200507600Y-113538000D01*
X200487600Y-113538000D01*
X200487600Y-113233200D01*
X200507600Y-113233200D01*
X200507600Y-113213200D01*
X200812400Y-113213200D01*
X200812400Y-113233200D01*
X200832400Y-113233200D01*
X200832400Y-113538000D01*
X200812400Y-113538000D01*
X200812400Y-114913214D01*
X201033753Y-115025176D01*
X201095065Y-115016558D01*
X201588887Y-114745251D01*
X201701400Y-114604890D01*
X201701400Y-118445934D01*
X201676000Y-118445934D01*
X201537252Y-118473533D01*
X201419627Y-118552127D01*
X201341033Y-118669752D01*
X201313434Y-118808500D01*
X201313434Y-122999500D01*
X201341033Y-123138248D01*
X201419627Y-123255873D01*
X201537252Y-123334467D01*
X201676000Y-123362066D01*
X203454000Y-123362066D01*
X203592748Y-123334467D01*
X203672773Y-123280996D01*
X203699206Y-123344811D01*
X203870689Y-123516294D01*
X204094743Y-123609100D01*
X204800200Y-123609100D01*
X204952600Y-123456700D01*
X204952600Y-121056400D01*
X205257400Y-121056400D01*
X205257400Y-123456700D01*
X205409800Y-123609100D01*
X206115257Y-123609100D01*
X206339311Y-123516294D01*
X206510794Y-123344811D01*
X206603600Y-123120757D01*
X206603600Y-121208800D01*
X206451200Y-121056400D01*
X205257400Y-121056400D01*
X204952600Y-121056400D01*
X204932600Y-121056400D01*
X204932600Y-120751600D01*
X204952600Y-120751600D01*
X204952600Y-118351300D01*
X205257400Y-118351300D01*
X205257400Y-120751600D01*
X206451200Y-120751600D01*
X206603600Y-120599200D01*
X206603600Y-118687243D01*
X206510794Y-118463189D01*
X206339311Y-118291706D01*
X206115257Y-118198900D01*
X205409800Y-118198900D01*
X205257400Y-118351300D01*
X204952600Y-118351300D01*
X204800200Y-118198900D01*
X204094743Y-118198900D01*
X203870689Y-118291706D01*
X203699206Y-118463189D01*
X203672773Y-118527004D01*
X203592748Y-118473533D01*
X203454000Y-118445934D01*
X203428600Y-118445934D01*
X203428600Y-113104480D01*
X204609700Y-113104480D01*
X204609700Y-113666720D01*
X204695739Y-114099267D01*
X204940757Y-114465963D01*
X205307453Y-114710981D01*
X205740000Y-114797020D01*
X206172547Y-114710981D01*
X206539243Y-114465963D01*
X206784261Y-114099267D01*
X206870300Y-113666720D01*
X206870300Y-113104480D01*
X206784261Y-112671933D01*
X206539243Y-112305237D01*
X206172547Y-112060219D01*
X205740000Y-111974180D01*
X205307453Y-112060219D01*
X204940757Y-112305237D01*
X204695739Y-112671933D01*
X204609700Y-113104480D01*
X203428600Y-113104480D01*
X203428600Y-112718600D01*
X203362862Y-112388115D01*
X203175657Y-112107943D01*
X201550400Y-110482686D01*
X201550400Y-107392900D01*
X201545010Y-107365800D01*
X203550667Y-107365800D01*
X203709211Y-108162853D01*
X204160705Y-108838562D01*
X204836414Y-109290056D01*
X205633467Y-109448600D01*
X207268933Y-109448600D01*
X208065986Y-109290056D01*
X208741695Y-108838562D01*
X209193189Y-108162853D01*
X209351733Y-107365800D01*
X209193189Y-106568747D01*
X208741695Y-105893038D01*
X208065986Y-105441544D01*
X207268933Y-105283000D01*
X205633467Y-105283000D01*
X204836414Y-105441544D01*
X204160705Y-105893038D01*
X203709211Y-106568747D01*
X203550667Y-107365800D01*
X201545010Y-107365800D01*
X201484662Y-107062415D01*
X201297457Y-106782243D01*
X200329800Y-105814586D01*
X200329800Y-105650548D01*
X200379895Y-105640583D01*
X201154488Y-105123016D01*
X201672055Y-104348423D01*
X201853800Y-103434728D01*
X201853800Y-103393265D01*
X202115045Y-103393265D01*
X202180425Y-103642896D01*
X202648549Y-104450525D01*
X203390106Y-105017534D01*
X204292200Y-105257600D01*
X204800200Y-105257600D01*
X204800200Y-103022400D01*
X202214602Y-103022400D01*
X202115045Y-103393265D01*
X201853800Y-103393265D01*
X201853800Y-102346735D01*
X202115045Y-102346735D01*
X202214602Y-102717600D01*
X204800200Y-102717600D01*
X204800200Y-100482400D01*
X205105000Y-100482400D01*
X205105000Y-102717600D01*
X205125000Y-102717600D01*
X205125000Y-103022400D01*
X205105000Y-103022400D01*
X205105000Y-105257600D01*
X205613000Y-105257600D01*
X206515094Y-105017534D01*
X207256651Y-104450525D01*
X207618277Y-103826632D01*
X207737463Y-103946026D01*
X208204073Y-104139779D01*
X208709310Y-104140220D01*
X209176258Y-103947282D01*
X209533826Y-103590337D01*
X209727579Y-103123727D01*
X209728020Y-102618490D01*
X209535082Y-102151542D01*
X209178137Y-101793974D01*
X208711527Y-101600221D01*
X208206290Y-101599780D01*
X207739342Y-101792718D01*
X207618352Y-101913498D01*
X207256651Y-101289475D01*
X206515094Y-100722466D01*
X205613000Y-100482400D01*
X205105000Y-100482400D01*
X204800200Y-100482400D01*
X204292200Y-100482400D01*
X203390106Y-100722466D01*
X202648549Y-101289475D01*
X202180425Y-102097104D01*
X202115045Y-102346735D01*
X201853800Y-102346735D01*
X201853800Y-102305272D01*
X201672055Y-101391577D01*
X201154488Y-100616984D01*
X200379895Y-100099417D01*
X199466200Y-99917672D01*
X198552505Y-100099417D01*
X197777912Y-100616984D01*
X197260345Y-101391577D01*
X197078600Y-102305272D01*
X197078600Y-103434728D01*
X197260345Y-104348423D01*
X197777912Y-105123016D01*
X198552505Y-105640583D01*
X198602600Y-105650548D01*
X198602600Y-106172300D01*
X198654654Y-106433990D01*
X198668338Y-106502785D01*
X198855543Y-106782957D01*
X199823200Y-107750614D01*
X199823200Y-110482685D01*
X196354340Y-113951546D01*
X196342447Y-113891753D01*
X196111194Y-113545658D01*
X195765099Y-113314405D01*
X195356852Y-113233200D01*
X194279148Y-113233200D01*
X193870901Y-113314405D01*
X193524806Y-113545658D01*
X193293553Y-113891753D01*
X193212348Y-114300000D01*
X193293553Y-114708247D01*
X193524806Y-115054342D01*
X193870901Y-115285595D01*
X194279148Y-115366800D01*
X195356852Y-115366800D01*
X195765099Y-115285595D01*
X196087600Y-115070107D01*
X196087600Y-116069893D01*
X195765099Y-115854405D01*
X195356852Y-115773200D01*
X194279148Y-115773200D01*
X193870901Y-115854405D01*
X193524806Y-116085658D01*
X193293553Y-116431753D01*
X193212348Y-116840000D01*
X193293553Y-117248247D01*
X193524806Y-117594342D01*
X193870901Y-117825595D01*
X194279148Y-117906800D01*
X195356852Y-117906800D01*
X195765099Y-117825595D01*
X196087600Y-117610107D01*
X196087600Y-118609893D01*
X195765099Y-118394405D01*
X195356852Y-118313200D01*
X194279148Y-118313200D01*
X193870901Y-118394405D01*
X193524806Y-118625658D01*
X193293553Y-118971753D01*
X193212348Y-119380000D01*
X193293553Y-119788247D01*
X193524806Y-120134342D01*
X193870901Y-120365595D01*
X194279148Y-120446800D01*
X195356852Y-120446800D01*
X195765099Y-120365595D01*
X196087600Y-120150107D01*
X196087600Y-121149893D01*
X195765099Y-120934405D01*
X195356852Y-120853200D01*
X194279148Y-120853200D01*
X193870901Y-120934405D01*
X193524806Y-121165658D01*
X193293553Y-121511753D01*
X193212348Y-121920000D01*
X193293553Y-122328247D01*
X193524806Y-122674342D01*
X193870901Y-122905595D01*
X194279148Y-122986800D01*
X195356852Y-122986800D01*
X195765099Y-122905595D01*
X196087600Y-122690107D01*
X196087600Y-125848011D01*
X196076741Y-125821730D01*
X195491352Y-125235318D01*
X194726112Y-124917563D01*
X193897523Y-124916840D01*
X193131730Y-125233259D01*
X192545318Y-125818648D01*
X192227563Y-126583888D01*
X192226840Y-127412477D01*
X192543259Y-128178270D01*
X193064478Y-128700400D01*
X141598518Y-128700400D01*
X141832104Y-128585631D01*
X142178872Y-128173688D01*
X142341600Y-127660400D01*
X142341600Y-127152400D01*
X141122400Y-127152400D01*
X141122400Y-127172400D01*
X140817600Y-127172400D01*
X140817600Y-127152400D01*
X138582400Y-127152400D01*
X138582400Y-127172400D01*
X138277600Y-127172400D01*
X138277600Y-127152400D01*
X137058400Y-127152400D01*
X137058400Y-127660400D01*
X137221128Y-128173688D01*
X137567896Y-128585631D01*
X137801482Y-128700400D01*
X120904415Y-128700400D01*
X118665163Y-126461148D01*
X124663200Y-126461148D01*
X124663200Y-127538852D01*
X124744405Y-127947099D01*
X124975658Y-128293194D01*
X125321753Y-128524447D01*
X125730000Y-128605652D01*
X126138247Y-128524447D01*
X126484342Y-128293194D01*
X126715595Y-127947099D01*
X126796800Y-127538852D01*
X126796800Y-126461148D01*
X127203200Y-126461148D01*
X127203200Y-127538852D01*
X127284405Y-127947099D01*
X127515658Y-128293194D01*
X127861753Y-128524447D01*
X128270000Y-128605652D01*
X128678247Y-128524447D01*
X129024342Y-128293194D01*
X129255595Y-127947099D01*
X129336800Y-127538852D01*
X129336800Y-126461148D01*
X129743200Y-126461148D01*
X129743200Y-127538852D01*
X129824405Y-127947099D01*
X130055658Y-128293194D01*
X130401753Y-128524447D01*
X130810000Y-128605652D01*
X131218247Y-128524447D01*
X131564342Y-128293194D01*
X131795595Y-127947099D01*
X131876800Y-127538852D01*
X131876800Y-126461148D01*
X132283200Y-126461148D01*
X132283200Y-127538852D01*
X132364405Y-127947099D01*
X132595658Y-128293194D01*
X132941753Y-128524447D01*
X133350000Y-128605652D01*
X133758247Y-128524447D01*
X134104342Y-128293194D01*
X134335595Y-127947099D01*
X134416800Y-127538852D01*
X134416800Y-126461148D01*
X134823200Y-126461148D01*
X134823200Y-127538852D01*
X134904405Y-127947099D01*
X135135658Y-128293194D01*
X135481753Y-128524447D01*
X135890000Y-128605652D01*
X136298247Y-128524447D01*
X136644342Y-128293194D01*
X136875595Y-127947099D01*
X136956800Y-127538852D01*
X136956800Y-126461148D01*
X136875595Y-126052901D01*
X136644342Y-125706806D01*
X136298247Y-125475553D01*
X135890000Y-125394348D01*
X135481753Y-125475553D01*
X135135658Y-125706806D01*
X134904405Y-126052901D01*
X134823200Y-126461148D01*
X134416800Y-126461148D01*
X134335595Y-126052901D01*
X134104342Y-125706806D01*
X133758247Y-125475553D01*
X133350000Y-125394348D01*
X132941753Y-125475553D01*
X132595658Y-125706806D01*
X132364405Y-126052901D01*
X132283200Y-126461148D01*
X131876800Y-126461148D01*
X131795595Y-126052901D01*
X131564342Y-125706806D01*
X131218247Y-125475553D01*
X130810000Y-125394348D01*
X130401753Y-125475553D01*
X130055658Y-125706806D01*
X129824405Y-126052901D01*
X129743200Y-126461148D01*
X129336800Y-126461148D01*
X129255595Y-126052901D01*
X129024342Y-125706806D01*
X128678247Y-125475553D01*
X128270000Y-125394348D01*
X127861753Y-125475553D01*
X127515658Y-125706806D01*
X127284405Y-126052901D01*
X127203200Y-126461148D01*
X126796800Y-126461148D01*
X126715595Y-126052901D01*
X126484342Y-125706806D01*
X126138247Y-125475553D01*
X125730000Y-125394348D01*
X125321753Y-125475553D01*
X124975658Y-125706806D01*
X124744405Y-126052901D01*
X124663200Y-126461148D01*
X118665163Y-126461148D01*
X117502515Y-125298500D01*
X137803721Y-125298500D01*
X137567896Y-125414369D01*
X137221128Y-125826312D01*
X137058400Y-126339600D01*
X137058400Y-126847600D01*
X138277600Y-126847600D01*
X138277600Y-126827600D01*
X138582400Y-126827600D01*
X138582400Y-126847600D01*
X140817600Y-126847600D01*
X140817600Y-126827600D01*
X141122400Y-126827600D01*
X141122400Y-126847600D01*
X142341600Y-126847600D01*
X142341600Y-126460153D01*
X142392400Y-126460153D01*
X142392400Y-127539847D01*
X142477472Y-127967534D01*
X142719737Y-128330110D01*
X143082313Y-128572375D01*
X143510000Y-128657447D01*
X143937687Y-128572375D01*
X144300263Y-128330110D01*
X144542528Y-127967534D01*
X144627600Y-127539847D01*
X144627600Y-126461148D01*
X147523200Y-126461148D01*
X147523200Y-127538852D01*
X147604405Y-127947099D01*
X147835658Y-128293194D01*
X148181753Y-128524447D01*
X148590000Y-128605652D01*
X148998247Y-128524447D01*
X149344342Y-128293194D01*
X149575595Y-127947099D01*
X149656800Y-127538852D01*
X149656800Y-126461148D01*
X150063200Y-126461148D01*
X150063200Y-127538852D01*
X150144405Y-127947099D01*
X150375658Y-128293194D01*
X150721753Y-128524447D01*
X151130000Y-128605652D01*
X151538247Y-128524447D01*
X151884342Y-128293194D01*
X152115595Y-127947099D01*
X152196800Y-127538852D01*
X152196800Y-126461148D01*
X152603200Y-126461148D01*
X152603200Y-127538852D01*
X152684405Y-127947099D01*
X152915658Y-128293194D01*
X153261753Y-128524447D01*
X153670000Y-128605652D01*
X154078247Y-128524447D01*
X154424342Y-128293194D01*
X154655595Y-127947099D01*
X154736800Y-127538852D01*
X154736800Y-126461148D01*
X155143200Y-126461148D01*
X155143200Y-127538852D01*
X155224405Y-127947099D01*
X155455658Y-128293194D01*
X155801753Y-128524447D01*
X156210000Y-128605652D01*
X156618247Y-128524447D01*
X156964342Y-128293194D01*
X157195595Y-127947099D01*
X157276800Y-127538852D01*
X157276800Y-126461148D01*
X157683200Y-126461148D01*
X157683200Y-127538852D01*
X157764405Y-127947099D01*
X157995658Y-128293194D01*
X158341753Y-128524447D01*
X158750000Y-128605652D01*
X159158247Y-128524447D01*
X159504342Y-128293194D01*
X159735595Y-127947099D01*
X159816800Y-127538852D01*
X159816800Y-126461148D01*
X160223200Y-126461148D01*
X160223200Y-127538852D01*
X160304405Y-127947099D01*
X160535658Y-128293194D01*
X160881753Y-128524447D01*
X161290000Y-128605652D01*
X161698247Y-128524447D01*
X162044342Y-128293194D01*
X162275595Y-127947099D01*
X162356800Y-127538852D01*
X162356800Y-126461148D01*
X162763200Y-126461148D01*
X162763200Y-127538852D01*
X162844405Y-127947099D01*
X163075658Y-128293194D01*
X163421753Y-128524447D01*
X163830000Y-128605652D01*
X164238247Y-128524447D01*
X164584342Y-128293194D01*
X164815595Y-127947099D01*
X164896800Y-127538852D01*
X164896800Y-126461148D01*
X165303200Y-126461148D01*
X165303200Y-127538852D01*
X165384405Y-127947099D01*
X165615658Y-128293194D01*
X165961753Y-128524447D01*
X166370000Y-128605652D01*
X166778247Y-128524447D01*
X167124342Y-128293194D01*
X167355595Y-127947099D01*
X167436800Y-127538852D01*
X167436800Y-126461148D01*
X170383200Y-126461148D01*
X170383200Y-127538852D01*
X170464405Y-127947099D01*
X170695658Y-128293194D01*
X171041753Y-128524447D01*
X171450000Y-128605652D01*
X171858247Y-128524447D01*
X172204342Y-128293194D01*
X172435595Y-127947099D01*
X172516800Y-127538852D01*
X172516800Y-126461148D01*
X172923200Y-126461148D01*
X172923200Y-127538852D01*
X173004405Y-127947099D01*
X173235658Y-128293194D01*
X173581753Y-128524447D01*
X173990000Y-128605652D01*
X174398247Y-128524447D01*
X174744342Y-128293194D01*
X174975595Y-127947099D01*
X175056800Y-127538852D01*
X175056800Y-126461148D01*
X175463200Y-126461148D01*
X175463200Y-127538852D01*
X175544405Y-127947099D01*
X175775658Y-128293194D01*
X176121753Y-128524447D01*
X176530000Y-128605652D01*
X176938247Y-128524447D01*
X177284342Y-128293194D01*
X177515595Y-127947099D01*
X177596800Y-127538852D01*
X177596800Y-126461148D01*
X178003200Y-126461148D01*
X178003200Y-127538852D01*
X178084405Y-127947099D01*
X178315658Y-128293194D01*
X178661753Y-128524447D01*
X179070000Y-128605652D01*
X179478247Y-128524447D01*
X179824342Y-128293194D01*
X180055595Y-127947099D01*
X180136800Y-127538852D01*
X180136800Y-126461148D01*
X180543200Y-126461148D01*
X180543200Y-127538852D01*
X180624405Y-127947099D01*
X180855658Y-128293194D01*
X181201753Y-128524447D01*
X181610000Y-128605652D01*
X182018247Y-128524447D01*
X182364342Y-128293194D01*
X182595595Y-127947099D01*
X182676800Y-127538852D01*
X182676800Y-126461148D01*
X183083200Y-126461148D01*
X183083200Y-127538852D01*
X183164405Y-127947099D01*
X183395658Y-128293194D01*
X183741753Y-128524447D01*
X184150000Y-128605652D01*
X184558247Y-128524447D01*
X184904342Y-128293194D01*
X185135595Y-127947099D01*
X185216800Y-127538852D01*
X185216800Y-126461148D01*
X185623200Y-126461148D01*
X185623200Y-127538852D01*
X185704405Y-127947099D01*
X185935658Y-128293194D01*
X186281753Y-128524447D01*
X186690000Y-128605652D01*
X187098247Y-128524447D01*
X187444342Y-128293194D01*
X187675595Y-127947099D01*
X187756800Y-127538852D01*
X187756800Y-126461148D01*
X188163200Y-126461148D01*
X188163200Y-127538852D01*
X188244405Y-127947099D01*
X188475658Y-128293194D01*
X188821753Y-128524447D01*
X189230000Y-128605652D01*
X189638247Y-128524447D01*
X189984342Y-128293194D01*
X190215595Y-127947099D01*
X190296800Y-127538852D01*
X190296800Y-126461148D01*
X190215595Y-126052901D01*
X189984342Y-125706806D01*
X189638247Y-125475553D01*
X189230000Y-125394348D01*
X188821753Y-125475553D01*
X188475658Y-125706806D01*
X188244405Y-126052901D01*
X188163200Y-126461148D01*
X187756800Y-126461148D01*
X187675595Y-126052901D01*
X187444342Y-125706806D01*
X187098247Y-125475553D01*
X186690000Y-125394348D01*
X186281753Y-125475553D01*
X185935658Y-125706806D01*
X185704405Y-126052901D01*
X185623200Y-126461148D01*
X185216800Y-126461148D01*
X185135595Y-126052901D01*
X184904342Y-125706806D01*
X184558247Y-125475553D01*
X184150000Y-125394348D01*
X183741753Y-125475553D01*
X183395658Y-125706806D01*
X183164405Y-126052901D01*
X183083200Y-126461148D01*
X182676800Y-126461148D01*
X182595595Y-126052901D01*
X182364342Y-125706806D01*
X182018247Y-125475553D01*
X181610000Y-125394348D01*
X181201753Y-125475553D01*
X180855658Y-125706806D01*
X180624405Y-126052901D01*
X180543200Y-126461148D01*
X180136800Y-126461148D01*
X180055595Y-126052901D01*
X179824342Y-125706806D01*
X179478247Y-125475553D01*
X179070000Y-125394348D01*
X178661753Y-125475553D01*
X178315658Y-125706806D01*
X178084405Y-126052901D01*
X178003200Y-126461148D01*
X177596800Y-126461148D01*
X177515595Y-126052901D01*
X177284342Y-125706806D01*
X176938247Y-125475553D01*
X176530000Y-125394348D01*
X176121753Y-125475553D01*
X175775658Y-125706806D01*
X175544405Y-126052901D01*
X175463200Y-126461148D01*
X175056800Y-126461148D01*
X174975595Y-126052901D01*
X174744342Y-125706806D01*
X174398247Y-125475553D01*
X173990000Y-125394348D01*
X173581753Y-125475553D01*
X173235658Y-125706806D01*
X173004405Y-126052901D01*
X172923200Y-126461148D01*
X172516800Y-126461148D01*
X172435595Y-126052901D01*
X172204342Y-125706806D01*
X171858247Y-125475553D01*
X171450000Y-125394348D01*
X171041753Y-125475553D01*
X170695658Y-125706806D01*
X170464405Y-126052901D01*
X170383200Y-126461148D01*
X167436800Y-126461148D01*
X167355595Y-126052901D01*
X167124342Y-125706806D01*
X166778247Y-125475553D01*
X166370000Y-125394348D01*
X165961753Y-125475553D01*
X165615658Y-125706806D01*
X165384405Y-126052901D01*
X165303200Y-126461148D01*
X164896800Y-126461148D01*
X164815595Y-126052901D01*
X164584342Y-125706806D01*
X164238247Y-125475553D01*
X163830000Y-125394348D01*
X163421753Y-125475553D01*
X163075658Y-125706806D01*
X162844405Y-126052901D01*
X162763200Y-126461148D01*
X162356800Y-126461148D01*
X162275595Y-126052901D01*
X162044342Y-125706806D01*
X161698247Y-125475553D01*
X161290000Y-125394348D01*
X160881753Y-125475553D01*
X160535658Y-125706806D01*
X160304405Y-126052901D01*
X160223200Y-126461148D01*
X159816800Y-126461148D01*
X159735595Y-126052901D01*
X159504342Y-125706806D01*
X159158247Y-125475553D01*
X158750000Y-125394348D01*
X158341753Y-125475553D01*
X157995658Y-125706806D01*
X157764405Y-126052901D01*
X157683200Y-126461148D01*
X157276800Y-126461148D01*
X157195595Y-126052901D01*
X156964342Y-125706806D01*
X156618247Y-125475553D01*
X156210000Y-125394348D01*
X155801753Y-125475553D01*
X155455658Y-125706806D01*
X155224405Y-126052901D01*
X155143200Y-126461148D01*
X154736800Y-126461148D01*
X154655595Y-126052901D01*
X154424342Y-125706806D01*
X154078247Y-125475553D01*
X153670000Y-125394348D01*
X153261753Y-125475553D01*
X152915658Y-125706806D01*
X152684405Y-126052901D01*
X152603200Y-126461148D01*
X152196800Y-126461148D01*
X152115595Y-126052901D01*
X151884342Y-125706806D01*
X151538247Y-125475553D01*
X151130000Y-125394348D01*
X150721753Y-125475553D01*
X150375658Y-125706806D01*
X150144405Y-126052901D01*
X150063200Y-126461148D01*
X149656800Y-126461148D01*
X149575595Y-126052901D01*
X149344342Y-125706806D01*
X148998247Y-125475553D01*
X148590000Y-125394348D01*
X148181753Y-125475553D01*
X147835658Y-125706806D01*
X147604405Y-126052901D01*
X147523200Y-126461148D01*
X144627600Y-126461148D01*
X144627600Y-126460153D01*
X144542528Y-126032466D01*
X144300263Y-125669890D01*
X143937687Y-125427625D01*
X143510000Y-125342553D01*
X143082313Y-125427625D01*
X142719737Y-125669890D01*
X142477472Y-126032466D01*
X142392400Y-126460153D01*
X142341600Y-126460153D01*
X142341600Y-126339600D01*
X142178872Y-125826312D01*
X141832104Y-125414369D01*
X141596279Y-125298500D01*
X179171300Y-125298500D01*
X179365703Y-125259831D01*
X179530510Y-125149710D01*
X181490220Y-123190000D01*
X182168324Y-123190000D01*
X182249529Y-123598247D01*
X182480782Y-123944342D01*
X182826877Y-124175595D01*
X183235124Y-124256800D01*
X183794876Y-124256800D01*
X184203123Y-124175595D01*
X184549218Y-123944342D01*
X184780471Y-123598247D01*
X184861676Y-123190000D01*
X184780471Y-122781753D01*
X184549218Y-122435658D01*
X184203123Y-122204405D01*
X183794876Y-122123200D01*
X183235124Y-122123200D01*
X182826877Y-122204405D01*
X182480782Y-122435658D01*
X182249529Y-122781753D01*
X182168324Y-123190000D01*
X181490220Y-123190000D01*
X182760220Y-121920000D01*
X189656348Y-121920000D01*
X189737553Y-122328247D01*
X189968806Y-122674342D01*
X190314901Y-122905595D01*
X190723148Y-122986800D01*
X191800852Y-122986800D01*
X192209099Y-122905595D01*
X192555194Y-122674342D01*
X192786447Y-122328247D01*
X192867652Y-121920000D01*
X192786447Y-121511753D01*
X192555194Y-121165658D01*
X192209099Y-120934405D01*
X191800852Y-120853200D01*
X190723148Y-120853200D01*
X190314901Y-120934405D01*
X189968806Y-121165658D01*
X189737553Y-121511753D01*
X189656348Y-121920000D01*
X182760220Y-121920000D01*
X185300220Y-119380000D01*
X189656348Y-119380000D01*
X189737553Y-119788247D01*
X189968806Y-120134342D01*
X190314901Y-120365595D01*
X190723148Y-120446800D01*
X191800852Y-120446800D01*
X192209099Y-120365595D01*
X192555194Y-120134342D01*
X192786447Y-119788247D01*
X192867652Y-119380000D01*
X192786447Y-118971753D01*
X192555194Y-118625658D01*
X192209099Y-118394405D01*
X191800852Y-118313200D01*
X190723148Y-118313200D01*
X190314901Y-118394405D01*
X189968806Y-118625658D01*
X189737553Y-118971753D01*
X189656348Y-119380000D01*
X185300220Y-119380000D01*
X187840220Y-116840000D01*
X189656348Y-116840000D01*
X189737553Y-117248247D01*
X189968806Y-117594342D01*
X190314901Y-117825595D01*
X190723148Y-117906800D01*
X191800852Y-117906800D01*
X192209099Y-117825595D01*
X192555194Y-117594342D01*
X192786447Y-117248247D01*
X192867652Y-116840000D01*
X192786447Y-116431753D01*
X192555194Y-116085658D01*
X192209099Y-115854405D01*
X191800852Y-115773200D01*
X190723148Y-115773200D01*
X190314901Y-115854405D01*
X189968806Y-116085658D01*
X189737553Y-116431753D01*
X189656348Y-116840000D01*
X187840220Y-116840000D01*
X189831449Y-114848772D01*
X189968806Y-115054342D01*
X190314901Y-115285595D01*
X190723148Y-115366800D01*
X191800852Y-115366800D01*
X192209099Y-115285595D01*
X192555194Y-115054342D01*
X192786447Y-114708247D01*
X192867652Y-114300000D01*
X192786447Y-113891753D01*
X192555194Y-113545658D01*
X192209099Y-113314405D01*
X191800852Y-113233200D01*
X190723148Y-113233200D01*
X190314901Y-113314405D01*
X189968806Y-113545658D01*
X189804206Y-113792000D01*
X189661800Y-113792000D01*
X189499650Y-113824254D01*
X189467396Y-113830669D01*
X189302589Y-113940790D01*
X179714212Y-123529168D01*
X179781676Y-123190000D01*
X179700471Y-122781753D01*
X179469218Y-122435658D01*
X179123123Y-122204405D01*
X178714876Y-122123200D01*
X178155124Y-122123200D01*
X177746877Y-122204405D01*
X177400782Y-122435658D01*
X177169529Y-122781753D01*
X177088324Y-123190000D01*
X177169529Y-123598247D01*
X177287097Y-123774200D01*
X164342903Y-123774200D01*
X164460471Y-123598247D01*
X164541676Y-123190000D01*
X164460471Y-122781753D01*
X164229218Y-122435658D01*
X163883123Y-122204405D01*
X163819475Y-122191745D01*
X171076220Y-114935000D01*
X176802434Y-114935000D01*
X176802434Y-117475000D01*
X176830033Y-117613748D01*
X176908627Y-117731373D01*
X177026252Y-117809967D01*
X177165000Y-117837566D01*
X179705000Y-117837566D01*
X179843748Y-117809967D01*
X179961373Y-117731373D01*
X180039967Y-117613748D01*
X180067566Y-117475000D01*
X180067566Y-116205000D01*
X181857553Y-116205000D01*
X181981294Y-116827090D01*
X182333680Y-117354473D01*
X182861063Y-117706859D01*
X183483153Y-117830600D01*
X183546847Y-117830600D01*
X184168937Y-117706859D01*
X184696320Y-117354473D01*
X185048706Y-116827090D01*
X185172447Y-116205000D01*
X185048706Y-115582910D01*
X184696320Y-115055527D01*
X184168937Y-114703141D01*
X183546847Y-114579400D01*
X183483153Y-114579400D01*
X182861063Y-114703141D01*
X182333680Y-115055527D01*
X181981294Y-115582910D01*
X181857553Y-116205000D01*
X180067566Y-116205000D01*
X180067566Y-114935000D01*
X180039967Y-114796252D01*
X179961373Y-114678627D01*
X179843748Y-114600033D01*
X179705000Y-114572434D01*
X177165000Y-114572434D01*
X177026252Y-114600033D01*
X176908627Y-114678627D01*
X176830033Y-114796252D01*
X176802434Y-114935000D01*
X171076220Y-114935000D01*
X174251220Y-111760000D01*
X189656348Y-111760000D01*
X189737553Y-112168247D01*
X189968806Y-112514342D01*
X190314901Y-112745595D01*
X190723148Y-112826800D01*
X191800852Y-112826800D01*
X192209099Y-112745595D01*
X192555194Y-112514342D01*
X192786447Y-112168247D01*
X192867652Y-111760000D01*
X193212348Y-111760000D01*
X193293553Y-112168247D01*
X193524806Y-112514342D01*
X193870901Y-112745595D01*
X194279148Y-112826800D01*
X195356852Y-112826800D01*
X195765099Y-112745595D01*
X196111194Y-112514342D01*
X196342447Y-112168247D01*
X196423652Y-111760000D01*
X196342447Y-111351753D01*
X196111194Y-111005658D01*
X195765099Y-110774405D01*
X195356852Y-110693200D01*
X194279148Y-110693200D01*
X193870901Y-110774405D01*
X193524806Y-111005658D01*
X193293553Y-111351753D01*
X193212348Y-111760000D01*
X192867652Y-111760000D01*
X192786447Y-111351753D01*
X192555194Y-111005658D01*
X192209099Y-110774405D01*
X191800852Y-110693200D01*
X190723148Y-110693200D01*
X190314901Y-110774405D01*
X189968806Y-111005658D01*
X189737553Y-111351753D01*
X189656348Y-111760000D01*
X174251220Y-111760000D01*
X176283221Y-109728000D01*
X189804206Y-109728000D01*
X189968806Y-109974342D01*
X190314901Y-110205595D01*
X190723148Y-110286800D01*
X191800852Y-110286800D01*
X192209099Y-110205595D01*
X192555194Y-109974342D01*
X192786447Y-109628247D01*
X192867652Y-109220000D01*
X193212348Y-109220000D01*
X193293553Y-109628247D01*
X193524806Y-109974342D01*
X193870901Y-110205595D01*
X194279148Y-110286800D01*
X195356852Y-110286800D01*
X195765099Y-110205595D01*
X196111194Y-109974342D01*
X196342447Y-109628247D01*
X196423652Y-109220000D01*
X196342447Y-108811753D01*
X196111194Y-108465658D01*
X195765099Y-108234405D01*
X195356852Y-108153200D01*
X194279148Y-108153200D01*
X193870901Y-108234405D01*
X193524806Y-108465658D01*
X193293553Y-108811753D01*
X193212348Y-109220000D01*
X192867652Y-109220000D01*
X192786447Y-108811753D01*
X192555194Y-108465658D01*
X192370632Y-108342337D01*
X192420210Y-108309210D01*
X193432790Y-107296630D01*
X193524806Y-107434342D01*
X193870901Y-107665595D01*
X194279148Y-107746800D01*
X195356852Y-107746800D01*
X195765099Y-107665595D01*
X196111194Y-107434342D01*
X196342447Y-107088247D01*
X196423652Y-106680000D01*
X196342447Y-106271753D01*
X196111194Y-105925658D01*
X195765099Y-105694405D01*
X195356852Y-105613200D01*
X194279148Y-105613200D01*
X193870901Y-105694405D01*
X193524806Y-105925658D01*
X193360206Y-106172000D01*
X193217800Y-106172000D01*
X193023397Y-106210669D01*
X192858590Y-106320790D01*
X192810513Y-106392742D01*
X192786447Y-106271753D01*
X192555194Y-105925658D01*
X192209099Y-105694405D01*
X191800852Y-105613200D01*
X190723148Y-105613200D01*
X190314901Y-105694405D01*
X189968806Y-105925658D01*
X189804206Y-106172000D01*
X156732800Y-106172000D01*
X156538397Y-106210669D01*
X156373590Y-106320790D01*
X138988660Y-123705720D01*
X139060471Y-123598247D01*
X139141676Y-123190000D01*
X139060471Y-122781753D01*
X138829218Y-122435658D01*
X138483123Y-122204405D01*
X138303000Y-122168576D01*
X138303000Y-122097800D01*
X138264331Y-121903397D01*
X138264331Y-121903396D01*
X138154210Y-121738590D01*
X136556000Y-120140380D01*
X136556000Y-117837566D01*
X139065000Y-117837566D01*
X139203748Y-117809967D01*
X139321373Y-117731373D01*
X139399967Y-117613748D01*
X139427566Y-117475000D01*
X139427566Y-116205000D01*
X141217553Y-116205000D01*
X141341294Y-116827090D01*
X141693680Y-117354473D01*
X142221063Y-117706859D01*
X142843153Y-117830600D01*
X142906847Y-117830600D01*
X143528937Y-117706859D01*
X144056320Y-117354473D01*
X144408706Y-116827090D01*
X144532447Y-116205000D01*
X144408706Y-115582910D01*
X144056320Y-115055527D01*
X143528937Y-114703141D01*
X142906847Y-114579400D01*
X142843153Y-114579400D01*
X142221063Y-114703141D01*
X141693680Y-115055527D01*
X141341294Y-115582910D01*
X141217553Y-116205000D01*
X139427566Y-116205000D01*
X139427566Y-114935000D01*
X139399967Y-114796252D01*
X139321373Y-114678627D01*
X139203748Y-114600033D01*
X139065000Y-114572434D01*
X136556000Y-114572434D01*
X136556000Y-104649620D01*
X138154210Y-103051410D01*
X138264331Y-102886604D01*
X138303000Y-102692200D01*
X138303000Y-102621424D01*
X138483123Y-102585595D01*
X138829218Y-102354342D01*
X139060471Y-102008247D01*
X139141676Y-101600000D01*
X139060471Y-101191753D01*
X138829218Y-100845658D01*
X138483123Y-100614405D01*
X138074876Y-100533200D01*
X137515124Y-100533200D01*
X137106877Y-100614405D01*
X136760782Y-100845658D01*
X136529529Y-101191753D01*
X136448324Y-101600000D01*
X136529529Y-102008247D01*
X136760782Y-102354342D01*
X137106877Y-102585595D01*
X137170525Y-102598255D01*
X135837580Y-103931200D01*
X119432420Y-103931200D01*
X118099475Y-102598255D01*
X118163123Y-102585595D01*
X118509218Y-102354342D01*
X118740471Y-102008247D01*
X118821676Y-101600000D01*
X121208324Y-101600000D01*
X121289529Y-102008247D01*
X121520782Y-102354342D01*
X121866877Y-102585595D01*
X122275124Y-102666800D01*
X122834876Y-102666800D01*
X123243123Y-102585595D01*
X123589218Y-102354342D01*
X123820471Y-102008247D01*
X123901676Y-101600000D01*
X123820471Y-101191753D01*
X123589218Y-100845658D01*
X123243123Y-100614405D01*
X123179475Y-100601745D01*
X123782021Y-99999200D01*
X142665180Y-99999200D01*
X142515790Y-100148590D01*
X142405669Y-100313397D01*
X142367000Y-100507800D01*
X142367000Y-100578576D01*
X142186877Y-100614405D01*
X141840782Y-100845658D01*
X141609529Y-101191753D01*
X141528324Y-101600000D01*
X141609529Y-102008247D01*
X141840782Y-102354342D01*
X142186877Y-102585595D01*
X142595124Y-102666800D01*
X143154876Y-102666800D01*
X143563123Y-102585595D01*
X143909218Y-102354342D01*
X144140471Y-102008247D01*
X144221676Y-101600000D01*
X144140471Y-101191753D01*
X143909218Y-100845658D01*
X143563123Y-100614405D01*
X143499475Y-100601745D01*
X143593720Y-100507500D01*
X162687060Y-100507500D01*
X162687000Y-100507800D01*
X162687000Y-100578576D01*
X162506877Y-100614405D01*
X162160782Y-100845658D01*
X161929529Y-101191753D01*
X161848324Y-101600000D01*
X161929529Y-102008247D01*
X162047097Y-102184200D01*
X159262903Y-102184200D01*
X159380471Y-102008247D01*
X159461676Y-101600000D01*
X159380471Y-101191753D01*
X159149218Y-100845658D01*
X158803123Y-100614405D01*
X158394876Y-100533200D01*
X157835124Y-100533200D01*
X157426877Y-100614405D01*
X157080782Y-100845658D01*
X156849529Y-101191753D01*
X156768324Y-101600000D01*
X156849529Y-102008247D01*
X157080782Y-102354342D01*
X157426877Y-102585595D01*
X157607000Y-102621424D01*
X157607000Y-102692200D01*
X157645669Y-102886603D01*
X157755790Y-103051410D01*
X157920597Y-103161531D01*
X158115000Y-103200200D01*
X178435000Y-103200200D01*
X178629403Y-103161531D01*
X178794210Y-103051410D01*
X178904331Y-102886603D01*
X178943000Y-102692200D01*
X178943000Y-102621424D01*
X179123123Y-102585595D01*
X179469218Y-102354342D01*
X179700471Y-102008247D01*
X179781676Y-101600000D01*
X179768664Y-101534584D01*
X182733290Y-104499211D01*
X182898097Y-104609331D01*
X183092500Y-104648000D01*
X189804206Y-104648000D01*
X189968806Y-104894342D01*
X190314901Y-105125595D01*
X190723148Y-105206800D01*
X191800852Y-105206800D01*
X192209099Y-105125595D01*
X192555194Y-104894342D01*
X192786447Y-104548247D01*
X192867652Y-104140000D01*
X193212348Y-104140000D01*
X193293553Y-104548247D01*
X193524806Y-104894342D01*
X193870901Y-105125595D01*
X194279148Y-105206800D01*
X195356852Y-105206800D01*
X195765099Y-105125595D01*
X196111194Y-104894342D01*
X196342447Y-104548247D01*
X196423652Y-104140000D01*
X196342447Y-103731753D01*
X196111194Y-103385658D01*
X195765099Y-103154405D01*
X195356852Y-103073200D01*
X194279148Y-103073200D01*
X193870901Y-103154405D01*
X193524806Y-103385658D01*
X193293553Y-103731753D01*
X193212348Y-104140000D01*
X192867652Y-104140000D01*
X192786447Y-103731753D01*
X192555194Y-103385658D01*
X192274049Y-103197803D01*
X192456903Y-103161431D01*
X192621710Y-103051310D01*
X193442243Y-102230777D01*
X193524806Y-102354342D01*
X193870901Y-102585595D01*
X194279148Y-102666800D01*
X195356852Y-102666800D01*
X195765099Y-102585595D01*
X196111194Y-102354342D01*
X196342447Y-102008247D01*
X196423652Y-101600000D01*
X196342447Y-101191753D01*
X196111194Y-100845658D01*
X195765099Y-100614405D01*
X195356852Y-100533200D01*
X194279148Y-100533200D01*
X193870901Y-100614405D01*
X193524806Y-100845658D01*
X193360206Y-101092000D01*
X193217800Y-101092000D01*
X193023397Y-101130669D01*
X192858590Y-101240790D01*
X192810513Y-101312742D01*
X192786447Y-101191753D01*
X192555194Y-100845658D01*
X192209099Y-100614405D01*
X191800852Y-100533200D01*
X190723148Y-100533200D01*
X190314901Y-100614405D01*
X189968806Y-100845658D01*
X189831449Y-101051228D01*
X187912210Y-99131990D01*
X187804470Y-99060000D01*
X189656348Y-99060000D01*
X189737553Y-99468247D01*
X189968806Y-99814342D01*
X190314901Y-100045595D01*
X190723148Y-100126800D01*
X191800852Y-100126800D01*
X192209099Y-100045595D01*
X192555194Y-99814342D01*
X192786447Y-99468247D01*
X192867652Y-99060000D01*
X193212348Y-99060000D01*
X193293553Y-99468247D01*
X193524806Y-99814342D01*
X193870901Y-100045595D01*
X194279148Y-100126800D01*
X195356852Y-100126800D01*
X195765099Y-100045595D01*
X196111194Y-99814342D01*
X196342447Y-99468247D01*
X196423652Y-99060000D01*
X196342447Y-98651753D01*
X196156993Y-98374200D01*
X203550667Y-98374200D01*
X203709211Y-99171253D01*
X204160705Y-99846962D01*
X204836414Y-100298456D01*
X205633467Y-100457000D01*
X207268933Y-100457000D01*
X208065986Y-100298456D01*
X208741695Y-99846962D01*
X209193189Y-99171253D01*
X209351733Y-98374200D01*
X209193189Y-97577147D01*
X208741695Y-96901438D01*
X208065986Y-96449944D01*
X207268933Y-96291400D01*
X205633467Y-96291400D01*
X204836414Y-96449944D01*
X204160705Y-96901438D01*
X203709211Y-97577147D01*
X203550667Y-98374200D01*
X196156993Y-98374200D01*
X196111194Y-98305658D01*
X195765099Y-98074405D01*
X195356852Y-97993200D01*
X194279148Y-97993200D01*
X193870901Y-98074405D01*
X193524806Y-98305658D01*
X193293553Y-98651753D01*
X193212348Y-99060000D01*
X192867652Y-99060000D01*
X192786447Y-98651753D01*
X192555194Y-98305658D01*
X192209099Y-98074405D01*
X191800852Y-97993200D01*
X190723148Y-97993200D01*
X190314901Y-98074405D01*
X189968806Y-98305658D01*
X189737553Y-98651753D01*
X189656348Y-99060000D01*
X187804470Y-99060000D01*
X187747403Y-99021869D01*
X187553000Y-98983200D01*
X123571600Y-98983200D01*
X123377197Y-99021869D01*
X123212390Y-99131989D01*
X122195790Y-100148590D01*
X122085669Y-100313397D01*
X122047000Y-100507800D01*
X122047000Y-100578576D01*
X121866877Y-100614405D01*
X121520782Y-100845658D01*
X121289529Y-101191753D01*
X121208324Y-101600000D01*
X118821676Y-101600000D01*
X118740471Y-101191753D01*
X118509218Y-100845658D01*
X118163123Y-100614405D01*
X117754876Y-100533200D01*
X117195124Y-100533200D01*
X116786877Y-100614405D01*
X116440782Y-100845658D01*
X116209529Y-101191753D01*
X116128324Y-101600000D01*
X116209529Y-102008247D01*
X116440782Y-102354342D01*
X116786877Y-102585595D01*
X116967000Y-102621424D01*
X116967000Y-102692200D01*
X117005669Y-102886603D01*
X117115790Y-103051410D01*
X118714000Y-104649620D01*
X118714000Y-114572434D01*
X116205000Y-114572434D01*
X116066252Y-114600033D01*
X115948627Y-114678627D01*
X115870033Y-114796252D01*
X115842434Y-114935000D01*
X115842434Y-117475000D01*
X115870033Y-117613748D01*
X115948627Y-117731373D01*
X116066252Y-117809967D01*
X116205000Y-117837566D01*
X118714000Y-117837566D01*
X118714000Y-120140380D01*
X117115790Y-121738590D01*
X117005669Y-121903397D01*
X116967000Y-122097800D01*
X116967000Y-122168576D01*
X116786877Y-122204405D01*
X116440782Y-122435658D01*
X116255400Y-122713102D01*
X116255400Y-120167000D01*
X116216731Y-119972597D01*
X116216731Y-119972596D01*
X116106610Y-119807790D01*
X105918000Y-109619180D01*
X105918000Y-106033096D01*
X106573837Y-106033096D01*
X106722637Y-106550970D01*
X107058292Y-106972480D01*
X107529701Y-107233454D01*
X107586239Y-107240484D01*
X107797600Y-107127637D01*
X107797600Y-105816400D01*
X108102400Y-105816400D01*
X108102400Y-107127637D01*
X108313761Y-107240484D01*
X108370299Y-107233454D01*
X108841708Y-106972480D01*
X109177363Y-106550970D01*
X109326163Y-106033096D01*
X109174825Y-105816400D01*
X108102400Y-105816400D01*
X107797600Y-105816400D01*
X106725175Y-105816400D01*
X106573837Y-106033096D01*
X105918000Y-106033096D01*
X105918000Y-103806232D01*
X106190218Y-103624342D01*
X106421471Y-103278247D01*
X106502676Y-102870000D01*
X106421471Y-102461753D01*
X106190218Y-102115658D01*
X105844123Y-101884405D01*
X105435876Y-101803200D01*
X104876124Y-101803200D01*
X104467877Y-101884405D01*
X104121782Y-102115658D01*
X103890529Y-102461753D01*
X103809324Y-102870000D01*
X103890529Y-103278247D01*
X104121782Y-103624342D01*
X104467877Y-103855595D01*
X104876124Y-103936800D01*
X104902000Y-103936800D01*
X104902000Y-109829600D01*
X104940669Y-110024003D01*
X105050790Y-110188810D01*
X106281594Y-111419614D01*
X106045000Y-111372553D01*
X105617313Y-111457625D01*
X105254737Y-111699890D01*
X105012472Y-112062466D01*
X104927400Y-112490153D01*
X104927400Y-113569847D01*
X105012472Y-113997534D01*
X105181400Y-114250353D01*
X105181400Y-115062300D01*
X105241969Y-115366800D01*
X105247138Y-115392785D01*
X105434343Y-115672957D01*
X119771285Y-130009900D01*
X93764100Y-130009900D01*
X93764100Y-127412477D01*
X109676840Y-127412477D01*
X109993259Y-128178270D01*
X110578648Y-128764682D01*
X111343888Y-129082437D01*
X112172477Y-129083160D01*
X112938270Y-128766741D01*
X113524682Y-128181352D01*
X113842437Y-127416112D01*
X113843160Y-126587523D01*
X113526741Y-125821730D01*
X112941352Y-125235318D01*
X112176112Y-124917563D01*
X111347523Y-124916840D01*
X110581730Y-125233259D01*
X109995318Y-125818648D01*
X109677563Y-126583888D01*
X109676840Y-127412477D01*
X93764100Y-127412477D01*
X93764100Y-112490153D01*
X99847400Y-112490153D01*
X99847400Y-113569847D01*
X99932472Y-113997534D01*
X100174737Y-114360110D01*
X100537313Y-114602375D01*
X100965000Y-114687447D01*
X101392687Y-114602375D01*
X101755263Y-114360110D01*
X101997528Y-113997534D01*
X102082600Y-113569847D01*
X102082600Y-113182400D01*
X102133400Y-113182400D01*
X102133400Y-113690400D01*
X102296128Y-114203688D01*
X102642896Y-114615631D01*
X103141239Y-114860484D01*
X103352600Y-114747637D01*
X103352600Y-113182400D01*
X103657400Y-113182400D01*
X103657400Y-114747637D01*
X103868761Y-114860484D01*
X104367104Y-114615631D01*
X104713872Y-114203688D01*
X104876600Y-113690400D01*
X104876600Y-113182400D01*
X103657400Y-113182400D01*
X103352600Y-113182400D01*
X102133400Y-113182400D01*
X102082600Y-113182400D01*
X102082600Y-112490153D01*
X102058621Y-112369600D01*
X102133400Y-112369600D01*
X102133400Y-112877600D01*
X103352600Y-112877600D01*
X103352600Y-111312363D01*
X103657400Y-111312363D01*
X103657400Y-112877600D01*
X104876600Y-112877600D01*
X104876600Y-112369600D01*
X104713872Y-111856312D01*
X104367104Y-111444369D01*
X103868761Y-111199516D01*
X103657400Y-111312363D01*
X103352600Y-111312363D01*
X103141239Y-111199516D01*
X102642896Y-111444369D01*
X102296128Y-111856312D01*
X102133400Y-112369600D01*
X102058621Y-112369600D01*
X101997528Y-112062466D01*
X101755263Y-111699890D01*
X101392687Y-111457625D01*
X100965000Y-111372553D01*
X100537313Y-111457625D01*
X100174737Y-111699890D01*
X99932472Y-112062466D01*
X99847400Y-112490153D01*
X93764100Y-112490153D01*
X93764100Y-107950000D01*
X96159467Y-107950000D01*
X96298676Y-108649851D01*
X96695110Y-109243157D01*
X97288416Y-109639591D01*
X97988267Y-109778800D01*
X100131733Y-109778800D01*
X100831584Y-109639591D01*
X101424890Y-109243157D01*
X101821324Y-108649851D01*
X101960533Y-107950000D01*
X101821324Y-107250149D01*
X101424890Y-106656843D01*
X100831584Y-106260409D01*
X100131733Y-106121200D01*
X97988267Y-106121200D01*
X97288416Y-106260409D01*
X96695110Y-106656843D01*
X96298676Y-107250149D01*
X96159467Y-107950000D01*
X93764100Y-107950000D01*
X93764100Y-100445096D01*
X106573837Y-100445096D01*
X106722637Y-100962970D01*
X107058292Y-101384480D01*
X107502796Y-101630559D01*
X107195658Y-101835782D01*
X106964405Y-102181877D01*
X106883200Y-102590124D01*
X106883200Y-103149876D01*
X106964405Y-103558123D01*
X107195658Y-103904218D01*
X107502796Y-104109441D01*
X107058292Y-104355520D01*
X106722637Y-104777030D01*
X106573837Y-105294904D01*
X106725175Y-105511600D01*
X107797600Y-105511600D01*
X107797600Y-105491600D01*
X108102400Y-105491600D01*
X108102400Y-105511600D01*
X109174825Y-105511600D01*
X109326163Y-105294904D01*
X109177363Y-104777030D01*
X108841708Y-104355520D01*
X108397204Y-104109441D01*
X108704342Y-103904218D01*
X108935595Y-103558123D01*
X109016800Y-103149876D01*
X109016800Y-102590124D01*
X108935595Y-102181877D01*
X108704342Y-101835782D01*
X108397204Y-101630559D01*
X108841708Y-101384480D01*
X109177363Y-100962970D01*
X109326163Y-100445096D01*
X109174825Y-100228400D01*
X108102400Y-100228400D01*
X108102400Y-100248400D01*
X107797600Y-100248400D01*
X107797600Y-100228400D01*
X106725175Y-100228400D01*
X106573837Y-100445096D01*
X93764100Y-100445096D01*
X93764100Y-99706904D01*
X106573837Y-99706904D01*
X106725175Y-99923600D01*
X107797600Y-99923600D01*
X107797600Y-98612363D01*
X108102400Y-98612363D01*
X108102400Y-99923600D01*
X109174825Y-99923600D01*
X109326163Y-99706904D01*
X109177363Y-99189030D01*
X108841708Y-98767520D01*
X108370299Y-98506546D01*
X108313761Y-98499516D01*
X108102400Y-98612363D01*
X107797600Y-98612363D01*
X107586239Y-98499516D01*
X107529701Y-98506546D01*
X107058292Y-98767520D01*
X106722637Y-99189030D01*
X106573837Y-99706904D01*
X93764100Y-99706904D01*
X93764100Y-97790000D01*
X96159467Y-97790000D01*
X96298676Y-98489851D01*
X96695110Y-99083157D01*
X97288416Y-99479591D01*
X97988267Y-99618800D01*
X100131733Y-99618800D01*
X100831584Y-99479591D01*
X101424890Y-99083157D01*
X101821324Y-98489851D01*
X101960533Y-97790000D01*
X101821324Y-97090149D01*
X101440363Y-96520000D01*
X189656348Y-96520000D01*
X189737553Y-96928247D01*
X189968806Y-97274342D01*
X190314901Y-97505595D01*
X190723148Y-97586800D01*
X191800852Y-97586800D01*
X192209099Y-97505595D01*
X192555194Y-97274342D01*
X192786447Y-96928247D01*
X192867652Y-96520000D01*
X193212348Y-96520000D01*
X193293553Y-96928247D01*
X193524806Y-97274342D01*
X193870901Y-97505595D01*
X194279148Y-97586800D01*
X195356852Y-97586800D01*
X195765099Y-97505595D01*
X196111194Y-97274342D01*
X196342447Y-96928247D01*
X196423652Y-96520000D01*
X196342447Y-96111753D01*
X196111194Y-95765658D01*
X195765099Y-95534405D01*
X195356852Y-95453200D01*
X194279148Y-95453200D01*
X193870901Y-95534405D01*
X193524806Y-95765658D01*
X193293553Y-96111753D01*
X193212348Y-96520000D01*
X192867652Y-96520000D01*
X192786447Y-96111753D01*
X192555194Y-95765658D01*
X192209099Y-95534405D01*
X191800852Y-95453200D01*
X190723148Y-95453200D01*
X190314901Y-95534405D01*
X189968806Y-95765658D01*
X189737553Y-96111753D01*
X189656348Y-96520000D01*
X101440363Y-96520000D01*
X101424890Y-96496843D01*
X100831584Y-96100409D01*
X100131733Y-95961200D01*
X97988267Y-95961200D01*
X97288416Y-96100409D01*
X96695110Y-96496843D01*
X96298676Y-97090149D01*
X96159467Y-97790000D01*
X93764100Y-97790000D01*
X93764100Y-93345000D01*
X115842434Y-93345000D01*
X115842434Y-95885000D01*
X115870033Y-96023748D01*
X115948627Y-96141373D01*
X116066252Y-96219967D01*
X116205000Y-96247566D01*
X118745000Y-96247566D01*
X118883748Y-96219967D01*
X119001373Y-96141373D01*
X119079967Y-96023748D01*
X119107566Y-95885000D01*
X119107566Y-94615000D01*
X120897553Y-94615000D01*
X121021294Y-95237090D01*
X121373680Y-95764473D01*
X121901063Y-96116859D01*
X122523153Y-96240600D01*
X122586847Y-96240600D01*
X123208937Y-96116859D01*
X123736320Y-95764473D01*
X124088706Y-95237090D01*
X124212447Y-94615000D01*
X124088706Y-93992910D01*
X123736320Y-93465527D01*
X123555939Y-93345000D01*
X136162434Y-93345000D01*
X136162434Y-95885000D01*
X136190033Y-96023748D01*
X136268627Y-96141373D01*
X136386252Y-96219967D01*
X136525000Y-96247566D01*
X139065000Y-96247566D01*
X139203748Y-96219967D01*
X139321373Y-96141373D01*
X139399967Y-96023748D01*
X139427566Y-95885000D01*
X139427566Y-94615000D01*
X141217553Y-94615000D01*
X141341294Y-95237090D01*
X141693680Y-95764473D01*
X142221063Y-96116859D01*
X142843153Y-96240600D01*
X142906847Y-96240600D01*
X143528937Y-96116859D01*
X144056320Y-95764473D01*
X144408706Y-95237090D01*
X144532447Y-94615000D01*
X144408706Y-93992910D01*
X144056320Y-93465527D01*
X143875939Y-93345000D01*
X156482434Y-93345000D01*
X156482434Y-95885000D01*
X156510033Y-96023748D01*
X156588627Y-96141373D01*
X156706252Y-96219967D01*
X156845000Y-96247566D01*
X159385000Y-96247566D01*
X159523748Y-96219967D01*
X159641373Y-96141373D01*
X159719967Y-96023748D01*
X159747566Y-95885000D01*
X159747566Y-94615000D01*
X161537553Y-94615000D01*
X161661294Y-95237090D01*
X162013680Y-95764473D01*
X162541063Y-96116859D01*
X163163153Y-96240600D01*
X163226847Y-96240600D01*
X163848937Y-96116859D01*
X164376320Y-95764473D01*
X164728706Y-95237090D01*
X164852447Y-94615000D01*
X164728706Y-93992910D01*
X164376320Y-93465527D01*
X164195939Y-93345000D01*
X176802434Y-93345000D01*
X176802434Y-95885000D01*
X176830033Y-96023748D01*
X176908627Y-96141373D01*
X177026252Y-96219967D01*
X177165000Y-96247566D01*
X179705000Y-96247566D01*
X179843748Y-96219967D01*
X179961373Y-96141373D01*
X180039967Y-96023748D01*
X180067566Y-95885000D01*
X180067566Y-94615000D01*
X181857553Y-94615000D01*
X181981294Y-95237090D01*
X182333680Y-95764473D01*
X182861063Y-96116859D01*
X183483153Y-96240600D01*
X183546847Y-96240600D01*
X184168937Y-96116859D01*
X184696320Y-95764473D01*
X185048706Y-95237090D01*
X185172447Y-94615000D01*
X185048706Y-93992910D01*
X185040080Y-93980000D01*
X189656348Y-93980000D01*
X189737553Y-94388247D01*
X189968806Y-94734342D01*
X190314901Y-94965595D01*
X190723148Y-95046800D01*
X191800852Y-95046800D01*
X192209099Y-94965595D01*
X192555194Y-94734342D01*
X192786447Y-94388247D01*
X192867652Y-93980000D01*
X193212348Y-93980000D01*
X193293553Y-94388247D01*
X193524806Y-94734342D01*
X193870901Y-94965595D01*
X194279148Y-95046800D01*
X195356852Y-95046800D01*
X195765099Y-94965595D01*
X196111194Y-94734342D01*
X196342447Y-94388247D01*
X196423652Y-93980000D01*
X197991529Y-93980000D01*
X198076601Y-94407687D01*
X198318866Y-94770263D01*
X198681442Y-95012528D01*
X199109129Y-95097600D01*
X199670871Y-95097600D01*
X200098558Y-95012528D01*
X200461134Y-94770263D01*
X200703399Y-94407687D01*
X200788471Y-93980000D01*
X203123324Y-93980000D01*
X203204529Y-94388247D01*
X203435782Y-94734342D01*
X203781877Y-94965595D01*
X204190124Y-95046800D01*
X204749876Y-95046800D01*
X205158123Y-94965595D01*
X205504218Y-94734342D01*
X205735471Y-94388247D01*
X205816676Y-93980000D01*
X205735471Y-93571753D01*
X205504218Y-93225658D01*
X205158123Y-92994405D01*
X204749876Y-92913200D01*
X204190124Y-92913200D01*
X203781877Y-92994405D01*
X203435782Y-93225658D01*
X203204529Y-93571753D01*
X203123324Y-93980000D01*
X200788471Y-93980000D01*
X200703399Y-93552313D01*
X200461134Y-93189737D01*
X200098558Y-92947472D01*
X199670871Y-92862400D01*
X199109129Y-92862400D01*
X198681442Y-92947472D01*
X198318866Y-93189737D01*
X198076601Y-93552313D01*
X197991529Y-93980000D01*
X196423652Y-93980000D01*
X196342447Y-93571753D01*
X196111194Y-93225658D01*
X195765099Y-92994405D01*
X195356852Y-92913200D01*
X194279148Y-92913200D01*
X193870901Y-92994405D01*
X193524806Y-93225658D01*
X193293553Y-93571753D01*
X193212348Y-93980000D01*
X192867652Y-93980000D01*
X192786447Y-93571753D01*
X192555194Y-93225658D01*
X192209099Y-92994405D01*
X191800852Y-92913200D01*
X190723148Y-92913200D01*
X190314901Y-92994405D01*
X189968806Y-93225658D01*
X189737553Y-93571753D01*
X189656348Y-93980000D01*
X185040080Y-93980000D01*
X184696320Y-93465527D01*
X184168937Y-93113141D01*
X183546847Y-92989400D01*
X183483153Y-92989400D01*
X182861063Y-93113141D01*
X182333680Y-93465527D01*
X181981294Y-93992910D01*
X181857553Y-94615000D01*
X180067566Y-94615000D01*
X180067566Y-93345000D01*
X180039967Y-93206252D01*
X179961373Y-93088627D01*
X179843748Y-93010033D01*
X179705000Y-92982434D01*
X177165000Y-92982434D01*
X177026252Y-93010033D01*
X176908627Y-93088627D01*
X176830033Y-93206252D01*
X176802434Y-93345000D01*
X164195939Y-93345000D01*
X163848937Y-93113141D01*
X163226847Y-92989400D01*
X163163153Y-92989400D01*
X162541063Y-93113141D01*
X162013680Y-93465527D01*
X161661294Y-93992910D01*
X161537553Y-94615000D01*
X159747566Y-94615000D01*
X159747566Y-93345000D01*
X159719967Y-93206252D01*
X159641373Y-93088627D01*
X159523748Y-93010033D01*
X159385000Y-92982434D01*
X156845000Y-92982434D01*
X156706252Y-93010033D01*
X156588627Y-93088627D01*
X156510033Y-93206252D01*
X156482434Y-93345000D01*
X143875939Y-93345000D01*
X143528937Y-93113141D01*
X142906847Y-92989400D01*
X142843153Y-92989400D01*
X142221063Y-93113141D01*
X141693680Y-93465527D01*
X141341294Y-93992910D01*
X141217553Y-94615000D01*
X139427566Y-94615000D01*
X139427566Y-93345000D01*
X139399967Y-93206252D01*
X139321373Y-93088627D01*
X139203748Y-93010033D01*
X139065000Y-92982434D01*
X136525000Y-92982434D01*
X136386252Y-93010033D01*
X136268627Y-93088627D01*
X136190033Y-93206252D01*
X136162434Y-93345000D01*
X123555939Y-93345000D01*
X123208937Y-93113141D01*
X122586847Y-92989400D01*
X122523153Y-92989400D01*
X121901063Y-93113141D01*
X121373680Y-93465527D01*
X121021294Y-93992910D01*
X120897553Y-94615000D01*
X119107566Y-94615000D01*
X119107566Y-93345000D01*
X119079967Y-93206252D01*
X119001373Y-93088627D01*
X118883748Y-93010033D01*
X118745000Y-92982434D01*
X116205000Y-92982434D01*
X116066252Y-93010033D01*
X115948627Y-93088627D01*
X115870033Y-93206252D01*
X115842434Y-93345000D01*
X93764100Y-93345000D01*
X93764100Y-92919171D01*
X98552000Y-92919171D01*
X98670927Y-92895515D01*
X98771748Y-92828148D01*
X98839115Y-92727327D01*
X98862771Y-92608400D01*
X98862771Y-91440000D01*
X189656348Y-91440000D01*
X189737553Y-91848247D01*
X189968806Y-92194342D01*
X190314901Y-92425595D01*
X190723148Y-92506800D01*
X191800852Y-92506800D01*
X192209099Y-92425595D01*
X192555194Y-92194342D01*
X192786447Y-91848247D01*
X192867652Y-91440000D01*
X193212348Y-91440000D01*
X193293553Y-91848247D01*
X193524806Y-92194342D01*
X193870901Y-92425595D01*
X194279148Y-92506800D01*
X195356852Y-92506800D01*
X195765099Y-92425595D01*
X196111194Y-92194342D01*
X196342447Y-91848247D01*
X196423652Y-91440000D01*
X196342447Y-91031753D01*
X196111194Y-90685658D01*
X195765099Y-90454405D01*
X195356852Y-90373200D01*
X194279148Y-90373200D01*
X193870901Y-90454405D01*
X193524806Y-90685658D01*
X193293553Y-91031753D01*
X193212348Y-91440000D01*
X192867652Y-91440000D01*
X192786447Y-91031753D01*
X192555194Y-90685658D01*
X192209099Y-90454405D01*
X191800852Y-90373200D01*
X190723148Y-90373200D01*
X190314901Y-90454405D01*
X189968806Y-90685658D01*
X189737553Y-91031753D01*
X189656348Y-91440000D01*
X98862771Y-91440000D01*
X98862771Y-90756437D01*
X99125934Y-91020061D01*
X99494556Y-91173126D01*
X99893693Y-91173474D01*
X100262581Y-91021052D01*
X100545061Y-90739066D01*
X100698126Y-90370444D01*
X100698474Y-89971307D01*
X100546052Y-89602419D01*
X100264066Y-89319939D01*
X99895444Y-89166874D01*
X99496307Y-89166526D01*
X99127419Y-89318948D01*
X98844939Y-89600934D01*
X98818496Y-89664615D01*
X98771748Y-89594652D01*
X98670927Y-89527285D01*
X98552000Y-89503629D01*
X93764100Y-89503629D01*
X93764100Y-84187400D01*
X99936300Y-84187400D01*
X99936300Y-87757000D01*
X99974969Y-87951403D01*
X100085090Y-88116210D01*
X100249897Y-88226331D01*
X100444300Y-88265000D01*
X100463729Y-88265000D01*
X100463729Y-88646000D01*
X100487385Y-88764927D01*
X100554752Y-88865748D01*
X100655573Y-88933115D01*
X100774500Y-88956771D01*
X104965500Y-88956771D01*
X105084427Y-88933115D01*
X105185248Y-88865748D01*
X105252615Y-88764927D01*
X105276271Y-88646000D01*
X105276271Y-86868000D01*
X105252615Y-86749073D01*
X105199144Y-86669048D01*
X105310811Y-86622794D01*
X105482294Y-86451311D01*
X105575100Y-86227257D01*
X105575100Y-85521800D01*
X105422700Y-85369400D01*
X103022400Y-85369400D01*
X103022400Y-85389400D01*
X102717600Y-85389400D01*
X102717600Y-85369400D01*
X102697600Y-85369400D01*
X102697600Y-85064600D01*
X102717600Y-85064600D01*
X102717600Y-85044600D01*
X103022400Y-85044600D01*
X103022400Y-85064600D01*
X105422700Y-85064600D01*
X105575100Y-84912200D01*
X105575100Y-84530800D01*
X157607400Y-84530800D01*
X157801803Y-84492131D01*
X157966610Y-84382010D01*
X161649210Y-80699410D01*
X161759331Y-80534603D01*
X161798000Y-80340200D01*
X161798000Y-80197794D01*
X162044342Y-80033194D01*
X162275595Y-79687099D01*
X162356800Y-79278852D01*
X162356800Y-78201148D01*
X165303200Y-78201148D01*
X165303200Y-79278852D01*
X165384405Y-79687099D01*
X165615658Y-80033194D01*
X165961753Y-80264447D01*
X166370000Y-80345652D01*
X166778247Y-80264447D01*
X167124342Y-80033194D01*
X167355595Y-79687099D01*
X167436800Y-79278852D01*
X167436800Y-78201148D01*
X167843200Y-78201148D01*
X167843200Y-79278852D01*
X167924405Y-79687099D01*
X168155658Y-80033194D01*
X168501753Y-80264447D01*
X168910000Y-80345652D01*
X169318247Y-80264447D01*
X169664342Y-80033194D01*
X169895595Y-79687099D01*
X169976800Y-79278852D01*
X169976800Y-78201148D01*
X170383200Y-78201148D01*
X170383200Y-79278852D01*
X170464405Y-79687099D01*
X170695658Y-80033194D01*
X170942000Y-80197794D01*
X170942000Y-80340200D01*
X170980669Y-80534603D01*
X171090790Y-80699410D01*
X178380590Y-87989210D01*
X178545397Y-88099331D01*
X178739800Y-88138000D01*
X189980267Y-88138000D01*
X189968806Y-88145658D01*
X189737553Y-88491753D01*
X189656348Y-88900000D01*
X189737553Y-89308247D01*
X189968806Y-89654342D01*
X190314901Y-89885595D01*
X190723148Y-89966800D01*
X191800852Y-89966800D01*
X192209099Y-89885595D01*
X192555194Y-89654342D01*
X192786447Y-89308247D01*
X192867652Y-88900000D01*
X192786447Y-88491753D01*
X192555194Y-88145658D01*
X192543733Y-88138000D01*
X193536267Y-88138000D01*
X193524806Y-88145658D01*
X193293553Y-88491753D01*
X193212348Y-88900000D01*
X193293553Y-89308247D01*
X193524806Y-89654342D01*
X193870901Y-89885595D01*
X194279148Y-89966800D01*
X195356852Y-89966800D01*
X195765099Y-89885595D01*
X196111194Y-89654342D01*
X196342447Y-89308247D01*
X196423652Y-88900000D01*
X196342447Y-88491753D01*
X196111194Y-88145658D01*
X196099733Y-88138000D01*
X199777729Y-88138000D01*
X199777729Y-88519000D01*
X199801385Y-88637927D01*
X199868752Y-88738748D01*
X199969573Y-88806115D01*
X200088500Y-88829771D01*
X204279500Y-88829771D01*
X204398427Y-88806115D01*
X204499248Y-88738748D01*
X204566615Y-88637927D01*
X204590271Y-88519000D01*
X204590271Y-86741000D01*
X204566615Y-86622073D01*
X204513144Y-86542048D01*
X204624811Y-86495794D01*
X204796294Y-86324311D01*
X204889100Y-86100257D01*
X204889100Y-85394800D01*
X204736700Y-85242400D01*
X202336400Y-85242400D01*
X202336400Y-85262400D01*
X202031600Y-85262400D01*
X202031600Y-85242400D01*
X199631300Y-85242400D01*
X199478900Y-85394800D01*
X199478900Y-86100257D01*
X199571706Y-86324311D01*
X199743189Y-86495794D01*
X199854856Y-86542048D01*
X199801385Y-86622073D01*
X199777729Y-86741000D01*
X199777729Y-87122000D01*
X196099733Y-87122000D01*
X196111194Y-87114342D01*
X196342447Y-86768247D01*
X196423652Y-86360000D01*
X196342447Y-85951753D01*
X196111194Y-85605658D01*
X195765099Y-85374405D01*
X195356852Y-85293200D01*
X194279148Y-85293200D01*
X193870901Y-85374405D01*
X193524806Y-85605658D01*
X193293553Y-85951753D01*
X193212348Y-86360000D01*
X193293553Y-86768247D01*
X193524806Y-87114342D01*
X193536267Y-87122000D01*
X192543733Y-87122000D01*
X192555194Y-87114342D01*
X192786447Y-86768247D01*
X192867652Y-86360000D01*
X192786447Y-85951753D01*
X192555194Y-85605658D01*
X192209099Y-85374405D01*
X191800852Y-85293200D01*
X190723148Y-85293200D01*
X190314901Y-85374405D01*
X189968806Y-85605658D01*
X189737553Y-85951753D01*
X189656348Y-86360000D01*
X189737553Y-86768247D01*
X189968806Y-87114342D01*
X189980267Y-87122000D01*
X178950220Y-87122000D01*
X171998772Y-80170552D01*
X172204342Y-80033194D01*
X172435595Y-79687099D01*
X172516800Y-79278852D01*
X172516800Y-78201148D01*
X172923200Y-78201148D01*
X172923200Y-79278852D01*
X173004405Y-79687099D01*
X173235658Y-80033194D01*
X173482000Y-80197794D01*
X173482000Y-80340200D01*
X173520669Y-80534603D01*
X173630790Y-80699410D01*
X175644090Y-82712710D01*
X175808896Y-82822831D01*
X176003300Y-82861500D01*
X190274350Y-82861500D01*
X189968806Y-83065658D01*
X189737553Y-83411753D01*
X189656348Y-83820000D01*
X189737553Y-84228247D01*
X189968806Y-84574342D01*
X190314901Y-84805595D01*
X190723148Y-84886800D01*
X191800852Y-84886800D01*
X192209099Y-84805595D01*
X192555194Y-84574342D01*
X192786447Y-84228247D01*
X192867652Y-83820000D01*
X192786447Y-83411753D01*
X192555194Y-83065658D01*
X192249650Y-82861500D01*
X193830350Y-82861500D01*
X193524806Y-83065658D01*
X193293553Y-83411753D01*
X193212348Y-83820000D01*
X193293553Y-84228247D01*
X193524806Y-84574342D01*
X193870901Y-84805595D01*
X194279148Y-84886800D01*
X195356852Y-84886800D01*
X195765099Y-84805595D01*
X196111194Y-84574342D01*
X196342447Y-84228247D01*
X196423652Y-83820000D01*
X196342447Y-83411753D01*
X196111194Y-83065658D01*
X195805650Y-82861500D01*
X197872000Y-82861500D01*
X197878761Y-82860155D01*
X197878526Y-83129693D01*
X198030948Y-83498581D01*
X198312934Y-83781061D01*
X198681556Y-83934126D01*
X199080693Y-83934474D01*
X199449581Y-83782052D01*
X199732061Y-83500066D01*
X199777729Y-83390085D01*
X199777729Y-83439000D01*
X199801385Y-83557927D01*
X199854856Y-83637952D01*
X199743189Y-83684206D01*
X199571706Y-83855689D01*
X199478900Y-84079743D01*
X199478900Y-84785200D01*
X199631300Y-84937600D01*
X202031600Y-84937600D01*
X202031600Y-84917600D01*
X202336400Y-84917600D01*
X202336400Y-84937600D01*
X204736700Y-84937600D01*
X204889100Y-84785200D01*
X204889100Y-84079743D01*
X204796294Y-83855689D01*
X204624811Y-83684206D01*
X204513144Y-83637952D01*
X204566615Y-83557927D01*
X204590271Y-83439000D01*
X204590271Y-83129693D01*
X207784526Y-83129693D01*
X207936948Y-83498581D01*
X208218934Y-83781061D01*
X208587556Y-83934126D01*
X208986693Y-83934474D01*
X209355581Y-83782052D01*
X209638061Y-83500066D01*
X209791126Y-83131444D01*
X209791474Y-82732307D01*
X209639052Y-82363419D01*
X209357066Y-82080939D01*
X208988444Y-81927874D01*
X208589307Y-81927526D01*
X208220419Y-82079948D01*
X207937939Y-82361934D01*
X207784874Y-82730556D01*
X207784526Y-83129693D01*
X204590271Y-83129693D01*
X204590271Y-81661000D01*
X204566615Y-81542073D01*
X204499248Y-81441252D01*
X204398427Y-81373885D01*
X204279500Y-81350229D01*
X200088500Y-81350229D01*
X199969573Y-81373885D01*
X199931238Y-81399500D01*
X198318000Y-81399500D01*
X198155850Y-81431754D01*
X198123596Y-81438169D01*
X197958790Y-81548290D01*
X197661580Y-81845500D01*
X196237374Y-81845500D01*
X196342447Y-81688247D01*
X196423652Y-81280000D01*
X196342447Y-80871753D01*
X196111194Y-80525658D01*
X195765099Y-80294405D01*
X195356852Y-80213200D01*
X194279148Y-80213200D01*
X193870901Y-80294405D01*
X193524806Y-80525658D01*
X193293553Y-80871753D01*
X193212348Y-81280000D01*
X193293553Y-81688247D01*
X193398626Y-81845500D01*
X192681374Y-81845500D01*
X192786447Y-81688247D01*
X192867652Y-81280000D01*
X192786447Y-80871753D01*
X192555194Y-80525658D01*
X192209099Y-80294405D01*
X191800852Y-80213200D01*
X190723148Y-80213200D01*
X190314901Y-80294405D01*
X189968806Y-80525658D01*
X189737553Y-80871753D01*
X189656348Y-81280000D01*
X189737553Y-81688247D01*
X189842626Y-81845500D01*
X176213720Y-81845500D01*
X174538772Y-80170552D01*
X174744342Y-80033194D01*
X174975595Y-79687099D01*
X175056800Y-79278852D01*
X175056800Y-78201148D01*
X175463200Y-78201148D01*
X175463200Y-79278852D01*
X175544405Y-79687099D01*
X175775658Y-80033194D01*
X176121753Y-80264447D01*
X176530000Y-80345652D01*
X176938247Y-80264447D01*
X177284342Y-80033194D01*
X177515595Y-79687099D01*
X177596800Y-79278852D01*
X177596800Y-78201148D01*
X178003200Y-78201148D01*
X178003200Y-79278852D01*
X178084405Y-79687099D01*
X178315658Y-80033194D01*
X178661753Y-80264447D01*
X179070000Y-80345652D01*
X179478247Y-80264447D01*
X179824342Y-80033194D01*
X180055595Y-79687099D01*
X180136800Y-79278852D01*
X180136800Y-78201148D01*
X180543200Y-78201148D01*
X180543200Y-79278852D01*
X180624405Y-79687099D01*
X180855658Y-80033194D01*
X181201753Y-80264447D01*
X181610000Y-80345652D01*
X182018247Y-80264447D01*
X182364342Y-80033194D01*
X182595595Y-79687099D01*
X182676800Y-79278852D01*
X182676800Y-78201148D01*
X183083200Y-78201148D01*
X183083200Y-79278852D01*
X183164405Y-79687099D01*
X183395658Y-80033194D01*
X183741753Y-80264447D01*
X184150000Y-80345652D01*
X184558247Y-80264447D01*
X184904342Y-80033194D01*
X185135595Y-79687099D01*
X185216800Y-79278852D01*
X185216800Y-79152477D01*
X185876840Y-79152477D01*
X186193259Y-79918270D01*
X186778648Y-80504682D01*
X187543888Y-80822437D01*
X188372477Y-80823160D01*
X189138270Y-80506741D01*
X189724682Y-79921352D01*
X190042437Y-79156112D01*
X190043160Y-78327523D01*
X189781042Y-77693148D01*
X190703200Y-77693148D01*
X190703200Y-78770852D01*
X190784405Y-79179099D01*
X191015658Y-79525194D01*
X191361753Y-79756447D01*
X191770000Y-79837652D01*
X192178247Y-79756447D01*
X192524342Y-79525194D01*
X192755595Y-79179099D01*
X192836800Y-78770852D01*
X192836800Y-77693148D01*
X193243200Y-77693148D01*
X193243200Y-78770852D01*
X193324405Y-79179099D01*
X193555658Y-79525194D01*
X193901753Y-79756447D01*
X194310000Y-79837652D01*
X194718247Y-79756447D01*
X195064342Y-79525194D01*
X195295595Y-79179099D01*
X195376800Y-78770852D01*
X195376800Y-77693148D01*
X195295595Y-77284901D01*
X195064342Y-76938806D01*
X194718247Y-76707553D01*
X194310000Y-76626348D01*
X193901753Y-76707553D01*
X193555658Y-76938806D01*
X193324405Y-77284901D01*
X193243200Y-77693148D01*
X192836800Y-77693148D01*
X192755595Y-77284901D01*
X192524342Y-76938806D01*
X192178247Y-76707553D01*
X191770000Y-76626348D01*
X191361753Y-76707553D01*
X191015658Y-76938806D01*
X190784405Y-77284901D01*
X190703200Y-77693148D01*
X189781042Y-77693148D01*
X189726741Y-77561730D01*
X189141352Y-76975318D01*
X188376112Y-76657563D01*
X187547523Y-76656840D01*
X186781730Y-76973259D01*
X186195318Y-77558648D01*
X185877563Y-78323888D01*
X185876840Y-79152477D01*
X185216800Y-79152477D01*
X185216800Y-78201148D01*
X185135595Y-77792901D01*
X184904342Y-77446806D01*
X184558247Y-77215553D01*
X184150000Y-77134348D01*
X183741753Y-77215553D01*
X183395658Y-77446806D01*
X183164405Y-77792901D01*
X183083200Y-78201148D01*
X182676800Y-78201148D01*
X182595595Y-77792901D01*
X182364342Y-77446806D01*
X182018247Y-77215553D01*
X181610000Y-77134348D01*
X181201753Y-77215553D01*
X180855658Y-77446806D01*
X180624405Y-77792901D01*
X180543200Y-78201148D01*
X180136800Y-78201148D01*
X180055595Y-77792901D01*
X179824342Y-77446806D01*
X179478247Y-77215553D01*
X179070000Y-77134348D01*
X178661753Y-77215553D01*
X178315658Y-77446806D01*
X178084405Y-77792901D01*
X178003200Y-78201148D01*
X177596800Y-78201148D01*
X177515595Y-77792901D01*
X177284342Y-77446806D01*
X176938247Y-77215553D01*
X176530000Y-77134348D01*
X176121753Y-77215553D01*
X175775658Y-77446806D01*
X175544405Y-77792901D01*
X175463200Y-78201148D01*
X175056800Y-78201148D01*
X174975595Y-77792901D01*
X174744342Y-77446806D01*
X174398247Y-77215553D01*
X173990000Y-77134348D01*
X173581753Y-77215553D01*
X173235658Y-77446806D01*
X173004405Y-77792901D01*
X172923200Y-78201148D01*
X172516800Y-78201148D01*
X172435595Y-77792901D01*
X172204342Y-77446806D01*
X171858247Y-77215553D01*
X171450000Y-77134348D01*
X171041753Y-77215553D01*
X170695658Y-77446806D01*
X170464405Y-77792901D01*
X170383200Y-78201148D01*
X169976800Y-78201148D01*
X169895595Y-77792901D01*
X169664342Y-77446806D01*
X169318247Y-77215553D01*
X168910000Y-77134348D01*
X168501753Y-77215553D01*
X168155658Y-77446806D01*
X167924405Y-77792901D01*
X167843200Y-78201148D01*
X167436800Y-78201148D01*
X167355595Y-77792901D01*
X167124342Y-77446806D01*
X166778247Y-77215553D01*
X166370000Y-77134348D01*
X165961753Y-77215553D01*
X165615658Y-77446806D01*
X165384405Y-77792901D01*
X165303200Y-78201148D01*
X162356800Y-78201148D01*
X162275595Y-77792901D01*
X162044342Y-77446806D01*
X161698247Y-77215553D01*
X161290000Y-77134348D01*
X160881753Y-77215553D01*
X160535658Y-77446806D01*
X160304405Y-77792901D01*
X160223200Y-78201148D01*
X160223200Y-79278852D01*
X160304405Y-79687099D01*
X160535658Y-80033194D01*
X160741228Y-80170552D01*
X157396980Y-83514800D01*
X105276271Y-83514800D01*
X105276271Y-83185000D01*
X156413200Y-83185000D01*
X156607603Y-83146331D01*
X156772410Y-83036210D01*
X159109210Y-80699410D01*
X159219331Y-80534604D01*
X159233286Y-80464444D01*
X159258000Y-80340200D01*
X159258000Y-80197794D01*
X159504342Y-80033194D01*
X159735595Y-79687099D01*
X159816800Y-79278852D01*
X159816800Y-78201148D01*
X159735595Y-77792901D01*
X159504342Y-77446806D01*
X159158247Y-77215553D01*
X158750000Y-77134348D01*
X158341753Y-77215553D01*
X157995658Y-77446806D01*
X157764405Y-77792901D01*
X157683200Y-78201148D01*
X157683200Y-79278852D01*
X157764405Y-79687099D01*
X157995658Y-80033194D01*
X158201228Y-80170552D01*
X156202780Y-82169000D01*
X105276271Y-82169000D01*
X105276271Y-81788000D01*
X105252615Y-81669073D01*
X105185248Y-81568252D01*
X105084427Y-81500885D01*
X104965500Y-81477229D01*
X100774500Y-81477229D01*
X100655573Y-81500885D01*
X100554752Y-81568252D01*
X100487385Y-81669073D01*
X100463729Y-81788000D01*
X100463729Y-83543676D01*
X100414497Y-83553469D01*
X100249690Y-83663589D01*
X100085090Y-83828190D01*
X99974969Y-83992997D01*
X99936300Y-84187400D01*
X93764100Y-84187400D01*
X93764100Y-80930371D01*
X98552000Y-80930371D01*
X98670927Y-80906715D01*
X98771748Y-80839348D01*
X98818343Y-80769614D01*
X98843948Y-80831581D01*
X99125934Y-81114061D01*
X99494556Y-81267126D01*
X99893693Y-81267474D01*
X100262581Y-81115052D01*
X100545061Y-80833066D01*
X100698126Y-80464444D01*
X100698474Y-80065307D01*
X100546052Y-79696419D01*
X100264066Y-79413939D01*
X99895444Y-79260874D01*
X99496307Y-79260526D01*
X99127419Y-79412948D01*
X98862771Y-79677133D01*
X98862771Y-79152477D01*
X110946840Y-79152477D01*
X111263259Y-79918270D01*
X111848648Y-80504682D01*
X112613888Y-80822437D01*
X113442477Y-80823160D01*
X114208270Y-80506741D01*
X114794682Y-79921352D01*
X115112437Y-79156112D01*
X115113160Y-78327523D01*
X115060943Y-78201148D01*
X115519200Y-78201148D01*
X115519200Y-79278852D01*
X115600405Y-79687099D01*
X115831658Y-80033194D01*
X116177753Y-80264447D01*
X116586000Y-80345652D01*
X116994247Y-80264447D01*
X117340342Y-80033194D01*
X117571595Y-79687099D01*
X117652800Y-79278852D01*
X117652800Y-78201148D01*
X118059200Y-78201148D01*
X118059200Y-79278852D01*
X118140405Y-79687099D01*
X118371658Y-80033194D01*
X118717753Y-80264447D01*
X119126000Y-80345652D01*
X119534247Y-80264447D01*
X119880342Y-80033194D01*
X120111595Y-79687099D01*
X120192800Y-79278852D01*
X120192800Y-78201148D01*
X120599200Y-78201148D01*
X120599200Y-79278852D01*
X120680405Y-79687099D01*
X120911658Y-80033194D01*
X121257753Y-80264447D01*
X121666000Y-80345652D01*
X122074247Y-80264447D01*
X122420342Y-80033194D01*
X122651595Y-79687099D01*
X122732800Y-79278852D01*
X122732800Y-78201148D01*
X123139200Y-78201148D01*
X123139200Y-79278852D01*
X123220405Y-79687099D01*
X123451658Y-80033194D01*
X123797753Y-80264447D01*
X124206000Y-80345652D01*
X124614247Y-80264447D01*
X124960342Y-80033194D01*
X125191595Y-79687099D01*
X125272800Y-79278852D01*
X125272800Y-78201148D01*
X125679200Y-78201148D01*
X125679200Y-79278852D01*
X125760405Y-79687099D01*
X125991658Y-80033194D01*
X126337753Y-80264447D01*
X126746000Y-80345652D01*
X127154247Y-80264447D01*
X127500342Y-80033194D01*
X127731595Y-79687099D01*
X127812800Y-79278852D01*
X127812800Y-78201148D01*
X128219200Y-78201148D01*
X128219200Y-79278852D01*
X128300405Y-79687099D01*
X128531658Y-80033194D01*
X128877753Y-80264447D01*
X129286000Y-80345652D01*
X129694247Y-80264447D01*
X130040342Y-80033194D01*
X130271595Y-79687099D01*
X130352800Y-79278852D01*
X130352800Y-78201148D01*
X130759200Y-78201148D01*
X130759200Y-79278852D01*
X130840405Y-79687099D01*
X131071658Y-80033194D01*
X131417753Y-80264447D01*
X131826000Y-80345652D01*
X132234247Y-80264447D01*
X132580342Y-80033194D01*
X132811595Y-79687099D01*
X132892800Y-79278852D01*
X132892800Y-78201148D01*
X133299200Y-78201148D01*
X133299200Y-79278852D01*
X133380405Y-79687099D01*
X133611658Y-80033194D01*
X133957753Y-80264447D01*
X134366000Y-80345652D01*
X134774247Y-80264447D01*
X135120342Y-80033194D01*
X135351595Y-79687099D01*
X135432800Y-79278852D01*
X135432800Y-78201148D01*
X135839200Y-78201148D01*
X135839200Y-79278852D01*
X135920405Y-79687099D01*
X136151658Y-80033194D01*
X136497753Y-80264447D01*
X136906000Y-80345652D01*
X137314247Y-80264447D01*
X137660342Y-80033194D01*
X137891595Y-79687099D01*
X137972800Y-79278852D01*
X137972800Y-78201148D01*
X138379200Y-78201148D01*
X138379200Y-79278852D01*
X138460405Y-79687099D01*
X138691658Y-80033194D01*
X139037753Y-80264447D01*
X139446000Y-80345652D01*
X139854247Y-80264447D01*
X140200342Y-80033194D01*
X140431595Y-79687099D01*
X140512800Y-79278852D01*
X140512800Y-78201148D01*
X142443200Y-78201148D01*
X142443200Y-79278852D01*
X142524405Y-79687099D01*
X142755658Y-80033194D01*
X143101753Y-80264447D01*
X143510000Y-80345652D01*
X143918247Y-80264447D01*
X144264342Y-80033194D01*
X144495595Y-79687099D01*
X144576800Y-79278852D01*
X144576800Y-78201148D01*
X144983200Y-78201148D01*
X144983200Y-79278852D01*
X145064405Y-79687099D01*
X145295658Y-80033194D01*
X145641753Y-80264447D01*
X146050000Y-80345652D01*
X146458247Y-80264447D01*
X146804342Y-80033194D01*
X147035595Y-79687099D01*
X147116800Y-79278852D01*
X147116800Y-78201148D01*
X147523200Y-78201148D01*
X147523200Y-79278852D01*
X147604405Y-79687099D01*
X147835658Y-80033194D01*
X148181753Y-80264447D01*
X148590000Y-80345652D01*
X148998247Y-80264447D01*
X149344342Y-80033194D01*
X149575595Y-79687099D01*
X149656800Y-79278852D01*
X149656800Y-78201148D01*
X150063200Y-78201148D01*
X150063200Y-79278852D01*
X150144405Y-79687099D01*
X150375658Y-80033194D01*
X150721753Y-80264447D01*
X151130000Y-80345652D01*
X151538247Y-80264447D01*
X151884342Y-80033194D01*
X152115595Y-79687099D01*
X152196800Y-79278852D01*
X152196800Y-78201148D01*
X152603200Y-78201148D01*
X152603200Y-79278852D01*
X152684405Y-79687099D01*
X152915658Y-80033194D01*
X153261753Y-80264447D01*
X153670000Y-80345652D01*
X154078247Y-80264447D01*
X154424342Y-80033194D01*
X154655595Y-79687099D01*
X154736800Y-79278852D01*
X154736800Y-78201148D01*
X155143200Y-78201148D01*
X155143200Y-79278852D01*
X155224405Y-79687099D01*
X155455658Y-80033194D01*
X155801753Y-80264447D01*
X156210000Y-80345652D01*
X156618247Y-80264447D01*
X156964342Y-80033194D01*
X157195595Y-79687099D01*
X157276800Y-79278852D01*
X157276800Y-78201148D01*
X157195595Y-77792901D01*
X156964342Y-77446806D01*
X156618247Y-77215553D01*
X156210000Y-77134348D01*
X155801753Y-77215553D01*
X155455658Y-77446806D01*
X155224405Y-77792901D01*
X155143200Y-78201148D01*
X154736800Y-78201148D01*
X154655595Y-77792901D01*
X154424342Y-77446806D01*
X154078247Y-77215553D01*
X153670000Y-77134348D01*
X153261753Y-77215553D01*
X152915658Y-77446806D01*
X152684405Y-77792901D01*
X152603200Y-78201148D01*
X152196800Y-78201148D01*
X152115595Y-77792901D01*
X151884342Y-77446806D01*
X151538247Y-77215553D01*
X151130000Y-77134348D01*
X150721753Y-77215553D01*
X150375658Y-77446806D01*
X150144405Y-77792901D01*
X150063200Y-78201148D01*
X149656800Y-78201148D01*
X149575595Y-77792901D01*
X149344342Y-77446806D01*
X148998247Y-77215553D01*
X148590000Y-77134348D01*
X148181753Y-77215553D01*
X147835658Y-77446806D01*
X147604405Y-77792901D01*
X147523200Y-78201148D01*
X147116800Y-78201148D01*
X147035595Y-77792901D01*
X146804342Y-77446806D01*
X146458247Y-77215553D01*
X146050000Y-77134348D01*
X145641753Y-77215553D01*
X145295658Y-77446806D01*
X145064405Y-77792901D01*
X144983200Y-78201148D01*
X144576800Y-78201148D01*
X144495595Y-77792901D01*
X144264342Y-77446806D01*
X143918247Y-77215553D01*
X143510000Y-77134348D01*
X143101753Y-77215553D01*
X142755658Y-77446806D01*
X142524405Y-77792901D01*
X142443200Y-78201148D01*
X140512800Y-78201148D01*
X140431595Y-77792901D01*
X140200342Y-77446806D01*
X139854247Y-77215553D01*
X139446000Y-77134348D01*
X139037753Y-77215553D01*
X138691658Y-77446806D01*
X138460405Y-77792901D01*
X138379200Y-78201148D01*
X137972800Y-78201148D01*
X137891595Y-77792901D01*
X137660342Y-77446806D01*
X137314247Y-77215553D01*
X136906000Y-77134348D01*
X136497753Y-77215553D01*
X136151658Y-77446806D01*
X135920405Y-77792901D01*
X135839200Y-78201148D01*
X135432800Y-78201148D01*
X135351595Y-77792901D01*
X135120342Y-77446806D01*
X134774247Y-77215553D01*
X134366000Y-77134348D01*
X133957753Y-77215553D01*
X133611658Y-77446806D01*
X133380405Y-77792901D01*
X133299200Y-78201148D01*
X132892800Y-78201148D01*
X132811595Y-77792901D01*
X132580342Y-77446806D01*
X132234247Y-77215553D01*
X131826000Y-77134348D01*
X131417753Y-77215553D01*
X131071658Y-77446806D01*
X130840405Y-77792901D01*
X130759200Y-78201148D01*
X130352800Y-78201148D01*
X130271595Y-77792901D01*
X130040342Y-77446806D01*
X129694247Y-77215553D01*
X129286000Y-77134348D01*
X128877753Y-77215553D01*
X128531658Y-77446806D01*
X128300405Y-77792901D01*
X128219200Y-78201148D01*
X127812800Y-78201148D01*
X127731595Y-77792901D01*
X127500342Y-77446806D01*
X127154247Y-77215553D01*
X126746000Y-77134348D01*
X126337753Y-77215553D01*
X125991658Y-77446806D01*
X125760405Y-77792901D01*
X125679200Y-78201148D01*
X125272800Y-78201148D01*
X125191595Y-77792901D01*
X124960342Y-77446806D01*
X124614247Y-77215553D01*
X124206000Y-77134348D01*
X123797753Y-77215553D01*
X123451658Y-77446806D01*
X123220405Y-77792901D01*
X123139200Y-78201148D01*
X122732800Y-78201148D01*
X122651595Y-77792901D01*
X122420342Y-77446806D01*
X122074247Y-77215553D01*
X121666000Y-77134348D01*
X121257753Y-77215553D01*
X120911658Y-77446806D01*
X120680405Y-77792901D01*
X120599200Y-78201148D01*
X120192800Y-78201148D01*
X120111595Y-77792901D01*
X119880342Y-77446806D01*
X119534247Y-77215553D01*
X119126000Y-77134348D01*
X118717753Y-77215553D01*
X118371658Y-77446806D01*
X118140405Y-77792901D01*
X118059200Y-78201148D01*
X117652800Y-78201148D01*
X117571595Y-77792901D01*
X117340342Y-77446806D01*
X116994247Y-77215553D01*
X116586000Y-77134348D01*
X116177753Y-77215553D01*
X115831658Y-77446806D01*
X115600405Y-77792901D01*
X115519200Y-78201148D01*
X115060943Y-78201148D01*
X114796741Y-77561730D01*
X114211352Y-76975318D01*
X113446112Y-76657563D01*
X112617523Y-76656840D01*
X111851730Y-76973259D01*
X111265318Y-77558648D01*
X110947563Y-78323888D01*
X110946840Y-79152477D01*
X98862771Y-79152477D01*
X98862771Y-77825600D01*
X98839115Y-77706673D01*
X98771748Y-77605852D01*
X98670927Y-77538485D01*
X98552000Y-77514829D01*
X93764100Y-77514829D01*
X93764100Y-75730100D01*
X211035900Y-75730100D01*
X211035900Y-77387829D01*
X211035900Y-77387829D01*
G37*
X211035900Y-77387829D02*
X206502000Y-77387829D01*
X206383073Y-77411485D01*
X206282252Y-77478852D01*
X206214885Y-77579673D01*
X206191229Y-77698600D01*
X206191229Y-79550563D01*
X205928066Y-79286939D01*
X205559444Y-79133874D01*
X205160307Y-79133526D01*
X204791419Y-79285948D01*
X204508939Y-79567934D01*
X204355874Y-79936556D01*
X204355526Y-80335693D01*
X204507948Y-80704581D01*
X204789934Y-80987061D01*
X205158556Y-81140126D01*
X205557693Y-81140474D01*
X205926581Y-80988052D01*
X206209061Y-80706066D01*
X206235504Y-80642385D01*
X206282252Y-80712348D01*
X206383073Y-80779715D01*
X206502000Y-80803371D01*
X211035900Y-80803371D01*
X211035900Y-89376629D01*
X206502000Y-89376629D01*
X206383073Y-89400285D01*
X206282252Y-89467652D01*
X206235657Y-89537386D01*
X206210052Y-89475419D01*
X205928066Y-89192939D01*
X205559444Y-89039874D01*
X205160307Y-89039526D01*
X204791419Y-89191948D01*
X204508939Y-89473934D01*
X204355874Y-89842556D01*
X204355526Y-90241693D01*
X204507948Y-90610581D01*
X204789934Y-90893061D01*
X205158556Y-91046126D01*
X205557693Y-91046474D01*
X205926581Y-90894052D01*
X206191229Y-90629867D01*
X206191229Y-92481400D01*
X206214885Y-92600327D01*
X206282252Y-92701148D01*
X206383073Y-92768515D01*
X206502000Y-92792171D01*
X211035900Y-92792171D01*
X211035900Y-130009900D01*
X210267171Y-130009900D01*
X210267171Y-125222000D01*
X210243515Y-125103073D01*
X210176148Y-125002252D01*
X210075327Y-124934885D01*
X209956400Y-124911229D01*
X208104437Y-124911229D01*
X208368061Y-124648066D01*
X208521126Y-124279444D01*
X208521474Y-123880307D01*
X208473781Y-123764883D01*
X208587556Y-123812126D01*
X208986693Y-123812474D01*
X209355581Y-123660052D01*
X209638061Y-123378066D01*
X209791126Y-123009444D01*
X209791474Y-122610307D01*
X209639052Y-122241419D01*
X209357066Y-121958939D01*
X208988444Y-121805874D01*
X208589307Y-121805526D01*
X208220419Y-121957948D01*
X207937939Y-122239934D01*
X207784874Y-122608556D01*
X207784526Y-123007693D01*
X207832219Y-123123117D01*
X207718444Y-123075874D01*
X207319307Y-123075526D01*
X206950419Y-123227948D01*
X206667939Y-123509934D01*
X206514874Y-123878556D01*
X206514526Y-124277693D01*
X206666948Y-124646581D01*
X206948934Y-124929061D01*
X207012615Y-124955504D01*
X206942652Y-125002252D01*
X206875285Y-125103073D01*
X206851629Y-125222000D01*
X206851629Y-130009900D01*
X200818371Y-130009900D01*
X200818371Y-125222000D01*
X200794715Y-125103073D01*
X200727348Y-125002252D01*
X200657614Y-124955657D01*
X200719581Y-124930052D01*
X201002061Y-124648066D01*
X201155126Y-124279444D01*
X201155474Y-123880307D01*
X201003052Y-123511419D01*
X200721066Y-123228939D01*
X200352444Y-123075874D01*
X199953307Y-123075526D01*
X199837883Y-123123219D01*
X199885126Y-123009444D01*
X199885474Y-122610307D01*
X199733052Y-122241419D01*
X199451066Y-121958939D01*
X199082444Y-121805874D01*
X198683307Y-121805526D01*
X198314419Y-121957948D01*
X198031939Y-122239934D01*
X197878874Y-122608556D01*
X197878526Y-123007693D01*
X198030948Y-123376581D01*
X198312934Y-123659061D01*
X198681556Y-123812126D01*
X199080693Y-123812474D01*
X199196117Y-123764781D01*
X199148874Y-123878556D01*
X199148526Y-124277693D01*
X199300948Y-124646581D01*
X199565133Y-124911229D01*
X197814800Y-124911229D01*
X197814800Y-114933714D01*
X199224900Y-113523615D01*
X199224900Y-113538002D01*
X199371922Y-113538002D01*
X199221364Y-113764591D01*
X199378706Y-114305619D01*
X199731113Y-114745251D01*
X200224935Y-115016558D01*
X200286247Y-115025176D01*
X200507600Y-114913214D01*
X200507600Y-113538000D01*
X200487600Y-113538000D01*
X200487600Y-113233200D01*
X200507600Y-113233200D01*
X200507600Y-113213200D01*
X200812400Y-113213200D01*
X200812400Y-113233200D01*
X200832400Y-113233200D01*
X200832400Y-113538000D01*
X200812400Y-113538000D01*
X200812400Y-114913214D01*
X201033753Y-115025176D01*
X201095065Y-115016558D01*
X201588887Y-114745251D01*
X201701400Y-114604890D01*
X201701400Y-118445934D01*
X201676000Y-118445934D01*
X201537252Y-118473533D01*
X201419627Y-118552127D01*
X201341033Y-118669752D01*
X201313434Y-118808500D01*
X201313434Y-122999500D01*
X201341033Y-123138248D01*
X201419627Y-123255873D01*
X201537252Y-123334467D01*
X201676000Y-123362066D01*
X203454000Y-123362066D01*
X203592748Y-123334467D01*
X203672773Y-123280996D01*
X203699206Y-123344811D01*
X203870689Y-123516294D01*
X204094743Y-123609100D01*
X204800200Y-123609100D01*
X204952600Y-123456700D01*
X204952600Y-121056400D01*
X205257400Y-121056400D01*
X205257400Y-123456700D01*
X205409800Y-123609100D01*
X206115257Y-123609100D01*
X206339311Y-123516294D01*
X206510794Y-123344811D01*
X206603600Y-123120757D01*
X206603600Y-121208800D01*
X206451200Y-121056400D01*
X205257400Y-121056400D01*
X204952600Y-121056400D01*
X204932600Y-121056400D01*
X204932600Y-120751600D01*
X204952600Y-120751600D01*
X204952600Y-118351300D01*
X205257400Y-118351300D01*
X205257400Y-120751600D01*
X206451200Y-120751600D01*
X206603600Y-120599200D01*
X206603600Y-118687243D01*
X206510794Y-118463189D01*
X206339311Y-118291706D01*
X206115257Y-118198900D01*
X205409800Y-118198900D01*
X205257400Y-118351300D01*
X204952600Y-118351300D01*
X204800200Y-118198900D01*
X204094743Y-118198900D01*
X203870689Y-118291706D01*
X203699206Y-118463189D01*
X203672773Y-118527004D01*
X203592748Y-118473533D01*
X203454000Y-118445934D01*
X203428600Y-118445934D01*
X203428600Y-113104480D01*
X204609700Y-113104480D01*
X204609700Y-113666720D01*
X204695739Y-114099267D01*
X204940757Y-114465963D01*
X205307453Y-114710981D01*
X205740000Y-114797020D01*
X206172547Y-114710981D01*
X206539243Y-114465963D01*
X206784261Y-114099267D01*
X206870300Y-113666720D01*
X206870300Y-113104480D01*
X206784261Y-112671933D01*
X206539243Y-112305237D01*
X206172547Y-112060219D01*
X205740000Y-111974180D01*
X205307453Y-112060219D01*
X204940757Y-112305237D01*
X204695739Y-112671933D01*
X204609700Y-113104480D01*
X203428600Y-113104480D01*
X203428600Y-112718600D01*
X203362862Y-112388115D01*
X203175657Y-112107943D01*
X201550400Y-110482686D01*
X201550400Y-107392900D01*
X201545010Y-107365800D01*
X203550667Y-107365800D01*
X203709211Y-108162853D01*
X204160705Y-108838562D01*
X204836414Y-109290056D01*
X205633467Y-109448600D01*
X207268933Y-109448600D01*
X208065986Y-109290056D01*
X208741695Y-108838562D01*
X209193189Y-108162853D01*
X209351733Y-107365800D01*
X209193189Y-106568747D01*
X208741695Y-105893038D01*
X208065986Y-105441544D01*
X207268933Y-105283000D01*
X205633467Y-105283000D01*
X204836414Y-105441544D01*
X204160705Y-105893038D01*
X203709211Y-106568747D01*
X203550667Y-107365800D01*
X201545010Y-107365800D01*
X201484662Y-107062415D01*
X201297457Y-106782243D01*
X200329800Y-105814586D01*
X200329800Y-105650548D01*
X200379895Y-105640583D01*
X201154488Y-105123016D01*
X201672055Y-104348423D01*
X201853800Y-103434728D01*
X201853800Y-103393265D01*
X202115045Y-103393265D01*
X202180425Y-103642896D01*
X202648549Y-104450525D01*
X203390106Y-105017534D01*
X204292200Y-105257600D01*
X204800200Y-105257600D01*
X204800200Y-103022400D01*
X202214602Y-103022400D01*
X202115045Y-103393265D01*
X201853800Y-103393265D01*
X201853800Y-102346735D01*
X202115045Y-102346735D01*
X202214602Y-102717600D01*
X204800200Y-102717600D01*
X204800200Y-100482400D01*
X205105000Y-100482400D01*
X205105000Y-102717600D01*
X205125000Y-102717600D01*
X205125000Y-103022400D01*
X205105000Y-103022400D01*
X205105000Y-105257600D01*
X205613000Y-105257600D01*
X206515094Y-105017534D01*
X207256651Y-104450525D01*
X207618277Y-103826632D01*
X207737463Y-103946026D01*
X208204073Y-104139779D01*
X208709310Y-104140220D01*
X209176258Y-103947282D01*
X209533826Y-103590337D01*
X209727579Y-103123727D01*
X209728020Y-102618490D01*
X209535082Y-102151542D01*
X209178137Y-101793974D01*
X208711527Y-101600221D01*
X208206290Y-101599780D01*
X207739342Y-101792718D01*
X207618352Y-101913498D01*
X207256651Y-101289475D01*
X206515094Y-100722466D01*
X205613000Y-100482400D01*
X205105000Y-100482400D01*
X204800200Y-100482400D01*
X204292200Y-100482400D01*
X203390106Y-100722466D01*
X202648549Y-101289475D01*
X202180425Y-102097104D01*
X202115045Y-102346735D01*
X201853800Y-102346735D01*
X201853800Y-102305272D01*
X201672055Y-101391577D01*
X201154488Y-100616984D01*
X200379895Y-100099417D01*
X199466200Y-99917672D01*
X198552505Y-100099417D01*
X197777912Y-100616984D01*
X197260345Y-101391577D01*
X197078600Y-102305272D01*
X197078600Y-103434728D01*
X197260345Y-104348423D01*
X197777912Y-105123016D01*
X198552505Y-105640583D01*
X198602600Y-105650548D01*
X198602600Y-106172300D01*
X198654654Y-106433990D01*
X198668338Y-106502785D01*
X198855543Y-106782957D01*
X199823200Y-107750614D01*
X199823200Y-110482685D01*
X196354340Y-113951546D01*
X196342447Y-113891753D01*
X196111194Y-113545658D01*
X195765099Y-113314405D01*
X195356852Y-113233200D01*
X194279148Y-113233200D01*
X193870901Y-113314405D01*
X193524806Y-113545658D01*
X193293553Y-113891753D01*
X193212348Y-114300000D01*
X193293553Y-114708247D01*
X193524806Y-115054342D01*
X193870901Y-115285595D01*
X194279148Y-115366800D01*
X195356852Y-115366800D01*
X195765099Y-115285595D01*
X196087600Y-115070107D01*
X196087600Y-116069893D01*
X195765099Y-115854405D01*
X195356852Y-115773200D01*
X194279148Y-115773200D01*
X193870901Y-115854405D01*
X193524806Y-116085658D01*
X193293553Y-116431753D01*
X193212348Y-116840000D01*
X193293553Y-117248247D01*
X193524806Y-117594342D01*
X193870901Y-117825595D01*
X194279148Y-117906800D01*
X195356852Y-117906800D01*
X195765099Y-117825595D01*
X196087600Y-117610107D01*
X196087600Y-118609893D01*
X195765099Y-118394405D01*
X195356852Y-118313200D01*
X194279148Y-118313200D01*
X193870901Y-118394405D01*
X193524806Y-118625658D01*
X193293553Y-118971753D01*
X193212348Y-119380000D01*
X193293553Y-119788247D01*
X193524806Y-120134342D01*
X193870901Y-120365595D01*
X194279148Y-120446800D01*
X195356852Y-120446800D01*
X195765099Y-120365595D01*
X196087600Y-120150107D01*
X196087600Y-121149893D01*
X195765099Y-120934405D01*
X195356852Y-120853200D01*
X194279148Y-120853200D01*
X193870901Y-120934405D01*
X193524806Y-121165658D01*
X193293553Y-121511753D01*
X193212348Y-121920000D01*
X193293553Y-122328247D01*
X193524806Y-122674342D01*
X193870901Y-122905595D01*
X194279148Y-122986800D01*
X195356852Y-122986800D01*
X195765099Y-122905595D01*
X196087600Y-122690107D01*
X196087600Y-125848011D01*
X196076741Y-125821730D01*
X195491352Y-125235318D01*
X194726112Y-124917563D01*
X193897523Y-124916840D01*
X193131730Y-125233259D01*
X192545318Y-125818648D01*
X192227563Y-126583888D01*
X192226840Y-127412477D01*
X192543259Y-128178270D01*
X193064478Y-128700400D01*
X141598518Y-128700400D01*
X141832104Y-128585631D01*
X142178872Y-128173688D01*
X142341600Y-127660400D01*
X142341600Y-127152400D01*
X141122400Y-127152400D01*
X141122400Y-127172400D01*
X140817600Y-127172400D01*
X140817600Y-127152400D01*
X138582400Y-127152400D01*
X138582400Y-127172400D01*
X138277600Y-127172400D01*
X138277600Y-127152400D01*
X137058400Y-127152400D01*
X137058400Y-127660400D01*
X137221128Y-128173688D01*
X137567896Y-128585631D01*
X137801482Y-128700400D01*
X120904415Y-128700400D01*
X118665163Y-126461148D01*
X124663200Y-126461148D01*
X124663200Y-127538852D01*
X124744405Y-127947099D01*
X124975658Y-128293194D01*
X125321753Y-128524447D01*
X125730000Y-128605652D01*
X126138247Y-128524447D01*
X126484342Y-128293194D01*
X126715595Y-127947099D01*
X126796800Y-127538852D01*
X126796800Y-126461148D01*
X127203200Y-126461148D01*
X127203200Y-127538852D01*
X127284405Y-127947099D01*
X127515658Y-128293194D01*
X127861753Y-128524447D01*
X128270000Y-128605652D01*
X128678247Y-128524447D01*
X129024342Y-128293194D01*
X129255595Y-127947099D01*
X129336800Y-127538852D01*
X129336800Y-126461148D01*
X129743200Y-126461148D01*
X129743200Y-127538852D01*
X129824405Y-127947099D01*
X130055658Y-128293194D01*
X130401753Y-128524447D01*
X130810000Y-128605652D01*
X131218247Y-128524447D01*
X131564342Y-128293194D01*
X131795595Y-127947099D01*
X131876800Y-127538852D01*
X131876800Y-126461148D01*
X132283200Y-126461148D01*
X132283200Y-127538852D01*
X132364405Y-127947099D01*
X132595658Y-128293194D01*
X132941753Y-128524447D01*
X133350000Y-128605652D01*
X133758247Y-128524447D01*
X134104342Y-128293194D01*
X134335595Y-127947099D01*
X134416800Y-127538852D01*
X134416800Y-126461148D01*
X134823200Y-126461148D01*
X134823200Y-127538852D01*
X134904405Y-127947099D01*
X135135658Y-128293194D01*
X135481753Y-128524447D01*
X135890000Y-128605652D01*
X136298247Y-128524447D01*
X136644342Y-128293194D01*
X136875595Y-127947099D01*
X136956800Y-127538852D01*
X136956800Y-126461148D01*
X136875595Y-126052901D01*
X136644342Y-125706806D01*
X136298247Y-125475553D01*
X135890000Y-125394348D01*
X135481753Y-125475553D01*
X135135658Y-125706806D01*
X134904405Y-126052901D01*
X134823200Y-126461148D01*
X134416800Y-126461148D01*
X134335595Y-126052901D01*
X134104342Y-125706806D01*
X133758247Y-125475553D01*
X133350000Y-125394348D01*
X132941753Y-125475553D01*
X132595658Y-125706806D01*
X132364405Y-126052901D01*
X132283200Y-126461148D01*
X131876800Y-126461148D01*
X131795595Y-126052901D01*
X131564342Y-125706806D01*
X131218247Y-125475553D01*
X130810000Y-125394348D01*
X130401753Y-125475553D01*
X130055658Y-125706806D01*
X129824405Y-126052901D01*
X129743200Y-126461148D01*
X129336800Y-126461148D01*
X129255595Y-126052901D01*
X129024342Y-125706806D01*
X128678247Y-125475553D01*
X128270000Y-125394348D01*
X127861753Y-125475553D01*
X127515658Y-125706806D01*
X127284405Y-126052901D01*
X127203200Y-126461148D01*
X126796800Y-126461148D01*
X126715595Y-126052901D01*
X126484342Y-125706806D01*
X126138247Y-125475553D01*
X125730000Y-125394348D01*
X125321753Y-125475553D01*
X124975658Y-125706806D01*
X124744405Y-126052901D01*
X124663200Y-126461148D01*
X118665163Y-126461148D01*
X117502515Y-125298500D01*
X137803721Y-125298500D01*
X137567896Y-125414369D01*
X137221128Y-125826312D01*
X137058400Y-126339600D01*
X137058400Y-126847600D01*
X138277600Y-126847600D01*
X138277600Y-126827600D01*
X138582400Y-126827600D01*
X138582400Y-126847600D01*
X140817600Y-126847600D01*
X140817600Y-126827600D01*
X141122400Y-126827600D01*
X141122400Y-126847600D01*
X142341600Y-126847600D01*
X142341600Y-126460153D01*
X142392400Y-126460153D01*
X142392400Y-127539847D01*
X142477472Y-127967534D01*
X142719737Y-128330110D01*
X143082313Y-128572375D01*
X143510000Y-128657447D01*
X143937687Y-128572375D01*
X144300263Y-128330110D01*
X144542528Y-127967534D01*
X144627600Y-127539847D01*
X144627600Y-126461148D01*
X147523200Y-126461148D01*
X147523200Y-127538852D01*
X147604405Y-127947099D01*
X147835658Y-128293194D01*
X148181753Y-128524447D01*
X148590000Y-128605652D01*
X148998247Y-128524447D01*
X149344342Y-128293194D01*
X149575595Y-127947099D01*
X149656800Y-127538852D01*
X149656800Y-126461148D01*
X150063200Y-126461148D01*
X150063200Y-127538852D01*
X150144405Y-127947099D01*
X150375658Y-128293194D01*
X150721753Y-128524447D01*
X151130000Y-128605652D01*
X151538247Y-128524447D01*
X151884342Y-128293194D01*
X152115595Y-127947099D01*
X152196800Y-127538852D01*
X152196800Y-126461148D01*
X152603200Y-126461148D01*
X152603200Y-127538852D01*
X152684405Y-127947099D01*
X152915658Y-128293194D01*
X153261753Y-128524447D01*
X153670000Y-128605652D01*
X154078247Y-128524447D01*
X154424342Y-128293194D01*
X154655595Y-127947099D01*
X154736800Y-127538852D01*
X154736800Y-126461148D01*
X155143200Y-126461148D01*
X155143200Y-127538852D01*
X155224405Y-127947099D01*
X155455658Y-128293194D01*
X155801753Y-128524447D01*
X156210000Y-128605652D01*
X156618247Y-128524447D01*
X156964342Y-128293194D01*
X157195595Y-127947099D01*
X157276800Y-127538852D01*
X157276800Y-126461148D01*
X157683200Y-126461148D01*
X157683200Y-127538852D01*
X157764405Y-127947099D01*
X157995658Y-128293194D01*
X158341753Y-128524447D01*
X158750000Y-128605652D01*
X159158247Y-128524447D01*
X159504342Y-128293194D01*
X159735595Y-127947099D01*
X159816800Y-127538852D01*
X159816800Y-126461148D01*
X160223200Y-126461148D01*
X160223200Y-127538852D01*
X160304405Y-127947099D01*
X160535658Y-128293194D01*
X160881753Y-128524447D01*
X161290000Y-128605652D01*
X161698247Y-128524447D01*
X162044342Y-128293194D01*
X162275595Y-127947099D01*
X162356800Y-127538852D01*
X162356800Y-126461148D01*
X162763200Y-126461148D01*
X162763200Y-127538852D01*
X162844405Y-127947099D01*
X163075658Y-128293194D01*
X163421753Y-128524447D01*
X163830000Y-128605652D01*
X164238247Y-128524447D01*
X164584342Y-128293194D01*
X164815595Y-127947099D01*
X164896800Y-127538852D01*
X164896800Y-126461148D01*
X165303200Y-126461148D01*
X165303200Y-127538852D01*
X165384405Y-127947099D01*
X165615658Y-128293194D01*
X165961753Y-128524447D01*
X166370000Y-128605652D01*
X166778247Y-128524447D01*
X167124342Y-128293194D01*
X167355595Y-127947099D01*
X167436800Y-127538852D01*
X167436800Y-126461148D01*
X170383200Y-126461148D01*
X170383200Y-127538852D01*
X170464405Y-127947099D01*
X170695658Y-128293194D01*
X171041753Y-128524447D01*
X171450000Y-128605652D01*
X171858247Y-128524447D01*
X172204342Y-128293194D01*
X172435595Y-127947099D01*
X172516800Y-127538852D01*
X172516800Y-126461148D01*
X172923200Y-126461148D01*
X172923200Y-127538852D01*
X173004405Y-127947099D01*
X173235658Y-128293194D01*
X173581753Y-128524447D01*
X173990000Y-128605652D01*
X174398247Y-128524447D01*
X174744342Y-128293194D01*
X174975595Y-127947099D01*
X175056800Y-127538852D01*
X175056800Y-126461148D01*
X175463200Y-126461148D01*
X175463200Y-127538852D01*
X175544405Y-127947099D01*
X175775658Y-128293194D01*
X176121753Y-128524447D01*
X176530000Y-128605652D01*
X176938247Y-128524447D01*
X177284342Y-128293194D01*
X177515595Y-127947099D01*
X177596800Y-127538852D01*
X177596800Y-126461148D01*
X178003200Y-126461148D01*
X178003200Y-127538852D01*
X178084405Y-127947099D01*
X178315658Y-128293194D01*
X178661753Y-128524447D01*
X179070000Y-128605652D01*
X179478247Y-128524447D01*
X179824342Y-128293194D01*
X180055595Y-127947099D01*
X180136800Y-127538852D01*
X180136800Y-126461148D01*
X180543200Y-126461148D01*
X180543200Y-127538852D01*
X180624405Y-127947099D01*
X180855658Y-128293194D01*
X181201753Y-128524447D01*
X181610000Y-128605652D01*
X182018247Y-128524447D01*
X182364342Y-128293194D01*
X182595595Y-127947099D01*
X182676800Y-127538852D01*
X182676800Y-126461148D01*
X183083200Y-126461148D01*
X183083200Y-127538852D01*
X183164405Y-127947099D01*
X183395658Y-128293194D01*
X183741753Y-128524447D01*
X184150000Y-128605652D01*
X184558247Y-128524447D01*
X184904342Y-128293194D01*
X185135595Y-127947099D01*
X185216800Y-127538852D01*
X185216800Y-126461148D01*
X185623200Y-126461148D01*
X185623200Y-127538852D01*
X185704405Y-127947099D01*
X185935658Y-128293194D01*
X186281753Y-128524447D01*
X186690000Y-128605652D01*
X187098247Y-128524447D01*
X187444342Y-128293194D01*
X187675595Y-127947099D01*
X187756800Y-127538852D01*
X187756800Y-126461148D01*
X188163200Y-126461148D01*
X188163200Y-127538852D01*
X188244405Y-127947099D01*
X188475658Y-128293194D01*
X188821753Y-128524447D01*
X189230000Y-128605652D01*
X189638247Y-128524447D01*
X189984342Y-128293194D01*
X190215595Y-127947099D01*
X190296800Y-127538852D01*
X190296800Y-126461148D01*
X190215595Y-126052901D01*
X189984342Y-125706806D01*
X189638247Y-125475553D01*
X189230000Y-125394348D01*
X188821753Y-125475553D01*
X188475658Y-125706806D01*
X188244405Y-126052901D01*
X188163200Y-126461148D01*
X187756800Y-126461148D01*
X187675595Y-126052901D01*
X187444342Y-125706806D01*
X187098247Y-125475553D01*
X186690000Y-125394348D01*
X186281753Y-125475553D01*
X185935658Y-125706806D01*
X185704405Y-126052901D01*
X185623200Y-126461148D01*
X185216800Y-126461148D01*
X185135595Y-126052901D01*
X184904342Y-125706806D01*
X184558247Y-125475553D01*
X184150000Y-125394348D01*
X183741753Y-125475553D01*
X183395658Y-125706806D01*
X183164405Y-126052901D01*
X183083200Y-126461148D01*
X182676800Y-126461148D01*
X182595595Y-126052901D01*
X182364342Y-125706806D01*
X182018247Y-125475553D01*
X181610000Y-125394348D01*
X181201753Y-125475553D01*
X180855658Y-125706806D01*
X180624405Y-126052901D01*
X180543200Y-126461148D01*
X180136800Y-126461148D01*
X180055595Y-126052901D01*
X179824342Y-125706806D01*
X179478247Y-125475553D01*
X179070000Y-125394348D01*
X178661753Y-125475553D01*
X178315658Y-125706806D01*
X178084405Y-126052901D01*
X178003200Y-126461148D01*
X177596800Y-126461148D01*
X177515595Y-126052901D01*
X177284342Y-125706806D01*
X176938247Y-125475553D01*
X176530000Y-125394348D01*
X176121753Y-125475553D01*
X175775658Y-125706806D01*
X175544405Y-126052901D01*
X175463200Y-126461148D01*
X175056800Y-126461148D01*
X174975595Y-126052901D01*
X174744342Y-125706806D01*
X174398247Y-125475553D01*
X173990000Y-125394348D01*
X173581753Y-125475553D01*
X173235658Y-125706806D01*
X173004405Y-126052901D01*
X172923200Y-126461148D01*
X172516800Y-126461148D01*
X172435595Y-126052901D01*
X172204342Y-125706806D01*
X171858247Y-125475553D01*
X171450000Y-125394348D01*
X171041753Y-125475553D01*
X170695658Y-125706806D01*
X170464405Y-126052901D01*
X170383200Y-126461148D01*
X167436800Y-126461148D01*
X167355595Y-126052901D01*
X167124342Y-125706806D01*
X166778247Y-125475553D01*
X166370000Y-125394348D01*
X165961753Y-125475553D01*
X165615658Y-125706806D01*
X165384405Y-126052901D01*
X165303200Y-126461148D01*
X164896800Y-126461148D01*
X164815595Y-126052901D01*
X164584342Y-125706806D01*
X164238247Y-125475553D01*
X163830000Y-125394348D01*
X163421753Y-125475553D01*
X163075658Y-125706806D01*
X162844405Y-126052901D01*
X162763200Y-126461148D01*
X162356800Y-126461148D01*
X162275595Y-126052901D01*
X162044342Y-125706806D01*
X161698247Y-125475553D01*
X161290000Y-125394348D01*
X160881753Y-125475553D01*
X160535658Y-125706806D01*
X160304405Y-126052901D01*
X160223200Y-126461148D01*
X159816800Y-126461148D01*
X159735595Y-126052901D01*
X159504342Y-125706806D01*
X159158247Y-125475553D01*
X158750000Y-125394348D01*
X158341753Y-125475553D01*
X157995658Y-125706806D01*
X157764405Y-126052901D01*
X157683200Y-126461148D01*
X157276800Y-126461148D01*
X157195595Y-126052901D01*
X156964342Y-125706806D01*
X156618247Y-125475553D01*
X156210000Y-125394348D01*
X155801753Y-125475553D01*
X155455658Y-125706806D01*
X155224405Y-126052901D01*
X155143200Y-126461148D01*
X154736800Y-126461148D01*
X154655595Y-126052901D01*
X154424342Y-125706806D01*
X154078247Y-125475553D01*
X153670000Y-125394348D01*
X153261753Y-125475553D01*
X152915658Y-125706806D01*
X152684405Y-126052901D01*
X152603200Y-126461148D01*
X152196800Y-126461148D01*
X152115595Y-126052901D01*
X151884342Y-125706806D01*
X151538247Y-125475553D01*
X151130000Y-125394348D01*
X150721753Y-125475553D01*
X150375658Y-125706806D01*
X150144405Y-126052901D01*
X150063200Y-126461148D01*
X149656800Y-126461148D01*
X149575595Y-126052901D01*
X149344342Y-125706806D01*
X148998247Y-125475553D01*
X148590000Y-125394348D01*
X148181753Y-125475553D01*
X147835658Y-125706806D01*
X147604405Y-126052901D01*
X147523200Y-126461148D01*
X144627600Y-126461148D01*
X144627600Y-126460153D01*
X144542528Y-126032466D01*
X144300263Y-125669890D01*
X143937687Y-125427625D01*
X143510000Y-125342553D01*
X143082313Y-125427625D01*
X142719737Y-125669890D01*
X142477472Y-126032466D01*
X142392400Y-126460153D01*
X142341600Y-126460153D01*
X142341600Y-126339600D01*
X142178872Y-125826312D01*
X141832104Y-125414369D01*
X141596279Y-125298500D01*
X179171300Y-125298500D01*
X179365703Y-125259831D01*
X179530510Y-125149710D01*
X181490220Y-123190000D01*
X182168324Y-123190000D01*
X182249529Y-123598247D01*
X182480782Y-123944342D01*
X182826877Y-124175595D01*
X183235124Y-124256800D01*
X183794876Y-124256800D01*
X184203123Y-124175595D01*
X184549218Y-123944342D01*
X184780471Y-123598247D01*
X184861676Y-123190000D01*
X184780471Y-122781753D01*
X184549218Y-122435658D01*
X184203123Y-122204405D01*
X183794876Y-122123200D01*
X183235124Y-122123200D01*
X182826877Y-122204405D01*
X182480782Y-122435658D01*
X182249529Y-122781753D01*
X182168324Y-123190000D01*
X181490220Y-123190000D01*
X182760220Y-121920000D01*
X189656348Y-121920000D01*
X189737553Y-122328247D01*
X189968806Y-122674342D01*
X190314901Y-122905595D01*
X190723148Y-122986800D01*
X191800852Y-122986800D01*
X192209099Y-122905595D01*
X192555194Y-122674342D01*
X192786447Y-122328247D01*
X192867652Y-121920000D01*
X192786447Y-121511753D01*
X192555194Y-121165658D01*
X192209099Y-120934405D01*
X191800852Y-120853200D01*
X190723148Y-120853200D01*
X190314901Y-120934405D01*
X189968806Y-121165658D01*
X189737553Y-121511753D01*
X189656348Y-121920000D01*
X182760220Y-121920000D01*
X185300220Y-119380000D01*
X189656348Y-119380000D01*
X189737553Y-119788247D01*
X189968806Y-120134342D01*
X190314901Y-120365595D01*
X190723148Y-120446800D01*
X191800852Y-120446800D01*
X192209099Y-120365595D01*
X192555194Y-120134342D01*
X192786447Y-119788247D01*
X192867652Y-119380000D01*
X192786447Y-118971753D01*
X192555194Y-118625658D01*
X192209099Y-118394405D01*
X191800852Y-118313200D01*
X190723148Y-118313200D01*
X190314901Y-118394405D01*
X189968806Y-118625658D01*
X189737553Y-118971753D01*
X189656348Y-119380000D01*
X185300220Y-119380000D01*
X187840220Y-116840000D01*
X189656348Y-116840000D01*
X189737553Y-117248247D01*
X189968806Y-117594342D01*
X190314901Y-117825595D01*
X190723148Y-117906800D01*
X191800852Y-117906800D01*
X192209099Y-117825595D01*
X192555194Y-117594342D01*
X192786447Y-117248247D01*
X192867652Y-116840000D01*
X192786447Y-116431753D01*
X192555194Y-116085658D01*
X192209099Y-115854405D01*
X191800852Y-115773200D01*
X190723148Y-115773200D01*
X190314901Y-115854405D01*
X189968806Y-116085658D01*
X189737553Y-116431753D01*
X189656348Y-116840000D01*
X187840220Y-116840000D01*
X189831449Y-114848772D01*
X189968806Y-115054342D01*
X190314901Y-115285595D01*
X190723148Y-115366800D01*
X191800852Y-115366800D01*
X192209099Y-115285595D01*
X192555194Y-115054342D01*
X192786447Y-114708247D01*
X192867652Y-114300000D01*
X192786447Y-113891753D01*
X192555194Y-113545658D01*
X192209099Y-113314405D01*
X191800852Y-113233200D01*
X190723148Y-113233200D01*
X190314901Y-113314405D01*
X189968806Y-113545658D01*
X189804206Y-113792000D01*
X189661800Y-113792000D01*
X189499650Y-113824254D01*
X189467396Y-113830669D01*
X189302589Y-113940790D01*
X179714212Y-123529168D01*
X179781676Y-123190000D01*
X179700471Y-122781753D01*
X179469218Y-122435658D01*
X179123123Y-122204405D01*
X178714876Y-122123200D01*
X178155124Y-122123200D01*
X177746877Y-122204405D01*
X177400782Y-122435658D01*
X177169529Y-122781753D01*
X177088324Y-123190000D01*
X177169529Y-123598247D01*
X177287097Y-123774200D01*
X164342903Y-123774200D01*
X164460471Y-123598247D01*
X164541676Y-123190000D01*
X164460471Y-122781753D01*
X164229218Y-122435658D01*
X163883123Y-122204405D01*
X163819475Y-122191745D01*
X171076220Y-114935000D01*
X176802434Y-114935000D01*
X176802434Y-117475000D01*
X176830033Y-117613748D01*
X176908627Y-117731373D01*
X177026252Y-117809967D01*
X177165000Y-117837566D01*
X179705000Y-117837566D01*
X179843748Y-117809967D01*
X179961373Y-117731373D01*
X180039967Y-117613748D01*
X180067566Y-117475000D01*
X180067566Y-116205000D01*
X181857553Y-116205000D01*
X181981294Y-116827090D01*
X182333680Y-117354473D01*
X182861063Y-117706859D01*
X183483153Y-117830600D01*
X183546847Y-117830600D01*
X184168937Y-117706859D01*
X184696320Y-117354473D01*
X185048706Y-116827090D01*
X185172447Y-116205000D01*
X185048706Y-115582910D01*
X184696320Y-115055527D01*
X184168937Y-114703141D01*
X183546847Y-114579400D01*
X183483153Y-114579400D01*
X182861063Y-114703141D01*
X182333680Y-115055527D01*
X181981294Y-115582910D01*
X181857553Y-116205000D01*
X180067566Y-116205000D01*
X180067566Y-114935000D01*
X180039967Y-114796252D01*
X179961373Y-114678627D01*
X179843748Y-114600033D01*
X179705000Y-114572434D01*
X177165000Y-114572434D01*
X177026252Y-114600033D01*
X176908627Y-114678627D01*
X176830033Y-114796252D01*
X176802434Y-114935000D01*
X171076220Y-114935000D01*
X174251220Y-111760000D01*
X189656348Y-111760000D01*
X189737553Y-112168247D01*
X189968806Y-112514342D01*
X190314901Y-112745595D01*
X190723148Y-112826800D01*
X191800852Y-112826800D01*
X192209099Y-112745595D01*
X192555194Y-112514342D01*
X192786447Y-112168247D01*
X192867652Y-111760000D01*
X193212348Y-111760000D01*
X193293553Y-112168247D01*
X193524806Y-112514342D01*
X193870901Y-112745595D01*
X194279148Y-112826800D01*
X195356852Y-112826800D01*
X195765099Y-112745595D01*
X196111194Y-112514342D01*
X196342447Y-112168247D01*
X196423652Y-111760000D01*
X196342447Y-111351753D01*
X196111194Y-111005658D01*
X195765099Y-110774405D01*
X195356852Y-110693200D01*
X194279148Y-110693200D01*
X193870901Y-110774405D01*
X193524806Y-111005658D01*
X193293553Y-111351753D01*
X193212348Y-111760000D01*
X192867652Y-111760000D01*
X192786447Y-111351753D01*
X192555194Y-111005658D01*
X192209099Y-110774405D01*
X191800852Y-110693200D01*
X190723148Y-110693200D01*
X190314901Y-110774405D01*
X189968806Y-111005658D01*
X189737553Y-111351753D01*
X189656348Y-111760000D01*
X174251220Y-111760000D01*
X176283221Y-109728000D01*
X189804206Y-109728000D01*
X189968806Y-109974342D01*
X190314901Y-110205595D01*
X190723148Y-110286800D01*
X191800852Y-110286800D01*
X192209099Y-110205595D01*
X192555194Y-109974342D01*
X192786447Y-109628247D01*
X192867652Y-109220000D01*
X193212348Y-109220000D01*
X193293553Y-109628247D01*
X193524806Y-109974342D01*
X193870901Y-110205595D01*
X194279148Y-110286800D01*
X195356852Y-110286800D01*
X195765099Y-110205595D01*
X196111194Y-109974342D01*
X196342447Y-109628247D01*
X196423652Y-109220000D01*
X196342447Y-108811753D01*
X196111194Y-108465658D01*
X195765099Y-108234405D01*
X195356852Y-108153200D01*
X194279148Y-108153200D01*
X193870901Y-108234405D01*
X193524806Y-108465658D01*
X193293553Y-108811753D01*
X193212348Y-109220000D01*
X192867652Y-109220000D01*
X192786447Y-108811753D01*
X192555194Y-108465658D01*
X192370632Y-108342337D01*
X192420210Y-108309210D01*
X193432790Y-107296630D01*
X193524806Y-107434342D01*
X193870901Y-107665595D01*
X194279148Y-107746800D01*
X195356852Y-107746800D01*
X195765099Y-107665595D01*
X196111194Y-107434342D01*
X196342447Y-107088247D01*
X196423652Y-106680000D01*
X196342447Y-106271753D01*
X196111194Y-105925658D01*
X195765099Y-105694405D01*
X195356852Y-105613200D01*
X194279148Y-105613200D01*
X193870901Y-105694405D01*
X193524806Y-105925658D01*
X193360206Y-106172000D01*
X193217800Y-106172000D01*
X193023397Y-106210669D01*
X192858590Y-106320790D01*
X192810513Y-106392742D01*
X192786447Y-106271753D01*
X192555194Y-105925658D01*
X192209099Y-105694405D01*
X191800852Y-105613200D01*
X190723148Y-105613200D01*
X190314901Y-105694405D01*
X189968806Y-105925658D01*
X189804206Y-106172000D01*
X156732800Y-106172000D01*
X156538397Y-106210669D01*
X156373590Y-106320790D01*
X138988660Y-123705720D01*
X139060471Y-123598247D01*
X139141676Y-123190000D01*
X139060471Y-122781753D01*
X138829218Y-122435658D01*
X138483123Y-122204405D01*
X138303000Y-122168576D01*
X138303000Y-122097800D01*
X138264331Y-121903397D01*
X138264331Y-121903396D01*
X138154210Y-121738590D01*
X136556000Y-120140380D01*
X136556000Y-117837566D01*
X139065000Y-117837566D01*
X139203748Y-117809967D01*
X139321373Y-117731373D01*
X139399967Y-117613748D01*
X139427566Y-117475000D01*
X139427566Y-116205000D01*
X141217553Y-116205000D01*
X141341294Y-116827090D01*
X141693680Y-117354473D01*
X142221063Y-117706859D01*
X142843153Y-117830600D01*
X142906847Y-117830600D01*
X143528937Y-117706859D01*
X144056320Y-117354473D01*
X144408706Y-116827090D01*
X144532447Y-116205000D01*
X144408706Y-115582910D01*
X144056320Y-115055527D01*
X143528937Y-114703141D01*
X142906847Y-114579400D01*
X142843153Y-114579400D01*
X142221063Y-114703141D01*
X141693680Y-115055527D01*
X141341294Y-115582910D01*
X141217553Y-116205000D01*
X139427566Y-116205000D01*
X139427566Y-114935000D01*
X139399967Y-114796252D01*
X139321373Y-114678627D01*
X139203748Y-114600033D01*
X139065000Y-114572434D01*
X136556000Y-114572434D01*
X136556000Y-104649620D01*
X138154210Y-103051410D01*
X138264331Y-102886604D01*
X138303000Y-102692200D01*
X138303000Y-102621424D01*
X138483123Y-102585595D01*
X138829218Y-102354342D01*
X139060471Y-102008247D01*
X139141676Y-101600000D01*
X139060471Y-101191753D01*
X138829218Y-100845658D01*
X138483123Y-100614405D01*
X138074876Y-100533200D01*
X137515124Y-100533200D01*
X137106877Y-100614405D01*
X136760782Y-100845658D01*
X136529529Y-101191753D01*
X136448324Y-101600000D01*
X136529529Y-102008247D01*
X136760782Y-102354342D01*
X137106877Y-102585595D01*
X137170525Y-102598255D01*
X135837580Y-103931200D01*
X119432420Y-103931200D01*
X118099475Y-102598255D01*
X118163123Y-102585595D01*
X118509218Y-102354342D01*
X118740471Y-102008247D01*
X118821676Y-101600000D01*
X121208324Y-101600000D01*
X121289529Y-102008247D01*
X121520782Y-102354342D01*
X121866877Y-102585595D01*
X122275124Y-102666800D01*
X122834876Y-102666800D01*
X123243123Y-102585595D01*
X123589218Y-102354342D01*
X123820471Y-102008247D01*
X123901676Y-101600000D01*
X123820471Y-101191753D01*
X123589218Y-100845658D01*
X123243123Y-100614405D01*
X123179475Y-100601745D01*
X123782021Y-99999200D01*
X142665180Y-99999200D01*
X142515790Y-100148590D01*
X142405669Y-100313397D01*
X142367000Y-100507800D01*
X142367000Y-100578576D01*
X142186877Y-100614405D01*
X141840782Y-100845658D01*
X141609529Y-101191753D01*
X141528324Y-101600000D01*
X141609529Y-102008247D01*
X141840782Y-102354342D01*
X142186877Y-102585595D01*
X142595124Y-102666800D01*
X143154876Y-102666800D01*
X143563123Y-102585595D01*
X143909218Y-102354342D01*
X144140471Y-102008247D01*
X144221676Y-101600000D01*
X144140471Y-101191753D01*
X143909218Y-100845658D01*
X143563123Y-100614405D01*
X143499475Y-100601745D01*
X143593720Y-100507500D01*
X162687060Y-100507500D01*
X162687000Y-100507800D01*
X162687000Y-100578576D01*
X162506877Y-100614405D01*
X162160782Y-100845658D01*
X161929529Y-101191753D01*
X161848324Y-101600000D01*
X161929529Y-102008247D01*
X162047097Y-102184200D01*
X159262903Y-102184200D01*
X159380471Y-102008247D01*
X159461676Y-101600000D01*
X159380471Y-101191753D01*
X159149218Y-100845658D01*
X158803123Y-100614405D01*
X158394876Y-100533200D01*
X157835124Y-100533200D01*
X157426877Y-100614405D01*
X157080782Y-100845658D01*
X156849529Y-101191753D01*
X156768324Y-101600000D01*
X156849529Y-102008247D01*
X157080782Y-102354342D01*
X157426877Y-102585595D01*
X157607000Y-102621424D01*
X157607000Y-102692200D01*
X157645669Y-102886603D01*
X157755790Y-103051410D01*
X157920597Y-103161531D01*
X158115000Y-103200200D01*
X178435000Y-103200200D01*
X178629403Y-103161531D01*
X178794210Y-103051410D01*
X178904331Y-102886603D01*
X178943000Y-102692200D01*
X178943000Y-102621424D01*
X179123123Y-102585595D01*
X179469218Y-102354342D01*
X179700471Y-102008247D01*
X179781676Y-101600000D01*
X179768664Y-101534584D01*
X182733290Y-104499211D01*
X182898097Y-104609331D01*
X183092500Y-104648000D01*
X189804206Y-104648000D01*
X189968806Y-104894342D01*
X190314901Y-105125595D01*
X190723148Y-105206800D01*
X191800852Y-105206800D01*
X192209099Y-105125595D01*
X192555194Y-104894342D01*
X192786447Y-104548247D01*
X192867652Y-104140000D01*
X193212348Y-104140000D01*
X193293553Y-104548247D01*
X193524806Y-104894342D01*
X193870901Y-105125595D01*
X194279148Y-105206800D01*
X195356852Y-105206800D01*
X195765099Y-105125595D01*
X196111194Y-104894342D01*
X196342447Y-104548247D01*
X196423652Y-104140000D01*
X196342447Y-103731753D01*
X196111194Y-103385658D01*
X195765099Y-103154405D01*
X195356852Y-103073200D01*
X194279148Y-103073200D01*
X193870901Y-103154405D01*
X193524806Y-103385658D01*
X193293553Y-103731753D01*
X193212348Y-104140000D01*
X192867652Y-104140000D01*
X192786447Y-103731753D01*
X192555194Y-103385658D01*
X192274049Y-103197803D01*
X192456903Y-103161431D01*
X192621710Y-103051310D01*
X193442243Y-102230777D01*
X193524806Y-102354342D01*
X193870901Y-102585595D01*
X194279148Y-102666800D01*
X195356852Y-102666800D01*
X195765099Y-102585595D01*
X196111194Y-102354342D01*
X196342447Y-102008247D01*
X196423652Y-101600000D01*
X196342447Y-101191753D01*
X196111194Y-100845658D01*
X195765099Y-100614405D01*
X195356852Y-100533200D01*
X194279148Y-100533200D01*
X193870901Y-100614405D01*
X193524806Y-100845658D01*
X193360206Y-101092000D01*
X193217800Y-101092000D01*
X193023397Y-101130669D01*
X192858590Y-101240790D01*
X192810513Y-101312742D01*
X192786447Y-101191753D01*
X192555194Y-100845658D01*
X192209099Y-100614405D01*
X191800852Y-100533200D01*
X190723148Y-100533200D01*
X190314901Y-100614405D01*
X189968806Y-100845658D01*
X189831449Y-101051228D01*
X187912210Y-99131990D01*
X187804470Y-99060000D01*
X189656348Y-99060000D01*
X189737553Y-99468247D01*
X189968806Y-99814342D01*
X190314901Y-100045595D01*
X190723148Y-100126800D01*
X191800852Y-100126800D01*
X192209099Y-100045595D01*
X192555194Y-99814342D01*
X192786447Y-99468247D01*
X192867652Y-99060000D01*
X193212348Y-99060000D01*
X193293553Y-99468247D01*
X193524806Y-99814342D01*
X193870901Y-100045595D01*
X194279148Y-100126800D01*
X195356852Y-100126800D01*
X195765099Y-100045595D01*
X196111194Y-99814342D01*
X196342447Y-99468247D01*
X196423652Y-99060000D01*
X196342447Y-98651753D01*
X196156993Y-98374200D01*
X203550667Y-98374200D01*
X203709211Y-99171253D01*
X204160705Y-99846962D01*
X204836414Y-100298456D01*
X205633467Y-100457000D01*
X207268933Y-100457000D01*
X208065986Y-100298456D01*
X208741695Y-99846962D01*
X209193189Y-99171253D01*
X209351733Y-98374200D01*
X209193189Y-97577147D01*
X208741695Y-96901438D01*
X208065986Y-96449944D01*
X207268933Y-96291400D01*
X205633467Y-96291400D01*
X204836414Y-96449944D01*
X204160705Y-96901438D01*
X203709211Y-97577147D01*
X203550667Y-98374200D01*
X196156993Y-98374200D01*
X196111194Y-98305658D01*
X195765099Y-98074405D01*
X195356852Y-97993200D01*
X194279148Y-97993200D01*
X193870901Y-98074405D01*
X193524806Y-98305658D01*
X193293553Y-98651753D01*
X193212348Y-99060000D01*
X192867652Y-99060000D01*
X192786447Y-98651753D01*
X192555194Y-98305658D01*
X192209099Y-98074405D01*
X191800852Y-97993200D01*
X190723148Y-97993200D01*
X190314901Y-98074405D01*
X189968806Y-98305658D01*
X189737553Y-98651753D01*
X189656348Y-99060000D01*
X187804470Y-99060000D01*
X187747403Y-99021869D01*
X187553000Y-98983200D01*
X123571600Y-98983200D01*
X123377197Y-99021869D01*
X123212390Y-99131989D01*
X122195790Y-100148590D01*
X122085669Y-100313397D01*
X122047000Y-100507800D01*
X122047000Y-100578576D01*
X121866877Y-100614405D01*
X121520782Y-100845658D01*
X121289529Y-101191753D01*
X121208324Y-101600000D01*
X118821676Y-101600000D01*
X118740471Y-101191753D01*
X118509218Y-100845658D01*
X118163123Y-100614405D01*
X117754876Y-100533200D01*
X117195124Y-100533200D01*
X116786877Y-100614405D01*
X116440782Y-100845658D01*
X116209529Y-101191753D01*
X116128324Y-101600000D01*
X116209529Y-102008247D01*
X116440782Y-102354342D01*
X116786877Y-102585595D01*
X116967000Y-102621424D01*
X116967000Y-102692200D01*
X117005669Y-102886603D01*
X117115790Y-103051410D01*
X118714000Y-104649620D01*
X118714000Y-114572434D01*
X116205000Y-114572434D01*
X116066252Y-114600033D01*
X115948627Y-114678627D01*
X115870033Y-114796252D01*
X115842434Y-114935000D01*
X115842434Y-117475000D01*
X115870033Y-117613748D01*
X115948627Y-117731373D01*
X116066252Y-117809967D01*
X116205000Y-117837566D01*
X118714000Y-117837566D01*
X118714000Y-120140380D01*
X117115790Y-121738590D01*
X117005669Y-121903397D01*
X116967000Y-122097800D01*
X116967000Y-122168576D01*
X116786877Y-122204405D01*
X116440782Y-122435658D01*
X116255400Y-122713102D01*
X116255400Y-120167000D01*
X116216731Y-119972597D01*
X116216731Y-119972596D01*
X116106610Y-119807790D01*
X105918000Y-109619180D01*
X105918000Y-106033096D01*
X106573837Y-106033096D01*
X106722637Y-106550970D01*
X107058292Y-106972480D01*
X107529701Y-107233454D01*
X107586239Y-107240484D01*
X107797600Y-107127637D01*
X107797600Y-105816400D01*
X108102400Y-105816400D01*
X108102400Y-107127637D01*
X108313761Y-107240484D01*
X108370299Y-107233454D01*
X108841708Y-106972480D01*
X109177363Y-106550970D01*
X109326163Y-106033096D01*
X109174825Y-105816400D01*
X108102400Y-105816400D01*
X107797600Y-105816400D01*
X106725175Y-105816400D01*
X106573837Y-106033096D01*
X105918000Y-106033096D01*
X105918000Y-103806232D01*
X106190218Y-103624342D01*
X106421471Y-103278247D01*
X106502676Y-102870000D01*
X106421471Y-102461753D01*
X106190218Y-102115658D01*
X105844123Y-101884405D01*
X105435876Y-101803200D01*
X104876124Y-101803200D01*
X104467877Y-101884405D01*
X104121782Y-102115658D01*
X103890529Y-102461753D01*
X103809324Y-102870000D01*
X103890529Y-103278247D01*
X104121782Y-103624342D01*
X104467877Y-103855595D01*
X104876124Y-103936800D01*
X104902000Y-103936800D01*
X104902000Y-109829600D01*
X104940669Y-110024003D01*
X105050790Y-110188810D01*
X106281594Y-111419614D01*
X106045000Y-111372553D01*
X105617313Y-111457625D01*
X105254737Y-111699890D01*
X105012472Y-112062466D01*
X104927400Y-112490153D01*
X104927400Y-113569847D01*
X105012472Y-113997534D01*
X105181400Y-114250353D01*
X105181400Y-115062300D01*
X105241969Y-115366800D01*
X105247138Y-115392785D01*
X105434343Y-115672957D01*
X119771285Y-130009900D01*
X93764100Y-130009900D01*
X93764100Y-127412477D01*
X109676840Y-127412477D01*
X109993259Y-128178270D01*
X110578648Y-128764682D01*
X111343888Y-129082437D01*
X112172477Y-129083160D01*
X112938270Y-128766741D01*
X113524682Y-128181352D01*
X113842437Y-127416112D01*
X113843160Y-126587523D01*
X113526741Y-125821730D01*
X112941352Y-125235318D01*
X112176112Y-124917563D01*
X111347523Y-124916840D01*
X110581730Y-125233259D01*
X109995318Y-125818648D01*
X109677563Y-126583888D01*
X109676840Y-127412477D01*
X93764100Y-127412477D01*
X93764100Y-112490153D01*
X99847400Y-112490153D01*
X99847400Y-113569847D01*
X99932472Y-113997534D01*
X100174737Y-114360110D01*
X100537313Y-114602375D01*
X100965000Y-114687447D01*
X101392687Y-114602375D01*
X101755263Y-114360110D01*
X101997528Y-113997534D01*
X102082600Y-113569847D01*
X102082600Y-113182400D01*
X102133400Y-113182400D01*
X102133400Y-113690400D01*
X102296128Y-114203688D01*
X102642896Y-114615631D01*
X103141239Y-114860484D01*
X103352600Y-114747637D01*
X103352600Y-113182400D01*
X103657400Y-113182400D01*
X103657400Y-114747637D01*
X103868761Y-114860484D01*
X104367104Y-114615631D01*
X104713872Y-114203688D01*
X104876600Y-113690400D01*
X104876600Y-113182400D01*
X103657400Y-113182400D01*
X103352600Y-113182400D01*
X102133400Y-113182400D01*
X102082600Y-113182400D01*
X102082600Y-112490153D01*
X102058621Y-112369600D01*
X102133400Y-112369600D01*
X102133400Y-112877600D01*
X103352600Y-112877600D01*
X103352600Y-111312363D01*
X103657400Y-111312363D01*
X103657400Y-112877600D01*
X104876600Y-112877600D01*
X104876600Y-112369600D01*
X104713872Y-111856312D01*
X104367104Y-111444369D01*
X103868761Y-111199516D01*
X103657400Y-111312363D01*
X103352600Y-111312363D01*
X103141239Y-111199516D01*
X102642896Y-111444369D01*
X102296128Y-111856312D01*
X102133400Y-112369600D01*
X102058621Y-112369600D01*
X101997528Y-112062466D01*
X101755263Y-111699890D01*
X101392687Y-111457625D01*
X100965000Y-111372553D01*
X100537313Y-111457625D01*
X100174737Y-111699890D01*
X99932472Y-112062466D01*
X99847400Y-112490153D01*
X93764100Y-112490153D01*
X93764100Y-107950000D01*
X96159467Y-107950000D01*
X96298676Y-108649851D01*
X96695110Y-109243157D01*
X97288416Y-109639591D01*
X97988267Y-109778800D01*
X100131733Y-109778800D01*
X100831584Y-109639591D01*
X101424890Y-109243157D01*
X101821324Y-108649851D01*
X101960533Y-107950000D01*
X101821324Y-107250149D01*
X101424890Y-106656843D01*
X100831584Y-106260409D01*
X100131733Y-106121200D01*
X97988267Y-106121200D01*
X97288416Y-106260409D01*
X96695110Y-106656843D01*
X96298676Y-107250149D01*
X96159467Y-107950000D01*
X93764100Y-107950000D01*
X93764100Y-100445096D01*
X106573837Y-100445096D01*
X106722637Y-100962970D01*
X107058292Y-101384480D01*
X107502796Y-101630559D01*
X107195658Y-101835782D01*
X106964405Y-102181877D01*
X106883200Y-102590124D01*
X106883200Y-103149876D01*
X106964405Y-103558123D01*
X107195658Y-103904218D01*
X107502796Y-104109441D01*
X107058292Y-104355520D01*
X106722637Y-104777030D01*
X106573837Y-105294904D01*
X106725175Y-105511600D01*
X107797600Y-105511600D01*
X107797600Y-105491600D01*
X108102400Y-105491600D01*
X108102400Y-105511600D01*
X109174825Y-105511600D01*
X109326163Y-105294904D01*
X109177363Y-104777030D01*
X108841708Y-104355520D01*
X108397204Y-104109441D01*
X108704342Y-103904218D01*
X108935595Y-103558123D01*
X109016800Y-103149876D01*
X109016800Y-102590124D01*
X108935595Y-102181877D01*
X108704342Y-101835782D01*
X108397204Y-101630559D01*
X108841708Y-101384480D01*
X109177363Y-100962970D01*
X109326163Y-100445096D01*
X109174825Y-100228400D01*
X108102400Y-100228400D01*
X108102400Y-100248400D01*
X107797600Y-100248400D01*
X107797600Y-100228400D01*
X106725175Y-100228400D01*
X106573837Y-100445096D01*
X93764100Y-100445096D01*
X93764100Y-99706904D01*
X106573837Y-99706904D01*
X106725175Y-99923600D01*
X107797600Y-99923600D01*
X107797600Y-98612363D01*
X108102400Y-98612363D01*
X108102400Y-99923600D01*
X109174825Y-99923600D01*
X109326163Y-99706904D01*
X109177363Y-99189030D01*
X108841708Y-98767520D01*
X108370299Y-98506546D01*
X108313761Y-98499516D01*
X108102400Y-98612363D01*
X107797600Y-98612363D01*
X107586239Y-98499516D01*
X107529701Y-98506546D01*
X107058292Y-98767520D01*
X106722637Y-99189030D01*
X106573837Y-99706904D01*
X93764100Y-99706904D01*
X93764100Y-97790000D01*
X96159467Y-97790000D01*
X96298676Y-98489851D01*
X96695110Y-99083157D01*
X97288416Y-99479591D01*
X97988267Y-99618800D01*
X100131733Y-99618800D01*
X100831584Y-99479591D01*
X101424890Y-99083157D01*
X101821324Y-98489851D01*
X101960533Y-97790000D01*
X101821324Y-97090149D01*
X101440363Y-96520000D01*
X189656348Y-96520000D01*
X189737553Y-96928247D01*
X189968806Y-97274342D01*
X190314901Y-97505595D01*
X190723148Y-97586800D01*
X191800852Y-97586800D01*
X192209099Y-97505595D01*
X192555194Y-97274342D01*
X192786447Y-96928247D01*
X192867652Y-96520000D01*
X193212348Y-96520000D01*
X193293553Y-96928247D01*
X193524806Y-97274342D01*
X193870901Y-97505595D01*
X194279148Y-97586800D01*
X195356852Y-97586800D01*
X195765099Y-97505595D01*
X196111194Y-97274342D01*
X196342447Y-96928247D01*
X196423652Y-96520000D01*
X196342447Y-96111753D01*
X196111194Y-95765658D01*
X195765099Y-95534405D01*
X195356852Y-95453200D01*
X194279148Y-95453200D01*
X193870901Y-95534405D01*
X193524806Y-95765658D01*
X193293553Y-96111753D01*
X193212348Y-96520000D01*
X192867652Y-96520000D01*
X192786447Y-96111753D01*
X192555194Y-95765658D01*
X192209099Y-95534405D01*
X191800852Y-95453200D01*
X190723148Y-95453200D01*
X190314901Y-95534405D01*
X189968806Y-95765658D01*
X189737553Y-96111753D01*
X189656348Y-96520000D01*
X101440363Y-96520000D01*
X101424890Y-96496843D01*
X100831584Y-96100409D01*
X100131733Y-95961200D01*
X97988267Y-95961200D01*
X97288416Y-96100409D01*
X96695110Y-96496843D01*
X96298676Y-97090149D01*
X96159467Y-97790000D01*
X93764100Y-97790000D01*
X93764100Y-93345000D01*
X115842434Y-93345000D01*
X115842434Y-95885000D01*
X115870033Y-96023748D01*
X115948627Y-96141373D01*
X116066252Y-96219967D01*
X116205000Y-96247566D01*
X118745000Y-96247566D01*
X118883748Y-96219967D01*
X119001373Y-96141373D01*
X119079967Y-96023748D01*
X119107566Y-95885000D01*
X119107566Y-94615000D01*
X120897553Y-94615000D01*
X121021294Y-95237090D01*
X121373680Y-95764473D01*
X121901063Y-96116859D01*
X122523153Y-96240600D01*
X122586847Y-96240600D01*
X123208937Y-96116859D01*
X123736320Y-95764473D01*
X124088706Y-95237090D01*
X124212447Y-94615000D01*
X124088706Y-93992910D01*
X123736320Y-93465527D01*
X123555939Y-93345000D01*
X136162434Y-93345000D01*
X136162434Y-95885000D01*
X136190033Y-96023748D01*
X136268627Y-96141373D01*
X136386252Y-96219967D01*
X136525000Y-96247566D01*
X139065000Y-96247566D01*
X139203748Y-96219967D01*
X139321373Y-96141373D01*
X139399967Y-96023748D01*
X139427566Y-95885000D01*
X139427566Y-94615000D01*
X141217553Y-94615000D01*
X141341294Y-95237090D01*
X141693680Y-95764473D01*
X142221063Y-96116859D01*
X142843153Y-96240600D01*
X142906847Y-96240600D01*
X143528937Y-96116859D01*
X144056320Y-95764473D01*
X144408706Y-95237090D01*
X144532447Y-94615000D01*
X144408706Y-93992910D01*
X144056320Y-93465527D01*
X143875939Y-93345000D01*
X156482434Y-93345000D01*
X156482434Y-95885000D01*
X156510033Y-96023748D01*
X156588627Y-96141373D01*
X156706252Y-96219967D01*
X156845000Y-96247566D01*
X159385000Y-96247566D01*
X159523748Y-96219967D01*
X159641373Y-96141373D01*
X159719967Y-96023748D01*
X159747566Y-95885000D01*
X159747566Y-94615000D01*
X161537553Y-94615000D01*
X161661294Y-95237090D01*
X162013680Y-95764473D01*
X162541063Y-96116859D01*
X163163153Y-96240600D01*
X163226847Y-96240600D01*
X163848937Y-96116859D01*
X164376320Y-95764473D01*
X164728706Y-95237090D01*
X164852447Y-94615000D01*
X164728706Y-93992910D01*
X164376320Y-93465527D01*
X164195939Y-93345000D01*
X176802434Y-93345000D01*
X176802434Y-95885000D01*
X176830033Y-96023748D01*
X176908627Y-96141373D01*
X177026252Y-96219967D01*
X177165000Y-96247566D01*
X179705000Y-96247566D01*
X179843748Y-96219967D01*
X179961373Y-96141373D01*
X180039967Y-96023748D01*
X180067566Y-95885000D01*
X180067566Y-94615000D01*
X181857553Y-94615000D01*
X181981294Y-95237090D01*
X182333680Y-95764473D01*
X182861063Y-96116859D01*
X183483153Y-96240600D01*
X183546847Y-96240600D01*
X184168937Y-96116859D01*
X184696320Y-95764473D01*
X185048706Y-95237090D01*
X185172447Y-94615000D01*
X185048706Y-93992910D01*
X185040080Y-93980000D01*
X189656348Y-93980000D01*
X189737553Y-94388247D01*
X189968806Y-94734342D01*
X190314901Y-94965595D01*
X190723148Y-95046800D01*
X191800852Y-95046800D01*
X192209099Y-94965595D01*
X192555194Y-94734342D01*
X192786447Y-94388247D01*
X192867652Y-93980000D01*
X193212348Y-93980000D01*
X193293553Y-94388247D01*
X193524806Y-94734342D01*
X193870901Y-94965595D01*
X194279148Y-95046800D01*
X195356852Y-95046800D01*
X195765099Y-94965595D01*
X196111194Y-94734342D01*
X196342447Y-94388247D01*
X196423652Y-93980000D01*
X197991529Y-93980000D01*
X198076601Y-94407687D01*
X198318866Y-94770263D01*
X198681442Y-95012528D01*
X199109129Y-95097600D01*
X199670871Y-95097600D01*
X200098558Y-95012528D01*
X200461134Y-94770263D01*
X200703399Y-94407687D01*
X200788471Y-93980000D01*
X203123324Y-93980000D01*
X203204529Y-94388247D01*
X203435782Y-94734342D01*
X203781877Y-94965595D01*
X204190124Y-95046800D01*
X204749876Y-95046800D01*
X205158123Y-94965595D01*
X205504218Y-94734342D01*
X205735471Y-94388247D01*
X205816676Y-93980000D01*
X205735471Y-93571753D01*
X205504218Y-93225658D01*
X205158123Y-92994405D01*
X204749876Y-92913200D01*
X204190124Y-92913200D01*
X203781877Y-92994405D01*
X203435782Y-93225658D01*
X203204529Y-93571753D01*
X203123324Y-93980000D01*
X200788471Y-93980000D01*
X200703399Y-93552313D01*
X200461134Y-93189737D01*
X200098558Y-92947472D01*
X199670871Y-92862400D01*
X199109129Y-92862400D01*
X198681442Y-92947472D01*
X198318866Y-93189737D01*
X198076601Y-93552313D01*
X197991529Y-93980000D01*
X196423652Y-93980000D01*
X196342447Y-93571753D01*
X196111194Y-93225658D01*
X195765099Y-92994405D01*
X195356852Y-92913200D01*
X194279148Y-92913200D01*
X193870901Y-92994405D01*
X193524806Y-93225658D01*
X193293553Y-93571753D01*
X193212348Y-93980000D01*
X192867652Y-93980000D01*
X192786447Y-93571753D01*
X192555194Y-93225658D01*
X192209099Y-92994405D01*
X191800852Y-92913200D01*
X190723148Y-92913200D01*
X190314901Y-92994405D01*
X189968806Y-93225658D01*
X189737553Y-93571753D01*
X189656348Y-93980000D01*
X185040080Y-93980000D01*
X184696320Y-93465527D01*
X184168937Y-93113141D01*
X183546847Y-92989400D01*
X183483153Y-92989400D01*
X182861063Y-93113141D01*
X182333680Y-93465527D01*
X181981294Y-93992910D01*
X181857553Y-94615000D01*
X180067566Y-94615000D01*
X180067566Y-93345000D01*
X180039967Y-93206252D01*
X179961373Y-93088627D01*
X179843748Y-93010033D01*
X179705000Y-92982434D01*
X177165000Y-92982434D01*
X177026252Y-93010033D01*
X176908627Y-93088627D01*
X176830033Y-93206252D01*
X176802434Y-93345000D01*
X164195939Y-93345000D01*
X163848937Y-93113141D01*
X163226847Y-92989400D01*
X163163153Y-92989400D01*
X162541063Y-93113141D01*
X162013680Y-93465527D01*
X161661294Y-93992910D01*
X161537553Y-94615000D01*
X159747566Y-94615000D01*
X159747566Y-93345000D01*
X159719967Y-93206252D01*
X159641373Y-93088627D01*
X159523748Y-93010033D01*
X159385000Y-92982434D01*
X156845000Y-92982434D01*
X156706252Y-93010033D01*
X156588627Y-93088627D01*
X156510033Y-93206252D01*
X156482434Y-93345000D01*
X143875939Y-93345000D01*
X143528937Y-93113141D01*
X142906847Y-92989400D01*
X142843153Y-92989400D01*
X142221063Y-93113141D01*
X141693680Y-93465527D01*
X141341294Y-93992910D01*
X141217553Y-94615000D01*
X139427566Y-94615000D01*
X139427566Y-93345000D01*
X139399967Y-93206252D01*
X139321373Y-93088627D01*
X139203748Y-93010033D01*
X139065000Y-92982434D01*
X136525000Y-92982434D01*
X136386252Y-93010033D01*
X136268627Y-93088627D01*
X136190033Y-93206252D01*
X136162434Y-93345000D01*
X123555939Y-93345000D01*
X123208937Y-93113141D01*
X122586847Y-92989400D01*
X122523153Y-92989400D01*
X121901063Y-93113141D01*
X121373680Y-93465527D01*
X121021294Y-93992910D01*
X120897553Y-94615000D01*
X119107566Y-94615000D01*
X119107566Y-93345000D01*
X119079967Y-93206252D01*
X119001373Y-93088627D01*
X118883748Y-93010033D01*
X118745000Y-92982434D01*
X116205000Y-92982434D01*
X116066252Y-93010033D01*
X115948627Y-93088627D01*
X115870033Y-93206252D01*
X115842434Y-93345000D01*
X93764100Y-93345000D01*
X93764100Y-92919171D01*
X98552000Y-92919171D01*
X98670927Y-92895515D01*
X98771748Y-92828148D01*
X98839115Y-92727327D01*
X98862771Y-92608400D01*
X98862771Y-91440000D01*
X189656348Y-91440000D01*
X189737553Y-91848247D01*
X189968806Y-92194342D01*
X190314901Y-92425595D01*
X190723148Y-92506800D01*
X191800852Y-92506800D01*
X192209099Y-92425595D01*
X192555194Y-92194342D01*
X192786447Y-91848247D01*
X192867652Y-91440000D01*
X193212348Y-91440000D01*
X193293553Y-91848247D01*
X193524806Y-92194342D01*
X193870901Y-92425595D01*
X194279148Y-92506800D01*
X195356852Y-92506800D01*
X195765099Y-92425595D01*
X196111194Y-92194342D01*
X196342447Y-91848247D01*
X196423652Y-91440000D01*
X196342447Y-91031753D01*
X196111194Y-90685658D01*
X195765099Y-90454405D01*
X195356852Y-90373200D01*
X194279148Y-90373200D01*
X193870901Y-90454405D01*
X193524806Y-90685658D01*
X193293553Y-91031753D01*
X193212348Y-91440000D01*
X192867652Y-91440000D01*
X192786447Y-91031753D01*
X192555194Y-90685658D01*
X192209099Y-90454405D01*
X191800852Y-90373200D01*
X190723148Y-90373200D01*
X190314901Y-90454405D01*
X189968806Y-90685658D01*
X189737553Y-91031753D01*
X189656348Y-91440000D01*
X98862771Y-91440000D01*
X98862771Y-90756437D01*
X99125934Y-91020061D01*
X99494556Y-91173126D01*
X99893693Y-91173474D01*
X100262581Y-91021052D01*
X100545061Y-90739066D01*
X100698126Y-90370444D01*
X100698474Y-89971307D01*
X100546052Y-89602419D01*
X100264066Y-89319939D01*
X99895444Y-89166874D01*
X99496307Y-89166526D01*
X99127419Y-89318948D01*
X98844939Y-89600934D01*
X98818496Y-89664615D01*
X98771748Y-89594652D01*
X98670927Y-89527285D01*
X98552000Y-89503629D01*
X93764100Y-89503629D01*
X93764100Y-84187400D01*
X99936300Y-84187400D01*
X99936300Y-87757000D01*
X99974969Y-87951403D01*
X100085090Y-88116210D01*
X100249897Y-88226331D01*
X100444300Y-88265000D01*
X100463729Y-88265000D01*
X100463729Y-88646000D01*
X100487385Y-88764927D01*
X100554752Y-88865748D01*
X100655573Y-88933115D01*
X100774500Y-88956771D01*
X104965500Y-88956771D01*
X105084427Y-88933115D01*
X105185248Y-88865748D01*
X105252615Y-88764927D01*
X105276271Y-88646000D01*
X105276271Y-86868000D01*
X105252615Y-86749073D01*
X105199144Y-86669048D01*
X105310811Y-86622794D01*
X105482294Y-86451311D01*
X105575100Y-86227257D01*
X105575100Y-85521800D01*
X105422700Y-85369400D01*
X103022400Y-85369400D01*
X103022400Y-85389400D01*
X102717600Y-85389400D01*
X102717600Y-85369400D01*
X102697600Y-85369400D01*
X102697600Y-85064600D01*
X102717600Y-85064600D01*
X102717600Y-85044600D01*
X103022400Y-85044600D01*
X103022400Y-85064600D01*
X105422700Y-85064600D01*
X105575100Y-84912200D01*
X105575100Y-84530800D01*
X157607400Y-84530800D01*
X157801803Y-84492131D01*
X157966610Y-84382010D01*
X161649210Y-80699410D01*
X161759331Y-80534603D01*
X161798000Y-80340200D01*
X161798000Y-80197794D01*
X162044342Y-80033194D01*
X162275595Y-79687099D01*
X162356800Y-79278852D01*
X162356800Y-78201148D01*
X165303200Y-78201148D01*
X165303200Y-79278852D01*
X165384405Y-79687099D01*
X165615658Y-80033194D01*
X165961753Y-80264447D01*
X166370000Y-80345652D01*
X166778247Y-80264447D01*
X167124342Y-80033194D01*
X167355595Y-79687099D01*
X167436800Y-79278852D01*
X167436800Y-78201148D01*
X167843200Y-78201148D01*
X167843200Y-79278852D01*
X167924405Y-79687099D01*
X168155658Y-80033194D01*
X168501753Y-80264447D01*
X168910000Y-80345652D01*
X169318247Y-80264447D01*
X169664342Y-80033194D01*
X169895595Y-79687099D01*
X169976800Y-79278852D01*
X169976800Y-78201148D01*
X170383200Y-78201148D01*
X170383200Y-79278852D01*
X170464405Y-79687099D01*
X170695658Y-80033194D01*
X170942000Y-80197794D01*
X170942000Y-80340200D01*
X170980669Y-80534603D01*
X171090790Y-80699410D01*
X178380590Y-87989210D01*
X178545397Y-88099331D01*
X178739800Y-88138000D01*
X189980267Y-88138000D01*
X189968806Y-88145658D01*
X189737553Y-88491753D01*
X189656348Y-88900000D01*
X189737553Y-89308247D01*
X189968806Y-89654342D01*
X190314901Y-89885595D01*
X190723148Y-89966800D01*
X191800852Y-89966800D01*
X192209099Y-89885595D01*
X192555194Y-89654342D01*
X192786447Y-89308247D01*
X192867652Y-88900000D01*
X192786447Y-88491753D01*
X192555194Y-88145658D01*
X192543733Y-88138000D01*
X193536267Y-88138000D01*
X193524806Y-88145658D01*
X193293553Y-88491753D01*
X193212348Y-88900000D01*
X193293553Y-89308247D01*
X193524806Y-89654342D01*
X193870901Y-89885595D01*
X194279148Y-89966800D01*
X195356852Y-89966800D01*
X195765099Y-89885595D01*
X196111194Y-89654342D01*
X196342447Y-89308247D01*
X196423652Y-88900000D01*
X196342447Y-88491753D01*
X196111194Y-88145658D01*
X196099733Y-88138000D01*
X199777729Y-88138000D01*
X199777729Y-88519000D01*
X199801385Y-88637927D01*
X199868752Y-88738748D01*
X199969573Y-88806115D01*
X200088500Y-88829771D01*
X204279500Y-88829771D01*
X204398427Y-88806115D01*
X204499248Y-88738748D01*
X204566615Y-88637927D01*
X204590271Y-88519000D01*
X204590271Y-86741000D01*
X204566615Y-86622073D01*
X204513144Y-86542048D01*
X204624811Y-86495794D01*
X204796294Y-86324311D01*
X204889100Y-86100257D01*
X204889100Y-85394800D01*
X204736700Y-85242400D01*
X202336400Y-85242400D01*
X202336400Y-85262400D01*
X202031600Y-85262400D01*
X202031600Y-85242400D01*
X199631300Y-85242400D01*
X199478900Y-85394800D01*
X199478900Y-86100257D01*
X199571706Y-86324311D01*
X199743189Y-86495794D01*
X199854856Y-86542048D01*
X199801385Y-86622073D01*
X199777729Y-86741000D01*
X199777729Y-87122000D01*
X196099733Y-87122000D01*
X196111194Y-87114342D01*
X196342447Y-86768247D01*
X196423652Y-86360000D01*
X196342447Y-85951753D01*
X196111194Y-85605658D01*
X195765099Y-85374405D01*
X195356852Y-85293200D01*
X194279148Y-85293200D01*
X193870901Y-85374405D01*
X193524806Y-85605658D01*
X193293553Y-85951753D01*
X193212348Y-86360000D01*
X193293553Y-86768247D01*
X193524806Y-87114342D01*
X193536267Y-87122000D01*
X192543733Y-87122000D01*
X192555194Y-87114342D01*
X192786447Y-86768247D01*
X192867652Y-86360000D01*
X192786447Y-85951753D01*
X192555194Y-85605658D01*
X192209099Y-85374405D01*
X191800852Y-85293200D01*
X190723148Y-85293200D01*
X190314901Y-85374405D01*
X189968806Y-85605658D01*
X189737553Y-85951753D01*
X189656348Y-86360000D01*
X189737553Y-86768247D01*
X189968806Y-87114342D01*
X189980267Y-87122000D01*
X178950220Y-87122000D01*
X171998772Y-80170552D01*
X172204342Y-80033194D01*
X172435595Y-79687099D01*
X172516800Y-79278852D01*
X172516800Y-78201148D01*
X172923200Y-78201148D01*
X172923200Y-79278852D01*
X173004405Y-79687099D01*
X173235658Y-80033194D01*
X173482000Y-80197794D01*
X173482000Y-80340200D01*
X173520669Y-80534603D01*
X173630790Y-80699410D01*
X175644090Y-82712710D01*
X175808896Y-82822831D01*
X176003300Y-82861500D01*
X190274350Y-82861500D01*
X189968806Y-83065658D01*
X189737553Y-83411753D01*
X189656348Y-83820000D01*
X189737553Y-84228247D01*
X189968806Y-84574342D01*
X190314901Y-84805595D01*
X190723148Y-84886800D01*
X191800852Y-84886800D01*
X192209099Y-84805595D01*
X192555194Y-84574342D01*
X192786447Y-84228247D01*
X192867652Y-83820000D01*
X192786447Y-83411753D01*
X192555194Y-83065658D01*
X192249650Y-82861500D01*
X193830350Y-82861500D01*
X193524806Y-83065658D01*
X193293553Y-83411753D01*
X193212348Y-83820000D01*
X193293553Y-84228247D01*
X193524806Y-84574342D01*
X193870901Y-84805595D01*
X194279148Y-84886800D01*
X195356852Y-84886800D01*
X195765099Y-84805595D01*
X196111194Y-84574342D01*
X196342447Y-84228247D01*
X196423652Y-83820000D01*
X196342447Y-83411753D01*
X196111194Y-83065658D01*
X195805650Y-82861500D01*
X197872000Y-82861500D01*
X197878761Y-82860155D01*
X197878526Y-83129693D01*
X198030948Y-83498581D01*
X198312934Y-83781061D01*
X198681556Y-83934126D01*
X199080693Y-83934474D01*
X199449581Y-83782052D01*
X199732061Y-83500066D01*
X199777729Y-83390085D01*
X199777729Y-83439000D01*
X199801385Y-83557927D01*
X199854856Y-83637952D01*
X199743189Y-83684206D01*
X199571706Y-83855689D01*
X199478900Y-84079743D01*
X199478900Y-84785200D01*
X199631300Y-84937600D01*
X202031600Y-84937600D01*
X202031600Y-84917600D01*
X202336400Y-84917600D01*
X202336400Y-84937600D01*
X204736700Y-84937600D01*
X204889100Y-84785200D01*
X204889100Y-84079743D01*
X204796294Y-83855689D01*
X204624811Y-83684206D01*
X204513144Y-83637952D01*
X204566615Y-83557927D01*
X204590271Y-83439000D01*
X204590271Y-83129693D01*
X207784526Y-83129693D01*
X207936948Y-83498581D01*
X208218934Y-83781061D01*
X208587556Y-83934126D01*
X208986693Y-83934474D01*
X209355581Y-83782052D01*
X209638061Y-83500066D01*
X209791126Y-83131444D01*
X209791474Y-82732307D01*
X209639052Y-82363419D01*
X209357066Y-82080939D01*
X208988444Y-81927874D01*
X208589307Y-81927526D01*
X208220419Y-82079948D01*
X207937939Y-82361934D01*
X207784874Y-82730556D01*
X207784526Y-83129693D01*
X204590271Y-83129693D01*
X204590271Y-81661000D01*
X204566615Y-81542073D01*
X204499248Y-81441252D01*
X204398427Y-81373885D01*
X204279500Y-81350229D01*
X200088500Y-81350229D01*
X199969573Y-81373885D01*
X199931238Y-81399500D01*
X198318000Y-81399500D01*
X198155850Y-81431754D01*
X198123596Y-81438169D01*
X197958790Y-81548290D01*
X197661580Y-81845500D01*
X196237374Y-81845500D01*
X196342447Y-81688247D01*
X196423652Y-81280000D01*
X196342447Y-80871753D01*
X196111194Y-80525658D01*
X195765099Y-80294405D01*
X195356852Y-80213200D01*
X194279148Y-80213200D01*
X193870901Y-80294405D01*
X193524806Y-80525658D01*
X193293553Y-80871753D01*
X193212348Y-81280000D01*
X193293553Y-81688247D01*
X193398626Y-81845500D01*
X192681374Y-81845500D01*
X192786447Y-81688247D01*
X192867652Y-81280000D01*
X192786447Y-80871753D01*
X192555194Y-80525658D01*
X192209099Y-80294405D01*
X191800852Y-80213200D01*
X190723148Y-80213200D01*
X190314901Y-80294405D01*
X189968806Y-80525658D01*
X189737553Y-80871753D01*
X189656348Y-81280000D01*
X189737553Y-81688247D01*
X189842626Y-81845500D01*
X176213720Y-81845500D01*
X174538772Y-80170552D01*
X174744342Y-80033194D01*
X174975595Y-79687099D01*
X175056800Y-79278852D01*
X175056800Y-78201148D01*
X175463200Y-78201148D01*
X175463200Y-79278852D01*
X175544405Y-79687099D01*
X175775658Y-80033194D01*
X176121753Y-80264447D01*
X176530000Y-80345652D01*
X176938247Y-80264447D01*
X177284342Y-80033194D01*
X177515595Y-79687099D01*
X177596800Y-79278852D01*
X177596800Y-78201148D01*
X178003200Y-78201148D01*
X178003200Y-79278852D01*
X178084405Y-79687099D01*
X178315658Y-80033194D01*
X178661753Y-80264447D01*
X179070000Y-80345652D01*
X179478247Y-80264447D01*
X179824342Y-80033194D01*
X180055595Y-79687099D01*
X180136800Y-79278852D01*
X180136800Y-78201148D01*
X180543200Y-78201148D01*
X180543200Y-79278852D01*
X180624405Y-79687099D01*
X180855658Y-80033194D01*
X181201753Y-80264447D01*
X181610000Y-80345652D01*
X182018247Y-80264447D01*
X182364342Y-80033194D01*
X182595595Y-79687099D01*
X182676800Y-79278852D01*
X182676800Y-78201148D01*
X183083200Y-78201148D01*
X183083200Y-79278852D01*
X183164405Y-79687099D01*
X183395658Y-80033194D01*
X183741753Y-80264447D01*
X184150000Y-80345652D01*
X184558247Y-80264447D01*
X184904342Y-80033194D01*
X185135595Y-79687099D01*
X185216800Y-79278852D01*
X185216800Y-79152477D01*
X185876840Y-79152477D01*
X186193259Y-79918270D01*
X186778648Y-80504682D01*
X187543888Y-80822437D01*
X188372477Y-80823160D01*
X189138270Y-80506741D01*
X189724682Y-79921352D01*
X190042437Y-79156112D01*
X190043160Y-78327523D01*
X189781042Y-77693148D01*
X190703200Y-77693148D01*
X190703200Y-78770852D01*
X190784405Y-79179099D01*
X191015658Y-79525194D01*
X191361753Y-79756447D01*
X191770000Y-79837652D01*
X192178247Y-79756447D01*
X192524342Y-79525194D01*
X192755595Y-79179099D01*
X192836800Y-78770852D01*
X192836800Y-77693148D01*
X193243200Y-77693148D01*
X193243200Y-78770852D01*
X193324405Y-79179099D01*
X193555658Y-79525194D01*
X193901753Y-79756447D01*
X194310000Y-79837652D01*
X194718247Y-79756447D01*
X195064342Y-79525194D01*
X195295595Y-79179099D01*
X195376800Y-78770852D01*
X195376800Y-77693148D01*
X195295595Y-77284901D01*
X195064342Y-76938806D01*
X194718247Y-76707553D01*
X194310000Y-76626348D01*
X193901753Y-76707553D01*
X193555658Y-76938806D01*
X193324405Y-77284901D01*
X193243200Y-77693148D01*
X192836800Y-77693148D01*
X192755595Y-77284901D01*
X192524342Y-76938806D01*
X192178247Y-76707553D01*
X191770000Y-76626348D01*
X191361753Y-76707553D01*
X191015658Y-76938806D01*
X190784405Y-77284901D01*
X190703200Y-77693148D01*
X189781042Y-77693148D01*
X189726741Y-77561730D01*
X189141352Y-76975318D01*
X188376112Y-76657563D01*
X187547523Y-76656840D01*
X186781730Y-76973259D01*
X186195318Y-77558648D01*
X185877563Y-78323888D01*
X185876840Y-79152477D01*
X185216800Y-79152477D01*
X185216800Y-78201148D01*
X185135595Y-77792901D01*
X184904342Y-77446806D01*
X184558247Y-77215553D01*
X184150000Y-77134348D01*
X183741753Y-77215553D01*
X183395658Y-77446806D01*
X183164405Y-77792901D01*
X183083200Y-78201148D01*
X182676800Y-78201148D01*
X182595595Y-77792901D01*
X182364342Y-77446806D01*
X182018247Y-77215553D01*
X181610000Y-77134348D01*
X181201753Y-77215553D01*
X180855658Y-77446806D01*
X180624405Y-77792901D01*
X180543200Y-78201148D01*
X180136800Y-78201148D01*
X180055595Y-77792901D01*
X179824342Y-77446806D01*
X179478247Y-77215553D01*
X179070000Y-77134348D01*
X178661753Y-77215553D01*
X178315658Y-77446806D01*
X178084405Y-77792901D01*
X178003200Y-78201148D01*
X177596800Y-78201148D01*
X177515595Y-77792901D01*
X177284342Y-77446806D01*
X176938247Y-77215553D01*
X176530000Y-77134348D01*
X176121753Y-77215553D01*
X175775658Y-77446806D01*
X175544405Y-77792901D01*
X175463200Y-78201148D01*
X175056800Y-78201148D01*
X174975595Y-77792901D01*
X174744342Y-77446806D01*
X174398247Y-77215553D01*
X173990000Y-77134348D01*
X173581753Y-77215553D01*
X173235658Y-77446806D01*
X173004405Y-77792901D01*
X172923200Y-78201148D01*
X172516800Y-78201148D01*
X172435595Y-77792901D01*
X172204342Y-77446806D01*
X171858247Y-77215553D01*
X171450000Y-77134348D01*
X171041753Y-77215553D01*
X170695658Y-77446806D01*
X170464405Y-77792901D01*
X170383200Y-78201148D01*
X169976800Y-78201148D01*
X169895595Y-77792901D01*
X169664342Y-77446806D01*
X169318247Y-77215553D01*
X168910000Y-77134348D01*
X168501753Y-77215553D01*
X168155658Y-77446806D01*
X167924405Y-77792901D01*
X167843200Y-78201148D01*
X167436800Y-78201148D01*
X167355595Y-77792901D01*
X167124342Y-77446806D01*
X166778247Y-77215553D01*
X166370000Y-77134348D01*
X165961753Y-77215553D01*
X165615658Y-77446806D01*
X165384405Y-77792901D01*
X165303200Y-78201148D01*
X162356800Y-78201148D01*
X162275595Y-77792901D01*
X162044342Y-77446806D01*
X161698247Y-77215553D01*
X161290000Y-77134348D01*
X160881753Y-77215553D01*
X160535658Y-77446806D01*
X160304405Y-77792901D01*
X160223200Y-78201148D01*
X160223200Y-79278852D01*
X160304405Y-79687099D01*
X160535658Y-80033194D01*
X160741228Y-80170552D01*
X157396980Y-83514800D01*
X105276271Y-83514800D01*
X105276271Y-83185000D01*
X156413200Y-83185000D01*
X156607603Y-83146331D01*
X156772410Y-83036210D01*
X159109210Y-80699410D01*
X159219331Y-80534604D01*
X159233286Y-80464444D01*
X159258000Y-80340200D01*
X159258000Y-80197794D01*
X159504342Y-80033194D01*
X159735595Y-79687099D01*
X159816800Y-79278852D01*
X159816800Y-78201148D01*
X159735595Y-77792901D01*
X159504342Y-77446806D01*
X159158247Y-77215553D01*
X158750000Y-77134348D01*
X158341753Y-77215553D01*
X157995658Y-77446806D01*
X157764405Y-77792901D01*
X157683200Y-78201148D01*
X157683200Y-79278852D01*
X157764405Y-79687099D01*
X157995658Y-80033194D01*
X158201228Y-80170552D01*
X156202780Y-82169000D01*
X105276271Y-82169000D01*
X105276271Y-81788000D01*
X105252615Y-81669073D01*
X105185248Y-81568252D01*
X105084427Y-81500885D01*
X104965500Y-81477229D01*
X100774500Y-81477229D01*
X100655573Y-81500885D01*
X100554752Y-81568252D01*
X100487385Y-81669073D01*
X100463729Y-81788000D01*
X100463729Y-83543676D01*
X100414497Y-83553469D01*
X100249690Y-83663589D01*
X100085090Y-83828190D01*
X99974969Y-83992997D01*
X99936300Y-84187400D01*
X93764100Y-84187400D01*
X93764100Y-80930371D01*
X98552000Y-80930371D01*
X98670927Y-80906715D01*
X98771748Y-80839348D01*
X98818343Y-80769614D01*
X98843948Y-80831581D01*
X99125934Y-81114061D01*
X99494556Y-81267126D01*
X99893693Y-81267474D01*
X100262581Y-81115052D01*
X100545061Y-80833066D01*
X100698126Y-80464444D01*
X100698474Y-80065307D01*
X100546052Y-79696419D01*
X100264066Y-79413939D01*
X99895444Y-79260874D01*
X99496307Y-79260526D01*
X99127419Y-79412948D01*
X98862771Y-79677133D01*
X98862771Y-79152477D01*
X110946840Y-79152477D01*
X111263259Y-79918270D01*
X111848648Y-80504682D01*
X112613888Y-80822437D01*
X113442477Y-80823160D01*
X114208270Y-80506741D01*
X114794682Y-79921352D01*
X115112437Y-79156112D01*
X115113160Y-78327523D01*
X115060943Y-78201148D01*
X115519200Y-78201148D01*
X115519200Y-79278852D01*
X115600405Y-79687099D01*
X115831658Y-80033194D01*
X116177753Y-80264447D01*
X116586000Y-80345652D01*
X116994247Y-80264447D01*
X117340342Y-80033194D01*
X117571595Y-79687099D01*
X117652800Y-79278852D01*
X117652800Y-78201148D01*
X118059200Y-78201148D01*
X118059200Y-79278852D01*
X118140405Y-79687099D01*
X118371658Y-80033194D01*
X118717753Y-80264447D01*
X119126000Y-80345652D01*
X119534247Y-80264447D01*
X119880342Y-80033194D01*
X120111595Y-79687099D01*
X120192800Y-79278852D01*
X120192800Y-78201148D01*
X120599200Y-78201148D01*
X120599200Y-79278852D01*
X120680405Y-79687099D01*
X120911658Y-80033194D01*
X121257753Y-80264447D01*
X121666000Y-80345652D01*
X122074247Y-80264447D01*
X122420342Y-80033194D01*
X122651595Y-79687099D01*
X122732800Y-79278852D01*
X122732800Y-78201148D01*
X123139200Y-78201148D01*
X123139200Y-79278852D01*
X123220405Y-79687099D01*
X123451658Y-80033194D01*
X123797753Y-80264447D01*
X124206000Y-80345652D01*
X124614247Y-80264447D01*
X124960342Y-80033194D01*
X125191595Y-79687099D01*
X125272800Y-79278852D01*
X125272800Y-78201148D01*
X125679200Y-78201148D01*
X125679200Y-79278852D01*
X125760405Y-79687099D01*
X125991658Y-80033194D01*
X126337753Y-80264447D01*
X126746000Y-80345652D01*
X127154247Y-80264447D01*
X127500342Y-80033194D01*
X127731595Y-79687099D01*
X127812800Y-79278852D01*
X127812800Y-78201148D01*
X128219200Y-78201148D01*
X128219200Y-79278852D01*
X128300405Y-79687099D01*
X128531658Y-80033194D01*
X128877753Y-80264447D01*
X129286000Y-80345652D01*
X129694247Y-80264447D01*
X130040342Y-80033194D01*
X130271595Y-79687099D01*
X130352800Y-79278852D01*
X130352800Y-78201148D01*
X130759200Y-78201148D01*
X130759200Y-79278852D01*
X130840405Y-79687099D01*
X131071658Y-80033194D01*
X131417753Y-80264447D01*
X131826000Y-80345652D01*
X132234247Y-80264447D01*
X132580342Y-80033194D01*
X132811595Y-79687099D01*
X132892800Y-79278852D01*
X132892800Y-78201148D01*
X133299200Y-78201148D01*
X133299200Y-79278852D01*
X133380405Y-79687099D01*
X133611658Y-80033194D01*
X133957753Y-80264447D01*
X134366000Y-80345652D01*
X134774247Y-80264447D01*
X135120342Y-80033194D01*
X135351595Y-79687099D01*
X135432800Y-79278852D01*
X135432800Y-78201148D01*
X135839200Y-78201148D01*
X135839200Y-79278852D01*
X135920405Y-79687099D01*
X136151658Y-80033194D01*
X136497753Y-80264447D01*
X136906000Y-80345652D01*
X137314247Y-80264447D01*
X137660342Y-80033194D01*
X137891595Y-79687099D01*
X137972800Y-79278852D01*
X137972800Y-78201148D01*
X138379200Y-78201148D01*
X138379200Y-79278852D01*
X138460405Y-79687099D01*
X138691658Y-80033194D01*
X139037753Y-80264447D01*
X139446000Y-80345652D01*
X139854247Y-80264447D01*
X140200342Y-80033194D01*
X140431595Y-79687099D01*
X140512800Y-79278852D01*
X140512800Y-78201148D01*
X142443200Y-78201148D01*
X142443200Y-79278852D01*
X142524405Y-79687099D01*
X142755658Y-80033194D01*
X143101753Y-80264447D01*
X143510000Y-80345652D01*
X143918247Y-80264447D01*
X144264342Y-80033194D01*
X144495595Y-79687099D01*
X144576800Y-79278852D01*
X144576800Y-78201148D01*
X144983200Y-78201148D01*
X144983200Y-79278852D01*
X145064405Y-79687099D01*
X145295658Y-80033194D01*
X145641753Y-80264447D01*
X146050000Y-80345652D01*
X146458247Y-80264447D01*
X146804342Y-80033194D01*
X147035595Y-79687099D01*
X147116800Y-79278852D01*
X147116800Y-78201148D01*
X147523200Y-78201148D01*
X147523200Y-79278852D01*
X147604405Y-79687099D01*
X147835658Y-80033194D01*
X148181753Y-80264447D01*
X148590000Y-80345652D01*
X148998247Y-80264447D01*
X149344342Y-80033194D01*
X149575595Y-79687099D01*
X149656800Y-79278852D01*
X149656800Y-78201148D01*
X150063200Y-78201148D01*
X150063200Y-79278852D01*
X150144405Y-79687099D01*
X150375658Y-80033194D01*
X150721753Y-80264447D01*
X151130000Y-80345652D01*
X151538247Y-80264447D01*
X151884342Y-80033194D01*
X152115595Y-79687099D01*
X152196800Y-79278852D01*
X152196800Y-78201148D01*
X152603200Y-78201148D01*
X152603200Y-79278852D01*
X152684405Y-79687099D01*
X152915658Y-80033194D01*
X153261753Y-80264447D01*
X153670000Y-80345652D01*
X154078247Y-80264447D01*
X154424342Y-80033194D01*
X154655595Y-79687099D01*
X154736800Y-79278852D01*
X154736800Y-78201148D01*
X155143200Y-78201148D01*
X155143200Y-79278852D01*
X155224405Y-79687099D01*
X155455658Y-80033194D01*
X155801753Y-80264447D01*
X156210000Y-80345652D01*
X156618247Y-80264447D01*
X156964342Y-80033194D01*
X157195595Y-79687099D01*
X157276800Y-79278852D01*
X157276800Y-78201148D01*
X157195595Y-77792901D01*
X156964342Y-77446806D01*
X156618247Y-77215553D01*
X156210000Y-77134348D01*
X155801753Y-77215553D01*
X155455658Y-77446806D01*
X155224405Y-77792901D01*
X155143200Y-78201148D01*
X154736800Y-78201148D01*
X154655595Y-77792901D01*
X154424342Y-77446806D01*
X154078247Y-77215553D01*
X153670000Y-77134348D01*
X153261753Y-77215553D01*
X152915658Y-77446806D01*
X152684405Y-77792901D01*
X152603200Y-78201148D01*
X152196800Y-78201148D01*
X152115595Y-77792901D01*
X151884342Y-77446806D01*
X151538247Y-77215553D01*
X151130000Y-77134348D01*
X150721753Y-77215553D01*
X150375658Y-77446806D01*
X150144405Y-77792901D01*
X150063200Y-78201148D01*
X149656800Y-78201148D01*
X149575595Y-77792901D01*
X149344342Y-77446806D01*
X148998247Y-77215553D01*
X148590000Y-77134348D01*
X148181753Y-77215553D01*
X147835658Y-77446806D01*
X147604405Y-77792901D01*
X147523200Y-78201148D01*
X147116800Y-78201148D01*
X147035595Y-77792901D01*
X146804342Y-77446806D01*
X146458247Y-77215553D01*
X146050000Y-77134348D01*
X145641753Y-77215553D01*
X145295658Y-77446806D01*
X145064405Y-77792901D01*
X144983200Y-78201148D01*
X144576800Y-78201148D01*
X144495595Y-77792901D01*
X144264342Y-77446806D01*
X143918247Y-77215553D01*
X143510000Y-77134348D01*
X143101753Y-77215553D01*
X142755658Y-77446806D01*
X142524405Y-77792901D01*
X142443200Y-78201148D01*
X140512800Y-78201148D01*
X140431595Y-77792901D01*
X140200342Y-77446806D01*
X139854247Y-77215553D01*
X139446000Y-77134348D01*
X139037753Y-77215553D01*
X138691658Y-77446806D01*
X138460405Y-77792901D01*
X138379200Y-78201148D01*
X137972800Y-78201148D01*
X137891595Y-77792901D01*
X137660342Y-77446806D01*
X137314247Y-77215553D01*
X136906000Y-77134348D01*
X136497753Y-77215553D01*
X136151658Y-77446806D01*
X135920405Y-77792901D01*
X135839200Y-78201148D01*
X135432800Y-78201148D01*
X135351595Y-77792901D01*
X135120342Y-77446806D01*
X134774247Y-77215553D01*
X134366000Y-77134348D01*
X133957753Y-77215553D01*
X133611658Y-77446806D01*
X133380405Y-77792901D01*
X133299200Y-78201148D01*
X132892800Y-78201148D01*
X132811595Y-77792901D01*
X132580342Y-77446806D01*
X132234247Y-77215553D01*
X131826000Y-77134348D01*
X131417753Y-77215553D01*
X131071658Y-77446806D01*
X130840405Y-77792901D01*
X130759200Y-78201148D01*
X130352800Y-78201148D01*
X130271595Y-77792901D01*
X130040342Y-77446806D01*
X129694247Y-77215553D01*
X129286000Y-77134348D01*
X128877753Y-77215553D01*
X128531658Y-77446806D01*
X128300405Y-77792901D01*
X128219200Y-78201148D01*
X127812800Y-78201148D01*
X127731595Y-77792901D01*
X127500342Y-77446806D01*
X127154247Y-77215553D01*
X126746000Y-77134348D01*
X126337753Y-77215553D01*
X125991658Y-77446806D01*
X125760405Y-77792901D01*
X125679200Y-78201148D01*
X125272800Y-78201148D01*
X125191595Y-77792901D01*
X124960342Y-77446806D01*
X124614247Y-77215553D01*
X124206000Y-77134348D01*
X123797753Y-77215553D01*
X123451658Y-77446806D01*
X123220405Y-77792901D01*
X123139200Y-78201148D01*
X122732800Y-78201148D01*
X122651595Y-77792901D01*
X122420342Y-77446806D01*
X122074247Y-77215553D01*
X121666000Y-77134348D01*
X121257753Y-77215553D01*
X120911658Y-77446806D01*
X120680405Y-77792901D01*
X120599200Y-78201148D01*
X120192800Y-78201148D01*
X120111595Y-77792901D01*
X119880342Y-77446806D01*
X119534247Y-77215553D01*
X119126000Y-77134348D01*
X118717753Y-77215553D01*
X118371658Y-77446806D01*
X118140405Y-77792901D01*
X118059200Y-78201148D01*
X117652800Y-78201148D01*
X117571595Y-77792901D01*
X117340342Y-77446806D01*
X116994247Y-77215553D01*
X116586000Y-77134348D01*
X116177753Y-77215553D01*
X115831658Y-77446806D01*
X115600405Y-77792901D01*
X115519200Y-78201148D01*
X115060943Y-78201148D01*
X114796741Y-77561730D01*
X114211352Y-76975318D01*
X113446112Y-76657563D01*
X112617523Y-76656840D01*
X111851730Y-76973259D01*
X111265318Y-77558648D01*
X110947563Y-78323888D01*
X110946840Y-79152477D01*
X98862771Y-79152477D01*
X98862771Y-77825600D01*
X98839115Y-77706673D01*
X98771748Y-77605852D01*
X98670927Y-77538485D01*
X98552000Y-77514829D01*
X93764100Y-77514829D01*
X93764100Y-75730100D01*
X211035900Y-75730100D01*
X211035900Y-77387829D01*
M02*
